ISO-10303-21;
HEADER;
/* Generated by software containing ST-Developer
 * from STEP Tools, Inc. (www.steptools.com) 
 */

FILE_DESCRIPTION(
/* description */ (''),
/* implementation_level */ '2;1');

FILE_NAME(
/* name */ 'TA_adapter.step',
/* time_stamp */ '2025-12-11T14:38:20-08:00',
/* author */ (''),
/* organization */ (''),
/* preprocessor_version */ 'ST-DEVELOPER v20.1',
/* originating_system */ 'Autodesk Translation Framework v14.21.0.0',
/* authorisation */ '');

FILE_SCHEMA (('AUTOMOTIVE_DESIGN { 1 0 10303 214 3 1 1 }'));
ENDSEC;

DATA;
#10=MECHANICAL_DESIGN_GEOMETRIC_PRESENTATION_REPRESENTATION('',(#13),#1167);
#11=SHAPE_REPRESENTATION_RELATIONSHIP('SRR','None',#1174,#12);
#12=ADVANCED_BREP_SHAPE_REPRESENTATION('',(#14),#1166);
#13=STYLED_ITEM('',(#1184),#14);
#14=MANIFOLD_SOLID_BREP('Body1',#675);
#15=FACE_BOUND('',#109,.T.);
#16=FACE_BOUND('',#112,.T.);
#17=FACE_BOUND('',#115,.T.);
#18=FACE_BOUND('',#118,.T.);
#19=FACE_BOUND('',#120,.T.);
#20=FACE_BOUND('',#122,.T.);
#21=FACE_BOUND('',#124,.T.);
#22=FACE_BOUND('',#125,.T.);
#23=FACE_BOUND('',#126,.T.);
#24=FACE_BOUND('',#127,.T.);
#25=FACE_BOUND('',#128,.T.);
#26=FACE_BOUND('',#129,.T.);
#27=FACE_BOUND('',#130,.T.);
#28=FACE_BOUND('',#131,.T.);
#29=FACE_BOUND('',#132,.T.);
#30=FACE_BOUND('',#133,.T.);
#31=FACE_BOUND('',#134,.T.);
#32=FACE_BOUND('',#135,.T.);
#33=FACE_BOUND('',#136,.T.);
#34=FACE_BOUND('',#137,.T.);
#35=FACE_BOUND('',#138,.T.);
#36=FACE_BOUND('',#139,.T.);
#37=FACE_BOUND('',#143,.T.);
#38=FACE_BOUND('',#147,.T.);
#39=FACE_BOUND('',#158,.T.);
#40=FACE_BOUND('',#159,.T.);
#41=FACE_BOUND('',#160,.T.);
#42=FACE_BOUND('',#161,.T.);
#43=FACE_BOUND('',#162,.T.);
#44=FACE_BOUND('',#163,.T.);
#45=FACE_BOUND('',#164,.T.);
#46=FACE_BOUND('',#165,.T.);
#47=FACE_BOUND('',#166,.T.);
#48=FACE_BOUND('',#167,.T.);
#49=FACE_BOUND('',#168,.T.);
#50=FACE_BOUND('',#169,.T.);
#51=FACE_BOUND('',#170,.T.);
#52=FACE_BOUND('',#171,.T.);
#53=FACE_BOUND('',#172,.T.);
#54=FACE_BOUND('',#173,.T.);
#55=PLANE('',#692);
#56=PLANE('',#697);
#57=PLANE('',#702);
#58=PLANE('',#707);
#59=PLANE('',#709);
#60=PLANE('',#712);
#61=PLANE('',#715);
#62=PLANE('',#734);
#63=PLANE('',#739);
#64=PLANE('',#758);
#65=PLANE('',#759);
#66=PLANE('',#764);
#67=PLANE('',#766);
#68=PLANE('',#774);
#69=FACE_OUTER_BOUND('',#107,.T.);
#70=FACE_OUTER_BOUND('',#108,.T.);
#71=FACE_OUTER_BOUND('',#110,.T.);
#72=FACE_OUTER_BOUND('',#111,.T.);
#73=FACE_OUTER_BOUND('',#113,.T.);
#74=FACE_OUTER_BOUND('',#114,.T.);
#75=FACE_OUTER_BOUND('',#116,.T.);
#76=FACE_OUTER_BOUND('',#117,.T.);
#77=FACE_OUTER_BOUND('',#119,.T.);
#78=FACE_OUTER_BOUND('',#121,.T.);
#79=FACE_OUTER_BOUND('',#123,.T.);
#80=FACE_OUTER_BOUND('',#140,.T.);
#81=FACE_OUTER_BOUND('',#141,.T.);
#82=FACE_OUTER_BOUND('',#142,.T.);
#83=FACE_OUTER_BOUND('',#144,.T.);
#84=FACE_OUTER_BOUND('',#145,.T.);
#85=FACE_OUTER_BOUND('',#146,.T.);
#86=FACE_OUTER_BOUND('',#148,.T.);
#87=FACE_OUTER_BOUND('',#149,.T.);
#88=FACE_OUTER_BOUND('',#150,.T.);
#89=FACE_OUTER_BOUND('',#151,.T.);
#90=FACE_OUTER_BOUND('',#152,.T.);
#91=FACE_OUTER_BOUND('',#153,.T.);
#92=FACE_OUTER_BOUND('',#154,.T.);
#93=FACE_OUTER_BOUND('',#155,.T.);
#94=FACE_OUTER_BOUND('',#156,.T.);
#95=FACE_OUTER_BOUND('',#157,.T.);
#96=FACE_OUTER_BOUND('',#174,.T.);
#97=FACE_OUTER_BOUND('',#175,.T.);
#98=FACE_OUTER_BOUND('',#176,.T.);
#99=FACE_OUTER_BOUND('',#177,.T.);
#100=FACE_OUTER_BOUND('',#178,.T.);
#101=FACE_OUTER_BOUND('',#179,.T.);
#102=FACE_OUTER_BOUND('',#180,.T.);
#103=FACE_OUTER_BOUND('',#181,.T.);
#104=FACE_OUTER_BOUND('',#182,.T.);
#105=FACE_OUTER_BOUND('',#183,.T.);
#106=FACE_OUTER_BOUND('',#184,.T.);
#107=EDGE_LOOP('',(#445,#446,#447,#448));
#108=EDGE_LOOP('',(#449));
#109=EDGE_LOOP('',(#450));
#110=EDGE_LOOP('',(#451,#452,#453,#454));
#111=EDGE_LOOP('',(#455));
#112=EDGE_LOOP('',(#456));
#113=EDGE_LOOP('',(#457,#458,#459,#460));
#114=EDGE_LOOP('',(#461));
#115=EDGE_LOOP('',(#462));
#116=EDGE_LOOP('',(#463,#464,#465,#466));
#117=EDGE_LOOP('',(#467));
#118=EDGE_LOOP('',(#468));
#119=EDGE_LOOP('',(#469));
#120=EDGE_LOOP('',(#470));
#121=EDGE_LOOP('',(#471));
#122=EDGE_LOOP('',(#472));
#123=EDGE_LOOP('',(#473,#474,#475,#476));
#124=EDGE_LOOP('',(#477));
#125=EDGE_LOOP('',(#478));
#126=EDGE_LOOP('',(#479));
#127=EDGE_LOOP('',(#480));
#128=EDGE_LOOP('',(#481));
#129=EDGE_LOOP('',(#482));
#130=EDGE_LOOP('',(#483));
#131=EDGE_LOOP('',(#484));
#132=EDGE_LOOP('',(#485));
#133=EDGE_LOOP('',(#486));
#134=EDGE_LOOP('',(#487));
#135=EDGE_LOOP('',(#488));
#136=EDGE_LOOP('',(#489));
#137=EDGE_LOOP('',(#490));
#138=EDGE_LOOP('',(#491));
#139=EDGE_LOOP('',(#492));
#140=EDGE_LOOP('',(#493,#494,#495,#496));
#141=EDGE_LOOP('',(#497,#498,#499,#500));
#142=EDGE_LOOP('',(#501));
#143=EDGE_LOOP('',(#502));
#144=EDGE_LOOP('',(#503,#504,#505,#506));
#145=EDGE_LOOP('',(#507,#508,#509,#510));
#146=EDGE_LOOP('',(#511));
#147=EDGE_LOOP('',(#512));
#148=EDGE_LOOP('',(#513,#514,#515,#516));
#149=EDGE_LOOP('',(#517,#518,#519,#520));
#150=EDGE_LOOP('',(#521,#522,#523,#524));
#151=EDGE_LOOP('',(#525,#526,#527,#528));
#152=EDGE_LOOP('',(#529,#530,#531,#532));
#153=EDGE_LOOP('',(#533,#534,#535,#536));
#154=EDGE_LOOP('',(#537,#538,#539,#540));
#155=EDGE_LOOP('',(#541,#542,#543,#544));
#156=EDGE_LOOP('',(#545,#546,#547,#548));
#157=EDGE_LOOP('',(#549,#550,#551,#552));
#158=EDGE_LOOP('',(#553));
#159=EDGE_LOOP('',(#554));
#160=EDGE_LOOP('',(#555));
#161=EDGE_LOOP('',(#556));
#162=EDGE_LOOP('',(#557));
#163=EDGE_LOOP('',(#558));
#164=EDGE_LOOP('',(#559));
#165=EDGE_LOOP('',(#560));
#166=EDGE_LOOP('',(#561));
#167=EDGE_LOOP('',(#562));
#168=EDGE_LOOP('',(#563));
#169=EDGE_LOOP('',(#564));
#170=EDGE_LOOP('',(#565));
#171=EDGE_LOOP('',(#566));
#172=EDGE_LOOP('',(#567));
#173=EDGE_LOOP('',(#568));
#174=EDGE_LOOP('',(#569,#570,#571,#572));
#175=EDGE_LOOP('',(#573,#574,#575,#576));
#176=EDGE_LOOP('',(#577,#578,#579,#580));
#177=EDGE_LOOP('',(#581,#582,#583,#584));
#178=EDGE_LOOP('',(#585,#586,#587,#588));
#179=EDGE_LOOP('',(#589,#590,#591,#592));
#180=EDGE_LOOP('',(#593,#594,#595,#596));
#181=EDGE_LOOP('',(#597,#598,#599,#600));
#182=EDGE_LOOP('',(#601,#602,#603,#604));
#183=EDGE_LOOP('',(#605,#606,#607,#608));
#184=EDGE_LOOP('',(#609,#610,#611,#612));
#185=LINE('',#990,#221);
#186=LINE('',#999,#222);
#187=LINE('',#1008,#223);
#188=LINE('',#1017,#224);
#189=LINE('',#1035,#225);
#190=LINE('',#1037,#226);
#191=LINE('',#1039,#227);
#192=LINE('',#1040,#228);
#193=LINE('',#1074,#229);
#194=LINE('',#1076,#230);
#195=LINE('',#1083,#231);
#196=LINE('',#1085,#232);
#197=LINE('',#1094,#233);
#198=LINE('',#1098,#234);
#199=LINE('',#1102,#235);
#200=LINE('',#1106,#236);
#201=LINE('',#1110,#237);
#202=LINE('',#1114,#238);
#203=LINE('',#1118,#239);
#204=LINE('',#1122,#240);
#205=LINE('',#1125,#241);
#206=LINE('',#1127,#242);
#207=LINE('',#1128,#243);
#208=LINE('',#1131,#244);
#209=LINE('',#1133,#245);
#210=LINE('',#1134,#246);
#211=LINE('',#1144,#247);
#212=LINE('',#1145,#248);
#213=LINE('',#1147,#249);
#214=LINE('',#1150,#250);
#215=LINE('',#1152,#251);
#216=LINE('',#1154,#252);
#217=LINE('',#1156,#253);
#218=LINE('',#1158,#254);
#219=LINE('',#1160,#255);
#220=LINE('',#1162,#256);
#221=VECTOR('',#781,4.);
#222=VECTOR('',#792,4.);
#223=VECTOR('',#803,4.);
#224=VECTOR('',#814,4.);
#225=VECTOR('',#835,10.);
#226=VECTOR('',#836,10.);
#227=VECTOR('',#837,10.);
#228=VECTOR('',#838,10.);
#229=VECTOR('',#873,2.25);
#230=VECTOR('',#876,4.);
#231=VECTOR('',#885,2.25000000000001);
#232=VECTOR('',#888,4.);
#233=VECTOR('',#899,1.25);
#234=VECTOR('',#904,1.25);
#235=VECTOR('',#909,1.25);
#236=VECTOR('',#914,1.25);
#237=VECTOR('',#919,1.03775);
#238=VECTOR('',#924,1.03775);
#239=VECTOR('',#929,1.03775);
#240=VECTOR('',#934,1.03775);
#241=VECTOR('',#937,10.);
#242=VECTOR('',#938,10.);
#243=VECTOR('',#939,10.);
#244=VECTOR('',#942,10.);
#245=VECTOR('',#943,10.);
#246=VECTOR('',#944,10.);
#247=VECTOR('',#955,10.);
#248=VECTOR('',#956,10.);
#249=VECTOR('',#959,1.55);
#250=VECTOR('',#964,4.);
#251=VECTOR('',#967,4.);
#252=VECTOR('',#970,1.55);
#253=VECTOR('',#973,1.55);
#254=VECTOR('',#976,1.55);
#255=VECTOR('',#979,2.25);
#256=VECTOR('',#982,2.25);
#257=CIRCLE('',#690,4.);
#258=CIRCLE('',#691,4.);
#259=CIRCLE('',#693,2.25);
#260=CIRCLE('',#695,4.);
#261=CIRCLE('',#696,4.);
#262=CIRCLE('',#698,2.25);
#263=CIRCLE('',#700,4.);
#264=CIRCLE('',#701,4.);
#265=CIRCLE('',#703,2.25000000000001);
#266=CIRCLE('',#705,4.);
#267=CIRCLE('',#706,4.);
#268=CIRCLE('',#708,2.25);
#269=CIRCLE('',#710,4.);
#270=CIRCLE('',#711,1.55);
#271=CIRCLE('',#713,4.);
#272=CIRCLE('',#714,1.55);
#273=CIRCLE('',#716,2.25);
#274=CIRCLE('',#717,2.25);
#275=CIRCLE('',#718,4.);
#276=CIRCLE('',#719,4.);
#277=CIRCLE('',#720,4.);
#278=CIRCLE('',#721,2.25000000000001);
#279=CIRCLE('',#722,2.25);
#280=CIRCLE('',#723,4.);
#281=CIRCLE('',#724,1.03775);
#282=CIRCLE('',#725,1.03775);
#283=CIRCLE('',#726,1.03775);
#284=CIRCLE('',#727,1.03775);
#285=CIRCLE('',#728,1.25);
#286=CIRCLE('',#729,1.25);
#287=CIRCLE('',#730,1.25);
#288=CIRCLE('',#731,1.25);
#289=CIRCLE('',#735,4.);
#290=CIRCLE('',#736,1.55);
#291=CIRCLE('',#740,4.);
#292=CIRCLE('',#741,1.55);
#293=CIRCLE('',#743,1.25);
#294=CIRCLE('',#745,1.25);
#295=CIRCLE('',#747,1.25);
#296=CIRCLE('',#749,1.25);
#297=CIRCLE('',#751,1.03775);
#298=CIRCLE('',#753,1.03775);
#299=CIRCLE('',#755,1.03775);
#300=CIRCLE('',#757,1.03775);
#301=CIRCLE('',#760,1.55);
#302=CIRCLE('',#761,1.55);
#303=CIRCLE('',#762,1.55);
#304=CIRCLE('',#763,1.55);
#305=VERTEX_POINT('',#987);
#306=VERTEX_POINT('',#989);
#307=VERTEX_POINT('',#993);
#308=VERTEX_POINT('',#996);
#309=VERTEX_POINT('',#998);
#310=VERTEX_POINT('',#1002);
#311=VERTEX_POINT('',#1005);
#312=VERTEX_POINT('',#1007);
#313=VERTEX_POINT('',#1011);
#314=VERTEX_POINT('',#1014);
#315=VERTEX_POINT('',#1016);
#316=VERTEX_POINT('',#1020);
#317=VERTEX_POINT('',#1023);
#318=VERTEX_POINT('',#1025);
#319=VERTEX_POINT('',#1028);
#320=VERTEX_POINT('',#1030);
#321=VERTEX_POINT('',#1033);
#322=VERTEX_POINT('',#1034);
#323=VERTEX_POINT('',#1036);
#324=VERTEX_POINT('',#1038);
#325=VERTEX_POINT('',#1041);
#326=VERTEX_POINT('',#1043);
#327=VERTEX_POINT('',#1045);
#328=VERTEX_POINT('',#1047);
#329=VERTEX_POINT('',#1049);
#330=VERTEX_POINT('',#1051);
#331=VERTEX_POINT('',#1053);
#332=VERTEX_POINT('',#1055);
#333=VERTEX_POINT('',#1057);
#334=VERTEX_POINT('',#1059);
#335=VERTEX_POINT('',#1061);
#336=VERTEX_POINT('',#1063);
#337=VERTEX_POINT('',#1065);
#338=VERTEX_POINT('',#1067);
#339=VERTEX_POINT('',#1069);
#340=VERTEX_POINT('',#1071);
#341=VERTEX_POINT('',#1078);
#342=VERTEX_POINT('',#1080);
#343=VERTEX_POINT('',#1087);
#344=VERTEX_POINT('',#1089);
#345=VERTEX_POINT('',#1092);
#346=VERTEX_POINT('',#1096);
#347=VERTEX_POINT('',#1100);
#348=VERTEX_POINT('',#1104);
#349=VERTEX_POINT('',#1108);
#350=VERTEX_POINT('',#1112);
#351=VERTEX_POINT('',#1116);
#352=VERTEX_POINT('',#1120);
#353=VERTEX_POINT('',#1124);
#354=VERTEX_POINT('',#1126);
#355=VERTEX_POINT('',#1130);
#356=VERTEX_POINT('',#1132);
#357=VERTEX_POINT('',#1135);
#358=VERTEX_POINT('',#1137);
#359=VERTEX_POINT('',#1139);
#360=VERTEX_POINT('',#1141);
#361=EDGE_CURVE('',#305,#305,#257,.T.);
#362=EDGE_CURVE('',#305,#306,#185,.T.);
#363=EDGE_CURVE('',#306,#306,#258,.T.);
#364=EDGE_CURVE('',#307,#307,#259,.T.);
#365=EDGE_CURVE('',#308,#308,#260,.T.);
#366=EDGE_CURVE('',#308,#309,#186,.T.);
#367=EDGE_CURVE('',#309,#309,#261,.T.);
#368=EDGE_CURVE('',#310,#310,#262,.T.);
#369=EDGE_CURVE('',#311,#311,#263,.T.);
#370=EDGE_CURVE('',#311,#312,#187,.T.);
#371=EDGE_CURVE('',#312,#312,#264,.T.);
#372=EDGE_CURVE('',#313,#313,#265,.T.);
#373=EDGE_CURVE('',#314,#314,#266,.T.);
#374=EDGE_CURVE('',#314,#315,#188,.T.);
#375=EDGE_CURVE('',#315,#315,#267,.T.);
#376=EDGE_CURVE('',#316,#316,#268,.T.);
#377=EDGE_CURVE('',#317,#317,#269,.T.);
#378=EDGE_CURVE('',#318,#318,#270,.T.);
#379=EDGE_CURVE('',#319,#319,#271,.T.);
#380=EDGE_CURVE('',#320,#320,#272,.T.);
#381=EDGE_CURVE('',#321,#322,#189,.F.);
#382=EDGE_CURVE('',#322,#323,#190,.F.);
#383=EDGE_CURVE('',#323,#324,#191,.F.);
#384=EDGE_CURVE('',#324,#321,#192,.T.);
#385=EDGE_CURVE('',#325,#325,#273,.F.);
#386=EDGE_CURVE('',#326,#326,#274,.F.);
#387=EDGE_CURVE('',#327,#327,#275,.T.);
#388=EDGE_CURVE('',#328,#328,#276,.T.);
#389=EDGE_CURVE('',#329,#329,#277,.T.);
#390=EDGE_CURVE('',#330,#330,#278,.F.);
#391=EDGE_CURVE('',#331,#331,#279,.F.);
#392=EDGE_CURVE('',#332,#332,#280,.T.);
#393=EDGE_CURVE('',#333,#333,#281,.T.);
#394=EDGE_CURVE('',#334,#334,#282,.T.);
#395=EDGE_CURVE('',#335,#335,#283,.T.);
#396=EDGE_CURVE('',#336,#336,#284,.T.);
#397=EDGE_CURVE('',#337,#337,#285,.T.);
#398=EDGE_CURVE('',#338,#338,#286,.T.);
#399=EDGE_CURVE('',#339,#339,#287,.T.);
#400=EDGE_CURVE('',#340,#340,#288,.T.);
#401=EDGE_CURVE('',#331,#307,#193,.T.);
#402=EDGE_CURVE('',#332,#319,#194,.T.);
#403=EDGE_CURVE('',#341,#341,#289,.T.);
#404=EDGE_CURVE('',#342,#342,#290,.T.);
#405=EDGE_CURVE('',#330,#313,#195,.T.);
#406=EDGE_CURVE('',#329,#341,#196,.T.);
#407=EDGE_CURVE('',#343,#343,#291,.T.);
#408=EDGE_CURVE('',#344,#344,#292,.T.);
#409=EDGE_CURVE('',#345,#345,#293,.T.);
#410=EDGE_CURVE('',#345,#340,#197,.T.);
#411=EDGE_CURVE('',#346,#346,#294,.T.);
#412=EDGE_CURVE('',#346,#339,#198,.T.);
#413=EDGE_CURVE('',#347,#347,#295,.T.);
#414=EDGE_CURVE('',#347,#338,#199,.T.);
#415=EDGE_CURVE('',#348,#348,#296,.T.);
#416=EDGE_CURVE('',#348,#337,#200,.T.);
#417=EDGE_CURVE('',#349,#349,#297,.T.);
#418=EDGE_CURVE('',#349,#336,#201,.T.);
#419=EDGE_CURVE('',#350,#350,#298,.T.);
#420=EDGE_CURVE('',#350,#335,#202,.T.);
#421=EDGE_CURVE('',#351,#351,#299,.T.);
#422=EDGE_CURVE('',#351,#334,#203,.T.);
#423=EDGE_CURVE('',#352,#352,#300,.T.);
#424=EDGE_CURVE('',#352,#333,#204,.T.);
#425=EDGE_CURVE('',#323,#353,#205,.T.);
#426=EDGE_CURVE('',#353,#354,#206,.T.);
#427=EDGE_CURVE('',#354,#324,#207,.F.);
#428=EDGE_CURVE('',#355,#353,#208,.T.);
#429=EDGE_CURVE('',#356,#355,#209,.T.);
#430=EDGE_CURVE('',#354,#356,#210,.T.);
#431=EDGE_CURVE('',#357,#357,#301,.T.);
#432=EDGE_CURVE('',#358,#358,#302,.T.);
#433=EDGE_CURVE('',#359,#359,#303,.T.);
#434=EDGE_CURVE('',#360,#360,#304,.T.);
#435=EDGE_CURVE('',#355,#322,#211,.T.);
#436=EDGE_CURVE('',#356,#321,#212,.T.);
#437=EDGE_CURVE('',#342,#360,#213,.T.);
#438=EDGE_CURVE('',#328,#317,#214,.T.);
#439=EDGE_CURVE('',#327,#343,#215,.T.);
#440=EDGE_CURVE('',#359,#318,#216,.T.);
#441=EDGE_CURVE('',#358,#320,#217,.T.);
#442=EDGE_CURVE('',#357,#344,#218,.T.);
#443=EDGE_CURVE('',#326,#310,#219,.T.);
#444=EDGE_CURVE('',#325,#316,#220,.T.);
#445=ORIENTED_EDGE('',*,*,#361,.F.);
#446=ORIENTED_EDGE('',*,*,#362,.T.);
#447=ORIENTED_EDGE('',*,*,#363,.T.);
#448=ORIENTED_EDGE('',*,*,#362,.F.);
#449=ORIENTED_EDGE('',*,*,#363,.F.);
#450=ORIENTED_EDGE('',*,*,#364,.F.);
#451=ORIENTED_EDGE('',*,*,#365,.F.);
#452=ORIENTED_EDGE('',*,*,#366,.T.);
#453=ORIENTED_EDGE('',*,*,#367,.T.);
#454=ORIENTED_EDGE('',*,*,#366,.F.);
#455=ORIENTED_EDGE('',*,*,#367,.F.);
#456=ORIENTED_EDGE('',*,*,#368,.F.);
#457=ORIENTED_EDGE('',*,*,#369,.F.);
#458=ORIENTED_EDGE('',*,*,#370,.T.);
#459=ORIENTED_EDGE('',*,*,#371,.T.);
#460=ORIENTED_EDGE('',*,*,#370,.F.);
#461=ORIENTED_EDGE('',*,*,#371,.F.);
#462=ORIENTED_EDGE('',*,*,#372,.F.);
#463=ORIENTED_EDGE('',*,*,#373,.F.);
#464=ORIENTED_EDGE('',*,*,#374,.T.);
#465=ORIENTED_EDGE('',*,*,#375,.T.);
#466=ORIENTED_EDGE('',*,*,#374,.F.);
#467=ORIENTED_EDGE('',*,*,#375,.F.);
#468=ORIENTED_EDGE('',*,*,#376,.F.);
#469=ORIENTED_EDGE('',*,*,#377,.F.);
#470=ORIENTED_EDGE('',*,*,#378,.T.);
#471=ORIENTED_EDGE('',*,*,#379,.F.);
#472=ORIENTED_EDGE('',*,*,#380,.T.);
#473=ORIENTED_EDGE('',*,*,#381,.T.);
#474=ORIENTED_EDGE('',*,*,#382,.T.);
#475=ORIENTED_EDGE('',*,*,#383,.T.);
#476=ORIENTED_EDGE('',*,*,#384,.T.);
#477=ORIENTED_EDGE('',*,*,#385,.F.);
#478=ORIENTED_EDGE('',*,*,#386,.F.);
#479=ORIENTED_EDGE('',*,*,#387,.T.);
#480=ORIENTED_EDGE('',*,*,#388,.T.);
#481=ORIENTED_EDGE('',*,*,#389,.T.);
#482=ORIENTED_EDGE('',*,*,#390,.F.);
#483=ORIENTED_EDGE('',*,*,#391,.F.);
#484=ORIENTED_EDGE('',*,*,#392,.T.);
#485=ORIENTED_EDGE('',*,*,#393,.T.);
#486=ORIENTED_EDGE('',*,*,#394,.T.);
#487=ORIENTED_EDGE('',*,*,#395,.T.);
#488=ORIENTED_EDGE('',*,*,#396,.T.);
#489=ORIENTED_EDGE('',*,*,#397,.T.);
#490=ORIENTED_EDGE('',*,*,#398,.T.);
#491=ORIENTED_EDGE('',*,*,#399,.T.);
#492=ORIENTED_EDGE('',*,*,#400,.T.);
#493=ORIENTED_EDGE('',*,*,#391,.T.);
#494=ORIENTED_EDGE('',*,*,#401,.T.);
#495=ORIENTED_EDGE('',*,*,#364,.T.);
#496=ORIENTED_EDGE('',*,*,#401,.F.);
#497=ORIENTED_EDGE('',*,*,#392,.F.);
#498=ORIENTED_EDGE('',*,*,#402,.T.);
#499=ORIENTED_EDGE('',*,*,#379,.T.);
#500=ORIENTED_EDGE('',*,*,#402,.F.);
#501=ORIENTED_EDGE('',*,*,#403,.F.);
#502=ORIENTED_EDGE('',*,*,#404,.T.);
#503=ORIENTED_EDGE('',*,*,#390,.T.);
#504=ORIENTED_EDGE('',*,*,#405,.T.);
#505=ORIENTED_EDGE('',*,*,#372,.T.);
#506=ORIENTED_EDGE('',*,*,#405,.F.);
#507=ORIENTED_EDGE('',*,*,#389,.F.);
#508=ORIENTED_EDGE('',*,*,#406,.T.);
#509=ORIENTED_EDGE('',*,*,#403,.T.);
#510=ORIENTED_EDGE('',*,*,#406,.F.);
#511=ORIENTED_EDGE('',*,*,#407,.F.);
#512=ORIENTED_EDGE('',*,*,#408,.T.);
#513=ORIENTED_EDGE('',*,*,#409,.F.);
#514=ORIENTED_EDGE('',*,*,#410,.T.);
#515=ORIENTED_EDGE('',*,*,#400,.F.);
#516=ORIENTED_EDGE('',*,*,#410,.F.);
#517=ORIENTED_EDGE('',*,*,#411,.F.);
#518=ORIENTED_EDGE('',*,*,#412,.T.);
#519=ORIENTED_EDGE('',*,*,#399,.F.);
#520=ORIENTED_EDGE('',*,*,#412,.F.);
#521=ORIENTED_EDGE('',*,*,#413,.F.);
#522=ORIENTED_EDGE('',*,*,#414,.T.);
#523=ORIENTED_EDGE('',*,*,#398,.F.);
#524=ORIENTED_EDGE('',*,*,#414,.F.);
#525=ORIENTED_EDGE('',*,*,#415,.F.);
#526=ORIENTED_EDGE('',*,*,#416,.T.);
#527=ORIENTED_EDGE('',*,*,#397,.F.);
#528=ORIENTED_EDGE('',*,*,#416,.F.);
#529=ORIENTED_EDGE('',*,*,#417,.F.);
#530=ORIENTED_EDGE('',*,*,#418,.T.);
#531=ORIENTED_EDGE('',*,*,#396,.F.);
#532=ORIENTED_EDGE('',*,*,#418,.F.);
#533=ORIENTED_EDGE('',*,*,#419,.F.);
#534=ORIENTED_EDGE('',*,*,#420,.T.);
#535=ORIENTED_EDGE('',*,*,#395,.F.);
#536=ORIENTED_EDGE('',*,*,#420,.F.);
#537=ORIENTED_EDGE('',*,*,#421,.F.);
#538=ORIENTED_EDGE('',*,*,#422,.T.);
#539=ORIENTED_EDGE('',*,*,#394,.F.);
#540=ORIENTED_EDGE('',*,*,#422,.F.);
#541=ORIENTED_EDGE('',*,*,#423,.F.);
#542=ORIENTED_EDGE('',*,*,#424,.T.);
#543=ORIENTED_EDGE('',*,*,#393,.F.);
#544=ORIENTED_EDGE('',*,*,#424,.F.);
#545=ORIENTED_EDGE('',*,*,#383,.F.);
#546=ORIENTED_EDGE('',*,*,#425,.T.);
#547=ORIENTED_EDGE('',*,*,#426,.T.);
#548=ORIENTED_EDGE('',*,*,#427,.T.);
#549=ORIENTED_EDGE('',*,*,#426,.F.);
#550=ORIENTED_EDGE('',*,*,#428,.F.);
#551=ORIENTED_EDGE('',*,*,#429,.F.);
#552=ORIENTED_EDGE('',*,*,#430,.F.);
#553=ORIENTED_EDGE('',*,*,#361,.T.);
#554=ORIENTED_EDGE('',*,*,#365,.T.);
#555=ORIENTED_EDGE('',*,*,#369,.T.);
#556=ORIENTED_EDGE('',*,*,#373,.T.);
#557=ORIENTED_EDGE('',*,*,#409,.T.);
#558=ORIENTED_EDGE('',*,*,#411,.T.);
#559=ORIENTED_EDGE('',*,*,#413,.T.);
#560=ORIENTED_EDGE('',*,*,#415,.T.);
#561=ORIENTED_EDGE('',*,*,#417,.T.);
#562=ORIENTED_EDGE('',*,*,#419,.T.);
#563=ORIENTED_EDGE('',*,*,#421,.T.);
#564=ORIENTED_EDGE('',*,*,#423,.T.);
#565=ORIENTED_EDGE('',*,*,#431,.F.);
#566=ORIENTED_EDGE('',*,*,#432,.F.);
#567=ORIENTED_EDGE('',*,*,#433,.F.);
#568=ORIENTED_EDGE('',*,*,#434,.T.);
#569=ORIENTED_EDGE('',*,*,#429,.T.);
#570=ORIENTED_EDGE('',*,*,#435,.T.);
#571=ORIENTED_EDGE('',*,*,#381,.F.);
#572=ORIENTED_EDGE('',*,*,#436,.F.);
#573=ORIENTED_EDGE('',*,*,#404,.F.);
#574=ORIENTED_EDGE('',*,*,#437,.T.);
#575=ORIENTED_EDGE('',*,*,#434,.F.);
#576=ORIENTED_EDGE('',*,*,#437,.F.);
#577=ORIENTED_EDGE('',*,*,#430,.T.);
#578=ORIENTED_EDGE('',*,*,#436,.T.);
#579=ORIENTED_EDGE('',*,*,#384,.F.);
#580=ORIENTED_EDGE('',*,*,#427,.F.);
#581=ORIENTED_EDGE('',*,*,#388,.F.);
#582=ORIENTED_EDGE('',*,*,#438,.T.);
#583=ORIENTED_EDGE('',*,*,#377,.T.);
#584=ORIENTED_EDGE('',*,*,#438,.F.);
#585=ORIENTED_EDGE('',*,*,#387,.F.);
#586=ORIENTED_EDGE('',*,*,#439,.T.);
#587=ORIENTED_EDGE('',*,*,#407,.T.);
#588=ORIENTED_EDGE('',*,*,#439,.F.);
#589=ORIENTED_EDGE('',*,*,#433,.T.);
#590=ORIENTED_EDGE('',*,*,#440,.T.);
#591=ORIENTED_EDGE('',*,*,#378,.F.);
#592=ORIENTED_EDGE('',*,*,#440,.F.);
#593=ORIENTED_EDGE('',*,*,#432,.T.);
#594=ORIENTED_EDGE('',*,*,#441,.T.);
#595=ORIENTED_EDGE('',*,*,#380,.F.);
#596=ORIENTED_EDGE('',*,*,#441,.F.);
#597=ORIENTED_EDGE('',*,*,#431,.T.);
#598=ORIENTED_EDGE('',*,*,#442,.T.);
#599=ORIENTED_EDGE('',*,*,#408,.F.);
#600=ORIENTED_EDGE('',*,*,#442,.F.);
#601=ORIENTED_EDGE('',*,*,#386,.T.);
#602=ORIENTED_EDGE('',*,*,#443,.T.);
#603=ORIENTED_EDGE('',*,*,#368,.T.);
#604=ORIENTED_EDGE('',*,*,#443,.F.);
#605=ORIENTED_EDGE('',*,*,#385,.T.);
#606=ORIENTED_EDGE('',*,*,#444,.T.);
#607=ORIENTED_EDGE('',*,*,#376,.T.);
#608=ORIENTED_EDGE('',*,*,#444,.F.);
#609=ORIENTED_EDGE('',*,*,#428,.T.);
#610=ORIENTED_EDGE('',*,*,#425,.F.);
#611=ORIENTED_EDGE('',*,*,#382,.F.);
#612=ORIENTED_EDGE('',*,*,#435,.F.);
#613=CYLINDRICAL_SURFACE('',#689,4.);
#614=CYLINDRICAL_SURFACE('',#694,4.);
#615=CYLINDRICAL_SURFACE('',#699,4.);
#616=CYLINDRICAL_SURFACE('',#704,4.);
#617=CYLINDRICAL_SURFACE('',#732,2.25);
#618=CYLINDRICAL_SURFACE('',#733,4.);
#619=CYLINDRICAL_SURFACE('',#737,2.25000000000001);
#620=CYLINDRICAL_SURFACE('',#738,4.);
#621=CYLINDRICAL_SURFACE('',#742,1.25);
#622=CYLINDRICAL_SURFACE('',#744,1.25);
#623=CYLINDRICAL_SURFACE('',#746,1.25);
#624=CYLINDRICAL_SURFACE('',#748,1.25);
#625=CYLINDRICAL_SURFACE('',#750,1.03775);
#626=CYLINDRICAL_SURFACE('',#752,1.03775);
#627=CYLINDRICAL_SURFACE('',#754,1.03775);
#628=CYLINDRICAL_SURFACE('',#756,1.03775);
#629=CYLINDRICAL_SURFACE('',#765,1.55);
#630=CYLINDRICAL_SURFACE('',#767,4.);
#631=CYLINDRICAL_SURFACE('',#768,4.);
#632=CYLINDRICAL_SURFACE('',#769,1.55);
#633=CYLINDRICAL_SURFACE('',#770,1.55);
#634=CYLINDRICAL_SURFACE('',#771,1.55);
#635=CYLINDRICAL_SURFACE('',#772,2.25);
#636=CYLINDRICAL_SURFACE('',#773,2.25);
#637=ADVANCED_FACE('',(#69),#613,.F.);
#638=ADVANCED_FACE('',(#70,#15),#55,.T.);
#639=ADVANCED_FACE('',(#71),#614,.F.);
#640=ADVANCED_FACE('',(#72,#16),#56,.T.);
#641=ADVANCED_FACE('',(#73),#615,.F.);
#642=ADVANCED_FACE('',(#74,#17),#57,.T.);
#643=ADVANCED_FACE('',(#75),#616,.F.);
#644=ADVANCED_FACE('',(#76,#18),#58,.T.);
#645=ADVANCED_FACE('',(#77,#19),#59,.T.);
#646=ADVANCED_FACE('',(#78,#20),#60,.T.);
#647=ADVANCED_FACE('',(#79,#21,#22,#23,#24,#25,#26,#27,#28,#29,#30,#31,
#32,#33,#34,#35,#36),#61,.F.);
#648=ADVANCED_FACE('',(#80),#617,.F.);
#649=ADVANCED_FACE('',(#81),#618,.F.);
#650=ADVANCED_FACE('',(#82,#37),#62,.T.);
#651=ADVANCED_FACE('',(#83),#619,.F.);
#652=ADVANCED_FACE('',(#84),#620,.F.);
#653=ADVANCED_FACE('',(#85,#38),#63,.T.);
#654=ADVANCED_FACE('',(#86),#621,.F.);
#655=ADVANCED_FACE('',(#87),#622,.F.);
#656=ADVANCED_FACE('',(#88),#623,.F.);
#657=ADVANCED_FACE('',(#89),#624,.F.);
#658=ADVANCED_FACE('',(#90),#625,.F.);
#659=ADVANCED_FACE('',(#91),#626,.F.);
#660=ADVANCED_FACE('',(#92),#627,.F.);
#661=ADVANCED_FACE('',(#93),#628,.F.);
#662=ADVANCED_FACE('',(#94),#64,.T.);
#663=ADVANCED_FACE('',(#95,#39,#40,#41,#42,#43,#44,#45,#46,#47,#48,#49,
#50,#51,#52,#53,#54),#65,.T.);
#664=ADVANCED_FACE('',(#96),#66,.T.);
#665=ADVANCED_FACE('',(#97),#629,.F.);
#666=ADVANCED_FACE('',(#98),#67,.F.);
#667=ADVANCED_FACE('',(#99),#630,.F.);
#668=ADVANCED_FACE('',(#100),#631,.F.);
#669=ADVANCED_FACE('',(#101),#632,.F.);
#670=ADVANCED_FACE('',(#102),#633,.F.);
#671=ADVANCED_FACE('',(#103),#634,.F.);
#672=ADVANCED_FACE('',(#104),#635,.F.);
#673=ADVANCED_FACE('',(#105),#636,.F.);
#674=ADVANCED_FACE('',(#106),#68,.T.);
#675=CLOSED_SHELL('',(#637,#638,#639,#640,#641,#642,#643,#644,#645,#646,
#647,#648,#649,#650,#651,#652,#653,#654,#655,#656,#657,#658,#659,#660,#661,
#662,#663,#664,#665,#666,#667,#668,#669,#670,#671,#672,#673,#674));
#676=DERIVED_UNIT_ELEMENT(#678,1.);
#677=DERIVED_UNIT_ELEMENT(#1169,-3.);
#678=(
MASS_UNIT()
NAMED_UNIT(*)
SI_UNIT(.KILO.,.GRAM.)
);
#679=DERIVED_UNIT((#676,#677));
#680=MEASURE_REPRESENTATION_ITEM('density measure',
POSITIVE_RATIO_MEASURE(7850.),#679);
#681=PROPERTY_DEFINITION_REPRESENTATION(#686,#683);
#682=PROPERTY_DEFINITION_REPRESENTATION(#687,#684);
#683=REPRESENTATION('material name',(#685),#1166);
#684=REPRESENTATION('density',(#680),#1166);
#685=DESCRIPTIVE_REPRESENTATION_ITEM('Steel','Steel');
#686=PROPERTY_DEFINITION('material property','material name',#1176);
#687=PROPERTY_DEFINITION('material property','density of part',#1176);
#688=AXIS2_PLACEMENT_3D('',#985,#775,#776);
#689=AXIS2_PLACEMENT_3D('',#986,#777,#778);
#690=AXIS2_PLACEMENT_3D('',#988,#779,#780);
#691=AXIS2_PLACEMENT_3D('',#991,#782,#783);
#692=AXIS2_PLACEMENT_3D('',#992,#784,#785);
#693=AXIS2_PLACEMENT_3D('',#994,#786,#787);
#694=AXIS2_PLACEMENT_3D('',#995,#788,#789);
#695=AXIS2_PLACEMENT_3D('',#997,#790,#791);
#696=AXIS2_PLACEMENT_3D('',#1000,#793,#794);
#697=AXIS2_PLACEMENT_3D('',#1001,#795,#796);
#698=AXIS2_PLACEMENT_3D('',#1003,#797,#798);
#699=AXIS2_PLACEMENT_3D('',#1004,#799,#800);
#700=AXIS2_PLACEMENT_3D('',#1006,#801,#802);
#701=AXIS2_PLACEMENT_3D('',#1009,#804,#805);
#702=AXIS2_PLACEMENT_3D('',#1010,#806,#807);
#703=AXIS2_PLACEMENT_3D('',#1012,#808,#809);
#704=AXIS2_PLACEMENT_3D('',#1013,#810,#811);
#705=AXIS2_PLACEMENT_3D('',#1015,#812,#813);
#706=AXIS2_PLACEMENT_3D('',#1018,#815,#816);
#707=AXIS2_PLACEMENT_3D('',#1019,#817,#818);
#708=AXIS2_PLACEMENT_3D('',#1021,#819,#820);
#709=AXIS2_PLACEMENT_3D('',#1022,#821,#822);
#710=AXIS2_PLACEMENT_3D('',#1024,#823,#824);
#711=AXIS2_PLACEMENT_3D('',#1026,#825,#826);
#712=AXIS2_PLACEMENT_3D('',#1027,#827,#828);
#713=AXIS2_PLACEMENT_3D('',#1029,#829,#830);
#714=AXIS2_PLACEMENT_3D('',#1031,#831,#832);
#715=AXIS2_PLACEMENT_3D('',#1032,#833,#834);
#716=AXIS2_PLACEMENT_3D('',#1042,#839,#840);
#717=AXIS2_PLACEMENT_3D('',#1044,#841,#842);
#718=AXIS2_PLACEMENT_3D('',#1046,#843,#844);
#719=AXIS2_PLACEMENT_3D('',#1048,#845,#846);
#720=AXIS2_PLACEMENT_3D('',#1050,#847,#848);
#721=AXIS2_PLACEMENT_3D('',#1052,#849,#850);
#722=AXIS2_PLACEMENT_3D('',#1054,#851,#852);
#723=AXIS2_PLACEMENT_3D('',#1056,#853,#854);
#724=AXIS2_PLACEMENT_3D('',#1058,#855,#856);
#725=AXIS2_PLACEMENT_3D('',#1060,#857,#858);
#726=AXIS2_PLACEMENT_3D('',#1062,#859,#860);
#727=AXIS2_PLACEMENT_3D('',#1064,#861,#862);
#728=AXIS2_PLACEMENT_3D('',#1066,#863,#864);
#729=AXIS2_PLACEMENT_3D('',#1068,#865,#866);
#730=AXIS2_PLACEMENT_3D('',#1070,#867,#868);
#731=AXIS2_PLACEMENT_3D('',#1072,#869,#870);
#732=AXIS2_PLACEMENT_3D('',#1073,#871,#872);
#733=AXIS2_PLACEMENT_3D('',#1075,#874,#875);
#734=AXIS2_PLACEMENT_3D('',#1077,#877,#878);
#735=AXIS2_PLACEMENT_3D('',#1079,#879,#880);
#736=AXIS2_PLACEMENT_3D('',#1081,#881,#882);
#737=AXIS2_PLACEMENT_3D('',#1082,#883,#884);
#738=AXIS2_PLACEMENT_3D('',#1084,#886,#887);
#739=AXIS2_PLACEMENT_3D('',#1086,#889,#890);
#740=AXIS2_PLACEMENT_3D('',#1088,#891,#892);
#741=AXIS2_PLACEMENT_3D('',#1090,#893,#894);
#742=AXIS2_PLACEMENT_3D('',#1091,#895,#896);
#743=AXIS2_PLACEMENT_3D('',#1093,#897,#898);
#744=AXIS2_PLACEMENT_3D('',#1095,#900,#901);
#745=AXIS2_PLACEMENT_3D('',#1097,#902,#903);
#746=AXIS2_PLACEMENT_3D('',#1099,#905,#906);
#747=AXIS2_PLACEMENT_3D('',#1101,#907,#908);
#748=AXIS2_PLACEMENT_3D('',#1103,#910,#911);
#749=AXIS2_PLACEMENT_3D('',#1105,#912,#913);
#750=AXIS2_PLACEMENT_3D('',#1107,#915,#916);
#751=AXIS2_PLACEMENT_3D('',#1109,#917,#918);
#752=AXIS2_PLACEMENT_3D('',#1111,#920,#921);
#753=AXIS2_PLACEMENT_3D('',#1113,#922,#923);
#754=AXIS2_PLACEMENT_3D('',#1115,#925,#926);
#755=AXIS2_PLACEMENT_3D('',#1117,#927,#928);
#756=AXIS2_PLACEMENT_3D('',#1119,#930,#931);
#757=AXIS2_PLACEMENT_3D('',#1121,#932,#933);
#758=AXIS2_PLACEMENT_3D('',#1123,#935,#936);
#759=AXIS2_PLACEMENT_3D('',#1129,#940,#941);
#760=AXIS2_PLACEMENT_3D('',#1136,#945,#946);
#761=AXIS2_PLACEMENT_3D('',#1138,#947,#948);
#762=AXIS2_PLACEMENT_3D('',#1140,#949,#950);
#763=AXIS2_PLACEMENT_3D('',#1142,#951,#952);
#764=AXIS2_PLACEMENT_3D('',#1143,#953,#954);
#765=AXIS2_PLACEMENT_3D('',#1146,#957,#958);
#766=AXIS2_PLACEMENT_3D('',#1148,#960,#961);
#767=AXIS2_PLACEMENT_3D('',#1149,#962,#963);
#768=AXIS2_PLACEMENT_3D('',#1151,#965,#966);
#769=AXIS2_PLACEMENT_3D('',#1153,#968,#969);
#770=AXIS2_PLACEMENT_3D('',#1155,#971,#972);
#771=AXIS2_PLACEMENT_3D('',#1157,#974,#975);
#772=AXIS2_PLACEMENT_3D('',#1159,#977,#978);
#773=AXIS2_PLACEMENT_3D('',#1161,#980,#981);
#774=AXIS2_PLACEMENT_3D('',#1163,#983,#984);
#775=DIRECTION('axis',(0.,0.,1.));
#776=DIRECTION('refdir',(1.,0.,0.));
#777=DIRECTION('center_axis',(0.,0.,-1.));
#778=DIRECTION('ref_axis',(-1.,0.,0.));
#779=DIRECTION('center_axis',(0.,0.,-1.));
#780=DIRECTION('ref_axis',(-1.,0.,0.));
#781=DIRECTION('',(0.,0.,-1.));
#782=DIRECTION('center_axis',(0.,0.,-1.));
#783=DIRECTION('ref_axis',(-1.,0.,0.));
#784=DIRECTION('center_axis',(0.,0.,1.));
#785=DIRECTION('ref_axis',(-1.,0.,0.));
#786=DIRECTION('center_axis',(0.,0.,1.));
#787=DIRECTION('ref_axis',(1.,0.,0.));
#788=DIRECTION('center_axis',(0.,0.,-1.));
#789=DIRECTION('ref_axis',(-1.,0.,0.));
#790=DIRECTION('center_axis',(0.,0.,-1.));
#791=DIRECTION('ref_axis',(-1.,0.,0.));
#792=DIRECTION('',(0.,0.,-1.));
#793=DIRECTION('center_axis',(0.,0.,-1.));
#794=DIRECTION('ref_axis',(-1.,0.,0.));
#795=DIRECTION('center_axis',(0.,0.,1.));
#796=DIRECTION('ref_axis',(-1.,0.,0.));
#797=DIRECTION('center_axis',(0.,0.,1.));
#798=DIRECTION('ref_axis',(1.,0.,0.));
#799=DIRECTION('center_axis',(0.,0.,-1.));
#800=DIRECTION('ref_axis',(-1.,0.,0.));
#801=DIRECTION('center_axis',(0.,0.,-1.));
#802=DIRECTION('ref_axis',(-1.,0.,0.));
#803=DIRECTION('',(0.,0.,-1.));
#804=DIRECTION('center_axis',(0.,0.,-1.));
#805=DIRECTION('ref_axis',(-1.,0.,0.));
#806=DIRECTION('center_axis',(0.,0.,1.));
#807=DIRECTION('ref_axis',(-1.,0.,0.));
#808=DIRECTION('center_axis',(0.,0.,1.));
#809=DIRECTION('ref_axis',(1.,0.,0.));
#810=DIRECTION('center_axis',(0.,0.,-1.));
#811=DIRECTION('ref_axis',(-1.,0.,0.));
#812=DIRECTION('center_axis',(0.,0.,-1.));
#813=DIRECTION('ref_axis',(-1.,0.,0.));
#814=DIRECTION('',(0.,0.,-1.));
#815=DIRECTION('center_axis',(0.,0.,-1.));
#816=DIRECTION('ref_axis',(-1.,0.,0.));
#817=DIRECTION('center_axis',(0.,0.,1.));
#818=DIRECTION('ref_axis',(-1.,0.,0.));
#819=DIRECTION('center_axis',(0.,0.,1.));
#820=DIRECTION('ref_axis',(1.,0.,0.));
#821=DIRECTION('center_axis',(0.,0.,-1.));
#822=DIRECTION('ref_axis',(1.,0.,0.));
#823=DIRECTION('center_axis',(0.,0.,1.));
#824=DIRECTION('ref_axis',(1.,0.,0.));
#825=DIRECTION('center_axis',(0.,0.,1.));
#826=DIRECTION('ref_axis',(-1.,0.,0.));
#827=DIRECTION('center_axis',(0.,0.,-1.));
#828=DIRECTION('ref_axis',(1.,0.,0.));
#829=DIRECTION('center_axis',(0.,0.,1.));
#830=DIRECTION('ref_axis',(1.,0.,0.));
#831=DIRECTION('center_axis',(0.,0.,1.));
#832=DIRECTION('ref_axis',(-1.,0.,0.));
#833=DIRECTION('center_axis',(0.,0.,1.));
#834=DIRECTION('ref_axis',(1.,0.,0.));
#835=DIRECTION('',(1.,0.,0.));
#836=DIRECTION('',(0.,-1.,0.));
#837=DIRECTION('',(-1.,0.,0.));
#838=DIRECTION('',(0.,-1.,0.));
#839=DIRECTION('center_axis',(0.,0.,1.));
#840=DIRECTION('ref_axis',(1.,0.,0.));
#841=DIRECTION('center_axis',(0.,0.,1.));
#842=DIRECTION('ref_axis',(1.,0.,0.));
#843=DIRECTION('center_axis',(0.,0.,1.));
#844=DIRECTION('ref_axis',(1.,0.,0.));
#845=DIRECTION('center_axis',(0.,0.,1.));
#846=DIRECTION('ref_axis',(1.,0.,0.));
#847=DIRECTION('center_axis',(0.,0.,1.));
#848=DIRECTION('ref_axis',(-0.89399766837741,0.448071611392369,0.));
#849=DIRECTION('center_axis',(0.,0.,1.));
#850=DIRECTION('ref_axis',(1.,0.,0.));
#851=DIRECTION('center_axis',(0.,0.,1.));
#852=DIRECTION('ref_axis',(1.,0.,0.));
#853=DIRECTION('center_axis',(0.,0.,1.));
#854=DIRECTION('ref_axis',(0.893997660366555,0.448071627375719,0.));
#855=DIRECTION('center_axis',(0.,0.,1.));
#856=DIRECTION('ref_axis',(1.,0.,0.));
#857=DIRECTION('center_axis',(0.,0.,1.));
#858=DIRECTION('ref_axis',(1.,0.,0.));
#859=DIRECTION('center_axis',(0.,0.,1.));
#860=DIRECTION('ref_axis',(1.,0.,0.));
#861=DIRECTION('center_axis',(0.,0.,1.));
#862=DIRECTION('ref_axis',(1.,0.,0.));
#863=DIRECTION('center_axis',(0.,0.,1.));
#864=DIRECTION('ref_axis',(1.,0.,0.));
#865=DIRECTION('center_axis',(0.,0.,1.));
#866=DIRECTION('ref_axis',(1.,0.,0.));
#867=DIRECTION('center_axis',(0.,0.,1.));
#868=DIRECTION('ref_axis',(1.,0.,0.));
#869=DIRECTION('center_axis',(0.,0.,1.));
#870=DIRECTION('ref_axis',(1.,0.,0.));
#871=DIRECTION('center_axis',(0.,0.,1.));
#872=DIRECTION('ref_axis',(1.,0.,0.));
#873=DIRECTION('',(0.,0.,1.));
#874=DIRECTION('center_axis',(0.,0.,1.));
#875=DIRECTION('ref_axis',(0.893997660366555,0.448071627375719,0.));
#876=DIRECTION('',(0.,0.,1.));
#877=DIRECTION('center_axis',(0.,0.,-1.));
#878=DIRECTION('ref_axis',(1.,0.,0.));
#879=DIRECTION('center_axis',(0.,0.,1.));
#880=DIRECTION('ref_axis',(1.,0.,0.));
#881=DIRECTION('center_axis',(0.,0.,1.));
#882=DIRECTION('ref_axis',(1.,0.,0.));
#883=DIRECTION('center_axis',(0.,0.,1.));
#884=DIRECTION('ref_axis',(1.,0.,0.));
#885=DIRECTION('',(0.,0.,1.));
#886=DIRECTION('center_axis',(0.,0.,1.));
#887=DIRECTION('ref_axis',(-0.89399766837741,0.448071611392369,0.));
#888=DIRECTION('',(0.,0.,1.));
#889=DIRECTION('center_axis',(0.,0.,-1.));
#890=DIRECTION('ref_axis',(1.,0.,0.));
#891=DIRECTION('center_axis',(0.,0.,1.));
#892=DIRECTION('ref_axis',(1.,0.,0.));
#893=DIRECTION('center_axis',(0.,0.,1.));
#894=DIRECTION('ref_axis',(-1.,0.,0.));
#895=DIRECTION('center_axis',(0.,0.,-1.));
#896=DIRECTION('ref_axis',(1.,0.,0.));
#897=DIRECTION('center_axis',(0.,0.,-1.));
#898=DIRECTION('ref_axis',(1.,0.,0.));
#899=DIRECTION('',(0.,0.,-1.));
#900=DIRECTION('center_axis',(0.,0.,-1.));
#901=DIRECTION('ref_axis',(1.,0.,0.));
#902=DIRECTION('center_axis',(0.,0.,-1.));
#903=DIRECTION('ref_axis',(1.,0.,0.));
#904=DIRECTION('',(0.,0.,-1.));
#905=DIRECTION('center_axis',(0.,0.,-1.));
#906=DIRECTION('ref_axis',(1.,0.,0.));
#907=DIRECTION('center_axis',(0.,0.,-1.));
#908=DIRECTION('ref_axis',(1.,0.,0.));
#909=DIRECTION('',(0.,0.,-1.));
#910=DIRECTION('center_axis',(0.,0.,-1.));
#911=DIRECTION('ref_axis',(1.,0.,0.));
#912=DIRECTION('center_axis',(0.,0.,-1.));
#913=DIRECTION('ref_axis',(1.,0.,0.));
#914=DIRECTION('',(0.,0.,-1.));
#915=DIRECTION('center_axis',(0.,0.,-1.));
#916=DIRECTION('ref_axis',(1.,0.,0.));
#917=DIRECTION('center_axis',(0.,0.,-1.));
#918=DIRECTION('ref_axis',(1.,0.,0.));
#919=DIRECTION('',(0.,0.,-1.));
#920=DIRECTION('center_axis',(0.,0.,-1.));
#921=DIRECTION('ref_axis',(1.,0.,0.));
#922=DIRECTION('center_axis',(0.,0.,-1.));
#923=DIRECTION('ref_axis',(1.,0.,0.));
#924=DIRECTION('',(0.,0.,-1.));
#925=DIRECTION('center_axis',(0.,0.,-1.));
#926=DIRECTION('ref_axis',(1.,0.,0.));
#927=DIRECTION('center_axis',(0.,0.,-1.));
#928=DIRECTION('ref_axis',(1.,0.,0.));
#929=DIRECTION('',(0.,0.,-1.));
#930=DIRECTION('center_axis',(0.,0.,-1.));
#931=DIRECTION('ref_axis',(1.,0.,0.));
#932=DIRECTION('center_axis',(0.,0.,-1.));
#933=DIRECTION('ref_axis',(1.,0.,0.));
#934=DIRECTION('',(0.,0.,-1.));
#935=DIRECTION('center_axis',(0.,1.,0.));
#936=DIRECTION('ref_axis',(-1.,0.,0.));
#937=DIRECTION('',(0.,0.,1.));
#938=DIRECTION('',(1.,0.,0.));
#939=DIRECTION('',(0.,0.,1.));
#940=DIRECTION('center_axis',(0.,0.,1.));
#941=DIRECTION('ref_axis',(1.,0.,0.));
#942=DIRECTION('',(0.,1.,0.));
#943=DIRECTION('',(-1.,0.,0.));
#944=DIRECTION('',(0.,-1.,0.));
#945=DIRECTION('center_axis',(0.,0.,1.));
#946=DIRECTION('ref_axis',(-1.,0.,0.));
#947=DIRECTION('center_axis',(0.,0.,1.));
#948=DIRECTION('ref_axis',(-1.,0.,0.));
#949=DIRECTION('center_axis',(0.,0.,1.));
#950=DIRECTION('ref_axis',(-1.,0.,0.));
#951=DIRECTION('center_axis',(0.,0.,-1.));
#952=DIRECTION('ref_axis',(1.,0.,0.));
#953=DIRECTION('center_axis',(0.,-1.,0.));
#954=DIRECTION('ref_axis',(-1.,0.,0.));
#955=DIRECTION('',(0.,0.,-1.));
#956=DIRECTION('',(0.,0.,-1.));
#957=DIRECTION('center_axis',(0.,0.,1.));
#958=DIRECTION('ref_axis',(1.,0.,0.));
#959=DIRECTION('',(0.,0.,1.));
#960=DIRECTION('center_axis',(-1.,0.,0.));
#961=DIRECTION('ref_axis',(0.,0.,1.));
#962=DIRECTION('center_axis',(0.,0.,1.));
#963=DIRECTION('ref_axis',(1.,0.,0.));
#964=DIRECTION('',(0.,0.,1.));
#965=DIRECTION('center_axis',(0.,0.,1.));
#966=DIRECTION('ref_axis',(1.,0.,0.));
#967=DIRECTION('',(0.,0.,1.));
#968=DIRECTION('center_axis',(0.,0.,-1.));
#969=DIRECTION('ref_axis',(-1.,0.,0.));
#970=DIRECTION('',(0.,0.,-1.));
#971=DIRECTION('center_axis',(0.,0.,-1.));
#972=DIRECTION('ref_axis',(-1.,0.,0.));
#973=DIRECTION('',(0.,0.,-1.));
#974=DIRECTION('center_axis',(0.,0.,-1.));
#975=DIRECTION('ref_axis',(-1.,0.,0.));
#976=DIRECTION('',(0.,0.,-1.));
#977=DIRECTION('center_axis',(0.,0.,1.));
#978=DIRECTION('ref_axis',(1.,0.,0.));
#979=DIRECTION('',(0.,0.,1.));
#980=DIRECTION('center_axis',(0.,0.,1.));
#981=DIRECTION('ref_axis',(1.,0.,0.));
#982=DIRECTION('',(0.,0.,1.));
#983=DIRECTION('center_axis',(-1.,0.,0.));
#984=DIRECTION('ref_axis',(0.,-1.,0.));
#985=CARTESIAN_POINT('',(0.,0.,0.));
#986=CARTESIAN_POINT('Origin',(-66.2261657096863,37.5004847708338,-13.00000190734));
#987=CARTESIAN_POINT('',(-62.2261657096863,37.5004847708338,-13.00000190734));
#988=CARTESIAN_POINT('Origin',(-66.2261657096863,37.5004847708338,-13.00000190734));
#989=CARTESIAN_POINT('',(-62.2261657096863,37.5004847708338,-17.00000190734));
#990=CARTESIAN_POINT('',(-62.2261657096863,37.5004847708338,-13.00000190734));
#991=CARTESIAN_POINT('Origin',(-66.2261657096863,37.5004847708338,-17.00000190734));
#992=CARTESIAN_POINT('Origin',(-66.2261657096863,37.5004847708338,-17.00000190734));
#993=CARTESIAN_POINT('',(-68.4761657096863,37.5004847708338,-17.00000190734));
#994=CARTESIAN_POINT('Origin',(-66.2261657096863,37.5004847708338,-17.00000190734));
#995=CARTESIAN_POINT('Origin',(-66.2261657096863,-37.5055136021971,-13.00000190734));
#996=CARTESIAN_POINT('',(-62.2261657096863,-37.5055136021971,-13.00000190734));
#997=CARTESIAN_POINT('Origin',(-66.2261657096863,-37.5055136021971,-13.00000190734));
#998=CARTESIAN_POINT('',(-62.2261657096863,-37.5055136021971,-17.00000190734));
#999=CARTESIAN_POINT('',(-62.2261657096863,-37.5055136021971,-13.00000190734));
#1000=CARTESIAN_POINT('Origin',(-66.2261657096863,-37.5055136021971,-17.00000190734));
#1001=CARTESIAN_POINT('Origin',(-66.2261657096863,-37.5055136021971,-17.00000190734));
#1002=CARTESIAN_POINT('',(-68.4761657096863,-37.5055136021971,-17.00000190734));
#1003=CARTESIAN_POINT('Origin',(-66.2261657096863,-37.5055136021971,-17.00000190734));
#1004=CARTESIAN_POINT('Origin',(8.77383540790078,37.4944875153899,-13.00000190734));
#1005=CARTESIAN_POINT('',(12.7738354079008,37.4944875153899,-13.00000190734));
#1006=CARTESIAN_POINT('Origin',(8.77383540790078,37.4944875153899,-13.00000190734));
#1007=CARTESIAN_POINT('',(12.7738354079008,37.4944875153899,-17.00000190734));
#1008=CARTESIAN_POINT('',(12.7738354079008,37.4944875153899,-13.00000190734));
#1009=CARTESIAN_POINT('Origin',(8.77383540790078,37.4944875153899,-17.00000190734));
#1010=CARTESIAN_POINT('Origin',(8.77383540790078,37.4944875153899,-17.00000190734));
#1011=CARTESIAN_POINT('',(6.52383540790077,37.4944875153899,-17.00000190734));
#1012=CARTESIAN_POINT('Origin',(8.77383540790078,37.4944875153899,-17.00000190734));
#1013=CARTESIAN_POINT('Origin',(8.77383540790078,-37.5055136021971,-13.00000190734));
#1014=CARTESIAN_POINT('',(12.7738354079008,-37.5055136021971,-13.00000190734));
#1015=CARTESIAN_POINT('Origin',(8.77383540790078,-37.5055136021971,-13.00000190734));
#1016=CARTESIAN_POINT('',(12.7738354079008,-37.5055136021971,-17.00000190734));
#1017=CARTESIAN_POINT('',(12.7738354079008,-37.5055136021971,-13.00000190734));
#1018=CARTESIAN_POINT('Origin',(8.77383540790078,-37.5055136021971,-17.00000190734));
#1019=CARTESIAN_POINT('Origin',(8.77383540790078,-37.5055136021971,-17.00000190734));
#1020=CARTESIAN_POINT('',(6.52383540790078,-37.5055136021971,-17.00000190734));
#1021=CARTESIAN_POINT('Origin',(8.77383540790078,-37.5055136021971,-17.00000190734));
#1022=CARTESIAN_POINT('Origin',(-54.7999656351805,-24.9995135276913,-18.00000190734));
#1023=CARTESIAN_POINT('',(-65.2261656351805,-32.4995135276912,-18.00000190734));
#1024=CARTESIAN_POINT('Origin',(-61.2261656351805,-32.4995135276912,-18.00000190734));
#1025=CARTESIAN_POINT('',(-59.6761656351806,-32.4995135276912,-18.00000190734));
#1026=CARTESIAN_POINT('Origin',(-61.2261656351805,-32.4995135276912,-18.00000190734));
#1027=CARTESIAN_POINT('Origin',(-54.7999657096863,40.0064847708337,-18.00000190734));
#1028=CARTESIAN_POINT('',(-64.8021563511525,30.7081982613308,-18.00000190734));
#1029=CARTESIAN_POINT('Origin',(-61.2261657096863,32.5004847708337,-18.00000190734));
#1030=CARTESIAN_POINT('',(-59.6761657096864,32.5004847708337,-18.00000190734));
#1031=CARTESIAN_POINT('Origin',(-61.2261657096863,32.5004847708337,-18.00000190734));
#1032=CARTESIAN_POINT('Origin',(55.25003488636,7.50048695659638,-24.30000190734));
#1033=CARTESIAN_POINT('',(20.2000342158079,-59.9995136767031,-24.30000190734));
#1034=CARTESIAN_POINT('',(-79.7999657841922,-59.9995136767031,-24.30000190734));
#1035=CARTESIAN_POINT('',(37.725034551084,-59.9995136767031,-24.30000190734));
#1036=CARTESIAN_POINT('',(-79.7999657841922,48.0004875898959,-24.30000190734));
#1037=CARTESIAN_POINT('',(-79.7999657841922,28.750487273246,-24.30000190734));
#1038=CARTESIAN_POINT('',(20.2000342158079,48.0004875898959,-24.30000190734));
#1039=CARTESIAN_POINT('',(40.2250352216362,48.0004875898959,-24.30000190734));
#1040=CARTESIAN_POINT('',(20.2000342158079,-13.7495133600533,-24.30000190734));
#1041=CARTESIAN_POINT('',(6.52383540790078,-37.5055136021971,-24.30000190734));
#1042=CARTESIAN_POINT('Origin',(8.77383540790078,-37.5055136021971,-24.30000190734));
#1043=CARTESIAN_POINT('',(-68.4761657096863,-37.5055136021971,-24.30000190734));
#1044=CARTESIAN_POINT('Origin',(-66.2261657096863,-37.5055136021971,-24.30000190734));
#1045=CARTESIAN_POINT('',(-0.22616466660503,-32.5055135276912,-24.30000190734));
#1046=CARTESIAN_POINT('Origin',(3.77383533339497,-32.5055135276912,-24.30000190734));
#1047=CARTESIAN_POINT('',(-65.2261656351805,-32.4995135276912,-24.30000190734));
#1048=CARTESIAN_POINT('Origin',(-61.2261656351805,-32.4995135276912,-24.30000190734));
#1049=CARTESIAN_POINT('',(7.34982600690461,30.7022009953145,-24.30000190734));
#1050=CARTESIAN_POINT('Origin',(3.77383533339497,32.494487440884,-24.30000190734));
#1051=CARTESIAN_POINT('',(6.52383540790077,37.4944875153899,-24.30000190734));
#1052=CARTESIAN_POINT('Origin',(8.77383540790078,37.4944875153899,-24.30000190734));
#1053=CARTESIAN_POINT('',(-68.4761657096863,37.5004847708338,-24.30000190734));
#1054=CARTESIAN_POINT('Origin',(-66.2261657096863,37.5004847708338,-24.30000190734));
#1055=CARTESIAN_POINT('',(-64.8021563511525,30.7081982613308,-24.30000190734));
#1056=CARTESIAN_POINT('Origin',(-61.2261657096863,32.5004847708337,-24.30000190734));
#1057=CARTESIAN_POINT('',(12.1622479152679,6.25094192314148,-24.30000190734));
#1058=CARTESIAN_POINT('Origin',(13.1999979152679,6.25094192314148,-24.30000190734));
#1059=CARTESIAN_POINT('',(12.1623786754608,-6.24951665210724,-24.30000190734));
#1060=CARTESIAN_POINT('Origin',(13.2001286754608,-6.24951665210724,-24.30000190734));
#1061=CARTESIAN_POINT('',(-37.8372576856614,-6.24968440914153,-24.30000190734));
#1062=CARTESIAN_POINT('Origin',(-36.7995076856614,-6.24968440914153,-24.30000190734));
#1063=CARTESIAN_POINT('',(-37.8376092405321,6.25070468235015,-24.30000190734));
#1064=CARTESIAN_POINT('Origin',(-36.7998592405321,6.25070468235015,-24.30000190734));
#1065=CARTESIAN_POINT('',(12.3497306411266,15.875659316063,-24.30000190734));
#1066=CARTESIAN_POINT('Origin',(13.5997306411266,15.875659316063,-24.30000190734));
#1067=CARTESIAN_POINT('',(12.3501514346599,-15.8746789369583,-24.30000190734));
#1068=CARTESIAN_POINT('Origin',(13.6001514346599,-15.8746789369583,-24.30000190734));
#1069=CARTESIAN_POINT('',(-38.4497366285326,-15.8747313985824,-24.30000190734));
#1070=CARTESIAN_POINT('Origin',(-37.1997366285326,-15.8747313985824,-24.30000190734));
#1071=CARTESIAN_POINT('',(-38.4504048490524,15.8750361814499,-24.30000190734));
#1072=CARTESIAN_POINT('Origin',(-37.2004048490524,15.8750361814499,-24.30000190734));
#1073=CARTESIAN_POINT('Origin',(-66.2261657096863,37.5004847708338,-23.00000190734));
#1074=CARTESIAN_POINT('',(-68.4761657096863,37.5004847708338,-23.00000190734));
#1075=CARTESIAN_POINT('Origin',(-61.2261657096863,32.5004847708337,-23.00000190734));
#1076=CARTESIAN_POINT('',(-64.8021563511525,30.7081982613308,-23.00000190734));
#1077=CARTESIAN_POINT('Origin',(10.200035333395,40.000487440884,-18.00000190734));
#1078=CARTESIAN_POINT('',(7.34982600690463,30.7022009953145,-18.00000190734));
#1079=CARTESIAN_POINT('Origin',(3.77383533339497,32.494487440884,-18.00000190734));
#1080=CARTESIAN_POINT('',(2.22383533339498,32.494487440884,-18.00000190734));
#1081=CARTESIAN_POINT('Origin',(3.77383533339497,32.494487440884,-18.00000190734));
#1082=CARTESIAN_POINT('Origin',(8.77383540790078,37.4944875153899,-23.00000190734));
#1083=CARTESIAN_POINT('',(6.52383540790077,37.4944875153899,-23.00000190734));
#1084=CARTESIAN_POINT('Origin',(3.77383533339497,32.494487440884,-23.00000190734));
#1085=CARTESIAN_POINT('',(7.34982600690461,30.7022009953145,-23.00000190734));
#1086=CARTESIAN_POINT('Origin',(10.200035333395,-24.9995135276913,-18.00000190734));
#1087=CARTESIAN_POINT('',(-0.226164666605007,-32.5055135276912,-18.00000190734));
#1088=CARTESIAN_POINT('Origin',(3.77383533339497,-32.5055135276912,-18.00000190734));
#1089=CARTESIAN_POINT('',(5.32383533339499,-32.5055135276912,-18.00000190734));
#1090=CARTESIAN_POINT('Origin',(3.77383533339497,-32.5055135276912,-18.00000190734));
#1091=CARTESIAN_POINT('Origin',(-37.2004048490524,15.8750361814499,-18.50000190734));
#1092=CARTESIAN_POINT('',(-38.4504048490525,15.8750361814499,-13.00000190734));
#1093=CARTESIAN_POINT('Origin',(-37.2004048490524,15.8750361814499,-13.00000190734));
#1094=CARTESIAN_POINT('',(-38.4504048490524,15.8750361814499,-18.50000190734));
#1095=CARTESIAN_POINT('Origin',(-37.1997366285326,-15.8747313985824,-18.50000190734));
#1096=CARTESIAN_POINT('',(-38.4497366285324,-15.8747313985824,-13.00000190734));
#1097=CARTESIAN_POINT('Origin',(-37.1997366285326,-15.8747313985824,-13.00000190734));
#1098=CARTESIAN_POINT('',(-38.4497366285326,-15.8747313985824,-18.50000190734));
#1099=CARTESIAN_POINT('Origin',(13.6001514346599,-15.8746789369583,-18.50000190734));
#1100=CARTESIAN_POINT('',(12.3501514346599,-15.8746789369583,-13.00000190734));
#1101=CARTESIAN_POINT('Origin',(13.6001514346599,-15.8746789369583,-13.00000190734));
#1102=CARTESIAN_POINT('',(12.3501514346599,-15.8746789369583,-18.50000190734));
#1103=CARTESIAN_POINT('Origin',(13.5997306411266,15.875659316063,-18.50000190734));
#1104=CARTESIAN_POINT('',(12.3497306411266,15.875659316063,-13.00000190734));
#1105=CARTESIAN_POINT('Origin',(13.5997306411266,15.875659316063,-13.00000190734));
#1106=CARTESIAN_POINT('',(12.3497306411266,15.875659316063,-18.50000190734));
#1107=CARTESIAN_POINT('Origin',(-36.7998592405321,6.25070468235015,-19.50000190734));
#1108=CARTESIAN_POINT('',(-37.8376092405321,6.25070468235015,-13.00000190734));
#1109=CARTESIAN_POINT('Origin',(-36.7998592405321,6.25070468235015,-13.00000190734));
#1110=CARTESIAN_POINT('',(-37.8376092405321,6.25070468235015,-19.50000190734));
#1111=CARTESIAN_POINT('Origin',(-36.7995076856614,-6.24968440914153,-18.00000190734));
#1112=CARTESIAN_POINT('',(-37.8372576856614,-6.24968440914153,-13.00000190734));
#1113=CARTESIAN_POINT('Origin',(-36.7995076856614,-6.24968440914153,-13.00000190734));
#1114=CARTESIAN_POINT('',(-37.8372576856614,-6.24968440914153,-18.00000190734));
#1115=CARTESIAN_POINT('Origin',(13.2001286754608,-6.24951665210724,-18.00000190734));
#1116=CARTESIAN_POINT('',(12.1623786754608,-6.24951665210724,-13.00000190734));
#1117=CARTESIAN_POINT('Origin',(13.2001286754608,-6.24951665210724,-13.00000190734));
#1118=CARTESIAN_POINT('',(12.1623786754608,-6.24951665210724,-18.00000190734));
#1119=CARTESIAN_POINT('Origin',(13.1999979152679,6.25094192314148,-18.00000190734));
#1120=CARTESIAN_POINT('',(12.1622479152679,6.25094192314148,-13.00000190734));
#1121=CARTESIAN_POINT('Origin',(13.1999979152679,6.25094192314148,-13.00000190734));
#1122=CARTESIAN_POINT('',(12.1622479152679,6.25094192314148,-18.00000190734));
#1123=CARTESIAN_POINT('Origin',(25.2000355569125,48.0004875898959,-23.00000190734));
#1124=CARTESIAN_POINT('',(-79.7999657841922,48.0004875898959,-13.00000190734));
#1125=CARTESIAN_POINT('',(-79.7999657841922,48.0004875898959,-23.00000190734));
#1126=CARTESIAN_POINT('',(20.2000342158079,48.0004875898959,-13.00000190734));
#1127=CARTESIAN_POINT('',(2.70003522163629,48.0004875898959,-13.00000190734));
#1128=CARTESIAN_POINT('',(20.2000342158079,48.0004875898959,-23.00000190734));
#1129=CARTESIAN_POINT('Origin',(-19.7999651136398,45.0004869565965,-13.00000190734));
#1130=CARTESIAN_POINT('',(-79.7999657841922,-59.9995136767031,-13.00000190734));
#1131=CARTESIAN_POINT('',(-79.7999657841922,47.500487273246,-13.00000190734));
#1132=CARTESIAN_POINT('',(20.2000342158079,-59.9995136767031,-13.00000190734));
#1133=CARTESIAN_POINT('',(0.200034551084057,-59.9995136767031,-13.00000190734));
#1134=CARTESIAN_POINT('',(20.2000342158079,5.00048663994671,-13.00000190734));
#1135=CARTESIAN_POINT('',(5.32383533339499,-32.5055135276912,-13.00000190734));
#1136=CARTESIAN_POINT('Origin',(3.77383533339497,-32.5055135276912,-13.00000190734));
#1137=CARTESIAN_POINT('',(-59.6761657096864,32.5004847708337,-13.00000190734));
#1138=CARTESIAN_POINT('Origin',(-61.2261657096863,32.5004847708337,-13.00000190734));
#1139=CARTESIAN_POINT('',(-59.6761656351806,-32.4995135276912,-13.00000190734));
#1140=CARTESIAN_POINT('Origin',(-61.2261656351805,-32.4995135276912,-13.00000190734));
#1141=CARTESIAN_POINT('',(2.22383533339498,32.494487440884,-13.00000190734));
#1142=CARTESIAN_POINT('Origin',(3.77383533339497,32.494487440884,-13.00000190734));
#1143=CARTESIAN_POINT('Origin',(20.2000342158079,-59.9995136767031,-13.00000190734));
#1144=CARTESIAN_POINT('',(-79.7999657841922,-59.9995136767031,-18.00000190734));
#1145=CARTESIAN_POINT('',(20.2000342158079,-59.9995136767031,-18.00000190734));
#1146=CARTESIAN_POINT('Origin',(3.77383533339497,32.494487440884,-23.00000190734));
#1147=CARTESIAN_POINT('',(2.22383533339497,32.494487440884,-23.00000190734));
#1148=CARTESIAN_POINT('Origin',(20.2000342158079,-34.999513676703,-23.00000190734));
#1149=CARTESIAN_POINT('Origin',(-61.2261656351805,-32.4995135276912,-23.00000190734));
#1150=CARTESIAN_POINT('',(-65.2261656351805,-32.4995135276912,-23.00000190734));
#1151=CARTESIAN_POINT('Origin',(3.77383533339497,-32.5055135276912,-23.00000190734));
#1152=CARTESIAN_POINT('',(-0.22616466660503,-32.5055135276912,-23.00000190734));
#1153=CARTESIAN_POINT('Origin',(-61.2261656351805,-32.4995135276912,-8.00000190734001));
#1154=CARTESIAN_POINT('',(-59.6761656351805,-32.4995135276912,-8.00000190734001));
#1155=CARTESIAN_POINT('Origin',(-61.2261657096863,32.5004847708337,-8.00000190734001));
#1156=CARTESIAN_POINT('',(-59.6761657096863,32.5004847708337,-8.00000190734001));
#1157=CARTESIAN_POINT('Origin',(3.77383533339497,-32.5055135276912,-8.00000190734001));
#1158=CARTESIAN_POINT('',(5.32383533339497,-32.5055135276912,-8.00000190734001));
#1159=CARTESIAN_POINT('Origin',(-66.2261657096863,-37.5055136021971,-23.00000190734));
#1160=CARTESIAN_POINT('',(-68.4761657096863,-37.5055136021971,-23.00000190734));
#1161=CARTESIAN_POINT('Origin',(8.77383540790078,-37.5055136021971,-23.00000190734));
#1162=CARTESIAN_POINT('',(6.52383540790078,-37.5055136021971,-23.00000190734));
#1163=CARTESIAN_POINT('Origin',(-79.7999657841922,50.0004875898957,-23.00000190734));
#1164=UNCERTAINTY_MEASURE_WITH_UNIT(LENGTH_MEASURE(0.01),#1168,
'DISTANCE_ACCURACY_VALUE',
'Maximum model space distance between geometric entities at asserted c
onnectivities');
#1165=UNCERTAINTY_MEASURE_WITH_UNIT(LENGTH_MEASURE(0.01),#1168,
'DISTANCE_ACCURACY_VALUE',
'Maximum model space distance between geometric entities at asserted c
onnectivities');
#1166=(
GEOMETRIC_REPRESENTATION_CONTEXT(3)
GLOBAL_UNCERTAINTY_ASSIGNED_CONTEXT((#1164))
GLOBAL_UNIT_ASSIGNED_CONTEXT((#1168,#1170,#1171))
REPRESENTATION_CONTEXT('','3D')
);
#1167=(
GEOMETRIC_REPRESENTATION_CONTEXT(3)
GLOBAL_UNCERTAINTY_ASSIGNED_CONTEXT((#1165))
GLOBAL_UNIT_ASSIGNED_CONTEXT((#1168,#1170,#1171))
REPRESENTATION_CONTEXT('','3D')
);
#1168=(
LENGTH_UNIT()
NAMED_UNIT(*)
SI_UNIT(.MILLI.,.METRE.)
);
#1169=(
LENGTH_UNIT()
NAMED_UNIT(*)
SI_UNIT($,.METRE.)
);
#1170=(
NAMED_UNIT(*)
PLANE_ANGLE_UNIT()
SI_UNIT($,.RADIAN.)
);
#1171=(
NAMED_UNIT(*)
SI_UNIT($,.STERADIAN.)
SOLID_ANGLE_UNIT()
);
#1172=SHAPE_DEFINITION_REPRESENTATION(#1173,#1174);
#1173=PRODUCT_DEFINITION_SHAPE('',$,#1176);
#1174=SHAPE_REPRESENTATION('',(#688),#1166);
#1175=PRODUCT_DEFINITION_CONTEXT('part definition',#1180,'design');
#1176=PRODUCT_DEFINITION('2025-10-11-22-15-17-165','(Unsaved)',#1177,#1175);
#1177=PRODUCT_DEFINITION_FORMATION('',$,#1182);
#1178=PRODUCT_RELATED_PRODUCT_CATEGORY('(Unsaved)','(Unsaved)',(#1182));
#1179=APPLICATION_PROTOCOL_DEFINITION('international standard',
'automotive_design',2009,#1180);
#1180=APPLICATION_CONTEXT(
'Core Data for Automotive Mechanical Design Process');
#1181=PRODUCT_CONTEXT('part definition',#1180,'mechanical');
#1182=PRODUCT('2025-10-11-22-15-17-165','(Unsaved)',$,(#1181));
#1183=PRESENTATION_STYLE_ASSIGNMENT((#1185));
#1184=PRESENTATION_STYLE_ASSIGNMENT((#1186));
#1185=SURFACE_STYLE_USAGE(.BOTH.,#1187);
#1186=SURFACE_STYLE_USAGE(.BOTH.,#1188);
#1187=SURFACE_SIDE_STYLE('',(#1189));
#1188=SURFACE_SIDE_STYLE('',(#1190));
#1189=SURFACE_STYLE_FILL_AREA(#1191);
#1190=SURFACE_STYLE_FILL_AREA(#1192);
#1191=FILL_AREA_STYLE('Steel - Satin',(#1193));
#1192=FILL_AREA_STYLE('Opaque(160,160,160)',(#1194));
#1193=FILL_AREA_STYLE_COLOUR('Steel - Satin',#1195);
#1194=FILL_AREA_STYLE_COLOUR('Opaque(160,160,160)',#1196);
#1195=COLOUR_RGB('Steel - Satin',0.627450980392157,0.627450980392157,0.627450980392157);
#1196=COLOUR_RGB('Opaque(160,160,160)',0.627450980392157,0.627450980392157,
0.627450980392157);
ENDSEC;
END-ISO-10303-21;
