ISO-10303-21;
HEADER;
FILE_DESCRIPTION(('FreeCAD Model'),'2;1');
FILE_NAME('Open CASCADE Shape Model','2026-10-07T23:57:03',('FreeCAD'),(
    'FreeCAD'),'Open CASCADE STEP processor 7.8','FreeCAD','Unknown');
FILE_SCHEMA(('AUTOMOTIVE_DESIGN { 1 0 10303 214 1 1 1 1 }'));
ENDSEC;
DATA;
#1 = APPLICATION_PROTOCOL_DEFINITION('international standard',
  'automotive_design',2000,#2);
#2 = APPLICATION_CONTEXT(
  'core data for automotive mechanical design processes');
#3 = SHAPE_DEFINITION_REPRESENTATION(#4,#10);
#4 = PRODUCT_DEFINITION_SHAPE('','',#5);
#5 = PRODUCT_DEFINITION('design','',#6,#9);
#6 = PRODUCT_DEFINITION_FORMATION('','',#7);
#7 = PRODUCT('Open CASCADE STEP translator 7.8 26',
  'Open CASCADE STEP translator 7.8 26','',(#8));
#8 = PRODUCT_CONTEXT('',#2,'mechanical');
#9 = PRODUCT_DEFINITION_CONTEXT('part definition',#2,'design');
#10 = ADVANCED_BREP_SHAPE_REPRESENTATION('',(#11,#15),#1161);
#11 = AXIS2_PLACEMENT_3D('',#12,#13,#14);
#12 = CARTESIAN_POINT('',(0.,0.,0.));
#13 = DIRECTION('',(0.,0.,1.));
#14 = DIRECTION('',(1.,0.,-0.));
#15 = MANIFOLD_SOLID_BREP('',#16);
#16 = CLOSED_SHELL('',(#17,#96,#127,#151,#516,#612,#636,#685,#710,#735,
    #776,#816,#840,#864,#881,#898,#915,#927,#949,#966,#983,#995,#1017,
    #1034,#1051,#1063,#1072,#1081,#1106,#1131,#1143,#1152));
#17 = ADVANCED_FACE('',(#18,#69,#80),#91,.F.);
#18 = FACE_BOUND('',#19,.F.);
#19 = EDGE_LOOP('',(#20,#30,#38,#46,#54,#62));
#20 = ORIENTED_EDGE('',*,*,#21,.F.);
#21 = EDGE_CURVE('',#22,#24,#26,.T.);
#22 = VERTEX_POINT('',#23);
#23 = CARTESIAN_POINT('',(-44.,-20.2,0.));
#24 = VERTEX_POINT('',#25);
#25 = CARTESIAN_POINT('',(-44.,-15.2,0.));
#26 = LINE('',#27,#28);
#27 = CARTESIAN_POINT('',(-44.,-20.2,0.));
#28 = VECTOR('',#29,1.);
#29 = DIRECTION('',(0.,1.,0.));
#30 = ORIENTED_EDGE('',*,*,#31,.F.);
#31 = EDGE_CURVE('',#32,#22,#34,.T.);
#32 = VERTEX_POINT('',#33);
#33 = CARTESIAN_POINT('',(-44.,-20.2,-24.));
#34 = LINE('',#35,#36);
#35 = CARTESIAN_POINT('',(-44.,-20.2,-24.));
#36 = VECTOR('',#37,1.);
#37 = DIRECTION('',(0.,0.,1.));
#38 = ORIENTED_EDGE('',*,*,#39,.T.);
#39 = EDGE_CURVE('',#32,#40,#42,.T.);
#40 = VERTEX_POINT('',#41);
#41 = CARTESIAN_POINT('',(-44.,26.7,-24.));
#42 = LINE('',#43,#44);
#43 = CARTESIAN_POINT('',(-44.,-20.2,-24.));
#44 = VECTOR('',#45,1.);
#45 = DIRECTION('',(0.,1.,0.));
#46 = ORIENTED_EDGE('',*,*,#47,.T.);
#47 = EDGE_CURVE('',#40,#48,#50,.T.);
#48 = VERTEX_POINT('',#49);
#49 = CARTESIAN_POINT('',(-44.,26.7,0.));
#50 = LINE('',#51,#52);
#51 = CARTESIAN_POINT('',(-44.,26.7,-24.));
#52 = VECTOR('',#53,1.);
#53 = DIRECTION('',(0.,0.,1.));
#54 = ORIENTED_EDGE('',*,*,#55,.F.);
#55 = EDGE_CURVE('',#56,#48,#58,.T.);
#56 = VERTEX_POINT('',#57);
#57 = CARTESIAN_POINT('',(-44.,15.2,0.));
#58 = LINE('',#59,#60);
#59 = CARTESIAN_POINT('',(-44.,-20.2,0.));
#60 = VECTOR('',#61,1.);
#61 = DIRECTION('',(0.,1.,0.));
#62 = ORIENTED_EDGE('',*,*,#63,.F.);
#63 = EDGE_CURVE('',#24,#56,#64,.T.);
#64 = CIRCLE('',#65,15.2);
#65 = AXIS2_PLACEMENT_3D('',#66,#67,#68);
#66 = CARTESIAN_POINT('',(-44.,0.,0.));
#67 = DIRECTION('',(1.,0.,-0.));
#68 = DIRECTION('',(0.,0.,1.));
#69 = FACE_BOUND('',#70,.F.);
#70 = EDGE_LOOP('',(#71));
#71 = ORIENTED_EDGE('',*,*,#72,.F.);
#72 = EDGE_CURVE('',#73,#73,#75,.T.);
#73 = VERTEX_POINT('',#74);
#74 = CARTESIAN_POINT('',(-44.,17.,-15.2728));
#75 = CIRCLE('',#76,1.7272);
#76 = AXIS2_PLACEMENT_3D('',#77,#78,#79);
#77 = CARTESIAN_POINT('',(-44.,17.,-17.));
#78 = DIRECTION('',(1.,0.,-0.));
#79 = DIRECTION('',(0.,0.,1.));
#80 = FACE_BOUND('',#81,.F.);
#81 = EDGE_LOOP('',(#82));
#82 = ORIENTED_EDGE('',*,*,#83,.F.);
#83 = EDGE_CURVE('',#84,#84,#86,.T.);
#84 = VERTEX_POINT('',#85);
#85 = CARTESIAN_POINT('',(-44.,-14.5,-15.2728));
#86 = CIRCLE('',#87,1.7272);
#87 = AXIS2_PLACEMENT_3D('',#88,#89,#90);
#88 = CARTESIAN_POINT('',(-44.,-14.5,-17.));
#89 = DIRECTION('',(1.,0.,-0.));
#90 = DIRECTION('',(0.,0.,1.));
#91 = PLANE('',#92);
#92 = AXIS2_PLACEMENT_3D('',#93,#94,#95);
#93 = CARTESIAN_POINT('',(-44.,-20.2,-24.));
#94 = DIRECTION('',(1.,0.,0.));
#95 = DIRECTION('',(0.,0.,1.));
#96 = ADVANCED_FACE('',(#97),#122,.T.);
#97 = FACE_BOUND('',#98,.T.);
#98 = EDGE_LOOP('',(#99,#100,#108,#116));
#99 = ORIENTED_EDGE('',*,*,#21,.F.);
#100 = ORIENTED_EDGE('',*,*,#101,.T.);
#101 = EDGE_CURVE('',#22,#102,#104,.T.);
#102 = VERTEX_POINT('',#103);
#103 = CARTESIAN_POINT('',(44.,-20.2,0.));
#104 = LINE('',#105,#106);
#105 = CARTESIAN_POINT('',(-44.,-20.2,0.));
#106 = VECTOR('',#107,1.);
#107 = DIRECTION('',(1.,0.,0.));
#108 = ORIENTED_EDGE('',*,*,#109,.T.);
#109 = EDGE_CURVE('',#102,#110,#112,.T.);
#110 = VERTEX_POINT('',#111);
#111 = CARTESIAN_POINT('',(44.,-15.2,0.));
#112 = LINE('',#113,#114);
#113 = CARTESIAN_POINT('',(44.,-20.2,0.));
#114 = VECTOR('',#115,1.);
#115 = DIRECTION('',(0.,1.,0.));
#116 = ORIENTED_EDGE('',*,*,#117,.F.);
#117 = EDGE_CURVE('',#24,#110,#118,.T.);
#118 = LINE('',#119,#120);
#119 = CARTESIAN_POINT('',(-45.,-15.2,0.));
#120 = VECTOR('',#121,1.);
#121 = DIRECTION('',(1.,0.,0.));
#122 = PLANE('',#123);
#123 = AXIS2_PLACEMENT_3D('',#124,#125,#126);
#124 = CARTESIAN_POINT('',(-44.,-20.2,0.));
#125 = DIRECTION('',(0.,0.,1.));
#126 = DIRECTION('',(1.,0.,0.));
#127 = ADVANCED_FACE('',(#128),#146,.F.);
#128 = FACE_BOUND('',#129,.F.);
#129 = EDGE_LOOP('',(#130,#138,#139,#140));
#130 = ORIENTED_EDGE('',*,*,#131,.F.);
#131 = EDGE_CURVE('',#32,#132,#134,.T.);
#132 = VERTEX_POINT('',#133);
#133 = CARTESIAN_POINT('',(44.,-20.2,-24.));
#134 = LINE('',#135,#136);
#135 = CARTESIAN_POINT('',(-44.,-20.2,-24.));
#136 = VECTOR('',#137,1.);
#137 = DIRECTION('',(1.,0.,0.));
#138 = ORIENTED_EDGE('',*,*,#31,.T.);
#139 = ORIENTED_EDGE('',*,*,#101,.T.);
#140 = ORIENTED_EDGE('',*,*,#141,.F.);
#141 = EDGE_CURVE('',#132,#102,#142,.T.);
#142 = LINE('',#143,#144);
#143 = CARTESIAN_POINT('',(44.,-20.2,-24.));
#144 = VECTOR('',#145,1.);
#145 = DIRECTION('',(0.,0.,1.));
#146 = PLANE('',#147);
#147 = AXIS2_PLACEMENT_3D('',#148,#149,#150);
#148 = CARTESIAN_POINT('',(-44.,-20.2,-24.));
#149 = DIRECTION('',(0.,1.,0.));
#150 = DIRECTION('',(0.,0.,1.));
#151 = ADVANCED_FACE('',(#152,#239,#375),#511,.F.);
#152 = FACE_BOUND('',#153,.F.);
#153 = EDGE_LOOP('',(#154,#155,#156,#164,#173,#181,#190,#198,#207,#215,
    #224,#232));
#154 = ORIENTED_EDGE('',*,*,#117,.F.);
#155 = ORIENTED_EDGE('',*,*,#63,.T.);
#156 = ORIENTED_EDGE('',*,*,#157,.T.);
#157 = EDGE_CURVE('',#56,#158,#160,.T.);
#158 = VERTEX_POINT('',#159);
#159 = CARTESIAN_POINT('',(-23.,15.2,0.));
#160 = LINE('',#161,#162);
#161 = CARTESIAN_POINT('',(-45.,15.2,0.));
#162 = VECTOR('',#163,1.);
#163 = DIRECTION('',(1.,0.,0.));
#164 = ORIENTED_EDGE('',*,*,#165,.F.);
#165 = EDGE_CURVE('',#166,#158,#168,.T.);
#166 = VERTEX_POINT('',#167);
#167 = CARTESIAN_POINT('',(-23.,13.965672200077,-6.));
#168 = CIRCLE('',#169,15.2);
#169 = AXIS2_PLACEMENT_3D('',#170,#171,#172);
#170 = CARTESIAN_POINT('',(-23.,0.,0.));
#171 = DIRECTION('',(1.,0.,-0.));
#172 = DIRECTION('',(0.,0.,1.));
#173 = ORIENTED_EDGE('',*,*,#174,.T.);
#174 = EDGE_CURVE('',#166,#175,#177,.T.);
#175 = VERTEX_POINT('',#176);
#176 = CARTESIAN_POINT('',(-17.,13.965672200077,-6.));
#177 = LINE('',#178,#179);
#178 = CARTESIAN_POINT('',(-45.,13.965672200077,-6.));
#179 = VECTOR('',#180,1.);
#180 = DIRECTION('',(1.,0.,0.));
#181 = ORIENTED_EDGE('',*,*,#182,.T.);
#182 = EDGE_CURVE('',#175,#183,#185,.T.);
#183 = VERTEX_POINT('',#184);
#184 = CARTESIAN_POINT('',(-17.,15.2,0.));
#185 = CIRCLE('',#186,15.2);
#186 = AXIS2_PLACEMENT_3D('',#187,#188,#189);
#187 = CARTESIAN_POINT('',(-17.,0.,0.));
#188 = DIRECTION('',(1.,0.,-0.));
#189 = DIRECTION('',(0.,0.,1.));
#190 = ORIENTED_EDGE('',*,*,#191,.T.);
#191 = EDGE_CURVE('',#183,#192,#194,.T.);
#192 = VERTEX_POINT('',#193);
#193 = CARTESIAN_POINT('',(-6.,15.2,0.));
#194 = LINE('',#195,#196);
#195 = CARTESIAN_POINT('',(-45.,15.2,0.));
#196 = VECTOR('',#197,1.);
#197 = DIRECTION('',(1.,0.,0.));
#198 = ORIENTED_EDGE('',*,*,#199,.F.);
#199 = EDGE_CURVE('',#200,#192,#202,.T.);
#200 = VERTEX_POINT('',#201);
#201 = CARTESIAN_POINT('',(-6.,14.354093492798,-5.));
#202 = CIRCLE('',#203,15.2);
#203 = AXIS2_PLACEMENT_3D('',#204,#205,#206);
#204 = CARTESIAN_POINT('',(-6.,0.,0.));
#205 = DIRECTION('',(1.,0.,-0.));
#206 = DIRECTION('',(0.,0.,1.));
#207 = ORIENTED_EDGE('',*,*,#208,.T.);
#208 = EDGE_CURVE('',#200,#209,#211,.T.);
#209 = VERTEX_POINT('',#210);
#210 = CARTESIAN_POINT('',(6.,14.354093492798,-5.));
#211 = LINE('',#212,#213);
#212 = CARTESIAN_POINT('',(-45.,14.354093492798,-5.));
#213 = VECTOR('',#214,1.);
#214 = DIRECTION('',(1.,0.,0.));
#215 = ORIENTED_EDGE('',*,*,#216,.T.);
#216 = EDGE_CURVE('',#209,#217,#219,.T.);
#217 = VERTEX_POINT('',#218);
#218 = CARTESIAN_POINT('',(6.,15.2,0.));
#219 = CIRCLE('',#220,15.2);
#220 = AXIS2_PLACEMENT_3D('',#221,#222,#223);
#221 = CARTESIAN_POINT('',(6.,0.,0.));
#222 = DIRECTION('',(1.,0.,-0.));
#223 = DIRECTION('',(0.,0.,1.));
#224 = ORIENTED_EDGE('',*,*,#225,.T.);
#225 = EDGE_CURVE('',#217,#226,#228,.T.);
#226 = VERTEX_POINT('',#227);
#227 = CARTESIAN_POINT('',(44.,15.2,0.));
#228 = LINE('',#229,#230);
#229 = CARTESIAN_POINT('',(-45.,15.2,0.));
#230 = VECTOR('',#231,1.);
#231 = DIRECTION('',(1.,0.,0.));
#232 = ORIENTED_EDGE('',*,*,#233,.F.);
#233 = EDGE_CURVE('',#110,#226,#234,.T.);
#234 = CIRCLE('',#235,15.2);
#235 = AXIS2_PLACEMENT_3D('',#236,#237,#238);
#236 = CARTESIAN_POINT('',(44.,0.,0.));
#237 = DIRECTION('',(1.,0.,-0.));
#238 = DIRECTION('',(0.,0.,1.));
#239 = FACE_BOUND('',#240,.F.);
#240 = EDGE_LOOP('',(#241,#252,#301,#310));
#241 = ORIENTED_EDGE('',*,*,#242,.F.);
#242 = EDGE_CURVE('',#243,#245,#247,.T.);
#243 = VERTEX_POINT('',#244);
#244 = CARTESIAN_POINT('',(-42.0844,0.5,-15.19177408994));
#245 = VERTEX_POINT('',#246);
#246 = CARTESIAN_POINT('',(-42.0844,11.,-10.48999523355));
#247 = CIRCLE('',#248,15.2);
#248 = AXIS2_PLACEMENT_3D('',#249,#250,#251);
#249 = CARTESIAN_POINT('',(-42.0844,0.,0.));
#250 = DIRECTION('',(1.,0.,-0.));
#251 = DIRECTION('',(0.,0.,1.));
#252 = ORIENTED_EDGE('',*,*,#253,.T.);
#253 = EDGE_CURVE('',#243,#254,#256,.T.);
#254 = VERTEX_POINT('',#255);
#255 = CARTESIAN_POINT('',(-37.7156,0.5,-15.19177408994));
#256 = B_SPLINE_CURVE_WITH_KNOTS('',7,(#257,#258,#259,#260,#261,#262,
    #263,#264,#265,#266,#267,#268,#269,#270,#271,#272,#273,#274,#275,
    #276,#277,#278,#279,#280,#281,#282,#283,#284,#285,#286,#287,#288,
    #289,#290,#291,#292,#293,#294,#295,#296,#297,#298,#299,#300),
  .UNSPECIFIED.,.F.,.F.,(8,6,6,6,6,6,6,8),(0.,0.101786704699,
    0.250203088772,0.362758743064,0.500289552101,0.685474230509,
    0.833134862602,1.),.UNSPECIFIED.);
#257 = CARTESIAN_POINT('',(-42.0844,0.5,-15.19177408994));
#258 = CARTESIAN_POINT('',(-42.0844,0.381700485308,-15.19566762845));
#259 = CARTESIAN_POINT('',(-42.07692550168,0.263505671422,
    -15.19848183176));
#260 = CARTESIAN_POINT('',(-42.06200046368,0.146334813044,
    -15.20019093676));
#261 = CARTESIAN_POINT('',(-42.03983569047,3.109717902817E-02,
    -15.20081948899));
#262 = CARTESIAN_POINT('',(-42.01082505524,-8.133421935814E-02,
    -15.20044108506));
#263 = CARTESIAN_POINT('',(-41.97554278895,-0.190148885968,
    -15.1991698056));
#264 = CARTESIAN_POINT('',(-41.87524948837,-0.446963047576,
    -15.19419098247));
#265 = CARTESIAN_POINT('',(-41.80401729154,-0.590094388175,
    -15.18963385156));
#266 = CARTESIAN_POINT('',(-41.72271913255,-0.723450554383,
    -15.18387043268));
#267 = CARTESIAN_POINT('',(-41.63290464668,-0.846670568049,
    -15.17729788211));
#268 = CARTESIAN_POINT('',(-41.53602011392,-0.959568326807,
    -15.17028016056));
#269 = CARTESIAN_POINT('',(-41.43342528446,-1.062106741334,
    -15.16312938604));
#270 = CARTESIAN_POINT('',(-41.24524521035,-1.224355693612,
    -15.15077154212));
#271 = CARTESIAN_POINT('',(-41.1613661526,-1.288577855785,
    -15.14550086298));
#272 = CARTESIAN_POINT('',(-41.07517587294,-1.347156525369,
    -15.14039262864));
#273 = CARTESIAN_POINT('',(-40.98702420314,-1.40020529092,
    -15.13553266589));
#274 = CARTESIAN_POINT('',(-40.89721231872,-1.447834252985,
    -15.13099138523));
#275 = CARTESIAN_POINT('',(-40.80600116423,-1.490144279962,
    -15.12682579879));
#276 = CARTESIAN_POINT('',(-40.60073996141,-1.572525319421,
    -15.1185064576));
#277 = CARTESIAN_POINT('',(-40.48610856586,-1.610018237888,
    -15.11456037906));
#278 = CARTESIAN_POINT('',(-40.37015204902,-1.639852175777,
    -15.11132649262));
#279 = CARTESIAN_POINT('',(-40.25324074634,-1.662145884042,
    -15.10886391295));
#280 = CARTESIAN_POINT('',(-40.13570605959,-1.676981276806,
    -15.10720999435));
#281 = CARTESIAN_POINT('',(-40.01785754478,-1.6844,-15.10638264575));
#282 = CARTESIAN_POINT('',(-39.74130529238,-1.6844,-15.10638264575));
#283 = CARTESIAN_POINT('',(-39.58264965362,-1.670949317175,
    -15.10788246238));
#284 = CARTESIAN_POINT('',(-39.42475793075,-1.644060591674,
    -15.11088051084));
#285 = CARTESIAN_POINT('',(-39.26837666534,-1.603591394768,
    -15.11531670947));
#286 = CARTESIAN_POINT('',(-39.11435075282,-1.549267530571,
    -15.1210686498));
#287 = CARTESIAN_POINT('',(-38.96370350055,-1.480706150452,
    -15.12793779308));
#288 = CARTESIAN_POINT('',(-38.70131734742,-1.331043731026,
    -15.14175579163));
#289 = CARTESIAN_POINT('',(-38.58779338355,-1.255248981952,
    -15.14841110938));
#290 = CARTESIAN_POINT('',(-38.47786599507,-1.169825010168,
    -15.1554384894));
#291 = CARTESIAN_POINT('',(-38.37237396193,-1.074539941014,
    -15.16264237834));
#292 = CARTESIAN_POINT('',(-38.27230523281,-0.969189002292,
    -15.16977510699));
#293 = CARTESIAN_POINT('',(-38.17882807647,-0.853628602163,
    -15.17653398061));
#294 = CARTESIAN_POINT('',(-37.99670194263,-0.585638134384,
    -15.18938078624));
#295 = CARTESIAN_POINT('',(-37.90914337634,-0.428721231181,
    -15.19534608106));
#296 = CARTESIAN_POINT('',(-37.83455972566,-0.258643473953,
    -15.19980745485));
#297 = CARTESIAN_POINT('',(-37.77605961375,-7.771091703759E-02,
    -15.20209056879));
#298 = CARTESIAN_POINT('',(-37.73592867227,0.111212725492,-15.2016438473
    ));
#299 = CARTESIAN_POINT('',(-37.7156,0.304904342326,-15.19819518522));
#300 = CARTESIAN_POINT('',(-37.7156,0.5,-15.19177408994));
#301 = ORIENTED_EDGE('',*,*,#302,.T.);
#302 = EDGE_CURVE('',#254,#303,#305,.T.);
#303 = VERTEX_POINT('',#304);
#304 = CARTESIAN_POINT('',(-37.7156,11.,-10.48999523355));
#305 = CIRCLE('',#306,15.2);
#306 = AXIS2_PLACEMENT_3D('',#307,#308,#309);
#307 = CARTESIAN_POINT('',(-37.7156,0.,0.));
#308 = DIRECTION('',(1.,0.,-0.));
#309 = DIRECTION('',(0.,0.,1.));
#310 = ORIENTED_EDGE('',*,*,#311,.T.);
#311 = EDGE_CURVE('',#303,#245,#312,.T.);
#312 = B_SPLINE_CURVE_WITH_KNOTS('',6,(#313,#314,#315,#316,#317,#318,
    #319,#320,#321,#322,#323,#324,#325,#326,#327,#328,#329,#330,#331,
    #332,#333,#334,#335,#336,#337,#338,#339,#340,#341,#342,#343,#344,
    #345,#346,#347,#348,#349,#350,#351,#352,#353,#354,#355,#356,#357,
    #358,#359,#360,#361,#362,#363,#364,#365,#366,#367,#368,#369,#370,
    #371,#372,#373,#374),.UNSPECIFIED.,.F.,.F.,(7,5,5,5,5,5,5,5,5,5,5,5,
    7),(0.,0.169807133695,0.308195018751,0.351127144577,0.402779736017,
    0.440821414147,0.500086235237,0.539275402502,0.597328516506,
    0.648773903834,0.691069657905,0.830240935165,1.),.UNSPECIFIED.);
#313 = CARTESIAN_POINT('',(-37.7156,11.,-10.48999523355));
#314 = CARTESIAN_POINT('',(-37.7156,11.19310793958,-10.28749873207));
#315 = CARTESIAN_POINT('',(-37.73608592956,11.380395908924,
    -10.08214839024));
#316 = CARTESIAN_POINT('',(-37.77474067168,11.560577647152,
    -9.875528397382));
#317 = CARTESIAN_POINT('',(-37.82990133088,11.732989436071,-9.6689691523
    ));
#318 = CARTESIAN_POINT('',(-37.90045533756,11.897109204336,
    -9.463809798395));
#319 = CARTESIAN_POINT('',(-38.05534559668,12.178853539741,
    -9.097177243221));
#320 = CARTESIAN_POINT('',(-38.13463112082,12.299306811034,
    -8.93484642768));
#321 = CARTESIAN_POINT('',(-38.22353476302,12.413870045356,
    -8.775153313239));
#322 = CARTESIAN_POINT('',(-38.32234111106,12.522408279893,
    -8.618817615296));
#323 = CARTESIAN_POINT('',(-38.43152118863,12.624328310011,
    -8.467343540902));
#324 = CARTESIAN_POINT('',(-38.58875786776,12.747709048371,
    -8.278813931048));
#325 = CARTESIAN_POINT('',(-38.62705340135,12.776195205212,
    -8.234876128768));
#326 = CARTESIAN_POINT('',(-38.66644658557,12.803930273338,
    -8.191703574827));
#327 = CARTESIAN_POINT('',(-38.70696838785,12.830881152194,
    -8.14937834374));
#328 = CARTESIAN_POINT('',(-38.74864884179,12.857005357294,
    -8.108000715725));
#329 = CARTESIAN_POINT('',(-38.84309273434,12.912624636431,-8.0191894713
    ));
#330 = CARTESIAN_POINT('',(-38.89640049374,12.941734309421,
    -7.972220977463));
#331 = CARTESIAN_POINT('',(-38.95149042389,12.969487504821,
    -7.926993915068));
#332 = CARTESIAN_POINT('',(-39.00840712725,12.995771807167,
    -7.883760548512));
#333 = CARTESIAN_POINT('',(-39.06718933824,13.020454799163,
    -7.842815249871));
#334 = CARTESIAN_POINT('',(-39.17255999305,13.060271051681,
    -7.77627171338));
#335 = CARTESIAN_POINT('',(-39.21829336763,13.076211884744,
    -7.749464036519));
#336 = CARTESIAN_POINT('',(-39.26504165969,13.091128394163,
    -7.724234160089));
#337 = CARTESIAN_POINT('',(-39.31277618987,13.104945084449,
    -7.700743867571));
#338 = CARTESIAN_POINT('',(-39.36146764468,13.117587800689,
    -7.679153703091));
#339 = CARTESIAN_POINT('',(-39.48838630465,13.146734257113,
    -7.629195194952));
#340 = CARTESIAN_POINT('',(-39.56812004102,13.161499063278,
    -7.603692362264));
#341 = CARTESIAN_POINT('',(-39.6497082512,13.172859240833,
    -7.583952910455));
#342 = CARTESIAN_POINT('',(-39.7325839838,13.180541459435,
    -7.570559685851));
#343 = CARTESIAN_POINT('',(-39.81619393781,13.1844,-7.563834784023));
#344 = CARTESIAN_POINT('',(-39.95541718895,13.1844,-7.563834784023));
#345 = CARTESIAN_POINT('',(-40.01080616792,13.182712892059,
    -7.566775461083));
#346 = CARTESIAN_POINT('',(-40.06598251015,13.179341987656,
    -7.57265149811));
#347 = CARTESIAN_POINT('',(-40.12075918098,13.174317978756,
    -7.581397091685));
#348 = CARTESIAN_POINT('',(-40.17494683509,13.16770059626,
    -7.592886426486));
#349 = CARTESIAN_POINT('',(-40.30746931491,13.147551170898,
    -7.627743830954));
#350 = CARTESIAN_POINT('',(-40.38476030618,13.132241008518,
    -7.654138462142));
#351 = CARTESIAN_POINT('',(-40.46005047175,13.113895144018,
    -7.685601366224));
#352 = CARTESIAN_POINT('',(-40.53316159867,13.092772924137,
    -7.72156497844));
#353 = CARTESIAN_POINT('',(-40.60391463515,13.06916054891,
    -7.761415001716));
#354 = CARTESIAN_POINT('',(-40.73258179598,13.020541280331,
    -7.842670716863));
#355 = CARTESIAN_POINT('',(-40.79114951556,12.995957942101,
    -7.883451774505));
#356 = CARTESIAN_POINT('',(-40.84786568463,12.969784755103,
    -7.926504973864));
#357 = CARTESIAN_POINT('',(-40.90276852167,12.94215273922,
    -7.971539064832));
#358 = CARTESIAN_POINT('',(-40.95590202928,12.913173226262,
    -8.018304254631));
#359 = CARTESIAN_POINT('',(-41.04958526373,12.858080115654,
    -8.106291983969));
#360 = CARTESIAN_POINT('',(-41.09070078103,12.832368372983,
    -8.147028917014));
#361 = CARTESIAN_POINT('',(-41.13069011359,12.805852482872,
    -8.188689356419));
#362 = CARTESIAN_POINT('',(-41.16958211559,12.778573265815,
    -8.231176983524));
#363 = CARTESIAN_POINT('',(-41.20740657088,12.750562632766,
    -8.274412757875));
#364 = CARTESIAN_POINT('',(-41.36524133957,12.627345529107,
    -8.462857769451));
#365 = CARTESIAN_POINT('',(-41.47531738842,12.524977203616,
    -8.615116386709));
#366 = CARTESIAN_POINT('',(-41.57488497211,12.415904062803,
    -8.772317382973));
#367 = CARTESIAN_POINT('',(-41.66442812529,12.300734590679,
    -8.932921836206));
#368 = CARTESIAN_POINT('',(-41.74424088696,12.179605723203,
    -9.096198430483));
#369 = CARTESIAN_POINT('',(-41.89954466243,11.897109204336,
    -9.463809798395));
#370 = CARTESIAN_POINT('',(-41.97009866911,11.732989436071,-9.6689691523
    ));
#371 = CARTESIAN_POINT('',(-42.02525932831,11.560577647152,
    -9.875528397382));
#372 = CARTESIAN_POINT('',(-42.06391407043,11.380395908924,
    -10.08214839024));
#373 = CARTESIAN_POINT('',(-42.0844,11.19310793958,-10.28749873207));
#374 = CARTESIAN_POINT('',(-42.0844,11.,-10.48999523355));
#375 = FACE_BOUND('',#376,.F.);
#376 = EDGE_LOOP('',(#377,#388,#437,#446));
#377 = ORIENTED_EDGE('',*,*,#378,.F.);
#378 = EDGE_CURVE('',#379,#381,#383,.T.);
#379 = VERTEX_POINT('',#380);
#380 = CARTESIAN_POINT('',(37.7156,0.5,-15.19177408994));
#381 = VERTEX_POINT('',#382);
#382 = CARTESIAN_POINT('',(37.7156,11.,-10.48999523355));
#383 = CIRCLE('',#384,15.2);
#384 = AXIS2_PLACEMENT_3D('',#385,#386,#387);
#385 = CARTESIAN_POINT('',(37.7156,0.,0.));
#386 = DIRECTION('',(1.,0.,-0.));
#387 = DIRECTION('',(0.,0.,1.));
#388 = ORIENTED_EDGE('',*,*,#389,.T.);
#389 = EDGE_CURVE('',#379,#390,#392,.T.);
#390 = VERTEX_POINT('',#391);
#391 = CARTESIAN_POINT('',(42.0844,0.5,-15.19177408994));
#392 = B_SPLINE_CURVE_WITH_KNOTS('',7,(#393,#394,#395,#396,#397,#398,
    #399,#400,#401,#402,#403,#404,#405,#406,#407,#408,#409,#410,#411,
    #412,#413,#414,#415,#416,#417,#418,#419,#420,#421,#422,#423,#424,
    #425,#426,#427,#428,#429,#430,#431,#432,#433,#434,#435,#436),
  .UNSPECIFIED.,.F.,.F.,(8,6,6,6,6,6,6,8),(0.,0.101786704173,
    0.250203087501,0.362758745786,0.500289554236,0.685474231853,
    0.833134863316,1.),.UNSPECIFIED.);
#393 = CARTESIAN_POINT('',(37.7156,0.5,-15.19177408994));
#394 = CARTESIAN_POINT('',(37.7156,0.381700485307,-15.19566762845));
#395 = CARTESIAN_POINT('',(37.723074498315,0.263505671422,
    -15.19848183176));
#396 = CARTESIAN_POINT('',(37.737999536314,0.146334813046,
    -15.20019093676));
#397 = CARTESIAN_POINT('',(37.760164309528,3.10971790291E-02,
    -15.20081948899));
#398 = CARTESIAN_POINT('',(37.789174944761,-8.133421935896E-02,
    -15.20044108506));
#399 = CARTESIAN_POINT('',(37.824457211049,-0.19014888597,-15.1991698056
    ));
#400 = CARTESIAN_POINT('',(37.924750511636,-0.446963047595,
    -15.19419098247));
#401 = CARTESIAN_POINT('',(37.995982708457,-0.590094388176,
    -15.18963385156));
#402 = CARTESIAN_POINT('',(38.077280867439,-0.723450554369,
    -15.18387043268));
#403 = CARTESIAN_POINT('',(38.167095353307,-0.846670568036,
    -15.17729788211));
#404 = CARTESIAN_POINT('',(38.263979886078,-0.95956832681,
    -15.17028016056));
#405 = CARTESIAN_POINT('',(38.366574715548,-1.062106741348,
    -15.16312938604));
#406 = CARTESIAN_POINT('',(38.554754792923,-1.224355696436,
    -15.15077154191));
#407 = CARTESIAN_POINT('',(38.638633843865,-1.288577853725,
    -15.14550086316));
#408 = CARTESIAN_POINT('',(38.724824124405,-1.34715652315,
    -15.14039262881));
#409 = CARTESIAN_POINT('',(38.812975799791,-1.400205292153,
    -15.13553266577));
#410 = CARTESIAN_POINT('',(38.902787684749,-1.447834255247,
    -15.13099138504));
#411 = CARTESIAN_POINT('',(38.993998832091,-1.490144278488,
    -15.12682579894));
#412 = CARTESIAN_POINT('',(39.199260038587,-1.572525319421,
    -15.1185064576));
#413 = CARTESIAN_POINT('',(39.313891434132,-1.610018237888,
    -15.11456037906));
#414 = CARTESIAN_POINT('',(39.429847950971,-1.639852175777,
    -15.11132649262));
#415 = CARTESIAN_POINT('',(39.546759253656,-1.662145884042,
    -15.10886391295));
#416 = CARTESIAN_POINT('',(39.664293940404,-1.676981276806,
    -15.10720999435));
#417 = CARTESIAN_POINT('',(39.782142455216,-1.6844,-15.10638264575));
#418 = CARTESIAN_POINT('',(40.058694707619,-1.6844,-15.10638264575));
#419 = CARTESIAN_POINT('',(40.217350346377,-1.670949317175,
    -15.10788246238));
#420 = CARTESIAN_POINT('',(40.375242069249,-1.644060591674,
    -15.11088051084));
#421 = CARTESIAN_POINT('',(40.53162333466,-1.603591394768,
    -15.11531670947));
#422 = CARTESIAN_POINT('',(40.68564924718,-1.549267530571,-15.1210686498
    ));
#423 = CARTESIAN_POINT('',(40.83629649945,-1.480706150453,
    -15.12793779308));
#424 = CARTESIAN_POINT('',(41.098682652571,-1.331043731026,
    -15.14175579163));
#425 = CARTESIAN_POINT('',(41.212206616444,-1.255248981952,
    -15.14841110938));
#426 = CARTESIAN_POINT('',(41.322134004925,-1.169825010168,
    -15.1554384894));
#427 = CARTESIAN_POINT('',(41.427626038065,-1.074539941014,
    -15.16264237834));
#428 = CARTESIAN_POINT('',(41.527694767183,-0.969189002292,
    -15.16977510699));
#429 = CARTESIAN_POINT('',(41.62117192353,-0.853628602164,
    -15.17653398061));
#430 = CARTESIAN_POINT('',(41.803298057364,-0.585638134384,
    -15.18938078624));
#431 = CARTESIAN_POINT('',(41.890856623658,-0.428721231181,
    -15.19534608106));
#432 = CARTESIAN_POINT('',(41.965440274338,-0.258643473953,
    -15.19980745485));
#433 = CARTESIAN_POINT('',(42.023940386248,-7.771091703759E-02,
    -15.20209056879));
#434 = CARTESIAN_POINT('',(42.064071327726,0.111212725492,-15.2016438473
    ));
#435 = CARTESIAN_POINT('',(42.0844,0.304904342326,-15.19819518522));
#436 = CARTESIAN_POINT('',(42.0844,0.5,-15.19177408994));
#437 = ORIENTED_EDGE('',*,*,#438,.T.);
#438 = EDGE_CURVE('',#390,#439,#441,.T.);
#439 = VERTEX_POINT('',#440);
#440 = CARTESIAN_POINT('',(42.0844,11.,-10.48999523355));
#441 = CIRCLE('',#442,15.2);
#442 = AXIS2_PLACEMENT_3D('',#443,#444,#445);
#443 = CARTESIAN_POINT('',(42.0844,0.,0.));
#444 = DIRECTION('',(1.,0.,-0.));
#445 = DIRECTION('',(0.,0.,1.));
#446 = ORIENTED_EDGE('',*,*,#447,.T.);
#447 = EDGE_CURVE('',#439,#381,#448,.T.);
#448 = B_SPLINE_CURVE_WITH_KNOTS('',6,(#449,#450,#451,#452,#453,#454,
    #455,#456,#457,#458,#459,#460,#461,#462,#463,#464,#465,#466,#467,
    #468,#469,#470,#471,#472,#473,#474,#475,#476,#477,#478,#479,#480,
    #481,#482,#483,#484,#485,#486,#487,#488,#489,#490,#491,#492,#493,
    #494,#495,#496,#497,#498,#499,#500,#501,#502,#503,#504,#505,#506,
    #507,#508,#509,#510),.UNSPECIFIED.,.F.,.F.,(7,5,5,5,5,5,5,5,5,5,5,5,
    7),(0.,0.16980713372,0.308195018796,0.351127144628,0.402779736072,
    0.440821414203,0.500086235294,0.539275402559,0.597328516563,
    0.648773903888,0.691069657952,0.830240935191,1.),.UNSPECIFIED.);
#449 = CARTESIAN_POINT('',(42.0844,11.,-10.48999523355));
#450 = CARTESIAN_POINT('',(42.0844,11.19310793958,-10.28749873207));
#451 = CARTESIAN_POINT('',(42.063914070432,11.380395908924,
    -10.08214839025));
#452 = CARTESIAN_POINT('',(42.025259328317,11.560577647152,
    -9.875528397381));
#453 = CARTESIAN_POINT('',(41.970098669119,11.732989436071,-9.6689691523
    ));
#454 = CARTESIAN_POINT('',(41.899544662438,11.897109204336,
    -9.463809798395));
#455 = CARTESIAN_POINT('',(41.74465440332,12.178853539741,
    -9.097177243221));
#456 = CARTESIAN_POINT('',(41.665368879175,12.299306811033,
    -8.93484642768));
#457 = CARTESIAN_POINT('',(41.576465236974,12.413870045356,
    -8.775153313239));
#458 = CARTESIAN_POINT('',(41.477658888932,12.522408279893,
    -8.618817615297));
#459 = CARTESIAN_POINT('',(41.368478811368,12.624328310011,
    -8.467343540902));
#460 = CARTESIAN_POINT('',(41.211242132238,12.747709048371,
    -8.278813931048));
#461 = CARTESIAN_POINT('',(41.172946598642,12.776195205212,
    -8.234876128768));
#462 = CARTESIAN_POINT('',(41.133553414427,12.803930273338,
    -8.191703574827));
#463 = CARTESIAN_POINT('',(41.093031612144,12.830881152194,
    -8.14937834374));
#464 = CARTESIAN_POINT('',(41.051351158207,12.857005357294,
    -8.108000715725));
#465 = CARTESIAN_POINT('',(40.956907265658,12.912624636429,
    -8.019189471304));
#466 = CARTESIAN_POINT('',(40.903599506255,12.941734309422,
    -7.972220977462));
#467 = CARTESIAN_POINT('',(40.848509576104,12.969487504823,
    -7.926993915065));
#468 = CARTESIAN_POINT('',(40.79159287274,12.995771807167,
    -7.883760548511));
#469 = CARTESIAN_POINT('',(40.732810661759,13.020454799161,
    -7.842815249874));
#470 = CARTESIAN_POINT('',(40.627440006944,13.060271051681,
    -7.77627171338));
#471 = CARTESIAN_POINT('',(40.581706632361,13.076211884744,
    -7.749464036519));
#472 = CARTESIAN_POINT('',(40.534958340307,13.091128394163,
    -7.724234160089));
#473 = CARTESIAN_POINT('',(40.48722381013,13.104945084449,
    -7.700743867571));
#474 = CARTESIAN_POINT('',(40.438532355312,13.117587800689,
    -7.679153703091));
#475 = CARTESIAN_POINT('',(40.31161369535,13.146734257113,
    -7.629195194952));
#476 = CARTESIAN_POINT('',(40.231879958971,13.161499063278,
    -7.603692362264));
#477 = CARTESIAN_POINT('',(40.150291748794,13.172859240833,
    -7.583952910455));
#478 = CARTESIAN_POINT('',(40.0674160162,13.180541459435,-7.570559685851
    ));
#479 = CARTESIAN_POINT('',(39.983806062188,13.1844,-7.563834784023));
#480 = CARTESIAN_POINT('',(39.844582811042,13.1844,-7.563834784023));
#481 = CARTESIAN_POINT('',(39.789193832078,13.182712892059,
    -7.566775461083));
#482 = CARTESIAN_POINT('',(39.734017489841,13.179341987656,
    -7.57265149811));
#483 = CARTESIAN_POINT('',(39.679240819016,13.174317978756,
    -7.581397091685));
#484 = CARTESIAN_POINT('',(39.625053164905,13.16770059626,
    -7.592886426486));
#485 = CARTESIAN_POINT('',(39.492530685088,13.147551170898,
    -7.627743830954));
#486 = CARTESIAN_POINT('',(39.415239693814,13.132241008518,
    -7.654138462142));
#487 = CARTESIAN_POINT('',(39.339949528243,13.113895144018,
    -7.685601366224));
#488 = CARTESIAN_POINT('',(39.266838401329,13.092772924136,
    -7.72156497844));
#489 = CARTESIAN_POINT('',(39.19608536485,13.06916054891,-7.761415001716
    ));
#490 = CARTESIAN_POINT('',(39.067418204021,13.020541280333,
    -7.842670716859));
#491 = CARTESIAN_POINT('',(39.008850484438,12.9959579421,-7.883451774505
    ));
#492 = CARTESIAN_POINT('',(38.952134315357,12.9697847551,-7.926504973868
    ));
#493 = CARTESIAN_POINT('',(38.897231478326,12.942152739219,
    -7.971539064834));
#494 = CARTESIAN_POINT('',(38.844097970719,12.913173226265,
    -8.018304254628));
#495 = CARTESIAN_POINT('',(38.750414736261,12.858080115654,
    -8.106291983969));
#496 = CARTESIAN_POINT('',(38.709299218962,12.832368372983,
    -8.147028917014));
#497 = CARTESIAN_POINT('',(38.669309886409,12.805852482872,
    -8.188689356419));
#498 = CARTESIAN_POINT('',(38.630417884403,12.778573265815,
    -8.231176983524));
#499 = CARTESIAN_POINT('',(38.592593429115,12.750562632766,
    -8.274412757875));
#500 = CARTESIAN_POINT('',(38.434758660423,12.627345529107,
    -8.462857769451));
#501 = CARTESIAN_POINT('',(38.32468261158,12.524977203616,
    -8.615116386709));
#502 = CARTESIAN_POINT('',(38.225115027881,12.415904062803,
    -8.772317382973));
#503 = CARTESIAN_POINT('',(38.135571874705,12.300734590679,
    -8.932921836207));
#504 = CARTESIAN_POINT('',(38.055759113037,12.179605723203,
    -9.096198430483));
#505 = CARTESIAN_POINT('',(37.900455337562,11.897109204336,
    -9.463809798395));
#506 = CARTESIAN_POINT('',(37.829901330882,11.732989436071,-9.6689691523
    ));
#507 = CARTESIAN_POINT('',(37.774740671683,11.560577647152,
    -9.875528397382));
#508 = CARTESIAN_POINT('',(37.736085929568,11.380395908924,
    -10.08214839024));
#509 = CARTESIAN_POINT('',(37.7156,11.19310793958,-10.28749873207));
#510 = CARTESIAN_POINT('',(37.7156,11.,-10.48999523355));
#511 = CYLINDRICAL_SURFACE('',#512,15.2);
#512 = AXIS2_PLACEMENT_3D('',#513,#514,#515);
#513 = CARTESIAN_POINT('',(-45.,0.,0.));
#514 = DIRECTION('',(1.,0.,0.));
#515 = DIRECTION('',(0.,0.,1.));
#516 = ADVANCED_FACE('',(#517,#535,#571),#607,.F.);
#517 = FACE_BOUND('',#518,.F.);
#518 = EDGE_LOOP('',(#519,#520,#521,#529));
#519 = ORIENTED_EDGE('',*,*,#39,.F.);
#520 = ORIENTED_EDGE('',*,*,#131,.T.);
#521 = ORIENTED_EDGE('',*,*,#522,.T.);
#522 = EDGE_CURVE('',#132,#523,#525,.T.);
#523 = VERTEX_POINT('',#524);
#524 = CARTESIAN_POINT('',(44.,26.7,-24.));
#525 = LINE('',#526,#527);
#526 = CARTESIAN_POINT('',(44.,-20.2,-24.));
#527 = VECTOR('',#528,1.);
#528 = DIRECTION('',(0.,1.,0.));
#529 = ORIENTED_EDGE('',*,*,#530,.F.);
#530 = EDGE_CURVE('',#40,#523,#531,.T.);
#531 = LINE('',#532,#533);
#532 = CARTESIAN_POINT('',(-44.,26.7,-24.));
#533 = VECTOR('',#534,1.);
#534 = DIRECTION('',(1.,0.,0.));
#535 = FACE_BOUND('',#536,.F.);
#536 = EDGE_LOOP('',(#537,#548,#556,#565));
#537 = ORIENTED_EDGE('',*,*,#538,.F.);
#538 = EDGE_CURVE('',#539,#541,#543,.T.);
#539 = VERTEX_POINT('',#540);
#540 = CARTESIAN_POINT('',(-42.0844,0.5,-24.));
#541 = VERTEX_POINT('',#542);
#542 = CARTESIAN_POINT('',(-37.7156,0.5,-24.));
#543 = CIRCLE('',#544,2.1844);
#544 = AXIS2_PLACEMENT_3D('',#545,#546,#547);
#545 = CARTESIAN_POINT('',(-39.9,0.5,-24.));
#546 = DIRECTION('',(0.,0.,1.));
#547 = DIRECTION('',(1.,0.,0.));
#548 = ORIENTED_EDGE('',*,*,#549,.T.);
#549 = EDGE_CURVE('',#539,#550,#552,.T.);
#550 = VERTEX_POINT('',#551);
#551 = CARTESIAN_POINT('',(-42.0844,11.,-24.));
#552 = LINE('',#553,#554);
#553 = CARTESIAN_POINT('',(-42.0844,-9.85,-24.));
#554 = VECTOR('',#555,1.);
#555 = DIRECTION('',(0.,1.,0.));
#556 = ORIENTED_EDGE('',*,*,#557,.F.);
#557 = EDGE_CURVE('',#558,#550,#560,.T.);
#558 = VERTEX_POINT('',#559);
#559 = CARTESIAN_POINT('',(-37.7156,11.,-24.));
#560 = CIRCLE('',#561,2.1844);
#561 = AXIS2_PLACEMENT_3D('',#562,#563,#564);
#562 = CARTESIAN_POINT('',(-39.9,11.,-24.));
#563 = DIRECTION('',(0.,0.,1.));
#564 = DIRECTION('',(1.,0.,0.));
#565 = ORIENTED_EDGE('',*,*,#566,.F.);
#566 = EDGE_CURVE('',#541,#558,#567,.T.);
#567 = LINE('',#568,#569);
#568 = CARTESIAN_POINT('',(-37.7156,-9.85,-24.));
#569 = VECTOR('',#570,1.);
#570 = DIRECTION('',(0.,1.,0.));
#571 = FACE_BOUND('',#572,.F.);
#572 = EDGE_LOOP('',(#573,#584,#592,#601));
#573 = ORIENTED_EDGE('',*,*,#574,.F.);
#574 = EDGE_CURVE('',#575,#577,#579,.T.);
#575 = VERTEX_POINT('',#576);
#576 = CARTESIAN_POINT('',(37.7156,0.5,-24.));
#577 = VERTEX_POINT('',#578);
#578 = CARTESIAN_POINT('',(42.0844,0.5,-24.));
#579 = CIRCLE('',#580,2.1844);
#580 = AXIS2_PLACEMENT_3D('',#581,#582,#583);
#581 = CARTESIAN_POINT('',(39.9,0.5,-24.));
#582 = DIRECTION('',(0.,0.,1.));
#583 = DIRECTION('',(1.,0.,0.));
#584 = ORIENTED_EDGE('',*,*,#585,.T.);
#585 = EDGE_CURVE('',#575,#586,#588,.T.);
#586 = VERTEX_POINT('',#587);
#587 = CARTESIAN_POINT('',(37.7156,11.,-24.));
#588 = LINE('',#589,#590);
#589 = CARTESIAN_POINT('',(37.7156,-9.85,-24.));
#590 = VECTOR('',#591,1.);
#591 = DIRECTION('',(0.,1.,0.));
#592 = ORIENTED_EDGE('',*,*,#593,.F.);
#593 = EDGE_CURVE('',#594,#586,#596,.T.);
#594 = VERTEX_POINT('',#595);
#595 = CARTESIAN_POINT('',(42.0844,11.,-24.));
#596 = CIRCLE('',#597,2.1844);
#597 = AXIS2_PLACEMENT_3D('',#598,#599,#600);
#598 = CARTESIAN_POINT('',(39.9,11.,-24.));
#599 = DIRECTION('',(0.,0.,1.));
#600 = DIRECTION('',(1.,0.,0.));
#601 = ORIENTED_EDGE('',*,*,#602,.F.);
#602 = EDGE_CURVE('',#577,#594,#603,.T.);
#603 = LINE('',#604,#605);
#604 = CARTESIAN_POINT('',(42.0844,-9.85,-24.));
#605 = VECTOR('',#606,1.);
#606 = DIRECTION('',(0.,1.,0.));
#607 = PLANE('',#608);
#608 = AXIS2_PLACEMENT_3D('',#609,#610,#611);
#609 = CARTESIAN_POINT('',(-44.,-20.2,-24.));
#610 = DIRECTION('',(0.,0.,1.));
#611 = DIRECTION('',(1.,0.,0.));
#612 = ADVANCED_FACE('',(#613),#631,.T.);
#613 = FACE_BOUND('',#614,.T.);
#614 = EDGE_LOOP('',(#615,#616,#617,#625));
#615 = ORIENTED_EDGE('',*,*,#55,.F.);
#616 = ORIENTED_EDGE('',*,*,#157,.T.);
#617 = ORIENTED_EDGE('',*,*,#618,.T.);
#618 = EDGE_CURVE('',#158,#619,#621,.T.);
#619 = VERTEX_POINT('',#620);
#620 = CARTESIAN_POINT('',(-23.,26.7,0.));
#621 = LINE('',#622,#623);
#622 = CARTESIAN_POINT('',(-23.,-3.5,0.));
#623 = VECTOR('',#624,1.);
#624 = DIRECTION('',(0.,1.,0.));
#625 = ORIENTED_EDGE('',*,*,#626,.F.);
#626 = EDGE_CURVE('',#48,#619,#627,.T.);
#627 = LINE('',#628,#629);
#628 = CARTESIAN_POINT('',(-44.,26.7,0.));
#629 = VECTOR('',#630,1.);
#630 = DIRECTION('',(1.,0.,0.));
#631 = PLANE('',#632);
#632 = AXIS2_PLACEMENT_3D('',#633,#634,#635);
#633 = CARTESIAN_POINT('',(-44.,-20.2,0.));
#634 = DIRECTION('',(0.,0.,1.));
#635 = DIRECTION('',(1.,0.,0.));
#636 = ADVANCED_FACE('',(#637),#680,.T.);
#637 = FACE_BOUND('',#638,.T.);
#638 = EDGE_LOOP('',(#639,#647,#648,#649,#650,#658,#666,#674));
#639 = ORIENTED_EDGE('',*,*,#640,.F.);
#640 = EDGE_CURVE('',#523,#641,#643,.T.);
#641 = VERTEX_POINT('',#642);
#642 = CARTESIAN_POINT('',(44.,26.7,0.));
#643 = LINE('',#644,#645);
#644 = CARTESIAN_POINT('',(44.,26.7,-24.));
#645 = VECTOR('',#646,1.);
#646 = DIRECTION('',(0.,0.,1.));
#647 = ORIENTED_EDGE('',*,*,#530,.F.);
#648 = ORIENTED_EDGE('',*,*,#47,.T.);
#649 = ORIENTED_EDGE('',*,*,#626,.T.);
#650 = ORIENTED_EDGE('',*,*,#651,.T.);
#651 = EDGE_CURVE('',#619,#652,#654,.T.);
#652 = VERTEX_POINT('',#653);
#653 = CARTESIAN_POINT('',(-23.,26.7,-6.));
#654 = LINE('',#655,#656);
#655 = CARTESIAN_POINT('',(-23.,26.7,-15.));
#656 = VECTOR('',#657,1.);
#657 = DIRECTION('',(0.,0.,-1.));
#658 = ORIENTED_EDGE('',*,*,#659,.T.);
#659 = EDGE_CURVE('',#652,#660,#662,.T.);
#660 = VERTEX_POINT('',#661);
#661 = CARTESIAN_POINT('',(-17.,26.7,-6.));
#662 = LINE('',#663,#664);
#663 = CARTESIAN_POINT('',(-33.5,26.7,-6.));
#664 = VECTOR('',#665,1.);
#665 = DIRECTION('',(1.,0.,0.));
#666 = ORIENTED_EDGE('',*,*,#667,.F.);
#667 = EDGE_CURVE('',#668,#660,#670,.T.);
#668 = VERTEX_POINT('',#669);
#669 = CARTESIAN_POINT('',(-17.,26.7,0.));
#670 = LINE('',#671,#672);
#671 = CARTESIAN_POINT('',(-17.,26.7,-15.));
#672 = VECTOR('',#673,1.);
#673 = DIRECTION('',(0.,0.,-1.));
#674 = ORIENTED_EDGE('',*,*,#675,.T.);
#675 = EDGE_CURVE('',#668,#641,#676,.T.);
#676 = LINE('',#677,#678);
#677 = CARTESIAN_POINT('',(-44.,26.7,0.));
#678 = VECTOR('',#679,1.);
#679 = DIRECTION('',(1.,0.,0.));
#680 = PLANE('',#681);
#681 = AXIS2_PLACEMENT_3D('',#682,#683,#684);
#682 = CARTESIAN_POINT('',(-44.,26.7,-24.));
#683 = DIRECTION('',(0.,1.,0.));
#684 = DIRECTION('',(0.,0.,1.));
#685 = ADVANCED_FACE('',(#686),#705,.F.);
#686 = FACE_BOUND('',#687,.F.);
#687 = EDGE_LOOP('',(#688,#697,#703,#704));
#688 = ORIENTED_EDGE('',*,*,#689,.F.);
#689 = EDGE_CURVE('',#690,#690,#692,.T.);
#690 = VERTEX_POINT('',#691);
#691 = CARTESIAN_POINT('',(-28.,17.,-15.2728));
#692 = CIRCLE('',#693,1.7272);
#693 = AXIS2_PLACEMENT_3D('',#694,#695,#696);
#694 = CARTESIAN_POINT('',(-28.,17.,-17.));
#695 = DIRECTION('',(1.,0.,-0.));
#696 = DIRECTION('',(0.,0.,1.));
#697 = ORIENTED_EDGE('',*,*,#698,.F.);
#698 = EDGE_CURVE('',#73,#690,#699,.T.);
#699 = LINE('',#700,#701);
#700 = CARTESIAN_POINT('',(-44.,17.,-15.2728));
#701 = VECTOR('',#702,1.);
#702 = DIRECTION('',(1.,0.,0.));
#703 = ORIENTED_EDGE('',*,*,#72,.T.);
#704 = ORIENTED_EDGE('',*,*,#698,.T.);
#705 = CYLINDRICAL_SURFACE('',#706,1.7272);
#706 = AXIS2_PLACEMENT_3D('',#707,#708,#709);
#707 = CARTESIAN_POINT('',(-44.,17.,-17.));
#708 = DIRECTION('',(1.,0.,0.));
#709 = DIRECTION('',(0.,0.,1.));
#710 = ADVANCED_FACE('',(#711),#730,.F.);
#711 = FACE_BOUND('',#712,.F.);
#712 = EDGE_LOOP('',(#713,#722,#728,#729));
#713 = ORIENTED_EDGE('',*,*,#714,.F.);
#714 = EDGE_CURVE('',#715,#715,#717,.T.);
#715 = VERTEX_POINT('',#716);
#716 = CARTESIAN_POINT('',(-28.,-14.5,-15.2728));
#717 = CIRCLE('',#718,1.7272);
#718 = AXIS2_PLACEMENT_3D('',#719,#720,#721);
#719 = CARTESIAN_POINT('',(-28.,-14.5,-17.));
#720 = DIRECTION('',(1.,0.,-0.));
#721 = DIRECTION('',(0.,0.,1.));
#722 = ORIENTED_EDGE('',*,*,#723,.F.);
#723 = EDGE_CURVE('',#84,#715,#724,.T.);
#724 = LINE('',#725,#726);
#725 = CARTESIAN_POINT('',(-44.,-14.5,-15.2728));
#726 = VECTOR('',#727,1.);
#727 = DIRECTION('',(1.,0.,0.));
#728 = ORIENTED_EDGE('',*,*,#83,.T.);
#729 = ORIENTED_EDGE('',*,*,#723,.T.);
#730 = CYLINDRICAL_SURFACE('',#731,1.7272);
#731 = AXIS2_PLACEMENT_3D('',#732,#733,#734);
#732 = CARTESIAN_POINT('',(-44.,-14.5,-17.));
#733 = DIRECTION('',(1.,0.,0.));
#734 = DIRECTION('',(0.,0.,1.));
#735 = ADVANCED_FACE('',(#736,#749,#760),#771,.T.);
#736 = FACE_BOUND('',#737,.T.);
#737 = EDGE_LOOP('',(#738,#739,#740,#741,#742,#748));
#738 = ORIENTED_EDGE('',*,*,#109,.F.);
#739 = ORIENTED_EDGE('',*,*,#141,.F.);
#740 = ORIENTED_EDGE('',*,*,#522,.T.);
#741 = ORIENTED_EDGE('',*,*,#640,.T.);
#742 = ORIENTED_EDGE('',*,*,#743,.F.);
#743 = EDGE_CURVE('',#226,#641,#744,.T.);
#744 = LINE('',#745,#746);
#745 = CARTESIAN_POINT('',(44.,-20.2,0.));
#746 = VECTOR('',#747,1.);
#747 = DIRECTION('',(0.,1.,0.));
#748 = ORIENTED_EDGE('',*,*,#233,.F.);
#749 = FACE_BOUND('',#750,.T.);
#750 = EDGE_LOOP('',(#751));
#751 = ORIENTED_EDGE('',*,*,#752,.T.);
#752 = EDGE_CURVE('',#753,#753,#755,.T.);
#753 = VERTEX_POINT('',#754);
#754 = CARTESIAN_POINT('',(44.,17.,-18.7272));
#755 = CIRCLE('',#756,1.7272);
#756 = AXIS2_PLACEMENT_3D('',#757,#758,#759);
#757 = CARTESIAN_POINT('',(44.,17.,-17.));
#758 = DIRECTION('',(-1.,0.,0.));
#759 = DIRECTION('',(0.,0.,-1.));
#760 = FACE_BOUND('',#761,.T.);
#761 = EDGE_LOOP('',(#762));
#762 = ORIENTED_EDGE('',*,*,#763,.T.);
#763 = EDGE_CURVE('',#764,#764,#766,.T.);
#764 = VERTEX_POINT('',#765);
#765 = CARTESIAN_POINT('',(44.,-14.5,-18.7272));
#766 = CIRCLE('',#767,1.7272);
#767 = AXIS2_PLACEMENT_3D('',#768,#769,#770);
#768 = CARTESIAN_POINT('',(44.,-14.5,-17.));
#769 = DIRECTION('',(-1.,0.,0.));
#770 = DIRECTION('',(0.,0.,-1.));
#771 = PLANE('',#772);
#772 = AXIS2_PLACEMENT_3D('',#773,#774,#775);
#773 = CARTESIAN_POINT('',(44.,-20.2,-24.));
#774 = DIRECTION('',(1.,0.,0.));
#775 = DIRECTION('',(0.,0.,1.));
#776 = ADVANCED_FACE('',(#777),#811,.T.);
#777 = FACE_BOUND('',#778,.T.);
#778 = EDGE_LOOP('',(#779,#785,#786,#794,#802,#808,#809,#810));
#779 = ORIENTED_EDGE('',*,*,#780,.F.);
#780 = EDGE_CURVE('',#183,#668,#781,.T.);
#781 = LINE('',#782,#783);
#782 = CARTESIAN_POINT('',(-17.,-3.5,0.));
#783 = VECTOR('',#784,1.);
#784 = DIRECTION('',(0.,1.,0.));
#785 = ORIENTED_EDGE('',*,*,#191,.T.);
#786 = ORIENTED_EDGE('',*,*,#787,.T.);
#787 = EDGE_CURVE('',#192,#788,#790,.T.);
#788 = VERTEX_POINT('',#789);
#789 = CARTESIAN_POINT('',(-6.,24.2,0.));
#790 = LINE('',#791,#792);
#791 = CARTESIAN_POINT('',(-6.,-3.5,0.));
#792 = VECTOR('',#793,1.);
#793 = DIRECTION('',(0.,1.,0.));
#794 = ORIENTED_EDGE('',*,*,#795,.F.);
#795 = EDGE_CURVE('',#796,#788,#798,.T.);
#796 = VERTEX_POINT('',#797);
#797 = CARTESIAN_POINT('',(6.,24.2,0.));
#798 = LINE('',#799,#800);
#799 = CARTESIAN_POINT('',(-25.,24.2,0.));
#800 = VECTOR('',#801,1.);
#801 = DIRECTION('',(-1.,0.,0.));
#802 = ORIENTED_EDGE('',*,*,#803,.F.);
#803 = EDGE_CURVE('',#217,#796,#804,.T.);
#804 = LINE('',#805,#806);
#805 = CARTESIAN_POINT('',(6.,-3.5,0.));
#806 = VECTOR('',#807,1.);
#807 = DIRECTION('',(0.,1.,0.));
#808 = ORIENTED_EDGE('',*,*,#225,.T.);
#809 = ORIENTED_EDGE('',*,*,#743,.T.);
#810 = ORIENTED_EDGE('',*,*,#675,.F.);
#811 = PLANE('',#812);
#812 = AXIS2_PLACEMENT_3D('',#813,#814,#815);
#813 = CARTESIAN_POINT('',(-44.,-20.2,0.));
#814 = DIRECTION('',(0.,0.,1.));
#815 = DIRECTION('',(1.,0.,0.));
#816 = ADVANCED_FACE('',(#817),#835,.F.);
#817 = FACE_BOUND('',#818,.F.);
#818 = EDGE_LOOP('',(#819,#820,#828,#834));
#819 = ORIENTED_EDGE('',*,*,#216,.F.);
#820 = ORIENTED_EDGE('',*,*,#821,.T.);
#821 = EDGE_CURVE('',#209,#822,#824,.T.);
#822 = VERTEX_POINT('',#823);
#823 = CARTESIAN_POINT('',(6.,24.2,-5.));
#824 = LINE('',#825,#826);
#825 = CARTESIAN_POINT('',(6.,13.2,-5.));
#826 = VECTOR('',#827,1.);
#827 = DIRECTION('',(0.,1.,0.));
#828 = ORIENTED_EDGE('',*,*,#829,.T.);
#829 = EDGE_CURVE('',#822,#796,#830,.T.);
#830 = LINE('',#831,#832);
#831 = CARTESIAN_POINT('',(6.,24.2,-5.));
#832 = VECTOR('',#833,1.);
#833 = DIRECTION('',(0.,0.,1.));
#834 = ORIENTED_EDGE('',*,*,#803,.F.);
#835 = PLANE('',#836);
#836 = AXIS2_PLACEMENT_3D('',#837,#838,#839);
#837 = CARTESIAN_POINT('',(6.,13.2,-5.));
#838 = DIRECTION('',(1.,0.,0.));
#839 = DIRECTION('',(0.,0.,1.));
#840 = ADVANCED_FACE('',(#841),#859,.T.);
#841 = FACE_BOUND('',#842,.T.);
#842 = EDGE_LOOP('',(#843,#851,#852,#853));
#843 = ORIENTED_EDGE('',*,*,#844,.F.);
#844 = EDGE_CURVE('',#200,#845,#847,.T.);
#845 = VERTEX_POINT('',#846);
#846 = CARTESIAN_POINT('',(-6.,24.2,-5.));
#847 = LINE('',#848,#849);
#848 = CARTESIAN_POINT('',(-6.,13.2,-5.));
#849 = VECTOR('',#850,1.);
#850 = DIRECTION('',(0.,1.,0.));
#851 = ORIENTED_EDGE('',*,*,#208,.T.);
#852 = ORIENTED_EDGE('',*,*,#821,.T.);
#853 = ORIENTED_EDGE('',*,*,#854,.F.);
#854 = EDGE_CURVE('',#845,#822,#855,.T.);
#855 = LINE('',#856,#857);
#856 = CARTESIAN_POINT('',(-6.,24.2,-5.));
#857 = VECTOR('',#858,1.);
#858 = DIRECTION('',(1.,0.,0.));
#859 = PLANE('',#860);
#860 = AXIS2_PLACEMENT_3D('',#861,#862,#863);
#861 = CARTESIAN_POINT('',(-6.,13.2,-5.));
#862 = DIRECTION('',(0.,0.,1.));
#863 = DIRECTION('',(1.,0.,0.));
#864 = ADVANCED_FACE('',(#865),#876,.T.);
#865 = FACE_BOUND('',#866,.T.);
#866 = EDGE_LOOP('',(#867,#868,#869,#875));
#867 = ORIENTED_EDGE('',*,*,#199,.F.);
#868 = ORIENTED_EDGE('',*,*,#844,.T.);
#869 = ORIENTED_EDGE('',*,*,#870,.T.);
#870 = EDGE_CURVE('',#845,#788,#871,.T.);
#871 = LINE('',#872,#873);
#872 = CARTESIAN_POINT('',(-6.,24.2,-5.));
#873 = VECTOR('',#874,1.);
#874 = DIRECTION('',(0.,0.,1.));
#875 = ORIENTED_EDGE('',*,*,#787,.F.);
#876 = PLANE('',#877);
#877 = AXIS2_PLACEMENT_3D('',#878,#879,#880);
#878 = CARTESIAN_POINT('',(-6.,13.2,-5.));
#879 = DIRECTION('',(1.,0.,0.));
#880 = DIRECTION('',(0.,0.,1.));
#881 = ADVANCED_FACE('',(#882),#893,.F.);
#882 = FACE_BOUND('',#883,.F.);
#883 = EDGE_LOOP('',(#884,#885,#891,#892));
#884 = ORIENTED_EDGE('',*,*,#182,.F.);
#885 = ORIENTED_EDGE('',*,*,#886,.T.);
#886 = EDGE_CURVE('',#175,#660,#887,.T.);
#887 = LINE('',#888,#889);
#888 = CARTESIAN_POINT('',(-17.,13.2,-6.));
#889 = VECTOR('',#890,1.);
#890 = DIRECTION('',(0.,1.,0.));
#891 = ORIENTED_EDGE('',*,*,#667,.F.);
#892 = ORIENTED_EDGE('',*,*,#780,.F.);
#893 = PLANE('',#894);
#894 = AXIS2_PLACEMENT_3D('',#895,#896,#897);
#895 = CARTESIAN_POINT('',(-17.,13.2,-6.));
#896 = DIRECTION('',(1.,0.,0.));
#897 = DIRECTION('',(0.,0.,1.));
#898 = ADVANCED_FACE('',(#899),#910,.T.);
#899 = FACE_BOUND('',#900,.T.);
#900 = EDGE_LOOP('',(#901,#907,#908,#909));
#901 = ORIENTED_EDGE('',*,*,#902,.F.);
#902 = EDGE_CURVE('',#166,#652,#903,.T.);
#903 = LINE('',#904,#905);
#904 = CARTESIAN_POINT('',(-23.,13.2,-6.));
#905 = VECTOR('',#906,1.);
#906 = DIRECTION('',(0.,1.,0.));
#907 = ORIENTED_EDGE('',*,*,#174,.T.);
#908 = ORIENTED_EDGE('',*,*,#886,.T.);
#909 = ORIENTED_EDGE('',*,*,#659,.F.);
#910 = PLANE('',#911);
#911 = AXIS2_PLACEMENT_3D('',#912,#913,#914);
#912 = CARTESIAN_POINT('',(-23.,13.2,-6.));
#913 = DIRECTION('',(0.,0.,1.));
#914 = DIRECTION('',(1.,0.,0.));
#915 = ADVANCED_FACE('',(#916),#922,.T.);
#916 = FACE_BOUND('',#917,.T.);
#917 = EDGE_LOOP('',(#918,#919,#920,#921));
#918 = ORIENTED_EDGE('',*,*,#165,.F.);
#919 = ORIENTED_EDGE('',*,*,#902,.T.);
#920 = ORIENTED_EDGE('',*,*,#651,.F.);
#921 = ORIENTED_EDGE('',*,*,#618,.F.);
#922 = PLANE('',#923);
#923 = AXIS2_PLACEMENT_3D('',#924,#925,#926);
#924 = CARTESIAN_POINT('',(-23.,13.2,-6.));
#925 = DIRECTION('',(1.,0.,0.));
#926 = DIRECTION('',(0.,0.,1.));
#927 = ADVANCED_FACE('',(#928),#944,.T.);
#928 = FACE_BOUND('',#929,.T.);
#929 = EDGE_LOOP('',(#930,#936,#937,#943));
#930 = ORIENTED_EDGE('',*,*,#931,.F.);
#931 = EDGE_CURVE('',#539,#243,#932,.T.);
#932 = LINE('',#933,#934);
#933 = CARTESIAN_POINT('',(-42.0844,0.5,-25.));
#934 = VECTOR('',#935,1.);
#935 = DIRECTION('',(0.,0.,1.));
#936 = ORIENTED_EDGE('',*,*,#549,.T.);
#937 = ORIENTED_EDGE('',*,*,#938,.T.);
#938 = EDGE_CURVE('',#550,#245,#939,.T.);
#939 = LINE('',#940,#941);
#940 = CARTESIAN_POINT('',(-42.0844,11.,-25.));
#941 = VECTOR('',#942,1.);
#942 = DIRECTION('',(0.,0.,1.));
#943 = ORIENTED_EDGE('',*,*,#242,.F.);
#944 = PLANE('',#945);
#945 = AXIS2_PLACEMENT_3D('',#946,#947,#948);
#946 = CARTESIAN_POINT('',(-42.0844,0.5,-25.));
#947 = DIRECTION('',(1.,0.,0.));
#948 = DIRECTION('',(0.,0.,1.));
#949 = ADVANCED_FACE('',(#950),#961,.F.);
#950 = FACE_BOUND('',#951,.F.);
#951 = EDGE_LOOP('',(#952,#953,#959,#960));
#952 = ORIENTED_EDGE('',*,*,#538,.T.);
#953 = ORIENTED_EDGE('',*,*,#954,.T.);
#954 = EDGE_CURVE('',#541,#254,#955,.T.);
#955 = LINE('',#956,#957);
#956 = CARTESIAN_POINT('',(-37.7156,0.5,-25.));
#957 = VECTOR('',#958,1.);
#958 = DIRECTION('',(0.,0.,1.));
#959 = ORIENTED_EDGE('',*,*,#253,.F.);
#960 = ORIENTED_EDGE('',*,*,#931,.F.);
#961 = CYLINDRICAL_SURFACE('',#962,2.1844);
#962 = AXIS2_PLACEMENT_3D('',#963,#964,#965);
#963 = CARTESIAN_POINT('',(-39.9,0.5,-25.));
#964 = DIRECTION('',(0.,0.,1.));
#965 = DIRECTION('',(1.,0.,0.));
#966 = ADVANCED_FACE('',(#967),#978,.F.);
#967 = FACE_BOUND('',#968,.F.);
#968 = EDGE_LOOP('',(#969,#970,#976,#977));
#969 = ORIENTED_EDGE('',*,*,#311,.F.);
#970 = ORIENTED_EDGE('',*,*,#971,.F.);
#971 = EDGE_CURVE('',#558,#303,#972,.T.);
#972 = LINE('',#973,#974);
#973 = CARTESIAN_POINT('',(-37.7156,11.,-25.));
#974 = VECTOR('',#975,1.);
#975 = DIRECTION('',(0.,0.,1.));
#976 = ORIENTED_EDGE('',*,*,#557,.T.);
#977 = ORIENTED_EDGE('',*,*,#938,.T.);
#978 = CYLINDRICAL_SURFACE('',#979,2.1844);
#979 = AXIS2_PLACEMENT_3D('',#980,#981,#982);
#980 = CARTESIAN_POINT('',(-39.9,11.,-25.));
#981 = DIRECTION('',(0.,0.,1.));
#982 = DIRECTION('',(1.,0.,0.));
#983 = ADVANCED_FACE('',(#984),#990,.F.);
#984 = FACE_BOUND('',#985,.F.);
#985 = EDGE_LOOP('',(#986,#987,#988,#989));
#986 = ORIENTED_EDGE('',*,*,#954,.F.);
#987 = ORIENTED_EDGE('',*,*,#566,.T.);
#988 = ORIENTED_EDGE('',*,*,#971,.T.);
#989 = ORIENTED_EDGE('',*,*,#302,.F.);
#990 = PLANE('',#991);
#991 = AXIS2_PLACEMENT_3D('',#992,#993,#994);
#992 = CARTESIAN_POINT('',(-37.7156,0.5,-25.));
#993 = DIRECTION('',(1.,0.,0.));
#994 = DIRECTION('',(0.,0.,1.));
#995 = ADVANCED_FACE('',(#996),#1012,.T.);
#996 = FACE_BOUND('',#997,.T.);
#997 = EDGE_LOOP('',(#998,#1004,#1005,#1011));
#998 = ORIENTED_EDGE('',*,*,#999,.F.);
#999 = EDGE_CURVE('',#575,#379,#1000,.T.);
#1000 = LINE('',#1001,#1002);
#1001 = CARTESIAN_POINT('',(37.7156,0.5,-25.));
#1002 = VECTOR('',#1003,1.);
#1003 = DIRECTION('',(0.,0.,1.));
#1004 = ORIENTED_EDGE('',*,*,#585,.T.);
#1005 = ORIENTED_EDGE('',*,*,#1006,.T.);
#1006 = EDGE_CURVE('',#586,#381,#1007,.T.);
#1007 = LINE('',#1008,#1009);
#1008 = CARTESIAN_POINT('',(37.7156,11.,-25.));
#1009 = VECTOR('',#1010,1.);
#1010 = DIRECTION('',(0.,0.,1.));
#1011 = ORIENTED_EDGE('',*,*,#378,.F.);
#1012 = PLANE('',#1013);
#1013 = AXIS2_PLACEMENT_3D('',#1014,#1015,#1016);
#1014 = CARTESIAN_POINT('',(37.7156,0.5,-25.));
#1015 = DIRECTION('',(1.,0.,0.));
#1016 = DIRECTION('',(0.,0.,1.));
#1017 = ADVANCED_FACE('',(#1018),#1029,.F.);
#1018 = FACE_BOUND('',#1019,.F.);
#1019 = EDGE_LOOP('',(#1020,#1021,#1027,#1028));
#1020 = ORIENTED_EDGE('',*,*,#574,.T.);
#1021 = ORIENTED_EDGE('',*,*,#1022,.T.);
#1022 = EDGE_CURVE('',#577,#390,#1023,.T.);
#1023 = LINE('',#1024,#1025);
#1024 = CARTESIAN_POINT('',(42.0844,0.5,-25.));
#1025 = VECTOR('',#1026,1.);
#1026 = DIRECTION('',(0.,0.,1.));
#1027 = ORIENTED_EDGE('',*,*,#389,.F.);
#1028 = ORIENTED_EDGE('',*,*,#999,.F.);
#1029 = CYLINDRICAL_SURFACE('',#1030,2.1844);
#1030 = AXIS2_PLACEMENT_3D('',#1031,#1032,#1033);
#1031 = CARTESIAN_POINT('',(39.9,0.5,-25.));
#1032 = DIRECTION('',(0.,0.,1.));
#1033 = DIRECTION('',(1.,0.,0.));
#1034 = ADVANCED_FACE('',(#1035),#1046,.F.);
#1035 = FACE_BOUND('',#1036,.F.);
#1036 = EDGE_LOOP('',(#1037,#1038,#1044,#1045));
#1037 = ORIENTED_EDGE('',*,*,#447,.F.);
#1038 = ORIENTED_EDGE('',*,*,#1039,.F.);
#1039 = EDGE_CURVE('',#594,#439,#1040,.T.);
#1040 = LINE('',#1041,#1042);
#1041 = CARTESIAN_POINT('',(42.0844,11.,-25.));
#1042 = VECTOR('',#1043,1.);
#1043 = DIRECTION('',(0.,0.,1.));
#1044 = ORIENTED_EDGE('',*,*,#593,.T.);
#1045 = ORIENTED_EDGE('',*,*,#1006,.T.);
#1046 = CYLINDRICAL_SURFACE('',#1047,2.1844);
#1047 = AXIS2_PLACEMENT_3D('',#1048,#1049,#1050);
#1048 = CARTESIAN_POINT('',(39.9,11.,-25.));
#1049 = DIRECTION('',(0.,0.,1.));
#1050 = DIRECTION('',(1.,0.,0.));
#1051 = ADVANCED_FACE('',(#1052),#1058,.F.);
#1052 = FACE_BOUND('',#1053,.F.);
#1053 = EDGE_LOOP('',(#1054,#1055,#1056,#1057));
#1054 = ORIENTED_EDGE('',*,*,#1022,.F.);
#1055 = ORIENTED_EDGE('',*,*,#602,.T.);
#1056 = ORIENTED_EDGE('',*,*,#1039,.T.);
#1057 = ORIENTED_EDGE('',*,*,#438,.F.);
#1058 = PLANE('',#1059);
#1059 = AXIS2_PLACEMENT_3D('',#1060,#1061,#1062);
#1060 = CARTESIAN_POINT('',(42.0844,0.5,-25.));
#1061 = DIRECTION('',(1.,0.,0.));
#1062 = DIRECTION('',(0.,0.,1.));
#1063 = ADVANCED_FACE('',(#1064),#1067,.F.);
#1064 = FACE_BOUND('',#1065,.F.);
#1065 = EDGE_LOOP('',(#1066));
#1066 = ORIENTED_EDGE('',*,*,#689,.T.);
#1067 = PLANE('',#1068);
#1068 = AXIS2_PLACEMENT_3D('',#1069,#1070,#1071);
#1069 = CARTESIAN_POINT('',(-28.,17.,-17.));
#1070 = DIRECTION('',(1.,0.,0.));
#1071 = DIRECTION('',(0.,0.,1.));
#1072 = ADVANCED_FACE('',(#1073),#1076,.F.);
#1073 = FACE_BOUND('',#1074,.F.);
#1074 = EDGE_LOOP('',(#1075));
#1075 = ORIENTED_EDGE('',*,*,#714,.T.);
#1076 = PLANE('',#1077);
#1077 = AXIS2_PLACEMENT_3D('',#1078,#1079,#1080);
#1078 = CARTESIAN_POINT('',(-28.,-14.5,-17.));
#1079 = DIRECTION('',(1.,0.,0.));
#1080 = DIRECTION('',(0.,0.,1.));
#1081 = ADVANCED_FACE('',(#1082),#1101,.F.);
#1082 = FACE_BOUND('',#1083,.F.);
#1083 = EDGE_LOOP('',(#1084,#1093,#1099,#1100));
#1084 = ORIENTED_EDGE('',*,*,#1085,.F.);
#1085 = EDGE_CURVE('',#1086,#1086,#1088,.T.);
#1086 = VERTEX_POINT('',#1087);
#1087 = CARTESIAN_POINT('',(28.,17.,-18.7272));
#1088 = CIRCLE('',#1089,1.7272);
#1089 = AXIS2_PLACEMENT_3D('',#1090,#1091,#1092);
#1090 = CARTESIAN_POINT('',(28.,17.,-17.));
#1091 = DIRECTION('',(-1.,0.,0.));
#1092 = DIRECTION('',(0.,0.,-1.));
#1093 = ORIENTED_EDGE('',*,*,#1094,.F.);
#1094 = EDGE_CURVE('',#753,#1086,#1095,.T.);
#1095 = LINE('',#1096,#1097);
#1096 = CARTESIAN_POINT('',(44.,17.,-18.7272));
#1097 = VECTOR('',#1098,1.);
#1098 = DIRECTION('',(-1.,0.,0.));
#1099 = ORIENTED_EDGE('',*,*,#752,.T.);
#1100 = ORIENTED_EDGE('',*,*,#1094,.T.);
#1101 = CYLINDRICAL_SURFACE('',#1102,1.7272);
#1102 = AXIS2_PLACEMENT_3D('',#1103,#1104,#1105);
#1103 = CARTESIAN_POINT('',(44.,17.,-17.));
#1104 = DIRECTION('',(-1.,0.,0.));
#1105 = DIRECTION('',(0.,0.,-1.));
#1106 = ADVANCED_FACE('',(#1107),#1126,.F.);
#1107 = FACE_BOUND('',#1108,.F.);
#1108 = EDGE_LOOP('',(#1109,#1118,#1124,#1125));
#1109 = ORIENTED_EDGE('',*,*,#1110,.F.);
#1110 = EDGE_CURVE('',#1111,#1111,#1113,.T.);
#1111 = VERTEX_POINT('',#1112);
#1112 = CARTESIAN_POINT('',(28.,-14.5,-18.7272));
#1113 = CIRCLE('',#1114,1.7272);
#1114 = AXIS2_PLACEMENT_3D('',#1115,#1116,#1117);
#1115 = CARTESIAN_POINT('',(28.,-14.5,-17.));
#1116 = DIRECTION('',(-1.,0.,0.));
#1117 = DIRECTION('',(0.,0.,-1.));
#1118 = ORIENTED_EDGE('',*,*,#1119,.F.);
#1119 = EDGE_CURVE('',#764,#1111,#1120,.T.);
#1120 = LINE('',#1121,#1122);
#1121 = CARTESIAN_POINT('',(44.,-14.5,-18.7272));
#1122 = VECTOR('',#1123,1.);
#1123 = DIRECTION('',(-1.,0.,0.));
#1124 = ORIENTED_EDGE('',*,*,#763,.T.);
#1125 = ORIENTED_EDGE('',*,*,#1119,.T.);
#1126 = CYLINDRICAL_SURFACE('',#1127,1.7272);
#1127 = AXIS2_PLACEMENT_3D('',#1128,#1129,#1130);
#1128 = CARTESIAN_POINT('',(44.,-14.5,-17.));
#1129 = DIRECTION('',(-1.,0.,0.));
#1130 = DIRECTION('',(0.,0.,-1.));
#1131 = ADVANCED_FACE('',(#1132),#1138,.F.);
#1132 = FACE_BOUND('',#1133,.F.);
#1133 = EDGE_LOOP('',(#1134,#1135,#1136,#1137));
#1134 = ORIENTED_EDGE('',*,*,#829,.F.);
#1135 = ORIENTED_EDGE('',*,*,#854,.F.);
#1136 = ORIENTED_EDGE('',*,*,#870,.T.);
#1137 = ORIENTED_EDGE('',*,*,#795,.F.);
#1138 = PLANE('',#1139);
#1139 = AXIS2_PLACEMENT_3D('',#1140,#1141,#1142);
#1140 = CARTESIAN_POINT('',(-6.,24.2,-5.));
#1141 = DIRECTION('',(0.,1.,0.));
#1142 = DIRECTION('',(0.,0.,1.));
#1143 = ADVANCED_FACE('',(#1144),#1147,.F.);
#1144 = FACE_BOUND('',#1145,.F.);
#1145 = EDGE_LOOP('',(#1146));
#1146 = ORIENTED_EDGE('',*,*,#1085,.T.);
#1147 = PLANE('',#1148);
#1148 = AXIS2_PLACEMENT_3D('',#1149,#1150,#1151);
#1149 = CARTESIAN_POINT('',(28.,17.,-17.));
#1150 = DIRECTION('',(-1.,0.,0.));
#1151 = DIRECTION('',(0.,0.,-1.));
#1152 = ADVANCED_FACE('',(#1153),#1156,.F.);
#1153 = FACE_BOUND('',#1154,.F.);
#1154 = EDGE_LOOP('',(#1155));
#1155 = ORIENTED_EDGE('',*,*,#1110,.T.);
#1156 = PLANE('',#1157);
#1157 = AXIS2_PLACEMENT_3D('',#1158,#1159,#1160);
#1158 = CARTESIAN_POINT('',(28.,-14.5,-17.));
#1159 = DIRECTION('',(-1.,0.,0.));
#1160 = DIRECTION('',(0.,0.,-1.));
#1161 = ( GEOMETRIC_REPRESENTATION_CONTEXT(3) 
GLOBAL_UNCERTAINTY_ASSIGNED_CONTEXT((#1165)) 
GLOBAL_UNIT_ASSIGNED_CONTEXT((#1162,#1163,#1164)) REPRESENTATION_CONTEXT
('Context #1','3D Context with UNIT and UNCERTAINTY') );
#1162 = ( LENGTH_UNIT() NAMED_UNIT(*) SI_UNIT(.MILLI.,.METRE.) );
#1163 = ( NAMED_UNIT(*) PLANE_ANGLE_UNIT() SI_UNIT($,.RADIAN.) );
#1164 = ( NAMED_UNIT(*) SI_UNIT($,.STERADIAN.) SOLID_ANGLE_UNIT() );
#1165 = UNCERTAINTY_MEASURE_WITH_UNIT(LENGTH_MEASURE(1.E-07),#1162,
  'distance_accuracy_value','confusion accuracy');
#1166 = PRODUCT_RELATED_PRODUCT_CATEGORY('part',$,(#7));
ENDSEC;
END-ISO-10303-21;
