ISO-10303-21;
HEADER;
FILE_DESCRIPTION(('FreeCAD Model'),'2;1');
FILE_NAME('Open CASCADE Shape Model','2026-10-07T23:57:03',('FreeCAD'),(
    'FreeCAD'),'Open CASCADE STEP processor 7.8','FreeCAD','Unknown');
FILE_SCHEMA(('AUTOMOTIVE_DESIGN { 1 0 10303 214 1 1 1 1 }'));
ENDSEC;
DATA;
#1 = APPLICATION_PROTOCOL_DEFINITION('international standard',
  'automotive_design',2000,#2);
#2 = APPLICATION_CONTEXT(
  'core data for automotive mechanical design processes');
#3 = SHAPE_DEFINITION_REPRESENTATION(#4,#10);
#4 = PRODUCT_DEFINITION_SHAPE('','',#5);
#5 = PRODUCT_DEFINITION('design','',#6,#9);
#6 = PRODUCT_DEFINITION_FORMATION('','',#7);
#7 = PRODUCT('Open CASCADE STEP translator 7.8 27',
  'Open CASCADE STEP translator 7.8 27','',(#8));
#8 = PRODUCT_CONTEXT('',#2,'mechanical');
#9 = PRODUCT_DEFINITION_CONTEXT('part definition',#2,'design');
#10 = ADVANCED_BREP_SHAPE_REPRESENTATION('',(#11,#15),#1343);
#11 = AXIS2_PLACEMENT_3D('',#12,#13,#14);
#12 = CARTESIAN_POINT('',(0.,0.,0.));
#13 = DIRECTION('',(0.,0.,1.));
#14 = DIRECTION('',(1.,0.,-0.));
#15 = MANIFOLD_SOLID_BREP('',#16);
#16 = CLOSED_SHELL('',(#17,#137,#227,#252,#313,#330,#354,#410,#441,#458,
    #483,#508,#520,#594,#619,#643,#661,#693,#776,#801,#869,#901,#925,
    #950,#967,#976,#985,#1033,#1115,#1140,#1223,#1241,#1266,#1291,#1300,
    #1309));
#17 = ADVANCED_FACE('',(#18,#110,#121),#132,.F.);
#18 = FACE_BOUND('',#19,.F.);
#19 = EDGE_LOOP('',(#20,#30,#38,#46,#55,#64,#72,#80,#88,#96,#104));
#20 = ORIENTED_EDGE('',*,*,#21,.F.);
#21 = EDGE_CURVE('',#22,#24,#26,.T.);
#22 = VERTEX_POINT('',#23);
#23 = CARTESIAN_POINT('',(-44.,-20.2,24.));
#24 = VERTEX_POINT('',#25);
#25 = CARTESIAN_POINT('',(-44.,-0.61915146428,24.));
#26 = LINE('',#27,#28);
#27 = CARTESIAN_POINT('',(-44.,-20.2,24.));
#28 = VECTOR('',#29,1.);
#29 = DIRECTION('',(0.,1.,0.));
#30 = ORIENTED_EDGE('',*,*,#31,.F.);
#31 = EDGE_CURVE('',#32,#22,#34,.T.);
#32 = VERTEX_POINT('',#33);
#33 = CARTESIAN_POINT('',(-44.,-20.2,0.));
#34 = LINE('',#35,#36);
#35 = CARTESIAN_POINT('',(-44.,-20.2,0.));
#36 = VECTOR('',#37,1.);
#37 = DIRECTION('',(0.,0.,1.));
#38 = ORIENTED_EDGE('',*,*,#39,.T.);
#39 = EDGE_CURVE('',#32,#40,#42,.T.);
#40 = VERTEX_POINT('',#41);
#41 = CARTESIAN_POINT('',(-44.,-15.2,0.));
#42 = LINE('',#43,#44);
#43 = CARTESIAN_POINT('',(-44.,-20.2,0.));
#44 = VECTOR('',#45,1.);
#45 = DIRECTION('',(0.,1.,0.));
#46 = ORIENTED_EDGE('',*,*,#47,.F.);
#47 = EDGE_CURVE('',#48,#40,#50,.T.);
#48 = VERTEX_POINT('',#49);
#49 = CARTESIAN_POINT('',(-44.,0.,15.2));
#50 = CIRCLE('',#51,15.2);
#51 = AXIS2_PLACEMENT_3D('',#52,#53,#54);
#52 = CARTESIAN_POINT('',(-44.,0.,0.));
#53 = DIRECTION('',(1.,0.,-0.));
#54 = DIRECTION('',(0.,0.,1.));
#55 = ORIENTED_EDGE('',*,*,#56,.F.);
#56 = EDGE_CURVE('',#57,#48,#59,.T.);
#57 = VERTEX_POINT('',#58);
#58 = CARTESIAN_POINT('',(-44.,15.2,0.));
#59 = CIRCLE('',#60,15.2);
#60 = AXIS2_PLACEMENT_3D('',#61,#62,#63);
#61 = CARTESIAN_POINT('',(-44.,0.,0.));
#62 = DIRECTION('',(1.,0.,-0.));
#63 = DIRECTION('',(0.,0.,1.));
#64 = ORIENTED_EDGE('',*,*,#65,.T.);
#65 = EDGE_CURVE('',#57,#66,#68,.T.);
#66 = VERTEX_POINT('',#67);
#67 = CARTESIAN_POINT('',(-44.,26.7,0.));
#68 = LINE('',#69,#70);
#69 = CARTESIAN_POINT('',(-44.,-20.2,0.));
#70 = VECTOR('',#71,1.);
#71 = DIRECTION('',(0.,1.,0.));
#72 = ORIENTED_EDGE('',*,*,#73,.T.);
#73 = EDGE_CURVE('',#66,#74,#76,.T.);
#74 = VERTEX_POINT('',#75);
#75 = CARTESIAN_POINT('',(-44.,26.7,24.));
#76 = LINE('',#77,#78);
#77 = CARTESIAN_POINT('',(-44.,26.7,0.));
#78 = VECTOR('',#79,1.);
#79 = DIRECTION('',(0.,0.,1.));
#80 = ORIENTED_EDGE('',*,*,#81,.F.);
#81 = EDGE_CURVE('',#82,#74,#84,.T.);
#82 = VERTEX_POINT('',#83);
#83 = CARTESIAN_POINT('',(-44.,12.11915146428,24.));
#84 = LINE('',#85,#86);
#85 = CARTESIAN_POINT('',(-44.,-20.2,24.));
#86 = VECTOR('',#87,1.);
#87 = DIRECTION('',(0.,1.,0.));
#88 = ORIENTED_EDGE('',*,*,#89,.F.);
#89 = EDGE_CURVE('',#90,#82,#92,.T.);
#90 = VERTEX_POINT('',#91);
#91 = CARTESIAN_POINT('',(-44.,12.11915146428,19.));
#92 = LINE('',#93,#94);
#93 = CARTESIAN_POINT('',(-44.,12.11915146428,19.));
#94 = VECTOR('',#95,1.);
#95 = DIRECTION('',(0.,0.,1.));
#96 = ORIENTED_EDGE('',*,*,#97,.F.);
#97 = EDGE_CURVE('',#98,#90,#100,.T.);
#98 = VERTEX_POINT('',#99);
#99 = CARTESIAN_POINT('',(-44.,-0.61915146428,19.));
#100 = LINE('',#101,#102);
#101 = CARTESIAN_POINT('',(-44.,-7.225,19.));
#102 = VECTOR('',#103,1.);
#103 = DIRECTION('',(0.,1.,0.));
#104 = ORIENTED_EDGE('',*,*,#105,.T.);
#105 = EDGE_CURVE('',#98,#24,#106,.T.);
#106 = LINE('',#107,#108);
#107 = CARTESIAN_POINT('',(-44.,-0.61915146428,19.));
#108 = VECTOR('',#109,1.);
#109 = DIRECTION('',(0.,0.,1.));
#110 = FACE_BOUND('',#111,.F.);
#111 = EDGE_LOOP('',(#112));
#112 = ORIENTED_EDGE('',*,*,#113,.F.);
#113 = EDGE_CURVE('',#114,#114,#116,.T.);
#114 = VERTEX_POINT('',#115);
#115 = CARTESIAN_POINT('',(-44.,17.,18.7272));
#116 = CIRCLE('',#117,1.7272);
#117 = AXIS2_PLACEMENT_3D('',#118,#119,#120);
#118 = CARTESIAN_POINT('',(-44.,17.,17.));
#119 = DIRECTION('',(1.,0.,-0.));
#120 = DIRECTION('',(0.,0.,1.));
#121 = FACE_BOUND('',#122,.F.);
#122 = EDGE_LOOP('',(#123));
#123 = ORIENTED_EDGE('',*,*,#124,.F.);
#124 = EDGE_CURVE('',#125,#125,#127,.T.);
#125 = VERTEX_POINT('',#126);
#126 = CARTESIAN_POINT('',(-44.,-14.5,18.7272));
#127 = CIRCLE('',#128,1.7272);
#128 = AXIS2_PLACEMENT_3D('',#129,#130,#131);
#129 = CARTESIAN_POINT('',(-44.,-14.5,17.));
#130 = DIRECTION('',(1.,0.,-0.));
#131 = DIRECTION('',(0.,0.,1.));
#132 = PLANE('',#133);
#133 = AXIS2_PLACEMENT_3D('',#134,#135,#136);
#134 = CARTESIAN_POINT('',(-44.,-20.2,0.));
#135 = DIRECTION('',(1.,0.,0.));
#136 = DIRECTION('',(0.,0.,1.));
#137 = ADVANCED_FACE('',(#138),#222,.T.);
#138 = FACE_BOUND('',#139,.T.);
#139 = EDGE_LOOP('',(#140,#141,#149,#157,#166,#174,#183,#191,#197,#198,
    #207,#215));
#140 = ORIENTED_EDGE('',*,*,#21,.F.);
#141 = ORIENTED_EDGE('',*,*,#142,.T.);
#142 = EDGE_CURVE('',#22,#143,#145,.T.);
#143 = VERTEX_POINT('',#144);
#144 = CARTESIAN_POINT('',(44.,-20.2,24.));
#145 = LINE('',#146,#147);
#146 = CARTESIAN_POINT('',(-44.,-20.2,24.));
#147 = VECTOR('',#148,1.);
#148 = DIRECTION('',(1.,0.,0.));
#149 = ORIENTED_EDGE('',*,*,#150,.T.);
#150 = EDGE_CURVE('',#143,#151,#153,.T.);
#151 = VERTEX_POINT('',#152);
#152 = CARTESIAN_POINT('',(44.,-0.61915146428,24.));
#153 = LINE('',#154,#155);
#154 = CARTESIAN_POINT('',(44.,-20.2,24.));
#155 = VECTOR('',#156,1.);
#156 = DIRECTION('',(0.,1.,0.));
#157 = ORIENTED_EDGE('',*,*,#158,.F.);
#158 = EDGE_CURVE('',#159,#151,#161,.T.);
#159 = VERTEX_POINT('',#160);
#160 = CARTESIAN_POINT('',(35.65,0.5,24.));
#161 = CIRCLE('',#162,4.25);
#162 = AXIS2_PLACEMENT_3D('',#163,#164,#165);
#163 = CARTESIAN_POINT('',(39.9,0.5,24.));
#164 = DIRECTION('',(0.,0.,1.));
#165 = DIRECTION('',(1.,0.,0.));
#166 = ORIENTED_EDGE('',*,*,#167,.T.);
#167 = EDGE_CURVE('',#159,#168,#170,.T.);
#168 = VERTEX_POINT('',#169);
#169 = CARTESIAN_POINT('',(35.65,11.,24.));
#170 = LINE('',#171,#172);
#171 = CARTESIAN_POINT('',(35.65,-9.85,24.));
#172 = VECTOR('',#173,1.);
#173 = DIRECTION('',(0.,1.,0.));
#174 = ORIENTED_EDGE('',*,*,#175,.F.);
#175 = EDGE_CURVE('',#176,#168,#178,.T.);
#176 = VERTEX_POINT('',#177);
#177 = CARTESIAN_POINT('',(44.,12.11915146428,24.));
#178 = CIRCLE('',#179,4.25);
#179 = AXIS2_PLACEMENT_3D('',#180,#181,#182);
#180 = CARTESIAN_POINT('',(39.9,11.,24.));
#181 = DIRECTION('',(0.,0.,1.));
#182 = DIRECTION('',(1.,0.,0.));
#183 = ORIENTED_EDGE('',*,*,#184,.T.);
#184 = EDGE_CURVE('',#176,#185,#187,.T.);
#185 = VERTEX_POINT('',#186);
#186 = CARTESIAN_POINT('',(44.,26.7,24.));
#187 = LINE('',#188,#189);
#188 = CARTESIAN_POINT('',(44.,-20.2,24.));
#189 = VECTOR('',#190,1.);
#190 = DIRECTION('',(0.,1.,0.));
#191 = ORIENTED_EDGE('',*,*,#192,.F.);
#192 = EDGE_CURVE('',#74,#185,#193,.T.);
#193 = LINE('',#194,#195);
#194 = CARTESIAN_POINT('',(-44.,26.7,24.));
#195 = VECTOR('',#196,1.);
#196 = DIRECTION('',(1.,0.,0.));
#197 = ORIENTED_EDGE('',*,*,#81,.F.);
#198 = ORIENTED_EDGE('',*,*,#199,.F.);
#199 = EDGE_CURVE('',#200,#82,#202,.T.);
#200 = VERTEX_POINT('',#201);
#201 = CARTESIAN_POINT('',(-35.65,11.,24.));
#202 = CIRCLE('',#203,4.25);
#203 = AXIS2_PLACEMENT_3D('',#204,#205,#206);
#204 = CARTESIAN_POINT('',(-39.9,11.,24.));
#205 = DIRECTION('',(0.,0.,1.));
#206 = DIRECTION('',(1.,0.,0.));
#207 = ORIENTED_EDGE('',*,*,#208,.F.);
#208 = EDGE_CURVE('',#209,#200,#211,.T.);
#209 = VERTEX_POINT('',#210);
#210 = CARTESIAN_POINT('',(-35.65,0.5,24.));
#211 = LINE('',#212,#213);
#212 = CARTESIAN_POINT('',(-35.65,-9.85,24.));
#213 = VECTOR('',#214,1.);
#214 = DIRECTION('',(0.,1.,0.));
#215 = ORIENTED_EDGE('',*,*,#216,.F.);
#216 = EDGE_CURVE('',#24,#209,#217,.T.);
#217 = CIRCLE('',#218,4.25);
#218 = AXIS2_PLACEMENT_3D('',#219,#220,#221);
#219 = CARTESIAN_POINT('',(-39.9,0.5,24.));
#220 = DIRECTION('',(0.,0.,1.));
#221 = DIRECTION('',(1.,0.,0.));
#222 = PLANE('',#223);
#223 = AXIS2_PLACEMENT_3D('',#224,#225,#226);
#224 = CARTESIAN_POINT('',(-44.,-20.2,24.));
#225 = DIRECTION('',(0.,0.,1.));
#226 = DIRECTION('',(1.,0.,0.));
#227 = ADVANCED_FACE('',(#228),#247,.F.);
#228 = FACE_BOUND('',#229,.F.);
#229 = EDGE_LOOP('',(#230,#239,#245,#246));
#230 = ORIENTED_EDGE('',*,*,#231,.T.);
#231 = EDGE_CURVE('',#98,#232,#234,.T.);
#232 = VERTEX_POINT('',#233);
#233 = CARTESIAN_POINT('',(-35.65,0.5,19.));
#234 = CIRCLE('',#235,4.25);
#235 = AXIS2_PLACEMENT_3D('',#236,#237,#238);
#236 = CARTESIAN_POINT('',(-39.9,0.5,19.));
#237 = DIRECTION('',(0.,0.,1.));
#238 = DIRECTION('',(1.,0.,0.));
#239 = ORIENTED_EDGE('',*,*,#240,.T.);
#240 = EDGE_CURVE('',#232,#209,#241,.T.);
#241 = LINE('',#242,#243);
#242 = CARTESIAN_POINT('',(-35.65,0.5,19.));
#243 = VECTOR('',#244,1.);
#244 = DIRECTION('',(0.,0.,1.));
#245 = ORIENTED_EDGE('',*,*,#216,.F.);
#246 = ORIENTED_EDGE('',*,*,#105,.F.);
#247 = CYLINDRICAL_SURFACE('',#248,4.25);
#248 = AXIS2_PLACEMENT_3D('',#249,#250,#251);
#249 = CARTESIAN_POINT('',(-39.9,0.5,19.));
#250 = DIRECTION('',(0.,0.,1.));
#251 = DIRECTION('',(1.,0.,0.));
#252 = ADVANCED_FACE('',(#253,#272),#308,.F.);
#253 = FACE_BOUND('',#254,.F.);
#254 = EDGE_LOOP('',(#255,#256,#257,#266));
#255 = ORIENTED_EDGE('',*,*,#231,.F.);
#256 = ORIENTED_EDGE('',*,*,#97,.T.);
#257 = ORIENTED_EDGE('',*,*,#258,.F.);
#258 = EDGE_CURVE('',#259,#90,#261,.T.);
#259 = VERTEX_POINT('',#260);
#260 = CARTESIAN_POINT('',(-35.65,11.,19.));
#261 = CIRCLE('',#262,4.25);
#262 = AXIS2_PLACEMENT_3D('',#263,#264,#265);
#263 = CARTESIAN_POINT('',(-39.9,11.,19.));
#264 = DIRECTION('',(0.,0.,1.));
#265 = DIRECTION('',(1.,0.,0.));
#266 = ORIENTED_EDGE('',*,*,#267,.F.);
#267 = EDGE_CURVE('',#232,#259,#268,.T.);
#268 = LINE('',#269,#270);
#269 = CARTESIAN_POINT('',(-35.65,0.5,19.));
#270 = VECTOR('',#271,1.);
#271 = DIRECTION('',(0.,1.,0.));
#272 = FACE_BOUND('',#273,.F.);
#273 = EDGE_LOOP('',(#274,#284,#293,#301));
#274 = ORIENTED_EDGE('',*,*,#275,.F.);
#275 = EDGE_CURVE('',#276,#278,#280,.T.);
#276 = VERTEX_POINT('',#277);
#277 = CARTESIAN_POINT('',(-42.0844,0.5,19.));
#278 = VERTEX_POINT('',#279);
#279 = CARTESIAN_POINT('',(-42.0844,11.,19.));
#280 = LINE('',#281,#282);
#281 = CARTESIAN_POINT('',(-42.0844,3.125,19.));
#282 = VECTOR('',#283,1.);
#283 = DIRECTION('',(0.,1.,0.));
#284 = ORIENTED_EDGE('',*,*,#285,.T.);
#285 = EDGE_CURVE('',#276,#286,#288,.T.);
#286 = VERTEX_POINT('',#287);
#287 = CARTESIAN_POINT('',(-37.7156,0.5,19.));
#288 = CIRCLE('',#289,2.1844);
#289 = AXIS2_PLACEMENT_3D('',#290,#291,#292);
#290 = CARTESIAN_POINT('',(-39.9,0.5,19.));
#291 = DIRECTION('',(0.,0.,1.));
#292 = DIRECTION('',(1.,0.,0.));
#293 = ORIENTED_EDGE('',*,*,#294,.T.);
#294 = EDGE_CURVE('',#286,#295,#297,.T.);
#295 = VERTEX_POINT('',#296);
#296 = CARTESIAN_POINT('',(-37.7156,11.,19.));
#297 = LINE('',#298,#299);
#298 = CARTESIAN_POINT('',(-37.7156,3.125,19.));
#299 = VECTOR('',#300,1.);
#300 = DIRECTION('',(0.,1.,0.));
#301 = ORIENTED_EDGE('',*,*,#302,.T.);
#302 = EDGE_CURVE('',#295,#278,#303,.T.);
#303 = CIRCLE('',#304,2.1844);
#304 = AXIS2_PLACEMENT_3D('',#305,#306,#307);
#305 = CARTESIAN_POINT('',(-39.9,11.,19.));
#306 = DIRECTION('',(0.,0.,1.));
#307 = DIRECTION('',(1.,0.,0.));
#308 = PLANE('',#309);
#309 = AXIS2_PLACEMENT_3D('',#310,#311,#312);
#310 = CARTESIAN_POINT('',(-39.9,5.75,19.));
#311 = DIRECTION('',(-0.,-0.,-1.));
#312 = DIRECTION('',(-1.,0.,0.));
#313 = ADVANCED_FACE('',(#314),#325,.F.);
#314 = FACE_BOUND('',#315,.F.);
#315 = EDGE_LOOP('',(#316,#317,#323,#324));
#316 = ORIENTED_EDGE('',*,*,#199,.F.);
#317 = ORIENTED_EDGE('',*,*,#318,.F.);
#318 = EDGE_CURVE('',#259,#200,#319,.T.);
#319 = LINE('',#320,#321);
#320 = CARTESIAN_POINT('',(-35.65,11.,19.));
#321 = VECTOR('',#322,1.);
#322 = DIRECTION('',(0.,0.,1.));
#323 = ORIENTED_EDGE('',*,*,#258,.T.);
#324 = ORIENTED_EDGE('',*,*,#89,.T.);
#325 = CYLINDRICAL_SURFACE('',#326,4.25);
#326 = AXIS2_PLACEMENT_3D('',#327,#328,#329);
#327 = CARTESIAN_POINT('',(-39.9,11.,19.));
#328 = DIRECTION('',(0.,0.,1.));
#329 = DIRECTION('',(1.,0.,0.));
#330 = ADVANCED_FACE('',(#331),#349,.T.);
#331 = FACE_BOUND('',#332,.T.);
#332 = EDGE_LOOP('',(#333,#341,#342,#343));
#333 = ORIENTED_EDGE('',*,*,#334,.F.);
#334 = EDGE_CURVE('',#66,#335,#337,.T.);
#335 = VERTEX_POINT('',#336);
#336 = CARTESIAN_POINT('',(44.,26.7,0.));
#337 = LINE('',#338,#339);
#338 = CARTESIAN_POINT('',(-44.,26.7,0.));
#339 = VECTOR('',#340,1.);
#340 = DIRECTION('',(1.,0.,0.));
#341 = ORIENTED_EDGE('',*,*,#73,.T.);
#342 = ORIENTED_EDGE('',*,*,#192,.T.);
#343 = ORIENTED_EDGE('',*,*,#344,.F.);
#344 = EDGE_CURVE('',#335,#185,#345,.T.);
#345 = LINE('',#346,#347);
#346 = CARTESIAN_POINT('',(44.,26.7,0.));
#347 = VECTOR('',#348,1.);
#348 = DIRECTION('',(0.,0.,1.));
#349 = PLANE('',#350);
#350 = AXIS2_PLACEMENT_3D('',#351,#352,#353);
#351 = CARTESIAN_POINT('',(-44.,26.7,0.));
#352 = DIRECTION('',(0.,1.,0.));
#353 = DIRECTION('',(0.,0.,1.));
#354 = ADVANCED_FACE('',(#355),#405,.F.);
#355 = FACE_BOUND('',#356,.F.);
#356 = EDGE_LOOP('',(#357,#358,#366,#374,#382,#390,#398,#404));
#357 = ORIENTED_EDGE('',*,*,#65,.F.);
#358 = ORIENTED_EDGE('',*,*,#359,.T.);
#359 = EDGE_CURVE('',#57,#360,#362,.T.);
#360 = VERTEX_POINT('',#361);
#361 = CARTESIAN_POINT('',(-6.,15.2,0.));
#362 = LINE('',#363,#364);
#363 = CARTESIAN_POINT('',(-45.,15.2,0.));
#364 = VECTOR('',#365,1.);
#365 = DIRECTION('',(1.,0.,0.));
#366 = ORIENTED_EDGE('',*,*,#367,.T.);
#367 = EDGE_CURVE('',#360,#368,#370,.T.);
#368 = VERTEX_POINT('',#369);
#369 = CARTESIAN_POINT('',(-6.,24.2,0.));
#370 = LINE('',#371,#372);
#371 = CARTESIAN_POINT('',(-6.,-3.5,0.));
#372 = VECTOR('',#373,1.);
#373 = DIRECTION('',(0.,1.,0.));
#374 = ORIENTED_EDGE('',*,*,#375,.F.);
#375 = EDGE_CURVE('',#376,#368,#378,.T.);
#376 = VERTEX_POINT('',#377);
#377 = CARTESIAN_POINT('',(6.,24.2,0.));
#378 = LINE('',#379,#380);
#379 = CARTESIAN_POINT('',(-25.,24.2,0.));
#380 = VECTOR('',#381,1.);
#381 = DIRECTION('',(-1.,0.,0.));
#382 = ORIENTED_EDGE('',*,*,#383,.F.);
#383 = EDGE_CURVE('',#384,#376,#386,.T.);
#384 = VERTEX_POINT('',#385);
#385 = CARTESIAN_POINT('',(6.,15.2,0.));
#386 = LINE('',#387,#388);
#387 = CARTESIAN_POINT('',(6.,-3.5,0.));
#388 = VECTOR('',#389,1.);
#389 = DIRECTION('',(0.,1.,0.));
#390 = ORIENTED_EDGE('',*,*,#391,.T.);
#391 = EDGE_CURVE('',#384,#392,#394,.T.);
#392 = VERTEX_POINT('',#393);
#393 = CARTESIAN_POINT('',(44.,15.2,0.));
#394 = LINE('',#395,#396);
#395 = CARTESIAN_POINT('',(-45.,15.2,0.));
#396 = VECTOR('',#397,1.);
#397 = DIRECTION('',(1.,0.,0.));
#398 = ORIENTED_EDGE('',*,*,#399,.T.);
#399 = EDGE_CURVE('',#392,#335,#400,.T.);
#400 = LINE('',#401,#402);
#401 = CARTESIAN_POINT('',(44.,-20.2,0.));
#402 = VECTOR('',#403,1.);
#403 = DIRECTION('',(0.,1.,0.));
#404 = ORIENTED_EDGE('',*,*,#334,.F.);
#405 = PLANE('',#406);
#406 = AXIS2_PLACEMENT_3D('',#407,#408,#409);
#407 = CARTESIAN_POINT('',(-44.,-20.2,0.));
#408 = DIRECTION('',(0.,0.,1.));
#409 = DIRECTION('',(1.,0.,0.));
#410 = ADVANCED_FACE('',(#411),#436,.F.);
#411 = FACE_BOUND('',#412,.F.);
#412 = EDGE_LOOP('',(#413,#414,#422,#430));
#413 = ORIENTED_EDGE('',*,*,#39,.F.);
#414 = ORIENTED_EDGE('',*,*,#415,.T.);
#415 = EDGE_CURVE('',#32,#416,#418,.T.);
#416 = VERTEX_POINT('',#417);
#417 = CARTESIAN_POINT('',(44.,-20.2,0.));
#418 = LINE('',#419,#420);
#419 = CARTESIAN_POINT('',(-44.,-20.2,0.));
#420 = VECTOR('',#421,1.);
#421 = DIRECTION('',(1.,0.,0.));
#422 = ORIENTED_EDGE('',*,*,#423,.T.);
#423 = EDGE_CURVE('',#416,#424,#426,.T.);
#424 = VERTEX_POINT('',#425);
#425 = CARTESIAN_POINT('',(44.,-15.2,0.));
#426 = LINE('',#427,#428);
#427 = CARTESIAN_POINT('',(44.,-20.2,0.));
#428 = VECTOR('',#429,1.);
#429 = DIRECTION('',(0.,1.,0.));
#430 = ORIENTED_EDGE('',*,*,#431,.F.);
#431 = EDGE_CURVE('',#40,#424,#432,.T.);
#432 = LINE('',#433,#434);
#433 = CARTESIAN_POINT('',(-45.,-15.2,0.));
#434 = VECTOR('',#435,1.);
#435 = DIRECTION('',(1.,0.,0.));
#436 = PLANE('',#437);
#437 = AXIS2_PLACEMENT_3D('',#438,#439,#440);
#438 = CARTESIAN_POINT('',(-44.,-20.2,0.));
#439 = DIRECTION('',(0.,0.,1.));
#440 = DIRECTION('',(1.,0.,0.));
#441 = ADVANCED_FACE('',(#442),#453,.F.);
#442 = FACE_BOUND('',#443,.F.);
#443 = EDGE_LOOP('',(#444,#445,#446,#447));
#444 = ORIENTED_EDGE('',*,*,#415,.F.);
#445 = ORIENTED_EDGE('',*,*,#31,.T.);
#446 = ORIENTED_EDGE('',*,*,#142,.T.);
#447 = ORIENTED_EDGE('',*,*,#448,.F.);
#448 = EDGE_CURVE('',#416,#143,#449,.T.);
#449 = LINE('',#450,#451);
#450 = CARTESIAN_POINT('',(44.,-20.2,0.));
#451 = VECTOR('',#452,1.);
#452 = DIRECTION('',(0.,0.,1.));
#453 = PLANE('',#454);
#454 = AXIS2_PLACEMENT_3D('',#455,#456,#457);
#455 = CARTESIAN_POINT('',(-44.,-20.2,0.));
#456 = DIRECTION('',(0.,1.,0.));
#457 = DIRECTION('',(0.,0.,1.));
#458 = ADVANCED_FACE('',(#459),#478,.F.);
#459 = FACE_BOUND('',#460,.F.);
#460 = EDGE_LOOP('',(#461,#470,#476,#477));
#461 = ORIENTED_EDGE('',*,*,#462,.F.);
#462 = EDGE_CURVE('',#463,#463,#465,.T.);
#463 = VERTEX_POINT('',#464);
#464 = CARTESIAN_POINT('',(-28.,17.,18.7272));
#465 = CIRCLE('',#466,1.7272);
#466 = AXIS2_PLACEMENT_3D('',#467,#468,#469);
#467 = CARTESIAN_POINT('',(-28.,17.,17.));
#468 = DIRECTION('',(1.,0.,-0.));
#469 = DIRECTION('',(0.,0.,1.));
#470 = ORIENTED_EDGE('',*,*,#471,.F.);
#471 = EDGE_CURVE('',#114,#463,#472,.T.);
#472 = LINE('',#473,#474);
#473 = CARTESIAN_POINT('',(-44.,17.,18.7272));
#474 = VECTOR('',#475,1.);
#475 = DIRECTION('',(1.,0.,0.));
#476 = ORIENTED_EDGE('',*,*,#113,.T.);
#477 = ORIENTED_EDGE('',*,*,#471,.T.);
#478 = CYLINDRICAL_SURFACE('',#479,1.7272);
#479 = AXIS2_PLACEMENT_3D('',#480,#481,#482);
#480 = CARTESIAN_POINT('',(-44.,17.,17.));
#481 = DIRECTION('',(1.,0.,0.));
#482 = DIRECTION('',(0.,0.,1.));
#483 = ADVANCED_FACE('',(#484),#503,.F.);
#484 = FACE_BOUND('',#485,.F.);
#485 = EDGE_LOOP('',(#486,#495,#501,#502));
#486 = ORIENTED_EDGE('',*,*,#487,.F.);
#487 = EDGE_CURVE('',#488,#488,#490,.T.);
#488 = VERTEX_POINT('',#489);
#489 = CARTESIAN_POINT('',(-28.,-14.5,18.7272));
#490 = CIRCLE('',#491,1.7272);
#491 = AXIS2_PLACEMENT_3D('',#492,#493,#494);
#492 = CARTESIAN_POINT('',(-28.,-14.5,17.));
#493 = DIRECTION('',(1.,0.,-0.));
#494 = DIRECTION('',(0.,0.,1.));
#495 = ORIENTED_EDGE('',*,*,#496,.F.);
#496 = EDGE_CURVE('',#125,#488,#497,.T.);
#497 = LINE('',#498,#499);
#498 = CARTESIAN_POINT('',(-44.,-14.5,18.7272));
#499 = VECTOR('',#500,1.);
#500 = DIRECTION('',(1.,0.,0.));
#501 = ORIENTED_EDGE('',*,*,#124,.T.);
#502 = ORIENTED_EDGE('',*,*,#496,.T.);
#503 = CYLINDRICAL_SURFACE('',#504,1.7272);
#504 = AXIS2_PLACEMENT_3D('',#505,#506,#507);
#505 = CARTESIAN_POINT('',(-44.,-14.5,17.));
#506 = DIRECTION('',(1.,0.,0.));
#507 = DIRECTION('',(0.,0.,1.));
#508 = ADVANCED_FACE('',(#509),#515,.F.);
#509 = FACE_BOUND('',#510,.F.);
#510 = EDGE_LOOP('',(#511,#512,#513,#514));
#511 = ORIENTED_EDGE('',*,*,#240,.F.);
#512 = ORIENTED_EDGE('',*,*,#267,.T.);
#513 = ORIENTED_EDGE('',*,*,#318,.T.);
#514 = ORIENTED_EDGE('',*,*,#208,.F.);
#515 = PLANE('',#516);
#516 = AXIS2_PLACEMENT_3D('',#517,#518,#519);
#517 = CARTESIAN_POINT('',(-35.65,0.5,19.));
#518 = DIRECTION('',(1.,0.,0.));
#519 = DIRECTION('',(0.,0.,1.));
#520 = ADVANCED_FACE('',(#521,#567,#578),#589,.T.);
#521 = FACE_BOUND('',#522,.T.);
#522 = EDGE_LOOP('',(#523,#524,#525,#526,#535,#542,#543,#544,#545,#553,
    #561));
#523 = ORIENTED_EDGE('',*,*,#150,.F.);
#524 = ORIENTED_EDGE('',*,*,#448,.F.);
#525 = ORIENTED_EDGE('',*,*,#423,.T.);
#526 = ORIENTED_EDGE('',*,*,#527,.F.);
#527 = EDGE_CURVE('',#528,#424,#530,.T.);
#528 = VERTEX_POINT('',#529);
#529 = CARTESIAN_POINT('',(44.,-2.84217094304E-14,15.2));
#530 = CIRCLE('',#531,15.2);
#531 = AXIS2_PLACEMENT_3D('',#532,#533,#534);
#532 = CARTESIAN_POINT('',(44.,0.,0.));
#533 = DIRECTION('',(1.,0.,-0.));
#534 = DIRECTION('',(0.,0.,1.));
#535 = ORIENTED_EDGE('',*,*,#536,.F.);
#536 = EDGE_CURVE('',#392,#528,#537,.T.);
#537 = CIRCLE('',#538,15.2);
#538 = AXIS2_PLACEMENT_3D('',#539,#540,#541);
#539 = CARTESIAN_POINT('',(44.,0.,0.));
#540 = DIRECTION('',(1.,0.,-0.));
#541 = DIRECTION('',(0.,0.,1.));
#542 = ORIENTED_EDGE('',*,*,#399,.T.);
#543 = ORIENTED_EDGE('',*,*,#344,.T.);
#544 = ORIENTED_EDGE('',*,*,#184,.F.);
#545 = ORIENTED_EDGE('',*,*,#546,.F.);
#546 = EDGE_CURVE('',#547,#176,#549,.T.);
#547 = VERTEX_POINT('',#548);
#548 = CARTESIAN_POINT('',(44.,12.11915146428,19.));
#549 = LINE('',#550,#551);
#550 = CARTESIAN_POINT('',(44.,12.11915146428,19.));
#551 = VECTOR('',#552,1.);
#552 = DIRECTION('',(0.,0.,1.));
#553 = ORIENTED_EDGE('',*,*,#554,.F.);
#554 = EDGE_CURVE('',#555,#547,#557,.T.);
#555 = VERTEX_POINT('',#556);
#556 = CARTESIAN_POINT('',(44.,-0.61915146428,19.));
#557 = LINE('',#558,#559);
#558 = CARTESIAN_POINT('',(44.,-7.225,19.));
#559 = VECTOR('',#560,1.);
#560 = DIRECTION('',(0.,1.,0.));
#561 = ORIENTED_EDGE('',*,*,#562,.T.);
#562 = EDGE_CURVE('',#555,#151,#563,.T.);
#563 = LINE('',#564,#565);
#564 = CARTESIAN_POINT('',(44.,-0.61915146428,19.));
#565 = VECTOR('',#566,1.);
#566 = DIRECTION('',(0.,0.,1.));
#567 = FACE_BOUND('',#568,.T.);
#568 = EDGE_LOOP('',(#569));
#569 = ORIENTED_EDGE('',*,*,#570,.T.);
#570 = EDGE_CURVE('',#571,#571,#573,.T.);
#571 = VERTEX_POINT('',#572);
#572 = CARTESIAN_POINT('',(44.,17.,15.2728));
#573 = CIRCLE('',#574,1.7272);
#574 = AXIS2_PLACEMENT_3D('',#575,#576,#577);
#575 = CARTESIAN_POINT('',(44.,17.,17.));
#576 = DIRECTION('',(-1.,0.,0.));
#577 = DIRECTION('',(0.,0.,-1.));
#578 = FACE_BOUND('',#579,.T.);
#579 = EDGE_LOOP('',(#580));
#580 = ORIENTED_EDGE('',*,*,#581,.T.);
#581 = EDGE_CURVE('',#582,#582,#584,.T.);
#582 = VERTEX_POINT('',#583);
#583 = CARTESIAN_POINT('',(44.,-14.5,15.2728));
#584 = CIRCLE('',#585,1.7272);
#585 = AXIS2_PLACEMENT_3D('',#586,#587,#588);
#586 = CARTESIAN_POINT('',(44.,-14.5,17.));
#587 = DIRECTION('',(-1.,0.,0.));
#588 = DIRECTION('',(0.,0.,-1.));
#589 = PLANE('',#590);
#590 = AXIS2_PLACEMENT_3D('',#591,#592,#593);
#591 = CARTESIAN_POINT('',(44.,-20.2,0.));
#592 = DIRECTION('',(1.,0.,0.));
#593 = DIRECTION('',(0.,0.,1.));
#594 = ADVANCED_FACE('',(#595),#614,.F.);
#595 = FACE_BOUND('',#596,.F.);
#596 = EDGE_LOOP('',(#597,#605,#606,#607));
#597 = ORIENTED_EDGE('',*,*,#598,.T.);
#598 = EDGE_CURVE('',#599,#168,#601,.T.);
#599 = VERTEX_POINT('',#600);
#600 = CARTESIAN_POINT('',(35.65,11.,19.));
#601 = LINE('',#602,#603);
#602 = CARTESIAN_POINT('',(35.65,11.,19.));
#603 = VECTOR('',#604,1.);
#604 = DIRECTION('',(0.,0.,1.));
#605 = ORIENTED_EDGE('',*,*,#175,.F.);
#606 = ORIENTED_EDGE('',*,*,#546,.F.);
#607 = ORIENTED_EDGE('',*,*,#608,.T.);
#608 = EDGE_CURVE('',#547,#599,#609,.T.);
#609 = CIRCLE('',#610,4.25);
#610 = AXIS2_PLACEMENT_3D('',#611,#612,#613);
#611 = CARTESIAN_POINT('',(39.9,11.,19.));
#612 = DIRECTION('',(0.,0.,1.));
#613 = DIRECTION('',(1.,0.,0.));
#614 = CYLINDRICAL_SURFACE('',#615,4.25);
#615 = AXIS2_PLACEMENT_3D('',#616,#617,#618);
#616 = CARTESIAN_POINT('',(39.9,11.,19.));
#617 = DIRECTION('',(0.,0.,1.));
#618 = DIRECTION('',(1.,0.,0.));
#619 = ADVANCED_FACE('',(#620),#638,.T.);
#620 = FACE_BOUND('',#621,.T.);
#621 = EDGE_LOOP('',(#622,#630,#636,#637));
#622 = ORIENTED_EDGE('',*,*,#623,.F.);
#623 = EDGE_CURVE('',#624,#159,#626,.T.);
#624 = VERTEX_POINT('',#625);
#625 = CARTESIAN_POINT('',(35.65,0.5,19.));
#626 = LINE('',#627,#628);
#627 = CARTESIAN_POINT('',(35.65,0.5,19.));
#628 = VECTOR('',#629,1.);
#629 = DIRECTION('',(0.,0.,1.));
#630 = ORIENTED_EDGE('',*,*,#631,.T.);
#631 = EDGE_CURVE('',#624,#599,#632,.T.);
#632 = LINE('',#633,#634);
#633 = CARTESIAN_POINT('',(35.65,0.5,19.));
#634 = VECTOR('',#635,1.);
#635 = DIRECTION('',(0.,1.,0.));
#636 = ORIENTED_EDGE('',*,*,#598,.T.);
#637 = ORIENTED_EDGE('',*,*,#167,.F.);
#638 = PLANE('',#639);
#639 = AXIS2_PLACEMENT_3D('',#640,#641,#642);
#640 = CARTESIAN_POINT('',(35.65,0.5,19.));
#641 = DIRECTION('',(1.,0.,0.));
#642 = DIRECTION('',(0.,0.,1.));
#643 = ADVANCED_FACE('',(#644),#656,.F.);
#644 = FACE_BOUND('',#645,.F.);
#645 = EDGE_LOOP('',(#646,#653,#654,#655));
#646 = ORIENTED_EDGE('',*,*,#647,.T.);
#647 = EDGE_CURVE('',#624,#555,#648,.T.);
#648 = CIRCLE('',#649,4.25);
#649 = AXIS2_PLACEMENT_3D('',#650,#651,#652);
#650 = CARTESIAN_POINT('',(39.9,0.5,19.));
#651 = DIRECTION('',(0.,0.,1.));
#652 = DIRECTION('',(1.,0.,0.));
#653 = ORIENTED_EDGE('',*,*,#562,.T.);
#654 = ORIENTED_EDGE('',*,*,#158,.F.);
#655 = ORIENTED_EDGE('',*,*,#623,.F.);
#656 = CYLINDRICAL_SURFACE('',#657,4.25);
#657 = AXIS2_PLACEMENT_3D('',#658,#659,#660);
#658 = CARTESIAN_POINT('',(39.9,0.5,19.));
#659 = DIRECTION('',(0.,0.,1.));
#660 = DIRECTION('',(1.,0.,0.));
#661 = ADVANCED_FACE('',(#662),#688,.T.);
#662 = FACE_BOUND('',#663,.T.);
#663 = EDGE_LOOP('',(#664,#672,#681,#687));
#664 = ORIENTED_EDGE('',*,*,#665,.F.);
#665 = EDGE_CURVE('',#666,#276,#668,.T.);
#666 = VERTEX_POINT('',#667);
#667 = CARTESIAN_POINT('',(-42.0844,0.5,15.191774089947));
#668 = LINE('',#669,#670);
#669 = CARTESIAN_POINT('',(-42.0844,0.5,-1.));
#670 = VECTOR('',#671,1.);
#671 = DIRECTION('',(0.,0.,1.));
#672 = ORIENTED_EDGE('',*,*,#673,.F.);
#673 = EDGE_CURVE('',#674,#666,#676,.T.);
#674 = VERTEX_POINT('',#675);
#675 = CARTESIAN_POINT('',(-42.0844,11.,10.489995233555));
#676 = CIRCLE('',#677,15.2);
#677 = AXIS2_PLACEMENT_3D('',#678,#679,#680);
#678 = CARTESIAN_POINT('',(-42.0844,0.,0.));
#679 = DIRECTION('',(1.,0.,-0.));
#680 = DIRECTION('',(0.,0.,1.));
#681 = ORIENTED_EDGE('',*,*,#682,.T.);
#682 = EDGE_CURVE('',#674,#278,#683,.T.);
#683 = LINE('',#684,#685);
#684 = CARTESIAN_POINT('',(-42.0844,11.,-1.));
#685 = VECTOR('',#686,1.);
#686 = DIRECTION('',(0.,0.,1.));
#687 = ORIENTED_EDGE('',*,*,#275,.F.);
#688 = PLANE('',#689);
#689 = AXIS2_PLACEMENT_3D('',#690,#691,#692);
#690 = CARTESIAN_POINT('',(-42.0844,0.5,-1.));
#691 = DIRECTION('',(1.,0.,0.));
#692 = DIRECTION('',(0.,0.,1.));
#693 = ADVANCED_FACE('',(#694),#771,.F.);
#694 = FACE_BOUND('',#695,.F.);
#695 = EDGE_LOOP('',(#696,#697,#705,#770));
#696 = ORIENTED_EDGE('',*,*,#302,.F.);
#697 = ORIENTED_EDGE('',*,*,#698,.F.);
#698 = EDGE_CURVE('',#699,#295,#701,.T.);
#699 = VERTEX_POINT('',#700);
#700 = CARTESIAN_POINT('',(-37.7156,11.,10.489995233555));
#701 = LINE('',#702,#703);
#702 = CARTESIAN_POINT('',(-37.7156,11.,-1.));
#703 = VECTOR('',#704,1.);
#704 = DIRECTION('',(0.,0.,1.));
#705 = ORIENTED_EDGE('',*,*,#706,.T.);
#706 = EDGE_CURVE('',#699,#674,#707,.T.);
#707 = B_SPLINE_CURVE_WITH_KNOTS('',6,(#708,#709,#710,#711,#712,#713,
    #714,#715,#716,#717,#718,#719,#720,#721,#722,#723,#724,#725,#726,
    #727,#728,#729,#730,#731,#732,#733,#734,#735,#736,#737,#738,#739,
    #740,#741,#742,#743,#744,#745,#746,#747,#748,#749,#750,#751,#752,
    #753,#754,#755,#756,#757,#758,#759,#760,#761,#762,#763,#764,#765,
    #766,#767,#768,#769),.UNSPECIFIED.,.F.,.F.,(7,5,5,5,5,5,5,5,5,5,5,5,
    7),(0.,0.16980713371,0.308195018778,0.351127144607,0.402779736048,
    0.440821414178,0.500086235271,0.539275402538,0.597328516546,
    0.648773903872,0.691069657939,0.830240935184,1.),.UNSPECIFIED.);
#708 = CARTESIAN_POINT('',(-37.7156,11.,10.489995233555));
#709 = CARTESIAN_POINT('',(-37.7156,11.19310793958,10.28749873207));
#710 = CARTESIAN_POINT('',(-37.73608592956,11.380395908924,
    10.082148390249));
#711 = CARTESIAN_POINT('',(-37.77474067168,11.560577647152,
    9.875528397382));
#712 = CARTESIAN_POINT('',(-37.82990133088,11.732989436071,9.6689691523)
  );
#713 = CARTESIAN_POINT('',(-37.90045533756,11.897109204336,
    9.463809798395));
#714 = CARTESIAN_POINT('',(-38.05534559668,12.178853539741,
    9.097177243222));
#715 = CARTESIAN_POINT('',(-38.13463112082,12.299306811034,
    8.934846427679));
#716 = CARTESIAN_POINT('',(-38.22353476302,12.413870045356,
    8.775153313239));
#717 = CARTESIAN_POINT('',(-38.32234111106,12.522408279893,
    8.618817615296));
#718 = CARTESIAN_POINT('',(-38.43152118863,12.624328310011,
    8.467343540902));
#719 = CARTESIAN_POINT('',(-38.58875786776,12.74770904837,8.278813931048
    ));
#720 = CARTESIAN_POINT('',(-38.62705340135,12.776195205212,
    8.234876128768));
#721 = CARTESIAN_POINT('',(-38.66644658557,12.803930273338,
    8.191703574827));
#722 = CARTESIAN_POINT('',(-38.70696838785,12.830881152194,8.14937834374
    ));
#723 = CARTESIAN_POINT('',(-38.74864884179,12.857005357294,
    8.108000715725));
#724 = CARTESIAN_POINT('',(-38.84309273434,12.912624636429,
    8.019189471304));
#725 = CARTESIAN_POINT('',(-38.89640049374,12.941734309422,
    7.972220977462));
#726 = CARTESIAN_POINT('',(-38.95149042389,12.969487504823,
    7.926993915065));
#727 = CARTESIAN_POINT('',(-39.00840712726,12.995771807167,
    7.883760548511));
#728 = CARTESIAN_POINT('',(-39.06718933824,13.020454799161,
    7.842815249874));
#729 = CARTESIAN_POINT('',(-39.17255999305,13.060271051682,
    7.776271713378));
#730 = CARTESIAN_POINT('',(-39.21829336763,13.076211884744,7.74946403652
    ));
#731 = CARTESIAN_POINT('',(-39.26504165969,13.091128394162,7.72423416009
    ));
#732 = CARTESIAN_POINT('',(-39.31277618986,13.104945084448,
    7.700743867571));
#733 = CARTESIAN_POINT('',(-39.36146764469,13.11758780069,7.67915370309)
  );
#734 = CARTESIAN_POINT('',(-39.48838630465,13.146734257113,
    7.629195194952));
#735 = CARTESIAN_POINT('',(-39.56812004102,13.161499063278,
    7.603692362264));
#736 = CARTESIAN_POINT('',(-39.6497082512,13.172859240833,7.583952910455
    ));
#737 = CARTESIAN_POINT('',(-39.7325839838,13.180541459435,7.570559685851
    ));
#738 = CARTESIAN_POINT('',(-39.81619393781,13.1844,7.563834784023));
#739 = CARTESIAN_POINT('',(-39.95541718895,13.1844,7.563834784023));
#740 = CARTESIAN_POINT('',(-40.01080616792,13.182712892059,
    7.566775461083));
#741 = CARTESIAN_POINT('',(-40.06598251015,13.179341987656,7.57265149811
    ));
#742 = CARTESIAN_POINT('',(-40.12075918098,13.174317978756,
    7.581397091685));
#743 = CARTESIAN_POINT('',(-40.17494683509,13.16770059626,7.592886426486
    ));
#744 = CARTESIAN_POINT('',(-40.30746931491,13.147551170898,
    7.627743830954));
#745 = CARTESIAN_POINT('',(-40.38476030618,13.132241008518,
    7.654138462142));
#746 = CARTESIAN_POINT('',(-40.46005047175,13.113895144018,
    7.685601366224));
#747 = CARTESIAN_POINT('',(-40.53316159867,13.092772924137,7.72156497844
    ));
#748 = CARTESIAN_POINT('',(-40.60391463515,13.06916054891,7.761415001716
    ));
#749 = CARTESIAN_POINT('',(-40.73258179597,13.020541280333,
    7.842670716859));
#750 = CARTESIAN_POINT('',(-40.79114951556,12.9959579421,7.883451774506)
  );
#751 = CARTESIAN_POINT('',(-40.84786568464,12.9697847551,7.926504973868)
  );
#752 = CARTESIAN_POINT('',(-40.90276852167,12.942152739219,
    7.971539064834));
#753 = CARTESIAN_POINT('',(-40.95590202928,12.913173226265,
    8.018304254628));
#754 = CARTESIAN_POINT('',(-41.04958526373,12.858080115654,
    8.106291983969));
#755 = CARTESIAN_POINT('',(-41.09070078103,12.832368372983,
    8.147028917014));
#756 = CARTESIAN_POINT('',(-41.13069011359,12.805852482872,
    8.188689356419));
#757 = CARTESIAN_POINT('',(-41.16958211559,12.778573265815,
    8.231176983524));
#758 = CARTESIAN_POINT('',(-41.20740657088,12.750562632766,
    8.274412757875));
#759 = CARTESIAN_POINT('',(-41.36524133957,12.627345529107,
    8.462857769451));
#760 = CARTESIAN_POINT('',(-41.47531738842,12.524977203616,
    8.615116386709));
#761 = CARTESIAN_POINT('',(-41.57488497211,12.415904062803,
    8.772317382973));
#762 = CARTESIAN_POINT('',(-41.66442812529,12.300734590679,
    8.932921836207));
#763 = CARTESIAN_POINT('',(-41.74424088696,12.179605723203,
    9.096198430483));
#764 = CARTESIAN_POINT('',(-41.89954466243,11.897109204336,
    9.463809798395));
#765 = CARTESIAN_POINT('',(-41.97009866911,11.732989436071,9.6689691523)
  );
#766 = CARTESIAN_POINT('',(-42.02525932831,11.560577647152,
    9.875528397382));
#767 = CARTESIAN_POINT('',(-42.06391407043,11.380395908924,
    10.082148390249));
#768 = CARTESIAN_POINT('',(-42.0844,11.19310793958,10.28749873207));
#769 = CARTESIAN_POINT('',(-42.0844,11.,10.489995233555));
#770 = ORIENTED_EDGE('',*,*,#682,.T.);
#771 = CYLINDRICAL_SURFACE('',#772,2.1844);
#772 = AXIS2_PLACEMENT_3D('',#773,#774,#775);
#773 = CARTESIAN_POINT('',(-39.9,11.,-1.));
#774 = DIRECTION('',(0.,0.,1.));
#775 = DIRECTION('',(1.,0.,0.));
#776 = ADVANCED_FACE('',(#777),#796,.F.);
#777 = FACE_BOUND('',#778,.F.);
#778 = EDGE_LOOP('',(#779,#787,#794,#795));
#779 = ORIENTED_EDGE('',*,*,#780,.F.);
#780 = EDGE_CURVE('',#781,#286,#783,.T.);
#781 = VERTEX_POINT('',#782);
#782 = CARTESIAN_POINT('',(-37.7156,0.5,15.191774089947));
#783 = LINE('',#784,#785);
#784 = CARTESIAN_POINT('',(-37.7156,0.5,-1.));
#785 = VECTOR('',#786,1.);
#786 = DIRECTION('',(0.,0.,1.));
#787 = ORIENTED_EDGE('',*,*,#788,.F.);
#788 = EDGE_CURVE('',#699,#781,#789,.T.);
#789 = CIRCLE('',#790,15.2);
#790 = AXIS2_PLACEMENT_3D('',#791,#792,#793);
#791 = CARTESIAN_POINT('',(-37.7156,0.,0.));
#792 = DIRECTION('',(1.,0.,-0.));
#793 = DIRECTION('',(0.,0.,1.));
#794 = ORIENTED_EDGE('',*,*,#698,.T.);
#795 = ORIENTED_EDGE('',*,*,#294,.F.);
#796 = PLANE('',#797);
#797 = AXIS2_PLACEMENT_3D('',#798,#799,#800);
#798 = CARTESIAN_POINT('',(-37.7156,0.5,-1.));
#799 = DIRECTION('',(1.,0.,0.));
#800 = DIRECTION('',(0.,0.,1.));
#801 = ADVANCED_FACE('',(#802),#864,.F.);
#802 = FACE_BOUND('',#803,.F.);
#803 = EDGE_LOOP('',(#804,#843,#852,#853,#854,#855));
#804 = ORIENTED_EDGE('',*,*,#805,.T.);
#805 = EDGE_CURVE('',#806,#808,#810,.T.);
#806 = VERTEX_POINT('',#807);
#807 = CARTESIAN_POINT('',(-42.02640620766,0.,15.2));
#808 = VERTEX_POINT('',#809);
#809 = CARTESIAN_POINT('',(-37.77359379233,0.,15.2));
#810 = B_SPLINE_CURVE_WITH_KNOTS('',6,(#811,#812,#813,#814,#815,#816,
    #817,#818,#819,#820,#821,#822,#823,#824,#825,#826,#827,#828,#829,
    #830,#831,#832,#833,#834,#835,#836,#837,#838,#839,#840,#841,#842),
  .UNSPECIFIED.,.F.,.F.,(7,5,5,5,5,5,7),(0.,0.1348117861,0.29913137245,
    0.500003840756,0.699028855488,0.863555044632,1.),.UNSPECIFIED.);
#811 = CARTESIAN_POINT('',(-42.02640620766,2.2E-16,15.2));
#812 = CARTESIAN_POINT('',(-41.9905560353,-0.152464058103,15.2));
#813 = CARTESIAN_POINT('',(-41.94227637239,-0.298915300303,
    15.198164760774));
#814 = CARTESIAN_POINT('',(-41.88285385278,-0.438120997874,
    15.194766023652));
#815 = CARTESIAN_POINT('',(-41.81373375917,-0.569065187133,
    15.190154301667));
#816 = CARTESIAN_POINT('',(-41.73651501693,-0.690979676381,
    15.184703329203));
#817 = CARTESIAN_POINT('',(-41.55108347276,-0.940371693151,
    15.171503608205));
#818 = CARTESIAN_POINT('',(-41.43943049482,-1.063704841272,
    15.163487905111));
#819 = CARTESIAN_POINT('',(-41.32010374754,-1.173543287536,
    15.155252146485));
#820 = CARTESIAN_POINT('',(-41.19477262261,-1.270227203358,
    15.147227644207));
#821 = CARTESIAN_POINT('',(-41.06476576399,-1.354155381416,
    15.13973007687));
#822 = CARTESIAN_POINT('',(-40.76783835535,-1.513152530693,
    15.12475076871));
#823 = CARTESIAN_POINT('',(-40.59901664886,-1.582164070946,
    15.117637197367));
#824 = CARTESIAN_POINT('',(-40.42654479606,-1.633410901272,
    15.112067947797));
#825 = CARTESIAN_POINT('',(-40.25180215255,-1.667398199943,
    15.108278417555));
#826 = CARTESIAN_POINT('',(-40.07592238567,-1.6844,15.106382645756));
#827 = CARTESIAN_POINT('',(-39.72569559833,-1.6844,15.106382645756));
#828 = CARTESIAN_POINT('',(-39.5514318668,-1.667709505095,
    15.108243704119));
#829 = CARTESIAN_POINT('',(-39.37827436732,-1.634343916422,
    15.111963922687));
#830 = CARTESIAN_POINT('',(-39.20732614812,-1.584039554317,
    15.117433327151));
#831 = CARTESIAN_POINT('',(-39.03992472514,-1.516309613903,
    15.124425101549));
#832 = CARTESIAN_POINT('',(-38.74387668328,-1.359560244476,
    15.139242815406));
#833 = CARTESIAN_POINT('',(-38.61346288388,-1.276223827406,
    15.146718154451));
#834 = CARTESIAN_POINT('',(-38.48768342622,-1.180119157333,
    15.154734486083));
#835 = CARTESIAN_POINT('',(-38.36785851183,-1.070843643169,
    15.162978491911));
#836 = CARTESIAN_POINT('',(-38.25564983237,-0.948049817599,15.1710212193
    ));
#837 = CARTESIAN_POINT('',(-38.06817922886,-0.698362416641,
    15.18437156397));
#838 = CARTESIAN_POINT('',(-37.9896260329,-0.575407077783,
    15.189929681211));
#839 = CARTESIAN_POINT('',(-37.91931510657,-0.443184042461,
    15.194641504732));
#840 = CARTESIAN_POINT('',(-37.85890091537,-0.302476105811,
    15.198119670746));
#841 = CARTESIAN_POINT('',(-37.80988155733,-0.154325057508,15.2));
#842 = CARTESIAN_POINT('',(-37.77359379233,-4.4E-16,15.2));
#843 = ORIENTED_EDGE('',*,*,#844,.T.);
#844 = EDGE_CURVE('',#808,#781,#845,.T.);
#845 = B_SPLINE_CURVE_WITH_KNOTS('',5,(#846,#847,#848,#849,#850,#851),
  .UNSPECIFIED.,.F.,.F.,(6,6),(0.,1.),.PIECEWISE_BEZIER_KNOTS.);
#846 = CARTESIAN_POINT('',(-37.77359379233,2.47E-15,15.2));
#847 = CARTESIAN_POINT('',(-37.75081663062,9.686699611573E-02,15.2));
#848 = CARTESIAN_POINT('',(-37.73331263486,0.196064131748,
    15.199228408905));
#849 = CARTESIAN_POINT('',(-37.72150373099,0.296847494536,
    15.197610632416));
#850 = CARTESIAN_POINT('',(-37.7156,0.398429632931,15.19511702957));
#851 = CARTESIAN_POINT('',(-37.7156,0.5,15.191774089947));
#852 = ORIENTED_EDGE('',*,*,#780,.T.);
#853 = ORIENTED_EDGE('',*,*,#285,.F.);
#854 = ORIENTED_EDGE('',*,*,#665,.F.);
#855 = ORIENTED_EDGE('',*,*,#856,.T.);
#856 = EDGE_CURVE('',#666,#806,#857,.T.);
#857 = B_SPLINE_CURVE_WITH_KNOTS('',5,(#858,#859,#860,#861,#862,#863),
  .UNSPECIFIED.,.F.,.F.,(6,6),(0.,1.),.PIECEWISE_BEZIER_KNOTS.);
#858 = CARTESIAN_POINT('',(-42.0844,0.5,15.191774089947));
#859 = CARTESIAN_POINT('',(-42.0844,0.398427842203,15.195117088507));
#860 = CARTESIAN_POINT('',(-42.07849605261,0.296846560399,
    15.197610635323));
#861 = CARTESIAN_POINT('',(-42.06668736273,0.196064989152,
    15.199228377922));
#862 = CARTESIAN_POINT('',(-42.04918378746,9.686877417711E-02,15.2));
#863 = CARTESIAN_POINT('',(-42.02640620766,2.17E-15,15.2));
#864 = CYLINDRICAL_SURFACE('',#865,2.1844);
#865 = AXIS2_PLACEMENT_3D('',#866,#867,#868);
#866 = CARTESIAN_POINT('',(-39.9,0.5,-1.));
#867 = DIRECTION('',(0.,0.,1.));
#868 = DIRECTION('',(1.,0.,0.));
#869 = ADVANCED_FACE('',(#870),#896,.F.);
#870 = FACE_BOUND('',#871,.F.);
#871 = EDGE_LOOP('',(#872,#882,#889,#890));
#872 = ORIENTED_EDGE('',*,*,#873,.F.);
#873 = EDGE_CURVE('',#874,#876,#878,.T.);
#874 = VERTEX_POINT('',#875);
#875 = CARTESIAN_POINT('',(6.,14.354093492798,5.));
#876 = VERTEX_POINT('',#877);
#877 = CARTESIAN_POINT('',(6.,24.2,5.));
#878 = LINE('',#879,#880);
#879 = CARTESIAN_POINT('',(6.,13.2,5.));
#880 = VECTOR('',#881,1.);
#881 = DIRECTION('',(0.,1.,0.));
#882 = ORIENTED_EDGE('',*,*,#883,.F.);
#883 = EDGE_CURVE('',#384,#874,#884,.T.);
#884 = CIRCLE('',#885,15.2);
#885 = AXIS2_PLACEMENT_3D('',#886,#887,#888);
#886 = CARTESIAN_POINT('',(6.,0.,0.));
#887 = DIRECTION('',(1.,0.,-0.));
#888 = DIRECTION('',(0.,0.,1.));
#889 = ORIENTED_EDGE('',*,*,#383,.T.);
#890 = ORIENTED_EDGE('',*,*,#891,.T.);
#891 = EDGE_CURVE('',#376,#876,#892,.T.);
#892 = LINE('',#893,#894);
#893 = CARTESIAN_POINT('',(6.,24.2,-1.));
#894 = VECTOR('',#895,1.);
#895 = DIRECTION('',(0.,0.,1.));
#896 = PLANE('',#897);
#897 = AXIS2_PLACEMENT_3D('',#898,#899,#900);
#898 = CARTESIAN_POINT('',(6.,13.2,-1.));
#899 = DIRECTION('',(1.,0.,0.));
#900 = DIRECTION('',(0.,0.,1.));
#901 = ADVANCED_FACE('',(#902),#920,.F.);
#902 = FACE_BOUND('',#903,.F.);
#903 = EDGE_LOOP('',(#904,#905,#906,#914));
#904 = ORIENTED_EDGE('',*,*,#891,.F.);
#905 = ORIENTED_EDGE('',*,*,#375,.T.);
#906 = ORIENTED_EDGE('',*,*,#907,.T.);
#907 = EDGE_CURVE('',#368,#908,#910,.T.);
#908 = VERTEX_POINT('',#909);
#909 = CARTESIAN_POINT('',(-6.,24.2,5.));
#910 = LINE('',#911,#912);
#911 = CARTESIAN_POINT('',(-6.,24.2,-1.));
#912 = VECTOR('',#913,1.);
#913 = DIRECTION('',(0.,0.,1.));
#914 = ORIENTED_EDGE('',*,*,#915,.T.);
#915 = EDGE_CURVE('',#908,#876,#916,.T.);
#916 = LINE('',#917,#918);
#917 = CARTESIAN_POINT('',(-6.,24.2,5.));
#918 = VECTOR('',#919,1.);
#919 = DIRECTION('',(1.,0.,0.));
#920 = PLANE('',#921);
#921 = AXIS2_PLACEMENT_3D('',#922,#923,#924);
#922 = CARTESIAN_POINT('',(-6.,24.2,-1.));
#923 = DIRECTION('',(0.,1.,0.));
#924 = DIRECTION('',(0.,0.,1.));
#925 = ADVANCED_FACE('',(#926),#945,.T.);
#926 = FACE_BOUND('',#927,.T.);
#927 = EDGE_LOOP('',(#928,#936,#943,#944));
#928 = ORIENTED_EDGE('',*,*,#929,.F.);
#929 = EDGE_CURVE('',#930,#908,#932,.T.);
#930 = VERTEX_POINT('',#931);
#931 = CARTESIAN_POINT('',(-6.,14.354093492798,5.));
#932 = LINE('',#933,#934);
#933 = CARTESIAN_POINT('',(-6.,13.2,5.));
#934 = VECTOR('',#935,1.);
#935 = DIRECTION('',(0.,1.,0.));
#936 = ORIENTED_EDGE('',*,*,#937,.F.);
#937 = EDGE_CURVE('',#360,#930,#938,.T.);
#938 = CIRCLE('',#939,15.2);
#939 = AXIS2_PLACEMENT_3D('',#940,#941,#942);
#940 = CARTESIAN_POINT('',(-6.,0.,0.));
#941 = DIRECTION('',(1.,0.,-0.));
#942 = DIRECTION('',(0.,0.,1.));
#943 = ORIENTED_EDGE('',*,*,#367,.T.);
#944 = ORIENTED_EDGE('',*,*,#907,.T.);
#945 = PLANE('',#946);
#946 = AXIS2_PLACEMENT_3D('',#947,#948,#949);
#947 = CARTESIAN_POINT('',(-6.,13.2,-1.));
#948 = DIRECTION('',(1.,0.,0.));
#949 = DIRECTION('',(0.,0.,1.));
#950 = ADVANCED_FACE('',(#951),#962,.F.);
#951 = FACE_BOUND('',#952,.F.);
#952 = EDGE_LOOP('',(#953,#954,#960,#961));
#953 = ORIENTED_EDGE('',*,*,#929,.F.);
#954 = ORIENTED_EDGE('',*,*,#955,.T.);
#955 = EDGE_CURVE('',#930,#874,#956,.T.);
#956 = LINE('',#957,#958);
#957 = CARTESIAN_POINT('',(-45.,14.354093492798,5.));
#958 = VECTOR('',#959,1.);
#959 = DIRECTION('',(1.,0.,0.));
#960 = ORIENTED_EDGE('',*,*,#873,.T.);
#961 = ORIENTED_EDGE('',*,*,#915,.F.);
#962 = PLANE('',#963);
#963 = AXIS2_PLACEMENT_3D('',#964,#965,#966);
#964 = CARTESIAN_POINT('',(-6.,13.2,5.));
#965 = DIRECTION('',(0.,0.,1.));
#966 = DIRECTION('',(1.,0.,0.));
#967 = ADVANCED_FACE('',(#968),#971,.F.);
#968 = FACE_BOUND('',#969,.F.);
#969 = EDGE_LOOP('',(#970));
#970 = ORIENTED_EDGE('',*,*,#462,.T.);
#971 = PLANE('',#972);
#972 = AXIS2_PLACEMENT_3D('',#973,#974,#975);
#973 = CARTESIAN_POINT('',(-28.,17.,17.));
#974 = DIRECTION('',(1.,0.,0.));
#975 = DIRECTION('',(0.,0.,1.));
#976 = ADVANCED_FACE('',(#977),#980,.F.);
#977 = FACE_BOUND('',#978,.F.);
#978 = EDGE_LOOP('',(#979));
#979 = ORIENTED_EDGE('',*,*,#487,.T.);
#980 = PLANE('',#981);
#981 = AXIS2_PLACEMENT_3D('',#982,#983,#984);
#982 = CARTESIAN_POINT('',(-28.,-14.5,17.));
#983 = DIRECTION('',(1.,0.,0.));
#984 = DIRECTION('',(0.,0.,1.));
#985 = ADVANCED_FACE('',(#986,#992),#1028,.F.);
#986 = FACE_BOUND('',#987,.F.);
#987 = EDGE_LOOP('',(#988,#989,#990,#991));
#988 = ORIENTED_EDGE('',*,*,#647,.F.);
#989 = ORIENTED_EDGE('',*,*,#631,.T.);
#990 = ORIENTED_EDGE('',*,*,#608,.F.);
#991 = ORIENTED_EDGE('',*,*,#554,.F.);
#992 = FACE_BOUND('',#993,.F.);
#993 = EDGE_LOOP('',(#994,#1004,#1013,#1021));
#994 = ORIENTED_EDGE('',*,*,#995,.F.);
#995 = EDGE_CURVE('',#996,#998,#1000,.T.);
#996 = VERTEX_POINT('',#997);
#997 = CARTESIAN_POINT('',(37.7156,0.5,19.));
#998 = VERTEX_POINT('',#999);
#999 = CARTESIAN_POINT('',(37.7156,11.,19.));
#1000 = LINE('',#1001,#1002);
#1001 = CARTESIAN_POINT('',(37.7156,3.125,19.));
#1002 = VECTOR('',#1003,1.);
#1003 = DIRECTION('',(0.,1.,0.));
#1004 = ORIENTED_EDGE('',*,*,#1005,.T.);
#1005 = EDGE_CURVE('',#996,#1006,#1008,.T.);
#1006 = VERTEX_POINT('',#1007);
#1007 = CARTESIAN_POINT('',(42.0844,0.5,19.));
#1008 = CIRCLE('',#1009,2.1844);
#1009 = AXIS2_PLACEMENT_3D('',#1010,#1011,#1012);
#1010 = CARTESIAN_POINT('',(39.9,0.5,19.));
#1011 = DIRECTION('',(0.,0.,1.));
#1012 = DIRECTION('',(1.,0.,0.));
#1013 = ORIENTED_EDGE('',*,*,#1014,.T.);
#1014 = EDGE_CURVE('',#1006,#1015,#1017,.T.);
#1015 = VERTEX_POINT('',#1016);
#1016 = CARTESIAN_POINT('',(42.0844,11.,19.));
#1017 = LINE('',#1018,#1019);
#1018 = CARTESIAN_POINT('',(42.0844,3.125,19.));
#1019 = VECTOR('',#1020,1.);
#1020 = DIRECTION('',(0.,1.,0.));
#1021 = ORIENTED_EDGE('',*,*,#1022,.T.);
#1022 = EDGE_CURVE('',#1015,#998,#1023,.T.);
#1023 = CIRCLE('',#1024,2.1844);
#1024 = AXIS2_PLACEMENT_3D('',#1025,#1026,#1027);
#1025 = CARTESIAN_POINT('',(39.9,11.,19.));
#1026 = DIRECTION('',(0.,0.,1.));
#1027 = DIRECTION('',(1.,0.,0.));
#1028 = PLANE('',#1029);
#1029 = AXIS2_PLACEMENT_3D('',#1030,#1031,#1032);
#1030 = CARTESIAN_POINT('',(39.9,5.75,19.));
#1031 = DIRECTION('',(-0.,-0.,-1.));
#1032 = DIRECTION('',(-1.,0.,0.));
#1033 = ADVANCED_FACE('',(#1034),#1110,.F.);
#1034 = FACE_BOUND('',#1035,.F.);
#1035 = EDGE_LOOP('',(#1036,#1075,#1086,#1092,#1093,#1101));
#1036 = ORIENTED_EDGE('',*,*,#1037,.T.);
#1037 = EDGE_CURVE('',#1038,#1040,#1042,.T.);
#1038 = VERTEX_POINT('',#1039);
#1039 = CARTESIAN_POINT('',(37.773593792334,-2.84217094304E-14,15.2));
#1040 = VERTEX_POINT('',#1041);
#1041 = CARTESIAN_POINT('',(42.026406207666,-2.84217094304E-14,15.2));
#1042 = B_SPLINE_CURVE_WITH_KNOTS('',6,(#1043,#1044,#1045,#1046,#1047,
    #1048,#1049,#1050,#1051,#1052,#1053,#1054,#1055,#1056,#1057,#1058,
    #1059,#1060,#1061,#1062,#1063,#1064,#1065,#1066,#1067,#1068,#1069,
    #1070,#1071,#1072,#1073,#1074),.UNSPECIFIED.,.F.,.F.,(7,5,5,5,5,5,7)
  ,(0.,0.134811786089,0.299131372413,0.500003840688,0.699028855452,
    0.863555044594,1.),.UNSPECIFIED.);
#1043 = CARTESIAN_POINT('',(37.773593792334,2.2E-16,15.2));
#1044 = CARTESIAN_POINT('',(37.809443964691,-0.152464058092,15.2));
#1045 = CARTESIAN_POINT('',(37.857723627603,-0.298915300306,
    15.198164760774));
#1046 = CARTESIAN_POINT('',(37.917146147223,-0.438120997884,
    15.194766023652));
#1047 = CARTESIAN_POINT('',(37.986266240828,-0.569065187135,
    15.190154301667));
#1048 = CARTESIAN_POINT('',(38.063484983057,-0.690979676372,
    15.184703329204));
#1049 = CARTESIAN_POINT('',(38.248916527239,-0.940371693151,
    15.171503608205));
#1050 = CARTESIAN_POINT('',(38.36056950518,-1.063704841272,
    15.163487905111));
#1051 = CARTESIAN_POINT('',(38.479896252456,-1.173543287536,
    15.155252146485));
#1052 = CARTESIAN_POINT('',(38.605227377381,-1.270227203358,
    15.147227644207));
#1053 = CARTESIAN_POINT('',(38.735234236007,-1.354155381416,
    15.13973007687));
#1054 = CARTESIAN_POINT('',(39.032161644642,-1.513152530693,
    15.12475076871));
#1055 = CARTESIAN_POINT('',(39.200983351134,-1.582164070946,
    15.117637197367));
#1056 = CARTESIAN_POINT('',(39.373455203936,-1.633410901272,
    15.112067947797));
#1057 = CARTESIAN_POINT('',(39.54819784745,-1.667398199943,
    15.108278417555));
#1058 = CARTESIAN_POINT('',(39.724077614328,-1.6844,15.106382645756));
#1059 = CARTESIAN_POINT('',(40.074304401725,-1.6844,15.106382645756));
#1060 = CARTESIAN_POINT('',(40.248568133104,-1.667709505083,
    15.10824370412));
#1061 = CARTESIAN_POINT('',(40.421725632685,-1.634343916463,
    15.111963922683));
#1062 = CARTESIAN_POINT('',(40.592673851961,-1.584039554262,
    15.117433327156));
#1063 = CARTESIAN_POINT('',(40.760075274807,-1.516309613931,
    15.124425101547));
#1064 = CARTESIAN_POINT('',(41.056123316734,-1.359560244466,
    15.139242815407));
#1065 = CARTESIAN_POINT('',(41.186537116078,-1.276223827418,
    15.14671815445));
#1066 = CARTESIAN_POINT('',(41.312316573785,-1.180119157348,
    15.154734486083));
#1067 = CARTESIAN_POINT('',(41.432141488188,-1.070843643133,
    15.162978491913));
#1068 = CARTESIAN_POINT('',(41.544350167614,-0.94804981762,
    15.171021219299));
#1069 = CARTESIAN_POINT('',(41.731820771177,-0.698362416592,
    15.184371563973));
#1070 = CARTESIAN_POINT('',(41.810373967071,-0.575407077795,
    15.189929681209));
#1071 = CARTESIAN_POINT('',(41.8806848934,-0.443184042516,15.19464150473
    ));
#1072 = CARTESIAN_POINT('',(41.941099084629,-0.302476105828,
    15.198119670747));
#1073 = CARTESIAN_POINT('',(41.990118442682,-0.154325057448,15.2));
#1074 = CARTESIAN_POINT('',(42.026406207666,-4.4E-16,15.2));
#1075 = ORIENTED_EDGE('',*,*,#1076,.T.);
#1076 = EDGE_CURVE('',#1040,#1077,#1079,.T.);
#1077 = VERTEX_POINT('',#1078);
#1078 = CARTESIAN_POINT('',(42.0844,0.5,15.191774089947));
#1079 = B_SPLINE_CURVE_WITH_KNOTS('',5,(#1080,#1081,#1082,#1083,#1084,
    #1085),.UNSPECIFIED.,.F.,.F.,(6,6),(0.,1.),
  .PIECEWISE_BEZIER_KNOTS.);
#1080 = CARTESIAN_POINT('',(42.026406207666,2.47E-15,15.2));
#1081 = CARTESIAN_POINT('',(42.049183369378,9.686699611572E-02,15.2));
#1082 = CARTESIAN_POINT('',(42.066687365133,0.196064131748,
    15.199228408905));
#1083 = CARTESIAN_POINT('',(42.078496269005,0.296847494536,
    15.197610632416));
#1084 = CARTESIAN_POINT('',(42.0844,0.398429632931,15.19511702957));
#1085 = CARTESIAN_POINT('',(42.0844,0.5,15.191774089947));
#1086 = ORIENTED_EDGE('',*,*,#1087,.T.);
#1087 = EDGE_CURVE('',#1077,#1006,#1088,.T.);
#1088 = LINE('',#1089,#1090);
#1089 = CARTESIAN_POINT('',(42.0844,0.5,-1.));
#1090 = VECTOR('',#1091,1.);
#1091 = DIRECTION('',(0.,0.,1.));
#1092 = ORIENTED_EDGE('',*,*,#1005,.F.);
#1093 = ORIENTED_EDGE('',*,*,#1094,.F.);
#1094 = EDGE_CURVE('',#1095,#996,#1097,.T.);
#1095 = VERTEX_POINT('',#1096);
#1096 = CARTESIAN_POINT('',(37.7156,0.5,15.191774089947));
#1097 = LINE('',#1098,#1099);
#1098 = CARTESIAN_POINT('',(37.7156,0.5,-1.));
#1099 = VECTOR('',#1100,1.);
#1100 = DIRECTION('',(0.,0.,1.));
#1101 = ORIENTED_EDGE('',*,*,#1102,.T.);
#1102 = EDGE_CURVE('',#1095,#1038,#1103,.T.);
#1103 = B_SPLINE_CURVE_WITH_KNOTS('',5,(#1104,#1105,#1106,#1107,#1108,
    #1109),.UNSPECIFIED.,.F.,.F.,(6,6),(0.,1.),
  .PIECEWISE_BEZIER_KNOTS.);
#1104 = CARTESIAN_POINT('',(37.7156,0.5,15.191774089947));
#1105 = CARTESIAN_POINT('',(37.7156,0.398427842203,15.195117088507));
#1106 = CARTESIAN_POINT('',(37.721503947388,0.296846560399,
    15.197610635323));
#1107 = CARTESIAN_POINT('',(37.733312637269,0.196064989152,
    15.199228377922));
#1108 = CARTESIAN_POINT('',(37.750816212531,9.68687741771E-02,15.2));
#1109 = CARTESIAN_POINT('',(37.773593792334,2.17E-15,15.2));
#1110 = CYLINDRICAL_SURFACE('',#1111,2.1844);
#1111 = AXIS2_PLACEMENT_3D('',#1112,#1113,#1114);
#1112 = CARTESIAN_POINT('',(39.9,0.5,-1.));
#1113 = DIRECTION('',(0.,0.,1.));
#1114 = DIRECTION('',(1.,0.,0.));
#1115 = ADVANCED_FACE('',(#1116),#1135,.F.);
#1116 = FACE_BOUND('',#1117,.F.);
#1117 = EDGE_LOOP('',(#1118,#1119,#1128,#1134));
#1118 = ORIENTED_EDGE('',*,*,#1087,.F.);
#1119 = ORIENTED_EDGE('',*,*,#1120,.F.);
#1120 = EDGE_CURVE('',#1121,#1077,#1123,.T.);
#1121 = VERTEX_POINT('',#1122);
#1122 = CARTESIAN_POINT('',(42.0844,11.,10.489995233555));
#1123 = CIRCLE('',#1124,15.2);
#1124 = AXIS2_PLACEMENT_3D('',#1125,#1126,#1127);
#1125 = CARTESIAN_POINT('',(42.0844,0.,0.));
#1126 = DIRECTION('',(1.,0.,-0.));
#1127 = DIRECTION('',(0.,0.,1.));
#1128 = ORIENTED_EDGE('',*,*,#1129,.T.);
#1129 = EDGE_CURVE('',#1121,#1015,#1130,.T.);
#1130 = LINE('',#1131,#1132);
#1131 = CARTESIAN_POINT('',(42.0844,11.,-1.));
#1132 = VECTOR('',#1133,1.);
#1133 = DIRECTION('',(0.,0.,1.));
#1134 = ORIENTED_EDGE('',*,*,#1014,.F.);
#1135 = PLANE('',#1136);
#1136 = AXIS2_PLACEMENT_3D('',#1137,#1138,#1139);
#1137 = CARTESIAN_POINT('',(42.0844,0.5,-1.));
#1138 = DIRECTION('',(1.,0.,0.));
#1139 = DIRECTION('',(0.,0.,1.));
#1140 = ADVANCED_FACE('',(#1141),#1218,.F.);
#1141 = FACE_BOUND('',#1142,.F.);
#1142 = EDGE_LOOP('',(#1143,#1144,#1145,#1212));
#1143 = ORIENTED_EDGE('',*,*,#1022,.F.);
#1144 = ORIENTED_EDGE('',*,*,#1129,.F.);
#1145 = ORIENTED_EDGE('',*,*,#1146,.T.);
#1146 = EDGE_CURVE('',#1121,#1147,#1149,.T.);
#1147 = VERTEX_POINT('',#1148);
#1148 = CARTESIAN_POINT('',(37.7156,11.,10.489995233555));
#1149 = B_SPLINE_CURVE_WITH_KNOTS('',6,(#1150,#1151,#1152,#1153,#1154,
    #1155,#1156,#1157,#1158,#1159,#1160,#1161,#1162,#1163,#1164,#1165,
    #1166,#1167,#1168,#1169,#1170,#1171,#1172,#1173,#1174,#1175,#1176,
    #1177,#1178,#1179,#1180,#1181,#1182,#1183,#1184,#1185,#1186,#1187,
    #1188,#1189,#1190,#1191,#1192,#1193,#1194,#1195,#1196,#1197,#1198,
    #1199,#1200,#1201,#1202,#1203,#1204,#1205,#1206,#1207,#1208,#1209,
    #1210,#1211),.UNSPECIFIED.,.F.,.F.,(7,5,5,5,5,5,5,5,5,5,5,5,7),(0.,
    0.169807133701,0.308195018762,0.35112714459,0.402779736028,
    0.440821414154,0.500086235238,0.539275402503,0.597328516515,
    0.648773903845,0.691069657915,0.830240935171,1.),.UNSPECIFIED.);
#1150 = CARTESIAN_POINT('',(42.0844,11.,10.489995233555));
#1151 = CARTESIAN_POINT('',(42.0844,11.19310793958,10.28749873207));
#1152 = CARTESIAN_POINT('',(42.063914070432,11.380395908924,
    10.082148390249));
#1153 = CARTESIAN_POINT('',(42.025259328317,11.560577647152,
    9.875528397382));
#1154 = CARTESIAN_POINT('',(41.970098669118,11.732989436071,9.6689691523
    ));
#1155 = CARTESIAN_POINT('',(41.899544662438,11.897109204336,
    9.463809798395));
#1156 = CARTESIAN_POINT('',(41.74465440332,12.178853539741,
    9.097177243221));
#1157 = CARTESIAN_POINT('',(41.665368879174,12.299306811033,
    8.93484642768));
#1158 = CARTESIAN_POINT('',(41.576465236974,12.413870045356,
    8.775153313239));
#1159 = CARTESIAN_POINT('',(41.477658888932,12.522408279893,
    8.618817615296));
#1160 = CARTESIAN_POINT('',(41.368478811368,12.624328310011,
    8.467343540902));
#1161 = CARTESIAN_POINT('',(41.211242132238,12.74770904837,
    8.278813931048));
#1162 = CARTESIAN_POINT('',(41.172946598642,12.776195205212,
    8.234876128768));
#1163 = CARTESIAN_POINT('',(41.133553414427,12.803930273338,
    8.191703574827));
#1164 = CARTESIAN_POINT('',(41.093031612144,12.830881152194,
    8.14937834374));
#1165 = CARTESIAN_POINT('',(41.051351158207,12.857005357294,
    8.108000715725));
#1166 = CARTESIAN_POINT('',(40.956907265658,12.912624636429,
    8.019189471304));
#1167 = CARTESIAN_POINT('',(40.903599506255,12.941734309422,
    7.972220977462));
#1168 = CARTESIAN_POINT('',(40.848509576104,12.969487504823,
    7.926993915065));
#1169 = CARTESIAN_POINT('',(40.79159287274,12.995771807167,
    7.883760548511));
#1170 = CARTESIAN_POINT('',(40.732810661759,13.020454799161,
    7.842815249874));
#1171 = CARTESIAN_POINT('',(40.627440006944,13.060271051681,
    7.77627171338));
#1172 = CARTESIAN_POINT('',(40.581706632361,13.076211884744,
    7.749464036519));
#1173 = CARTESIAN_POINT('',(40.534958340307,13.091128394163,
    7.724234160089));
#1174 = CARTESIAN_POINT('',(40.48722381013,13.104945084449,
    7.700743867571));
#1175 = CARTESIAN_POINT('',(40.438532355312,13.117587800689,
    7.679153703091));
#1176 = CARTESIAN_POINT('',(40.31161369535,13.146734257113,
    7.629195194952));
#1177 = CARTESIAN_POINT('',(40.231879958971,13.161499063278,
    7.603692362264));
#1178 = CARTESIAN_POINT('',(40.150291748794,13.172859240833,
    7.583952910455));
#1179 = CARTESIAN_POINT('',(40.0674160162,13.180541459435,7.570559685851
    ));
#1180 = CARTESIAN_POINT('',(39.983806062188,13.1844,7.563834784023));
#1181 = CARTESIAN_POINT('',(39.844582811036,13.1844,7.563834784023));
#1182 = CARTESIAN_POINT('',(39.78919383208,13.182712892059,
    7.566775461083));
#1183 = CARTESIAN_POINT('',(39.734017489848,13.179341987656,
    7.57265149811));
#1184 = CARTESIAN_POINT('',(39.679240819018,13.174317978757,
    7.581397091684));
#1185 = CARTESIAN_POINT('',(39.625053164899,13.167700596259,
    7.592886426487));
#1186 = CARTESIAN_POINT('',(39.492530685088,13.147551170898,
    7.627743830954));
#1187 = CARTESIAN_POINT('',(39.415239693814,13.132241008518,
    7.654138462142));
#1188 = CARTESIAN_POINT('',(39.339949528243,13.113895144018,
    7.685601366224));
#1189 = CARTESIAN_POINT('',(39.266838401329,13.092772924137,
    7.72156497844));
#1190 = CARTESIAN_POINT('',(39.19608536485,13.06916054891,7.761415001716
    ));
#1191 = CARTESIAN_POINT('',(39.067418204021,13.020541280333,
    7.842670716859));
#1192 = CARTESIAN_POINT('',(39.008850484438,12.9959579421,7.883451774506
    ));
#1193 = CARTESIAN_POINT('',(38.952134315357,12.9697847551,7.926504973868
    ));
#1194 = CARTESIAN_POINT('',(38.897231478326,12.942152739219,
    7.971539064834));
#1195 = CARTESIAN_POINT('',(38.844097970719,12.913173226265,
    8.018304254628));
#1196 = CARTESIAN_POINT('',(38.750414736261,12.858080115654,
    8.106291983969));
#1197 = CARTESIAN_POINT('',(38.709299218962,12.832368372983,
    8.147028917014));
#1198 = CARTESIAN_POINT('',(38.669309886409,12.805852482872,
    8.188689356419));
#1199 = CARTESIAN_POINT('',(38.630417884403,12.778573265815,
    8.231176983524));
#1200 = CARTESIAN_POINT('',(38.592593429115,12.750562632766,
    8.274412757875));
#1201 = CARTESIAN_POINT('',(38.434758660423,12.627345529107,
    8.462857769451));
#1202 = CARTESIAN_POINT('',(38.32468261158,12.524977203616,
    8.615116386709));
#1203 = CARTESIAN_POINT('',(38.225115027881,12.415904062803,
    8.772317382973));
#1204 = CARTESIAN_POINT('',(38.135571874705,12.300734590679,
    8.932921836207));
#1205 = CARTESIAN_POINT('',(38.055759113037,12.179605723203,
    9.096198430483));
#1206 = CARTESIAN_POINT('',(37.900455337562,11.897109204336,
    9.463809798395));
#1207 = CARTESIAN_POINT('',(37.829901330881,11.732989436071,9.6689691523
    ));
#1208 = CARTESIAN_POINT('',(37.774740671683,11.560577647152,
    9.875528397382));
#1209 = CARTESIAN_POINT('',(37.736085929568,11.380395908924,
    10.08214839025));
#1210 = CARTESIAN_POINT('',(37.7156,11.19310793958,10.28749873207));
#1211 = CARTESIAN_POINT('',(37.7156,11.,10.489995233555));
#1212 = ORIENTED_EDGE('',*,*,#1213,.T.);
#1213 = EDGE_CURVE('',#1147,#998,#1214,.T.);
#1214 = LINE('',#1215,#1216);
#1215 = CARTESIAN_POINT('',(37.7156,11.,-1.));
#1216 = VECTOR('',#1217,1.);
#1217 = DIRECTION('',(0.,0.,1.));
#1218 = CYLINDRICAL_SURFACE('',#1219,2.1844);
#1219 = AXIS2_PLACEMENT_3D('',#1220,#1221,#1222);
#1220 = CARTESIAN_POINT('',(39.9,11.,-1.));
#1221 = DIRECTION('',(0.,0.,1.));
#1222 = DIRECTION('',(1.,0.,0.));
#1223 = ADVANCED_FACE('',(#1224),#1236,.T.);
#1224 = FACE_BOUND('',#1225,.T.);
#1225 = EDGE_LOOP('',(#1226,#1227,#1234,#1235));
#1226 = ORIENTED_EDGE('',*,*,#1094,.F.);
#1227 = ORIENTED_EDGE('',*,*,#1228,.F.);
#1228 = EDGE_CURVE('',#1147,#1095,#1229,.T.);
#1229 = CIRCLE('',#1230,15.2);
#1230 = AXIS2_PLACEMENT_3D('',#1231,#1232,#1233);
#1231 = CARTESIAN_POINT('',(37.7156,0.,0.));
#1232 = DIRECTION('',(1.,0.,-0.));
#1233 = DIRECTION('',(0.,0.,1.));
#1234 = ORIENTED_EDGE('',*,*,#1213,.T.);
#1235 = ORIENTED_EDGE('',*,*,#995,.F.);
#1236 = PLANE('',#1237);
#1237 = AXIS2_PLACEMENT_3D('',#1238,#1239,#1240);
#1238 = CARTESIAN_POINT('',(37.7156,0.5,-1.));
#1239 = DIRECTION('',(1.,0.,0.));
#1240 = DIRECTION('',(0.,0.,1.));
#1241 = ADVANCED_FACE('',(#1242),#1261,.F.);
#1242 = FACE_BOUND('',#1243,.F.);
#1243 = EDGE_LOOP('',(#1244,#1253,#1259,#1260));
#1244 = ORIENTED_EDGE('',*,*,#1245,.F.);
#1245 = EDGE_CURVE('',#1246,#1246,#1248,.T.);
#1246 = VERTEX_POINT('',#1247);
#1247 = CARTESIAN_POINT('',(28.,17.,15.2728));
#1248 = CIRCLE('',#1249,1.7272);
#1249 = AXIS2_PLACEMENT_3D('',#1250,#1251,#1252);
#1250 = CARTESIAN_POINT('',(28.,17.,17.));
#1251 = DIRECTION('',(-1.,0.,0.));
#1252 = DIRECTION('',(0.,0.,-1.));
#1253 = ORIENTED_EDGE('',*,*,#1254,.F.);
#1254 = EDGE_CURVE('',#571,#1246,#1255,.T.);
#1255 = LINE('',#1256,#1257);
#1256 = CARTESIAN_POINT('',(44.,17.,15.2728));
#1257 = VECTOR('',#1258,1.);
#1258 = DIRECTION('',(-1.,0.,0.));
#1259 = ORIENTED_EDGE('',*,*,#570,.T.);
#1260 = ORIENTED_EDGE('',*,*,#1254,.T.);
#1261 = CYLINDRICAL_SURFACE('',#1262,1.7272);
#1262 = AXIS2_PLACEMENT_3D('',#1263,#1264,#1265);
#1263 = CARTESIAN_POINT('',(44.,17.,17.));
#1264 = DIRECTION('',(-1.,0.,0.));
#1265 = DIRECTION('',(0.,0.,-1.));
#1266 = ADVANCED_FACE('',(#1267),#1286,.F.);
#1267 = FACE_BOUND('',#1268,.F.);
#1268 = EDGE_LOOP('',(#1269,#1278,#1284,#1285));
#1269 = ORIENTED_EDGE('',*,*,#1270,.F.);
#1270 = EDGE_CURVE('',#1271,#1271,#1273,.T.);
#1271 = VERTEX_POINT('',#1272);
#1272 = CARTESIAN_POINT('',(28.,-14.5,15.2728));
#1273 = CIRCLE('',#1274,1.7272);
#1274 = AXIS2_PLACEMENT_3D('',#1275,#1276,#1277);
#1275 = CARTESIAN_POINT('',(28.,-14.5,17.));
#1276 = DIRECTION('',(-1.,0.,0.));
#1277 = DIRECTION('',(0.,0.,-1.));
#1278 = ORIENTED_EDGE('',*,*,#1279,.F.);
#1279 = EDGE_CURVE('',#582,#1271,#1280,.T.);
#1280 = LINE('',#1281,#1282);
#1281 = CARTESIAN_POINT('',(44.,-14.5,15.2728));
#1282 = VECTOR('',#1283,1.);
#1283 = DIRECTION('',(-1.,0.,0.));
#1284 = ORIENTED_EDGE('',*,*,#581,.T.);
#1285 = ORIENTED_EDGE('',*,*,#1279,.T.);
#1286 = CYLINDRICAL_SURFACE('',#1287,1.7272);
#1287 = AXIS2_PLACEMENT_3D('',#1288,#1289,#1290);
#1288 = CARTESIAN_POINT('',(44.,-14.5,17.));
#1289 = DIRECTION('',(-1.,0.,0.));
#1290 = DIRECTION('',(0.,0.,-1.));
#1291 = ADVANCED_FACE('',(#1292),#1295,.F.);
#1292 = FACE_BOUND('',#1293,.F.);
#1293 = EDGE_LOOP('',(#1294));
#1294 = ORIENTED_EDGE('',*,*,#1245,.T.);
#1295 = PLANE('',#1296);
#1296 = AXIS2_PLACEMENT_3D('',#1297,#1298,#1299);
#1297 = CARTESIAN_POINT('',(28.,17.,17.));
#1298 = DIRECTION('',(-1.,0.,0.));
#1299 = DIRECTION('',(0.,0.,-1.));
#1300 = ADVANCED_FACE('',(#1301),#1304,.F.);
#1301 = FACE_BOUND('',#1302,.F.);
#1302 = EDGE_LOOP('',(#1303));
#1303 = ORIENTED_EDGE('',*,*,#1270,.T.);
#1304 = PLANE('',#1305);
#1305 = AXIS2_PLACEMENT_3D('',#1306,#1307,#1308);
#1306 = CARTESIAN_POINT('',(28.,-14.5,17.));
#1307 = DIRECTION('',(-1.,0.,0.));
#1308 = DIRECTION('',(0.,0.,-1.));
#1309 = ADVANCED_FACE('',(#1310,#1322,#1330),#1338,.F.);
#1310 = FACE_BOUND('',#1311,.F.);
#1311 = EDGE_LOOP('',(#1312,#1313,#1314,#1315,#1316,#1317,#1318,#1319,
    #1320,#1321));
#1312 = ORIENTED_EDGE('',*,*,#431,.T.);
#1313 = ORIENTED_EDGE('',*,*,#527,.F.);
#1314 = ORIENTED_EDGE('',*,*,#536,.F.);
#1315 = ORIENTED_EDGE('',*,*,#391,.F.);
#1316 = ORIENTED_EDGE('',*,*,#883,.T.);
#1317 = ORIENTED_EDGE('',*,*,#955,.F.);
#1318 = ORIENTED_EDGE('',*,*,#937,.F.);
#1319 = ORIENTED_EDGE('',*,*,#359,.F.);
#1320 = ORIENTED_EDGE('',*,*,#56,.T.);
#1321 = ORIENTED_EDGE('',*,*,#47,.T.);
#1322 = FACE_BOUND('',#1323,.F.);
#1323 = EDGE_LOOP('',(#1324,#1325,#1326,#1327,#1328,#1329));
#1324 = ORIENTED_EDGE('',*,*,#1102,.F.);
#1325 = ORIENTED_EDGE('',*,*,#1228,.F.);
#1326 = ORIENTED_EDGE('',*,*,#1146,.F.);
#1327 = ORIENTED_EDGE('',*,*,#1120,.T.);
#1328 = ORIENTED_EDGE('',*,*,#1076,.F.);
#1329 = ORIENTED_EDGE('',*,*,#1037,.F.);
#1330 = FACE_BOUND('',#1331,.F.);
#1331 = EDGE_LOOP('',(#1332,#1333,#1334,#1335,#1336,#1337));
#1332 = ORIENTED_EDGE('',*,*,#856,.F.);
#1333 = ORIENTED_EDGE('',*,*,#673,.F.);
#1334 = ORIENTED_EDGE('',*,*,#706,.F.);
#1335 = ORIENTED_EDGE('',*,*,#788,.T.);
#1336 = ORIENTED_EDGE('',*,*,#844,.F.);
#1337 = ORIENTED_EDGE('',*,*,#805,.F.);
#1338 = CYLINDRICAL_SURFACE('',#1339,15.2);
#1339 = AXIS2_PLACEMENT_3D('',#1340,#1341,#1342);
#1340 = CARTESIAN_POINT('',(-45.,0.,0.));
#1341 = DIRECTION('',(1.,0.,0.));
#1342 = DIRECTION('',(0.,0.,1.));
#1343 = ( GEOMETRIC_REPRESENTATION_CONTEXT(3) 
GLOBAL_UNCERTAINTY_ASSIGNED_CONTEXT((#1347)) 
GLOBAL_UNIT_ASSIGNED_CONTEXT((#1344,#1345,#1346)) REPRESENTATION_CONTEXT
('Context #1','3D Context with UNIT and UNCERTAINTY') );
#1344 = ( LENGTH_UNIT() NAMED_UNIT(*) SI_UNIT(.MILLI.,.METRE.) );
#1345 = ( NAMED_UNIT(*) PLANE_ANGLE_UNIT() SI_UNIT($,.RADIAN.) );
#1346 = ( NAMED_UNIT(*) SI_UNIT($,.STERADIAN.) SOLID_ANGLE_UNIT() );
#1347 = UNCERTAINTY_MEASURE_WITH_UNIT(LENGTH_MEASURE(1.E-07),#1344,
  'distance_accuracy_value','confusion accuracy');
#1348 = PRODUCT_RELATED_PRODUCT_CATEGORY('part',$,(#7));
ENDSEC;
END-ISO-10303-21;
