ISO-10303-21;
HEADER;
FILE_DESCRIPTION(('FreeCAD Model'),'2;1');
FILE_NAME('Open CASCADE Shape Model','2026-10-07T22:49:34',('FreeCAD'),(
    'FreeCAD'),'Open CASCADE STEP processor 7.8','FreeCAD','Unknown');
FILE_SCHEMA(('AUTOMOTIVE_DESIGN { 1 0 10303 214 1 1 1 1 }'));
ENDSEC;
DATA;
#1 = APPLICATION_PROTOCOL_DEFINITION('international standard',
  'automotive_design',2000,#2);
#2 = APPLICATION_CONTEXT(
  'core data for automotive mechanical design processes');
#3 = SHAPE_DEFINITION_REPRESENTATION(#4,#10);
#4 = PRODUCT_DEFINITION_SHAPE('','',#5);
#5 = PRODUCT_DEFINITION('design','',#6,#9);
#6 = PRODUCT_DEFINITION_FORMATION('','',#7);
#7 = PRODUCT('Open CASCADE STEP translator 7.8 20',
  'Open CASCADE STEP translator 7.8 20','',(#8));
#8 = PRODUCT_CONTEXT('',#2,'mechanical');
#9 = PRODUCT_DEFINITION_CONTEXT('part definition',#2,'design');
#10 = ADVANCED_BREP_SHAPE_REPRESENTATION('',(#11,#15),#921);
#11 = AXIS2_PLACEMENT_3D('',#12,#13,#14);
#12 = CARTESIAN_POINT('',(0.,0.,0.));
#13 = DIRECTION('',(0.,0.,1.));
#14 = DIRECTION('',(1.,0.,-0.));
#15 = MANIFOLD_SOLID_BREP('',#16);
#16 = CLOSED_SHELL('',(#17,#96,#127,#151,#380,#440,#464,#545,#570,#595,
    #636,#653,#670,#687,#704,#721,#738,#755,#767,#789,#806,#823,#835,
    #844,#853,#878,#903,#912));
#17 = ADVANCED_FACE('',(#18,#69,#80),#91,.F.);
#18 = FACE_BOUND('',#19,.F.);
#19 = EDGE_LOOP('',(#20,#30,#38,#46,#54,#62));
#20 = ORIENTED_EDGE('',*,*,#21,.F.);
#21 = EDGE_CURVE('',#22,#24,#26,.T.);
#22 = VERTEX_POINT('',#23);
#23 = CARTESIAN_POINT('',(-38.,-20.2,0.));
#24 = VERTEX_POINT('',#25);
#25 = CARTESIAN_POINT('',(-38.,-15.2,0.));
#26 = LINE('',#27,#28);
#27 = CARTESIAN_POINT('',(-38.,-20.2,0.));
#28 = VECTOR('',#29,1.);
#29 = DIRECTION('',(0.,1.,0.));
#30 = ORIENTED_EDGE('',*,*,#31,.F.);
#31 = EDGE_CURVE('',#32,#22,#34,.T.);
#32 = VERTEX_POINT('',#33);
#33 = CARTESIAN_POINT('',(-38.,-20.2,-24.));
#34 = LINE('',#35,#36);
#35 = CARTESIAN_POINT('',(-38.,-20.2,-24.));
#36 = VECTOR('',#37,1.);
#37 = DIRECTION('',(0.,0.,1.));
#38 = ORIENTED_EDGE('',*,*,#39,.T.);
#39 = EDGE_CURVE('',#32,#40,#42,.T.);
#40 = VERTEX_POINT('',#41);
#41 = CARTESIAN_POINT('',(-38.,23.7,-24.));
#42 = LINE('',#43,#44);
#43 = CARTESIAN_POINT('',(-38.,-20.2,-24.));
#44 = VECTOR('',#45,1.);
#45 = DIRECTION('',(0.,1.,0.));
#46 = ORIENTED_EDGE('',*,*,#47,.T.);
#47 = EDGE_CURVE('',#40,#48,#50,.T.);
#48 = VERTEX_POINT('',#49);
#49 = CARTESIAN_POINT('',(-38.,23.7,0.));
#50 = LINE('',#51,#52);
#51 = CARTESIAN_POINT('',(-38.,23.7,-24.));
#52 = VECTOR('',#53,1.);
#53 = DIRECTION('',(0.,0.,1.));
#54 = ORIENTED_EDGE('',*,*,#55,.F.);
#55 = EDGE_CURVE('',#56,#48,#58,.T.);
#56 = VERTEX_POINT('',#57);
#57 = CARTESIAN_POINT('',(-38.,15.2,0.));
#58 = LINE('',#59,#60);
#59 = CARTESIAN_POINT('',(-38.,-20.2,0.));
#60 = VECTOR('',#61,1.);
#61 = DIRECTION('',(0.,1.,0.));
#62 = ORIENTED_EDGE('',*,*,#63,.F.);
#63 = EDGE_CURVE('',#24,#56,#64,.T.);
#64 = CIRCLE('',#65,15.2);
#65 = AXIS2_PLACEMENT_3D('',#66,#67,#68);
#66 = CARTESIAN_POINT('',(-38.,0.,0.));
#67 = DIRECTION('',(1.,0.,-0.));
#68 = DIRECTION('',(0.,0.,1.));
#69 = FACE_BOUND('',#70,.F.);
#70 = EDGE_LOOP('',(#71));
#71 = ORIENTED_EDGE('',*,*,#72,.F.);
#72 = EDGE_CURVE('',#73,#73,#75,.T.);
#73 = VERTEX_POINT('',#74);
#74 = CARTESIAN_POINT('',(-38.,17.,-15.2728));
#75 = CIRCLE('',#76,1.7272);
#76 = AXIS2_PLACEMENT_3D('',#77,#78,#79);
#77 = CARTESIAN_POINT('',(-38.,17.,-17.));
#78 = DIRECTION('',(1.,0.,-0.));
#79 = DIRECTION('',(0.,0.,1.));
#80 = FACE_BOUND('',#81,.F.);
#81 = EDGE_LOOP('',(#82));
#82 = ORIENTED_EDGE('',*,*,#83,.F.);
#83 = EDGE_CURVE('',#84,#84,#86,.T.);
#84 = VERTEX_POINT('',#85);
#85 = CARTESIAN_POINT('',(-38.,-14.5,-15.2728));
#86 = CIRCLE('',#87,1.7272);
#87 = AXIS2_PLACEMENT_3D('',#88,#89,#90);
#88 = CARTESIAN_POINT('',(-38.,-14.5,-17.));
#89 = DIRECTION('',(1.,0.,-0.));
#90 = DIRECTION('',(0.,0.,1.));
#91 = PLANE('',#92);
#92 = AXIS2_PLACEMENT_3D('',#93,#94,#95);
#93 = CARTESIAN_POINT('',(-38.,-20.2,-24.));
#94 = DIRECTION('',(1.,0.,0.));
#95 = DIRECTION('',(0.,0.,1.));
#96 = ADVANCED_FACE('',(#97),#122,.T.);
#97 = FACE_BOUND('',#98,.T.);
#98 = EDGE_LOOP('',(#99,#100,#108,#116));
#99 = ORIENTED_EDGE('',*,*,#21,.F.);
#100 = ORIENTED_EDGE('',*,*,#101,.T.);
#101 = EDGE_CURVE('',#22,#102,#104,.T.);
#102 = VERTEX_POINT('',#103);
#103 = CARTESIAN_POINT('',(44.,-20.2,0.));
#104 = LINE('',#105,#106);
#105 = CARTESIAN_POINT('',(-38.,-20.2,0.));
#106 = VECTOR('',#107,1.);
#107 = DIRECTION('',(1.,0.,0.));
#108 = ORIENTED_EDGE('',*,*,#109,.T.);
#109 = EDGE_CURVE('',#102,#110,#112,.T.);
#110 = VERTEX_POINT('',#111);
#111 = CARTESIAN_POINT('',(44.,-15.2,0.));
#112 = LINE('',#113,#114);
#113 = CARTESIAN_POINT('',(44.,-20.2,0.));
#114 = VECTOR('',#115,1.);
#115 = DIRECTION('',(0.,1.,0.));
#116 = ORIENTED_EDGE('',*,*,#117,.F.);
#117 = EDGE_CURVE('',#24,#110,#118,.T.);
#118 = LINE('',#119,#120);
#119 = CARTESIAN_POINT('',(-39.,-15.2,0.));
#120 = VECTOR('',#121,1.);
#121 = DIRECTION('',(1.,0.,0.));
#122 = PLANE('',#123);
#123 = AXIS2_PLACEMENT_3D('',#124,#125,#126);
#124 = CARTESIAN_POINT('',(-38.,-20.2,0.));
#125 = DIRECTION('',(0.,0.,1.));
#126 = DIRECTION('',(1.,0.,0.));
#127 = ADVANCED_FACE('',(#128),#146,.F.);
#128 = FACE_BOUND('',#129,.F.);
#129 = EDGE_LOOP('',(#130,#138,#139,#140));
#130 = ORIENTED_EDGE('',*,*,#131,.F.);
#131 = EDGE_CURVE('',#32,#132,#134,.T.);
#132 = VERTEX_POINT('',#133);
#133 = CARTESIAN_POINT('',(44.,-20.2,-24.));
#134 = LINE('',#135,#136);
#135 = CARTESIAN_POINT('',(-38.,-20.2,-24.));
#136 = VECTOR('',#137,1.);
#137 = DIRECTION('',(1.,0.,0.));
#138 = ORIENTED_EDGE('',*,*,#31,.T.);
#139 = ORIENTED_EDGE('',*,*,#101,.T.);
#140 = ORIENTED_EDGE('',*,*,#141,.F.);
#141 = EDGE_CURVE('',#132,#102,#142,.T.);
#142 = LINE('',#143,#144);
#143 = CARTESIAN_POINT('',(44.,-20.2,-24.));
#144 = VECTOR('',#145,1.);
#145 = DIRECTION('',(0.,0.,1.));
#146 = PLANE('',#147);
#147 = AXIS2_PLACEMENT_3D('',#148,#149,#150);
#148 = CARTESIAN_POINT('',(-38.,-20.2,-24.));
#149 = DIRECTION('',(0.,1.,0.));
#150 = DIRECTION('',(0.,0.,1.));
#151 = ADVANCED_FACE('',(#152,#239),#375,.F.);
#152 = FACE_BOUND('',#153,.F.);
#153 = EDGE_LOOP('',(#154,#155,#156,#164,#173,#181,#190,#198,#207,#215,
    #224,#232));
#154 = ORIENTED_EDGE('',*,*,#117,.F.);
#155 = ORIENTED_EDGE('',*,*,#63,.T.);
#156 = ORIENTED_EDGE('',*,*,#157,.T.);
#157 = EDGE_CURVE('',#56,#158,#160,.T.);
#158 = VERTEX_POINT('',#159);
#159 = CARTESIAN_POINT('',(-23.,15.2,0.));
#160 = LINE('',#161,#162);
#161 = CARTESIAN_POINT('',(-39.,15.2,0.));
#162 = VECTOR('',#163,1.);
#163 = DIRECTION('',(1.,0.,0.));
#164 = ORIENTED_EDGE('',*,*,#165,.F.);
#165 = EDGE_CURVE('',#166,#158,#168,.T.);
#166 = VERTEX_POINT('',#167);
#167 = CARTESIAN_POINT('',(-23.,13.965672200077,-6.));
#168 = CIRCLE('',#169,15.2);
#169 = AXIS2_PLACEMENT_3D('',#170,#171,#172);
#170 = CARTESIAN_POINT('',(-23.,0.,0.));
#171 = DIRECTION('',(1.,0.,-0.));
#172 = DIRECTION('',(0.,0.,1.));
#173 = ORIENTED_EDGE('',*,*,#174,.T.);
#174 = EDGE_CURVE('',#166,#175,#177,.T.);
#175 = VERTEX_POINT('',#176);
#176 = CARTESIAN_POINT('',(-17.,13.965672200077,-6.));
#177 = LINE('',#178,#179);
#178 = CARTESIAN_POINT('',(-39.,13.965672200077,-6.));
#179 = VECTOR('',#180,1.);
#180 = DIRECTION('',(1.,0.,0.));
#181 = ORIENTED_EDGE('',*,*,#182,.T.);
#182 = EDGE_CURVE('',#175,#183,#185,.T.);
#183 = VERTEX_POINT('',#184);
#184 = CARTESIAN_POINT('',(-17.,15.2,0.));
#185 = CIRCLE('',#186,15.2);
#186 = AXIS2_PLACEMENT_3D('',#187,#188,#189);
#187 = CARTESIAN_POINT('',(-17.,0.,0.));
#188 = DIRECTION('',(1.,0.,-0.));
#189 = DIRECTION('',(0.,0.,1.));
#190 = ORIENTED_EDGE('',*,*,#191,.T.);
#191 = EDGE_CURVE('',#183,#192,#194,.T.);
#192 = VERTEX_POINT('',#193);
#193 = CARTESIAN_POINT('',(-6.,15.2,0.));
#194 = LINE('',#195,#196);
#195 = CARTESIAN_POINT('',(-39.,15.2,0.));
#196 = VECTOR('',#197,1.);
#197 = DIRECTION('',(1.,0.,0.));
#198 = ORIENTED_EDGE('',*,*,#199,.F.);
#199 = EDGE_CURVE('',#200,#192,#202,.T.);
#200 = VERTEX_POINT('',#201);
#201 = CARTESIAN_POINT('',(-6.,14.354093492798,-5.));
#202 = CIRCLE('',#203,15.2);
#203 = AXIS2_PLACEMENT_3D('',#204,#205,#206);
#204 = CARTESIAN_POINT('',(-6.,0.,0.));
#205 = DIRECTION('',(1.,0.,-0.));
#206 = DIRECTION('',(0.,0.,1.));
#207 = ORIENTED_EDGE('',*,*,#208,.T.);
#208 = EDGE_CURVE('',#200,#209,#211,.T.);
#209 = VERTEX_POINT('',#210);
#210 = CARTESIAN_POINT('',(6.,14.354093492798,-5.));
#211 = LINE('',#212,#213);
#212 = CARTESIAN_POINT('',(-39.,14.354093492798,-5.));
#213 = VECTOR('',#214,1.);
#214 = DIRECTION('',(1.,0.,0.));
#215 = ORIENTED_EDGE('',*,*,#216,.T.);
#216 = EDGE_CURVE('',#209,#217,#219,.T.);
#217 = VERTEX_POINT('',#218);
#218 = CARTESIAN_POINT('',(6.,15.2,0.));
#219 = CIRCLE('',#220,15.2);
#220 = AXIS2_PLACEMENT_3D('',#221,#222,#223);
#221 = CARTESIAN_POINT('',(6.,0.,0.));
#222 = DIRECTION('',(1.,0.,-0.));
#223 = DIRECTION('',(0.,0.,1.));
#224 = ORIENTED_EDGE('',*,*,#225,.T.);
#225 = EDGE_CURVE('',#217,#226,#228,.T.);
#226 = VERTEX_POINT('',#227);
#227 = CARTESIAN_POINT('',(44.,15.2,0.));
#228 = LINE('',#229,#230);
#229 = CARTESIAN_POINT('',(-39.,15.2,0.));
#230 = VECTOR('',#231,1.);
#231 = DIRECTION('',(1.,0.,0.));
#232 = ORIENTED_EDGE('',*,*,#233,.F.);
#233 = EDGE_CURVE('',#110,#226,#234,.T.);
#234 = CIRCLE('',#235,15.2);
#235 = AXIS2_PLACEMENT_3D('',#236,#237,#238);
#236 = CARTESIAN_POINT('',(44.,0.,0.));
#237 = DIRECTION('',(1.,0.,-0.));
#238 = DIRECTION('',(0.,0.,1.));
#239 = FACE_BOUND('',#240,.F.);
#240 = EDGE_LOOP('',(#241,#252,#301,#310));
#241 = ORIENTED_EDGE('',*,*,#242,.F.);
#242 = EDGE_CURVE('',#243,#245,#247,.T.);
#243 = VERTEX_POINT('',#244);
#244 = CARTESIAN_POINT('',(37.1156,0.5,-15.19177408994));
#245 = VERTEX_POINT('',#246);
#246 = CARTESIAN_POINT('',(37.1156,11.,-10.48999523355));
#247 = CIRCLE('',#248,15.2);
#248 = AXIS2_PLACEMENT_3D('',#249,#250,#251);
#249 = CARTESIAN_POINT('',(37.1156,0.,0.));
#250 = DIRECTION('',(1.,0.,-0.));
#251 = DIRECTION('',(0.,0.,1.));
#252 = ORIENTED_EDGE('',*,*,#253,.T.);
#253 = EDGE_CURVE('',#243,#254,#256,.T.);
#254 = VERTEX_POINT('',#255);
#255 = CARTESIAN_POINT('',(41.4844,0.5,-15.19177408994));
#256 = B_SPLINE_CURVE_WITH_KNOTS('',7,(#257,#258,#259,#260,#261,#262,
    #263,#264,#265,#266,#267,#268,#269,#270,#271,#272,#273,#274,#275,
    #276,#277,#278,#279,#280,#281,#282,#283,#284,#285,#286,#287,#288,
    #289,#290,#291,#292,#293,#294,#295,#296,#297,#298,#299,#300),
  .UNSPECIFIED.,.F.,.F.,(8,6,6,6,6,6,6,8),(0.,0.101786705035,
    0.250203089601,0.362758748809,0.500289550074,0.685474229233,
    0.833134861925,1.),.UNSPECIFIED.);
#257 = CARTESIAN_POINT('',(37.1156,0.5,-15.19177408994));
#258 = CARTESIAN_POINT('',(37.1156,0.381700485307,-15.19566762845));
#259 = CARTESIAN_POINT('',(37.123074498315,0.263505671422,
    -15.19848183176));
#260 = CARTESIAN_POINT('',(37.137999536314,0.146334813046,
    -15.20019093676));
#261 = CARTESIAN_POINT('',(37.160164309528,3.109717902923E-02,
    -15.20081948899));
#262 = CARTESIAN_POINT('',(37.189174944761,-8.13342193592E-02,
    -15.20044108506));
#263 = CARTESIAN_POINT('',(37.224457211049,-0.19014888597,-15.1991698056
    ));
#264 = CARTESIAN_POINT('',(37.324750511629,-0.446963047576,
    -15.19419098247));
#265 = CARTESIAN_POINT('',(37.395982708453,-0.590094388175,
    -15.18963385156));
#266 = CARTESIAN_POINT('',(37.477280867445,-0.723450554383,
    -15.18387043268));
#267 = CARTESIAN_POINT('',(37.567095353319,-0.846670568049,
    -15.17729788211));
#268 = CARTESIAN_POINT('',(37.663979886079,-0.959568326807,
    -15.17028016056));
#269 = CARTESIAN_POINT('',(37.766574715532,-1.062106741334,
    -15.16312938604));
#270 = CARTESIAN_POINT('',(37.954754792923,-1.224355696436,
    -15.15077154191));
#271 = CARTESIAN_POINT('',(38.038633843865,-1.288577853725,
    -15.14550086316));
#272 = CARTESIAN_POINT('',(38.124824124405,-1.34715652315,
    -15.14039262881));
#273 = CARTESIAN_POINT('',(38.212975799791,-1.400205292153,
    -15.13553266577));
#274 = CARTESIAN_POINT('',(38.302787684749,-1.447834255247,
    -15.13099138504));
#275 = CARTESIAN_POINT('',(38.393998832091,-1.490144278488,
    -15.12682579894));
#276 = CARTESIAN_POINT('',(38.599260031765,-1.572525316683,
    -15.11850645788));
#277 = CARTESIAN_POINT('',(38.713891441176,-1.610018239058,
    -15.11456037894));
#278 = CARTESIAN_POINT('',(38.829847956466,-1.639852177874,
    -15.11132649241));
#279 = CARTESIAN_POINT('',(38.946759247937,-1.662145883939,
    -15.10886391296));
#280 = CARTESIAN_POINT('',(39.064293933411,-1.676981275223,
    -15.10720999451));
#281 = CARTESIAN_POINT('',(39.182142462355,-1.6844,-15.10638264575));
#282 = CARTESIAN_POINT('',(39.458694707619,-1.6844,-15.10638264575));
#283 = CARTESIAN_POINT('',(39.617350346377,-1.670949317175,
    -15.10788246238));
#284 = CARTESIAN_POINT('',(39.775242069249,-1.644060591674,
    -15.11088051084));
#285 = CARTESIAN_POINT('',(39.93162333466,-1.603591394768,
    -15.11531670947));
#286 = CARTESIAN_POINT('',(40.08564924718,-1.549267530571,-15.1210686498
    ));
#287 = CARTESIAN_POINT('',(40.23629649945,-1.480706150452,
    -15.12793779308));
#288 = CARTESIAN_POINT('',(40.498682652571,-1.331043731026,
    -15.14175579163));
#289 = CARTESIAN_POINT('',(40.612206616444,-1.255248981952,
    -15.14841110938));
#290 = CARTESIAN_POINT('',(40.722134004925,-1.169825010168,
    -15.1554384894));
#291 = CARTESIAN_POINT('',(40.827626038065,-1.074539941014,
    -15.16264237834));
#292 = CARTESIAN_POINT('',(40.927694767182,-0.969189002292,
    -15.16977510699));
#293 = CARTESIAN_POINT('',(41.02117192353,-0.853628602163,
    -15.17653398061));
#294 = CARTESIAN_POINT('',(41.203298057364,-0.585638134384,
    -15.18938078624));
#295 = CARTESIAN_POINT('',(41.290856623656,-0.428721231183,
    -15.19534608106));
#296 = CARTESIAN_POINT('',(41.365440274341,-0.258643473951,
    -15.19980745485));
#297 = CARTESIAN_POINT('',(41.423940386246,-7.771091703982E-02,
    -15.20209056879));
#298 = CARTESIAN_POINT('',(41.464071327727,0.111212725493,-15.2016438473
    ));
#299 = CARTESIAN_POINT('',(41.4844,0.304904342326,-15.19819518522));
#300 = CARTESIAN_POINT('',(41.4844,0.5,-15.19177408994));
#301 = ORIENTED_EDGE('',*,*,#302,.T.);
#302 = EDGE_CURVE('',#254,#303,#305,.T.);
#303 = VERTEX_POINT('',#304);
#304 = CARTESIAN_POINT('',(41.4844,11.,-10.48999523355));
#305 = CIRCLE('',#306,15.2);
#306 = AXIS2_PLACEMENT_3D('',#307,#308,#309);
#307 = CARTESIAN_POINT('',(41.4844,0.,0.));
#308 = DIRECTION('',(1.,0.,-0.));
#309 = DIRECTION('',(0.,0.,1.));
#310 = ORIENTED_EDGE('',*,*,#311,.T.);
#311 = EDGE_CURVE('',#303,#245,#312,.T.);
#312 = B_SPLINE_CURVE_WITH_KNOTS('',6,(#313,#314,#315,#316,#317,#318,
    #319,#320,#321,#322,#323,#324,#325,#326,#327,#328,#329,#330,#331,
    #332,#333,#334,#335,#336,#337,#338,#339,#340,#341,#342,#343,#344,
    #345,#346,#347,#348,#349,#350,#351,#352,#353,#354,#355,#356,#357,
    #358,#359,#360,#361,#362,#363,#364,#365,#366,#367,#368,#369,#370,
    #371,#372,#373,#374),.UNSPECIFIED.,.F.,.F.,(7,5,5,5,5,5,5,5,5,5,5,5,
    7),(0.,0.169807133749,0.308195018848,0.351127144688,0.402779736144,
    0.440821414286,0.500086235395,0.539275402661,0.597328516653,
    0.648773903966,0.691069658022,0.830240935229,1.),.UNSPECIFIED.);
#313 = CARTESIAN_POINT('',(41.4844,11.,-10.48999523355));
#314 = CARTESIAN_POINT('',(41.4844,11.19310793958,-10.28749873207));
#315 = CARTESIAN_POINT('',(41.463914070432,11.380395908924,
    -10.08214839024));
#316 = CARTESIAN_POINT('',(41.425259328317,11.560577647152,
    -9.875528397382));
#317 = CARTESIAN_POINT('',(41.370098669118,11.732989436071,-9.6689691523
    ));
#318 = CARTESIAN_POINT('',(41.299544662438,11.897109204336,
    -9.463809798395));
#319 = CARTESIAN_POINT('',(41.14465440332,12.178853539741,
    -9.097177243221));
#320 = CARTESIAN_POINT('',(41.065368879175,12.299306811033,
    -8.93484642768));
#321 = CARTESIAN_POINT('',(40.976465236974,12.413870045356,
    -8.775153313239));
#322 = CARTESIAN_POINT('',(40.877658888932,12.522408279893,
    -8.618817615296));
#323 = CARTESIAN_POINT('',(40.768478811368,12.624328310011,
    -8.467343540902));
#324 = CARTESIAN_POINT('',(40.611242132238,12.747709048371,
    -8.278813931048));
#325 = CARTESIAN_POINT('',(40.572946598642,12.776195205212,
    -8.234876128768));
#326 = CARTESIAN_POINT('',(40.533553414427,12.803930273338,
    -8.191703574827));
#327 = CARTESIAN_POINT('',(40.493031612144,12.830881152194,
    -8.14937834374));
#328 = CARTESIAN_POINT('',(40.451351158207,12.857005357294,
    -8.108000715725));
#329 = CARTESIAN_POINT('',(40.356907265654,12.912624636431,-8.0191894713
    ));
#330 = CARTESIAN_POINT('',(40.303599506256,12.941734309421,
    -7.972220977463));
#331 = CARTESIAN_POINT('',(40.248509576108,12.969487504821,
    -7.926993915068));
#332 = CARTESIAN_POINT('',(40.191592872742,12.995771807167,
    -7.883760548512));
#333 = CARTESIAN_POINT('',(40.132810661755,13.020454799163,
    -7.842815249871));
#334 = CARTESIAN_POINT('',(40.027440006944,13.060271051681,
    -7.77627171338));
#335 = CARTESIAN_POINT('',(39.981706632361,13.076211884744,
    -7.749464036519));
#336 = CARTESIAN_POINT('',(39.934958340307,13.091128394163,
    -7.724234160089));
#337 = CARTESIAN_POINT('',(39.88722381013,13.104945084449,
    -7.700743867571));
#338 = CARTESIAN_POINT('',(39.838532355312,13.117587800689,
    -7.679153703091));
#339 = CARTESIAN_POINT('',(39.71161369535,13.146734257113,
    -7.629195194952));
#340 = CARTESIAN_POINT('',(39.631879958971,13.161499063278,
    -7.603692362264));
#341 = CARTESIAN_POINT('',(39.550291748794,13.172859240833,
    -7.583952910455));
#342 = CARTESIAN_POINT('',(39.4674160162,13.180541459435,-7.570559685851
    ));
#343 = CARTESIAN_POINT('',(39.383806062188,13.1844,-7.563834784023));
#344 = CARTESIAN_POINT('',(39.244582811057,13.1844,-7.563834784023));
#345 = CARTESIAN_POINT('',(39.189193832074,13.18271289206,
    -7.566775461081));
#346 = CARTESIAN_POINT('',(39.134017489827,13.179341987655,
    -7.572651498112));
#347 = CARTESIAN_POINT('',(39.079240819013,13.174317978755,
    -7.581397091687));
#348 = CARTESIAN_POINT('',(39.02505316492,13.167700596262,
    -7.592886426482));
#349 = CARTESIAN_POINT('',(38.892530685088,13.147551170898,
    -7.627743830954));
#350 = CARTESIAN_POINT('',(38.815239693814,13.132241008518,
    -7.654138462142));
#351 = CARTESIAN_POINT('',(38.739949528243,13.113895144018,
    -7.685601366224));
#352 = CARTESIAN_POINT('',(38.666838401329,13.092772924137,
    -7.72156497844));
#353 = CARTESIAN_POINT('',(38.59608536485,13.06916054891,-7.761415001716
    ));
#354 = CARTESIAN_POINT('',(38.467418204021,13.020541280333,
    -7.842670716859));
#355 = CARTESIAN_POINT('',(38.408850484438,12.9959579421,-7.883451774506
    ));
#356 = CARTESIAN_POINT('',(38.352134315357,12.9697847551,-7.926504973868
    ));
#357 = CARTESIAN_POINT('',(38.297231478326,12.942152739219,
    -7.971539064834));
#358 = CARTESIAN_POINT('',(38.244097970719,12.913173226265,
    -8.018304254628));
#359 = CARTESIAN_POINT('',(38.150414736261,12.858080115654,
    -8.106291983969));
#360 = CARTESIAN_POINT('',(38.109299218962,12.832368372983,
    -8.147028917014));
#361 = CARTESIAN_POINT('',(38.069309886409,12.805852482872,
    -8.188689356419));
#362 = CARTESIAN_POINT('',(38.030417884403,12.778573265815,
    -8.231176983524));
#363 = CARTESIAN_POINT('',(37.992593429115,12.750562632766,
    -8.274412757875));
#364 = CARTESIAN_POINT('',(37.834758660423,12.627345529107,
    -8.462857769451));
#365 = CARTESIAN_POINT('',(37.72468261158,12.524977203616,
    -8.615116386709));
#366 = CARTESIAN_POINT('',(37.625115027881,12.415904062803,
    -8.772317382972));
#367 = CARTESIAN_POINT('',(37.535571874705,12.300734590679,
    -8.932921836207));
#368 = CARTESIAN_POINT('',(37.455759113037,12.179605723203,
    -9.096198430483));
#369 = CARTESIAN_POINT('',(37.300455337562,11.897109204336,
    -9.463809798395));
#370 = CARTESIAN_POINT('',(37.229901330882,11.732989436071,-9.6689691523
    ));
#371 = CARTESIAN_POINT('',(37.174740671683,11.560577647152,
    -9.875528397382));
#372 = CARTESIAN_POINT('',(37.136085929568,11.380395908924,
    -10.08214839024));
#373 = CARTESIAN_POINT('',(37.1156,11.19310793958,-10.28749873207));
#374 = CARTESIAN_POINT('',(37.1156,11.,-10.48999523355));
#375 = CYLINDRICAL_SURFACE('',#376,15.2);
#376 = AXIS2_PLACEMENT_3D('',#377,#378,#379);
#377 = CARTESIAN_POINT('',(-39.,0.,0.));
#378 = DIRECTION('',(1.,0.,0.));
#379 = DIRECTION('',(0.,0.,1.));
#380 = ADVANCED_FACE('',(#381,#399),#435,.F.);
#381 = FACE_BOUND('',#382,.F.);
#382 = EDGE_LOOP('',(#383,#384,#385,#393));
#383 = ORIENTED_EDGE('',*,*,#39,.F.);
#384 = ORIENTED_EDGE('',*,*,#131,.T.);
#385 = ORIENTED_EDGE('',*,*,#386,.T.);
#386 = EDGE_CURVE('',#132,#387,#389,.T.);
#387 = VERTEX_POINT('',#388);
#388 = CARTESIAN_POINT('',(44.,23.7,-24.));
#389 = LINE('',#390,#391);
#390 = CARTESIAN_POINT('',(44.,-20.2,-24.));
#391 = VECTOR('',#392,1.);
#392 = DIRECTION('',(0.,1.,0.));
#393 = ORIENTED_EDGE('',*,*,#394,.F.);
#394 = EDGE_CURVE('',#40,#387,#395,.T.);
#395 = LINE('',#396,#397);
#396 = CARTESIAN_POINT('',(-38.,23.7,-24.));
#397 = VECTOR('',#398,1.);
#398 = DIRECTION('',(1.,0.,0.));
#399 = FACE_BOUND('',#400,.F.);
#400 = EDGE_LOOP('',(#401,#412,#420,#429));
#401 = ORIENTED_EDGE('',*,*,#402,.F.);
#402 = EDGE_CURVE('',#403,#405,#407,.T.);
#403 = VERTEX_POINT('',#404);
#404 = CARTESIAN_POINT('',(37.1156,0.5,-24.));
#405 = VERTEX_POINT('',#406);
#406 = CARTESIAN_POINT('',(41.4844,0.5,-24.));
#407 = CIRCLE('',#408,2.1844);
#408 = AXIS2_PLACEMENT_3D('',#409,#410,#411);
#409 = CARTESIAN_POINT('',(39.3,0.5,-24.));
#410 = DIRECTION('',(0.,0.,1.));
#411 = DIRECTION('',(1.,0.,0.));
#412 = ORIENTED_EDGE('',*,*,#413,.T.);
#413 = EDGE_CURVE('',#403,#414,#416,.T.);
#414 = VERTEX_POINT('',#415);
#415 = CARTESIAN_POINT('',(37.1156,11.,-24.));
#416 = LINE('',#417,#418);
#417 = CARTESIAN_POINT('',(37.1156,-9.85,-24.));
#418 = VECTOR('',#419,1.);
#419 = DIRECTION('',(0.,1.,0.));
#420 = ORIENTED_EDGE('',*,*,#421,.F.);
#421 = EDGE_CURVE('',#422,#414,#424,.T.);
#422 = VERTEX_POINT('',#423);
#423 = CARTESIAN_POINT('',(41.4844,11.,-24.));
#424 = CIRCLE('',#425,2.1844);
#425 = AXIS2_PLACEMENT_3D('',#426,#427,#428);
#426 = CARTESIAN_POINT('',(39.3,11.,-24.));
#427 = DIRECTION('',(0.,0.,1.));
#428 = DIRECTION('',(1.,0.,0.));
#429 = ORIENTED_EDGE('',*,*,#430,.F.);
#430 = EDGE_CURVE('',#405,#422,#431,.T.);
#431 = LINE('',#432,#433);
#432 = CARTESIAN_POINT('',(41.4844,-9.85,-24.));
#433 = VECTOR('',#434,1.);
#434 = DIRECTION('',(0.,1.,0.));
#435 = PLANE('',#436);
#436 = AXIS2_PLACEMENT_3D('',#437,#438,#439);
#437 = CARTESIAN_POINT('',(-38.,-20.2,-24.));
#438 = DIRECTION('',(0.,0.,1.));
#439 = DIRECTION('',(1.,0.,0.));
#440 = ADVANCED_FACE('',(#441),#459,.T.);
#441 = FACE_BOUND('',#442,.T.);
#442 = EDGE_LOOP('',(#443,#444,#445,#453));
#443 = ORIENTED_EDGE('',*,*,#55,.F.);
#444 = ORIENTED_EDGE('',*,*,#157,.T.);
#445 = ORIENTED_EDGE('',*,*,#446,.T.);
#446 = EDGE_CURVE('',#158,#447,#449,.T.);
#447 = VERTEX_POINT('',#448);
#448 = CARTESIAN_POINT('',(-23.,23.7,0.));
#449 = LINE('',#450,#451);
#450 = CARTESIAN_POINT('',(-23.,-3.5,0.));
#451 = VECTOR('',#452,1.);
#452 = DIRECTION('',(0.,1.,0.));
#453 = ORIENTED_EDGE('',*,*,#454,.F.);
#454 = EDGE_CURVE('',#48,#447,#455,.T.);
#455 = LINE('',#456,#457);
#456 = CARTESIAN_POINT('',(-38.,23.7,0.));
#457 = VECTOR('',#458,1.);
#458 = DIRECTION('',(1.,0.,0.));
#459 = PLANE('',#460);
#460 = AXIS2_PLACEMENT_3D('',#461,#462,#463);
#461 = CARTESIAN_POINT('',(-38.,-20.2,0.));
#462 = DIRECTION('',(0.,0.,1.));
#463 = DIRECTION('',(1.,0.,0.));
#464 = ADVANCED_FACE('',(#465),#540,.T.);
#465 = FACE_BOUND('',#466,.T.);
#466 = EDGE_LOOP('',(#467,#477,#483,#484,#485,#486,#494,#502,#510,#518,
    #526,#534));
#467 = ORIENTED_EDGE('',*,*,#468,.T.);
#468 = EDGE_CURVE('',#469,#471,#473,.T.);
#469 = VERTEX_POINT('',#470);
#470 = CARTESIAN_POINT('',(6.,23.7,0.));
#471 = VERTEX_POINT('',#472);
#472 = CARTESIAN_POINT('',(44.,23.7,0.));
#473 = LINE('',#474,#475);
#474 = CARTESIAN_POINT('',(-38.,23.7,0.));
#475 = VECTOR('',#476,1.);
#476 = DIRECTION('',(1.,0.,0.));
#477 = ORIENTED_EDGE('',*,*,#478,.F.);
#478 = EDGE_CURVE('',#387,#471,#479,.T.);
#479 = LINE('',#480,#481);
#480 = CARTESIAN_POINT('',(44.,23.7,-24.));
#481 = VECTOR('',#482,1.);
#482 = DIRECTION('',(0.,0.,1.));
#483 = ORIENTED_EDGE('',*,*,#394,.F.);
#484 = ORIENTED_EDGE('',*,*,#47,.T.);
#485 = ORIENTED_EDGE('',*,*,#454,.T.);
#486 = ORIENTED_EDGE('',*,*,#487,.T.);
#487 = EDGE_CURVE('',#447,#488,#490,.T.);
#488 = VERTEX_POINT('',#489);
#489 = CARTESIAN_POINT('',(-23.,23.7,-6.));
#490 = LINE('',#491,#492);
#491 = CARTESIAN_POINT('',(-23.,23.7,-15.));
#492 = VECTOR('',#493,1.);
#493 = DIRECTION('',(0.,0.,-1.));
#494 = ORIENTED_EDGE('',*,*,#495,.T.);
#495 = EDGE_CURVE('',#488,#496,#498,.T.);
#496 = VERTEX_POINT('',#497);
#497 = CARTESIAN_POINT('',(-17.,23.7,-6.));
#498 = LINE('',#499,#500);
#499 = CARTESIAN_POINT('',(-30.5,23.7,-6.));
#500 = VECTOR('',#501,1.);
#501 = DIRECTION('',(1.,0.,0.));
#502 = ORIENTED_EDGE('',*,*,#503,.F.);
#503 = EDGE_CURVE('',#504,#496,#506,.T.);
#504 = VERTEX_POINT('',#505);
#505 = CARTESIAN_POINT('',(-17.,23.7,0.));
#506 = LINE('',#507,#508);
#507 = CARTESIAN_POINT('',(-17.,23.7,-15.));
#508 = VECTOR('',#509,1.);
#509 = DIRECTION('',(0.,0.,-1.));
#510 = ORIENTED_EDGE('',*,*,#511,.T.);
#511 = EDGE_CURVE('',#504,#512,#514,.T.);
#512 = VERTEX_POINT('',#513);
#513 = CARTESIAN_POINT('',(-6.,23.7,0.));
#514 = LINE('',#515,#516);
#515 = CARTESIAN_POINT('',(-38.,23.7,0.));
#516 = VECTOR('',#517,1.);
#517 = DIRECTION('',(1.,0.,0.));
#518 = ORIENTED_EDGE('',*,*,#519,.T.);
#519 = EDGE_CURVE('',#512,#520,#522,.T.);
#520 = VERTEX_POINT('',#521);
#521 = CARTESIAN_POINT('',(-6.,23.7,-5.));
#522 = LINE('',#523,#524);
#523 = CARTESIAN_POINT('',(-6.,23.7,-14.5));
#524 = VECTOR('',#525,1.);
#525 = DIRECTION('',(0.,0.,-1.));
#526 = ORIENTED_EDGE('',*,*,#527,.T.);
#527 = EDGE_CURVE('',#520,#528,#530,.T.);
#528 = VERTEX_POINT('',#529);
#529 = CARTESIAN_POINT('',(6.,23.7,-5.));
#530 = LINE('',#531,#532);
#531 = CARTESIAN_POINT('',(-22.,23.7,-5.));
#532 = VECTOR('',#533,1.);
#533 = DIRECTION('',(1.,0.,0.));
#534 = ORIENTED_EDGE('',*,*,#535,.F.);
#535 = EDGE_CURVE('',#469,#528,#536,.T.);
#536 = LINE('',#537,#538);
#537 = CARTESIAN_POINT('',(6.,23.7,-14.5));
#538 = VECTOR('',#539,1.);
#539 = DIRECTION('',(0.,0.,-1.));
#540 = PLANE('',#541);
#541 = AXIS2_PLACEMENT_3D('',#542,#543,#544);
#542 = CARTESIAN_POINT('',(-38.,23.7,-24.));
#543 = DIRECTION('',(0.,1.,0.));
#544 = DIRECTION('',(0.,0.,1.));
#545 = ADVANCED_FACE('',(#546),#565,.F.);
#546 = FACE_BOUND('',#547,.F.);
#547 = EDGE_LOOP('',(#548,#557,#563,#564));
#548 = ORIENTED_EDGE('',*,*,#549,.F.);
#549 = EDGE_CURVE('',#550,#550,#552,.T.);
#550 = VERTEX_POINT('',#551);
#551 = CARTESIAN_POINT('',(-22.,17.,-15.2728));
#552 = CIRCLE('',#553,1.7272);
#553 = AXIS2_PLACEMENT_3D('',#554,#555,#556);
#554 = CARTESIAN_POINT('',(-22.,17.,-17.));
#555 = DIRECTION('',(1.,0.,-0.));
#556 = DIRECTION('',(0.,0.,1.));
#557 = ORIENTED_EDGE('',*,*,#558,.F.);
#558 = EDGE_CURVE('',#73,#550,#559,.T.);
#559 = LINE('',#560,#561);
#560 = CARTESIAN_POINT('',(-38.,17.,-15.2728));
#561 = VECTOR('',#562,1.);
#562 = DIRECTION('',(1.,0.,0.));
#563 = ORIENTED_EDGE('',*,*,#72,.T.);
#564 = ORIENTED_EDGE('',*,*,#558,.T.);
#565 = CYLINDRICAL_SURFACE('',#566,1.7272);
#566 = AXIS2_PLACEMENT_3D('',#567,#568,#569);
#567 = CARTESIAN_POINT('',(-38.,17.,-17.));
#568 = DIRECTION('',(1.,0.,0.));
#569 = DIRECTION('',(0.,0.,1.));
#570 = ADVANCED_FACE('',(#571),#590,.F.);
#571 = FACE_BOUND('',#572,.F.);
#572 = EDGE_LOOP('',(#573,#582,#588,#589));
#573 = ORIENTED_EDGE('',*,*,#574,.F.);
#574 = EDGE_CURVE('',#575,#575,#577,.T.);
#575 = VERTEX_POINT('',#576);
#576 = CARTESIAN_POINT('',(-22.,-14.5,-15.2728));
#577 = CIRCLE('',#578,1.7272);
#578 = AXIS2_PLACEMENT_3D('',#579,#580,#581);
#579 = CARTESIAN_POINT('',(-22.,-14.5,-17.));
#580 = DIRECTION('',(1.,0.,-0.));
#581 = DIRECTION('',(0.,0.,1.));
#582 = ORIENTED_EDGE('',*,*,#583,.F.);
#583 = EDGE_CURVE('',#84,#575,#584,.T.);
#584 = LINE('',#585,#586);
#585 = CARTESIAN_POINT('',(-38.,-14.5,-15.2728));
#586 = VECTOR('',#587,1.);
#587 = DIRECTION('',(1.,0.,0.));
#588 = ORIENTED_EDGE('',*,*,#83,.T.);
#589 = ORIENTED_EDGE('',*,*,#583,.T.);
#590 = CYLINDRICAL_SURFACE('',#591,1.7272);
#591 = AXIS2_PLACEMENT_3D('',#592,#593,#594);
#592 = CARTESIAN_POINT('',(-38.,-14.5,-17.));
#593 = DIRECTION('',(1.,0.,0.));
#594 = DIRECTION('',(0.,0.,1.));
#595 = ADVANCED_FACE('',(#596,#609,#620),#631,.T.);
#596 = FACE_BOUND('',#597,.T.);
#597 = EDGE_LOOP('',(#598,#599,#600,#601,#602,#608));
#598 = ORIENTED_EDGE('',*,*,#109,.F.);
#599 = ORIENTED_EDGE('',*,*,#141,.F.);
#600 = ORIENTED_EDGE('',*,*,#386,.T.);
#601 = ORIENTED_EDGE('',*,*,#478,.T.);
#602 = ORIENTED_EDGE('',*,*,#603,.F.);
#603 = EDGE_CURVE('',#226,#471,#604,.T.);
#604 = LINE('',#605,#606);
#605 = CARTESIAN_POINT('',(44.,-20.2,0.));
#606 = VECTOR('',#607,1.);
#607 = DIRECTION('',(0.,1.,0.));
#608 = ORIENTED_EDGE('',*,*,#233,.F.);
#609 = FACE_BOUND('',#610,.T.);
#610 = EDGE_LOOP('',(#611));
#611 = ORIENTED_EDGE('',*,*,#612,.T.);
#612 = EDGE_CURVE('',#613,#613,#615,.T.);
#613 = VERTEX_POINT('',#614);
#614 = CARTESIAN_POINT('',(44.,17.,-18.7272));
#615 = CIRCLE('',#616,1.7272);
#616 = AXIS2_PLACEMENT_3D('',#617,#618,#619);
#617 = CARTESIAN_POINT('',(44.,17.,-17.));
#618 = DIRECTION('',(-1.,0.,0.));
#619 = DIRECTION('',(0.,0.,-1.));
#620 = FACE_BOUND('',#621,.T.);
#621 = EDGE_LOOP('',(#622));
#622 = ORIENTED_EDGE('',*,*,#623,.T.);
#623 = EDGE_CURVE('',#624,#624,#626,.T.);
#624 = VERTEX_POINT('',#625);
#625 = CARTESIAN_POINT('',(44.,-14.5,-18.7272));
#626 = CIRCLE('',#627,1.7272);
#627 = AXIS2_PLACEMENT_3D('',#628,#629,#630);
#628 = CARTESIAN_POINT('',(44.,-14.5,-17.));
#629 = DIRECTION('',(-1.,0.,0.));
#630 = DIRECTION('',(0.,0.,-1.));
#631 = PLANE('',#632);
#632 = AXIS2_PLACEMENT_3D('',#633,#634,#635);
#633 = CARTESIAN_POINT('',(44.,-20.2,-24.));
#634 = DIRECTION('',(1.,0.,0.));
#635 = DIRECTION('',(0.,0.,1.));
#636 = ADVANCED_FACE('',(#637),#648,.T.);
#637 = FACE_BOUND('',#638,.T.);
#638 = EDGE_LOOP('',(#639,#645,#646,#647));
#639 = ORIENTED_EDGE('',*,*,#640,.F.);
#640 = EDGE_CURVE('',#217,#469,#641,.T.);
#641 = LINE('',#642,#643);
#642 = CARTESIAN_POINT('',(6.,-3.5,0.));
#643 = VECTOR('',#644,1.);
#644 = DIRECTION('',(0.,1.,0.));
#645 = ORIENTED_EDGE('',*,*,#225,.T.);
#646 = ORIENTED_EDGE('',*,*,#603,.T.);
#647 = ORIENTED_EDGE('',*,*,#468,.F.);
#648 = PLANE('',#649);
#649 = AXIS2_PLACEMENT_3D('',#650,#651,#652);
#650 = CARTESIAN_POINT('',(-38.,-20.2,0.));
#651 = DIRECTION('',(0.,0.,1.));
#652 = DIRECTION('',(1.,0.,0.));
#653 = ADVANCED_FACE('',(#654),#665,.F.);
#654 = FACE_BOUND('',#655,.F.);
#655 = EDGE_LOOP('',(#656,#657,#663,#664));
#656 = ORIENTED_EDGE('',*,*,#216,.F.);
#657 = ORIENTED_EDGE('',*,*,#658,.T.);
#658 = EDGE_CURVE('',#209,#528,#659,.T.);
#659 = LINE('',#660,#661);
#660 = CARTESIAN_POINT('',(6.,13.2,-5.));
#661 = VECTOR('',#662,1.);
#662 = DIRECTION('',(0.,1.,0.));
#663 = ORIENTED_EDGE('',*,*,#535,.F.);
#664 = ORIENTED_EDGE('',*,*,#640,.F.);
#665 = PLANE('',#666);
#666 = AXIS2_PLACEMENT_3D('',#667,#668,#669);
#667 = CARTESIAN_POINT('',(6.,13.2,-5.));
#668 = DIRECTION('',(1.,0.,0.));
#669 = DIRECTION('',(0.,0.,1.));
#670 = ADVANCED_FACE('',(#671),#682,.T.);
#671 = FACE_BOUND('',#672,.T.);
#672 = EDGE_LOOP('',(#673,#679,#680,#681));
#673 = ORIENTED_EDGE('',*,*,#674,.F.);
#674 = EDGE_CURVE('',#200,#520,#675,.T.);
#675 = LINE('',#676,#677);
#676 = CARTESIAN_POINT('',(-6.,13.2,-5.));
#677 = VECTOR('',#678,1.);
#678 = DIRECTION('',(0.,1.,0.));
#679 = ORIENTED_EDGE('',*,*,#208,.T.);
#680 = ORIENTED_EDGE('',*,*,#658,.T.);
#681 = ORIENTED_EDGE('',*,*,#527,.F.);
#682 = PLANE('',#683);
#683 = AXIS2_PLACEMENT_3D('',#684,#685,#686);
#684 = CARTESIAN_POINT('',(-6.,13.2,-5.));
#685 = DIRECTION('',(0.,0.,1.));
#686 = DIRECTION('',(1.,0.,0.));
#687 = ADVANCED_FACE('',(#688),#699,.T.);
#688 = FACE_BOUND('',#689,.T.);
#689 = EDGE_LOOP('',(#690,#691,#692,#693));
#690 = ORIENTED_EDGE('',*,*,#199,.F.);
#691 = ORIENTED_EDGE('',*,*,#674,.T.);
#692 = ORIENTED_EDGE('',*,*,#519,.F.);
#693 = ORIENTED_EDGE('',*,*,#694,.F.);
#694 = EDGE_CURVE('',#192,#512,#695,.T.);
#695 = LINE('',#696,#697);
#696 = CARTESIAN_POINT('',(-6.,-3.5,0.));
#697 = VECTOR('',#698,1.);
#698 = DIRECTION('',(0.,1.,0.));
#699 = PLANE('',#700);
#700 = AXIS2_PLACEMENT_3D('',#701,#702,#703);
#701 = CARTESIAN_POINT('',(-6.,13.2,-5.));
#702 = DIRECTION('',(1.,0.,0.));
#703 = DIRECTION('',(0.,0.,1.));
#704 = ADVANCED_FACE('',(#705),#716,.T.);
#705 = FACE_BOUND('',#706,.T.);
#706 = EDGE_LOOP('',(#707,#713,#714,#715));
#707 = ORIENTED_EDGE('',*,*,#708,.F.);
#708 = EDGE_CURVE('',#183,#504,#709,.T.);
#709 = LINE('',#710,#711);
#710 = CARTESIAN_POINT('',(-17.,-3.5,0.));
#711 = VECTOR('',#712,1.);
#712 = DIRECTION('',(0.,1.,0.));
#713 = ORIENTED_EDGE('',*,*,#191,.T.);
#714 = ORIENTED_EDGE('',*,*,#694,.T.);
#715 = ORIENTED_EDGE('',*,*,#511,.F.);
#716 = PLANE('',#717);
#717 = AXIS2_PLACEMENT_3D('',#718,#719,#720);
#718 = CARTESIAN_POINT('',(-38.,-20.2,0.));
#719 = DIRECTION('',(0.,0.,1.));
#720 = DIRECTION('',(1.,0.,0.));
#721 = ADVANCED_FACE('',(#722),#733,.F.);
#722 = FACE_BOUND('',#723,.F.);
#723 = EDGE_LOOP('',(#724,#725,#731,#732));
#724 = ORIENTED_EDGE('',*,*,#182,.F.);
#725 = ORIENTED_EDGE('',*,*,#726,.T.);
#726 = EDGE_CURVE('',#175,#496,#727,.T.);
#727 = LINE('',#728,#729);
#728 = CARTESIAN_POINT('',(-17.,13.2,-6.));
#729 = VECTOR('',#730,1.);
#730 = DIRECTION('',(0.,1.,0.));
#731 = ORIENTED_EDGE('',*,*,#503,.F.);
#732 = ORIENTED_EDGE('',*,*,#708,.F.);
#733 = PLANE('',#734);
#734 = AXIS2_PLACEMENT_3D('',#735,#736,#737);
#735 = CARTESIAN_POINT('',(-17.,13.2,-6.));
#736 = DIRECTION('',(1.,0.,0.));
#737 = DIRECTION('',(0.,0.,1.));
#738 = ADVANCED_FACE('',(#739),#750,.T.);
#739 = FACE_BOUND('',#740,.T.);
#740 = EDGE_LOOP('',(#741,#747,#748,#749));
#741 = ORIENTED_EDGE('',*,*,#742,.F.);
#742 = EDGE_CURVE('',#166,#488,#743,.T.);
#743 = LINE('',#744,#745);
#744 = CARTESIAN_POINT('',(-23.,13.2,-6.));
#745 = VECTOR('',#746,1.);
#746 = DIRECTION('',(0.,1.,0.));
#747 = ORIENTED_EDGE('',*,*,#174,.T.);
#748 = ORIENTED_EDGE('',*,*,#726,.T.);
#749 = ORIENTED_EDGE('',*,*,#495,.F.);
#750 = PLANE('',#751);
#751 = AXIS2_PLACEMENT_3D('',#752,#753,#754);
#752 = CARTESIAN_POINT('',(-23.,13.2,-6.));
#753 = DIRECTION('',(0.,0.,1.));
#754 = DIRECTION('',(1.,0.,0.));
#755 = ADVANCED_FACE('',(#756),#762,.T.);
#756 = FACE_BOUND('',#757,.T.);
#757 = EDGE_LOOP('',(#758,#759,#760,#761));
#758 = ORIENTED_EDGE('',*,*,#165,.F.);
#759 = ORIENTED_EDGE('',*,*,#742,.T.);
#760 = ORIENTED_EDGE('',*,*,#487,.F.);
#761 = ORIENTED_EDGE('',*,*,#446,.F.);
#762 = PLANE('',#763);
#763 = AXIS2_PLACEMENT_3D('',#764,#765,#766);
#764 = CARTESIAN_POINT('',(-23.,13.2,-6.));
#765 = DIRECTION('',(1.,0.,0.));
#766 = DIRECTION('',(0.,0.,1.));
#767 = ADVANCED_FACE('',(#768),#784,.T.);
#768 = FACE_BOUND('',#769,.T.);
#769 = EDGE_LOOP('',(#770,#776,#777,#783));
#770 = ORIENTED_EDGE('',*,*,#771,.F.);
#771 = EDGE_CURVE('',#403,#243,#772,.T.);
#772 = LINE('',#773,#774);
#773 = CARTESIAN_POINT('',(37.1156,0.5,-25.));
#774 = VECTOR('',#775,1.);
#775 = DIRECTION('',(0.,0.,1.));
#776 = ORIENTED_EDGE('',*,*,#413,.T.);
#777 = ORIENTED_EDGE('',*,*,#778,.T.);
#778 = EDGE_CURVE('',#414,#245,#779,.T.);
#779 = LINE('',#780,#781);
#780 = CARTESIAN_POINT('',(37.1156,11.,-25.));
#781 = VECTOR('',#782,1.);
#782 = DIRECTION('',(0.,0.,1.));
#783 = ORIENTED_EDGE('',*,*,#242,.F.);
#784 = PLANE('',#785);
#785 = AXIS2_PLACEMENT_3D('',#786,#787,#788);
#786 = CARTESIAN_POINT('',(37.1156,0.5,-25.));
#787 = DIRECTION('',(1.,0.,0.));
#788 = DIRECTION('',(0.,0.,1.));
#789 = ADVANCED_FACE('',(#790),#801,.F.);
#790 = FACE_BOUND('',#791,.F.);
#791 = EDGE_LOOP('',(#792,#793,#799,#800));
#792 = ORIENTED_EDGE('',*,*,#402,.T.);
#793 = ORIENTED_EDGE('',*,*,#794,.T.);
#794 = EDGE_CURVE('',#405,#254,#795,.T.);
#795 = LINE('',#796,#797);
#796 = CARTESIAN_POINT('',(41.4844,0.5,-25.));
#797 = VECTOR('',#798,1.);
#798 = DIRECTION('',(0.,0.,1.));
#799 = ORIENTED_EDGE('',*,*,#253,.F.);
#800 = ORIENTED_EDGE('',*,*,#771,.F.);
#801 = CYLINDRICAL_SURFACE('',#802,2.1844);
#802 = AXIS2_PLACEMENT_3D('',#803,#804,#805);
#803 = CARTESIAN_POINT('',(39.3,0.5,-25.));
#804 = DIRECTION('',(0.,0.,1.));
#805 = DIRECTION('',(1.,0.,0.));
#806 = ADVANCED_FACE('',(#807),#818,.F.);
#807 = FACE_BOUND('',#808,.F.);
#808 = EDGE_LOOP('',(#809,#810,#816,#817));
#809 = ORIENTED_EDGE('',*,*,#311,.F.);
#810 = ORIENTED_EDGE('',*,*,#811,.F.);
#811 = EDGE_CURVE('',#422,#303,#812,.T.);
#812 = LINE('',#813,#814);
#813 = CARTESIAN_POINT('',(41.4844,11.,-25.));
#814 = VECTOR('',#815,1.);
#815 = DIRECTION('',(0.,0.,1.));
#816 = ORIENTED_EDGE('',*,*,#421,.T.);
#817 = ORIENTED_EDGE('',*,*,#778,.T.);
#818 = CYLINDRICAL_SURFACE('',#819,2.1844);
#819 = AXIS2_PLACEMENT_3D('',#820,#821,#822);
#820 = CARTESIAN_POINT('',(39.3,11.,-25.));
#821 = DIRECTION('',(0.,0.,1.));
#822 = DIRECTION('',(1.,0.,0.));
#823 = ADVANCED_FACE('',(#824),#830,.F.);
#824 = FACE_BOUND('',#825,.F.);
#825 = EDGE_LOOP('',(#826,#827,#828,#829));
#826 = ORIENTED_EDGE('',*,*,#794,.F.);
#827 = ORIENTED_EDGE('',*,*,#430,.T.);
#828 = ORIENTED_EDGE('',*,*,#811,.T.);
#829 = ORIENTED_EDGE('',*,*,#302,.F.);
#830 = PLANE('',#831);
#831 = AXIS2_PLACEMENT_3D('',#832,#833,#834);
#832 = CARTESIAN_POINT('',(41.4844,0.5,-25.));
#833 = DIRECTION('',(1.,0.,0.));
#834 = DIRECTION('',(0.,0.,1.));
#835 = ADVANCED_FACE('',(#836),#839,.F.);
#836 = FACE_BOUND('',#837,.F.);
#837 = EDGE_LOOP('',(#838));
#838 = ORIENTED_EDGE('',*,*,#549,.T.);
#839 = PLANE('',#840);
#840 = AXIS2_PLACEMENT_3D('',#841,#842,#843);
#841 = CARTESIAN_POINT('',(-22.,17.,-17.));
#842 = DIRECTION('',(1.,0.,0.));
#843 = DIRECTION('',(0.,0.,1.));
#844 = ADVANCED_FACE('',(#845),#848,.F.);
#845 = FACE_BOUND('',#846,.F.);
#846 = EDGE_LOOP('',(#847));
#847 = ORIENTED_EDGE('',*,*,#574,.T.);
#848 = PLANE('',#849);
#849 = AXIS2_PLACEMENT_3D('',#850,#851,#852);
#850 = CARTESIAN_POINT('',(-22.,-14.5,-17.));
#851 = DIRECTION('',(1.,0.,0.));
#852 = DIRECTION('',(0.,0.,1.));
#853 = ADVANCED_FACE('',(#854),#873,.F.);
#854 = FACE_BOUND('',#855,.F.);
#855 = EDGE_LOOP('',(#856,#865,#871,#872));
#856 = ORIENTED_EDGE('',*,*,#857,.F.);
#857 = EDGE_CURVE('',#858,#858,#860,.T.);
#858 = VERTEX_POINT('',#859);
#859 = CARTESIAN_POINT('',(28.,17.,-18.7272));
#860 = CIRCLE('',#861,1.7272);
#861 = AXIS2_PLACEMENT_3D('',#862,#863,#864);
#862 = CARTESIAN_POINT('',(28.,17.,-17.));
#863 = DIRECTION('',(-1.,0.,0.));
#864 = DIRECTION('',(0.,0.,-1.));
#865 = ORIENTED_EDGE('',*,*,#866,.F.);
#866 = EDGE_CURVE('',#613,#858,#867,.T.);
#867 = LINE('',#868,#869);
#868 = CARTESIAN_POINT('',(44.,17.,-18.7272));
#869 = VECTOR('',#870,1.);
#870 = DIRECTION('',(-1.,0.,0.));
#871 = ORIENTED_EDGE('',*,*,#612,.T.);
#872 = ORIENTED_EDGE('',*,*,#866,.T.);
#873 = CYLINDRICAL_SURFACE('',#874,1.7272);
#874 = AXIS2_PLACEMENT_3D('',#875,#876,#877);
#875 = CARTESIAN_POINT('',(44.,17.,-17.));
#876 = DIRECTION('',(-1.,0.,0.));
#877 = DIRECTION('',(0.,0.,-1.));
#878 = ADVANCED_FACE('',(#879),#898,.F.);
#879 = FACE_BOUND('',#880,.F.);
#880 = EDGE_LOOP('',(#881,#890,#896,#897));
#881 = ORIENTED_EDGE('',*,*,#882,.F.);
#882 = EDGE_CURVE('',#883,#883,#885,.T.);
#883 = VERTEX_POINT('',#884);
#884 = CARTESIAN_POINT('',(28.,-14.5,-18.7272));
#885 = CIRCLE('',#886,1.7272);
#886 = AXIS2_PLACEMENT_3D('',#887,#888,#889);
#887 = CARTESIAN_POINT('',(28.,-14.5,-17.));
#888 = DIRECTION('',(-1.,0.,0.));
#889 = DIRECTION('',(0.,0.,-1.));
#890 = ORIENTED_EDGE('',*,*,#891,.F.);
#891 = EDGE_CURVE('',#624,#883,#892,.T.);
#892 = LINE('',#893,#894);
#893 = CARTESIAN_POINT('',(44.,-14.5,-18.7272));
#894 = VECTOR('',#895,1.);
#895 = DIRECTION('',(-1.,0.,0.));
#896 = ORIENTED_EDGE('',*,*,#623,.T.);
#897 = ORIENTED_EDGE('',*,*,#891,.T.);
#898 = CYLINDRICAL_SURFACE('',#899,1.7272);
#899 = AXIS2_PLACEMENT_3D('',#900,#901,#902);
#900 = CARTESIAN_POINT('',(44.,-14.5,-17.));
#901 = DIRECTION('',(-1.,0.,0.));
#902 = DIRECTION('',(0.,0.,-1.));
#903 = ADVANCED_FACE('',(#904),#907,.F.);
#904 = FACE_BOUND('',#905,.F.);
#905 = EDGE_LOOP('',(#906));
#906 = ORIENTED_EDGE('',*,*,#857,.T.);
#907 = PLANE('',#908);
#908 = AXIS2_PLACEMENT_3D('',#909,#910,#911);
#909 = CARTESIAN_POINT('',(28.,17.,-17.));
#910 = DIRECTION('',(-1.,0.,0.));
#911 = DIRECTION('',(0.,0.,-1.));
#912 = ADVANCED_FACE('',(#913),#916,.F.);
#913 = FACE_BOUND('',#914,.F.);
#914 = EDGE_LOOP('',(#915));
#915 = ORIENTED_EDGE('',*,*,#882,.T.);
#916 = PLANE('',#917);
#917 = AXIS2_PLACEMENT_3D('',#918,#919,#920);
#918 = CARTESIAN_POINT('',(28.,-14.5,-17.));
#919 = DIRECTION('',(-1.,0.,0.));
#920 = DIRECTION('',(0.,0.,-1.));
#921 = ( GEOMETRIC_REPRESENTATION_CONTEXT(3) 
GLOBAL_UNCERTAINTY_ASSIGNED_CONTEXT((#925)) GLOBAL_UNIT_ASSIGNED_CONTEXT
((#922,#923,#924)) REPRESENTATION_CONTEXT('Context #1',
  '3D Context with UNIT and UNCERTAINTY') );
#922 = ( LENGTH_UNIT() NAMED_UNIT(*) SI_UNIT(.MILLI.,.METRE.) );
#923 = ( NAMED_UNIT(*) PLANE_ANGLE_UNIT() SI_UNIT($,.RADIAN.) );
#924 = ( NAMED_UNIT(*) SI_UNIT($,.STERADIAN.) SOLID_ANGLE_UNIT() );
#925 = UNCERTAINTY_MEASURE_WITH_UNIT(LENGTH_MEASURE(1.E-07),#922,
  'distance_accuracy_value','confusion accuracy');
#926 = PRODUCT_RELATED_PRODUCT_CATEGORY('part',$,(#7));
ENDSEC;
END-ISO-10303-21;
