ISO-10303-21;
HEADER;
FILE_DESCRIPTION(('FreeCAD Model'),'2;1');
FILE_NAME('Open CASCADE Shape Model','2026-10-06T23:14:06',('FreeCAD'),(
    'FreeCAD'),'Open CASCADE STEP processor 7.8','FreeCAD','Unknown');
FILE_SCHEMA(('AUTOMOTIVE_DESIGN { 1 0 10303 214 1 1 1 1 }'));
ENDSEC;
DATA;
#1 = APPLICATION_PROTOCOL_DEFINITION('international standard',
  'automotive_design',2000,#2);
#2 = APPLICATION_CONTEXT(
  'core data for automotive mechanical design processes');
#3 = SHAPE_DEFINITION_REPRESENTATION(#4,#10);
#4 = PRODUCT_DEFINITION_SHAPE('','',#5);
#5 = PRODUCT_DEFINITION('design','',#6,#9);
#6 = PRODUCT_DEFINITION_FORMATION('','',#7);
#7 = PRODUCT('Open CASCADE STEP translator 7.8 2',
  'Open CASCADE STEP translator 7.8 2','',(#8));
#8 = PRODUCT_CONTEXT('',#2,'mechanical');
#9 = PRODUCT_DEFINITION_CONTEXT('part definition',#2,'design');
#10 = ADVANCED_BREP_SHAPE_REPRESENTATION('',(#11,#15),#1252);
#11 = AXIS2_PLACEMENT_3D('',#12,#13,#14);
#12 = CARTESIAN_POINT('',(0.,0.,0.));
#13 = DIRECTION('',(0.,0.,1.));
#14 = DIRECTION('',(1.,0.,-0.));
#15 = MANIFOLD_SOLID_BREP('',#16);
#16 = CLOSED_SHELL('',(#17,#84,#203,#227,#306,#402,#437,#516,#641,#653,
    #665,#687,#704,#721,#733,#755,#772,#789,#801,#826,#851,#876,#1037,
    #1062,#1080,#1105,#1130,#1155,#1180,#1189,#1198,#1207,#1216,#1225,
    #1234,#1243));
#17 = ADVANCED_FACE('',(#18,#68),#79,.F.);
#18 = FACE_BOUND('',#19,.F.);
#19 = EDGE_LOOP('',(#20,#30,#38,#46,#54,#62));
#20 = ORIENTED_EDGE('',*,*,#21,.F.);
#21 = EDGE_CURVE('',#22,#24,#26,.T.);
#22 = VERTEX_POINT('',#23);
#23 = CARTESIAN_POINT('',(6.,-20.2,-23.));
#24 = VERTEX_POINT('',#25);
#25 = CARTESIAN_POINT('',(38.,-20.2,-23.));
#26 = LINE('',#27,#28);
#27 = CARTESIAN_POINT('',(-38.,-20.2,-23.));
#28 = VECTOR('',#29,1.);
#29 = DIRECTION('',(1.,0.,0.));
#30 = ORIENTED_EDGE('',*,*,#31,.T.);
#31 = EDGE_CURVE('',#22,#32,#34,.T.);
#32 = VERTEX_POINT('',#33);
#33 = CARTESIAN_POINT('',(6.,-20.2,-13.));
#34 = LINE('',#35,#36);
#35 = CARTESIAN_POINT('',(6.,-20.2,-23.));
#36 = VECTOR('',#37,1.);
#37 = DIRECTION('',(0.,0.,1.));
#38 = ORIENTED_EDGE('',*,*,#39,.F.);
#39 = EDGE_CURVE('',#40,#32,#42,.T.);
#40 = VERTEX_POINT('',#41);
#41 = CARTESIAN_POINT('',(-38.,-20.2,-13.));
#42 = LINE('',#43,#44);
#43 = CARTESIAN_POINT('',(-38.,-20.2,-13.));
#44 = VECTOR('',#45,1.);
#45 = DIRECTION('',(1.,0.,0.));
#46 = ORIENTED_EDGE('',*,*,#47,.T.);
#47 = EDGE_CURVE('',#40,#48,#50,.T.);
#48 = VERTEX_POINT('',#49);
#49 = CARTESIAN_POINT('',(-38.,-20.2,25.));
#50 = LINE('',#51,#52);
#51 = CARTESIAN_POINT('',(-38.,-20.2,-23.));
#52 = VECTOR('',#53,1.);
#53 = DIRECTION('',(0.,0.,1.));
#54 = ORIENTED_EDGE('',*,*,#55,.T.);
#55 = EDGE_CURVE('',#48,#56,#58,.T.);
#56 = VERTEX_POINT('',#57);
#57 = CARTESIAN_POINT('',(38.,-20.2,25.));
#58 = LINE('',#59,#60);
#59 = CARTESIAN_POINT('',(-38.,-20.2,25.));
#60 = VECTOR('',#61,1.);
#61 = DIRECTION('',(1.,0.,0.));
#62 = ORIENTED_EDGE('',*,*,#63,.F.);
#63 = EDGE_CURVE('',#24,#56,#64,.T.);
#64 = LINE('',#65,#66);
#65 = CARTESIAN_POINT('',(38.,-20.2,-23.));
#66 = VECTOR('',#67,1.);
#67 = DIRECTION('',(0.,0.,1.));
#68 = FACE_BOUND('',#69,.F.);
#69 = EDGE_LOOP('',(#70));
#70 = ORIENTED_EDGE('',*,*,#71,.F.);
#71 = EDGE_CURVE('',#72,#72,#74,.T.);
#72 = VERTEX_POINT('',#73);
#73 = CARTESIAN_POINT('',(18.,-20.2,11.));
#74 = CIRCLE('',#75,3.);
#75 = AXIS2_PLACEMENT_3D('',#76,#77,#78);
#76 = CARTESIAN_POINT('',(18.,-20.2,8.));
#77 = DIRECTION('',(0.,1.,0.));
#78 = DIRECTION('',(0.,0.,1.));
#79 = PLANE('',#80);
#80 = AXIS2_PLACEMENT_3D('',#81,#82,#83);
#81 = CARTESIAN_POINT('',(-38.,-20.2,-23.));
#82 = DIRECTION('',(0.,1.,0.));
#83 = DIRECTION('',(0.,0.,1.));
#84 = ADVANCED_FACE('',(#85,#126,#162),#198,.T.);
#85 = FACE_BOUND('',#86,.T.);
#86 = EDGE_LOOP('',(#87,#97,#105,#111,#112,#120));
#87 = ORIENTED_EDGE('',*,*,#88,.T.);
#88 = EDGE_CURVE('',#89,#91,#93,.T.);
#89 = VERTEX_POINT('',#90);
#90 = CARTESIAN_POINT('',(-38.,-45.2,-23.));
#91 = VERTEX_POINT('',#92);
#92 = CARTESIAN_POINT('',(-38.,20.2,-23.));
#93 = LINE('',#94,#95);
#94 = CARTESIAN_POINT('',(-38.,-20.2,-23.));
#95 = VECTOR('',#96,1.);
#96 = DIRECTION('',(0.,1.,0.));
#97 = ORIENTED_EDGE('',*,*,#98,.T.);
#98 = EDGE_CURVE('',#91,#99,#101,.T.);
#99 = VERTEX_POINT('',#100);
#100 = CARTESIAN_POINT('',(38.,20.2,-23.));
#101 = LINE('',#102,#103);
#102 = CARTESIAN_POINT('',(-38.,20.2,-23.));
#103 = VECTOR('',#104,1.);
#104 = DIRECTION('',(1.,0.,0.));
#105 = ORIENTED_EDGE('',*,*,#106,.F.);
#106 = EDGE_CURVE('',#24,#99,#107,.T.);
#107 = LINE('',#108,#109);
#108 = CARTESIAN_POINT('',(38.,-20.2,-23.));
#109 = VECTOR('',#110,1.);
#110 = DIRECTION('',(0.,1.,0.));
#111 = ORIENTED_EDGE('',*,*,#21,.F.);
#112 = ORIENTED_EDGE('',*,*,#113,.F.);
#113 = EDGE_CURVE('',#114,#22,#116,.T.);
#114 = VERTEX_POINT('',#115);
#115 = CARTESIAN_POINT('',(6.,-45.2,-23.));
#116 = LINE('',#117,#118);
#117 = CARTESIAN_POINT('',(6.,-45.2,-23.));
#118 = VECTOR('',#119,1.);
#119 = DIRECTION('',(0.,1.,0.));
#120 = ORIENTED_EDGE('',*,*,#121,.F.);
#121 = EDGE_CURVE('',#89,#114,#122,.T.);
#122 = LINE('',#123,#124);
#123 = CARTESIAN_POINT('',(-38.,-45.2,-23.));
#124 = VECTOR('',#125,1.);
#125 = DIRECTION('',(1.,0.,0.));
#126 = FACE_BOUND('',#127,.T.);
#127 = EDGE_LOOP('',(#128,#139,#147,#156));
#128 = ORIENTED_EDGE('',*,*,#129,.T.);
#129 = EDGE_CURVE('',#130,#132,#134,.T.);
#130 = VERTEX_POINT('',#131);
#131 = CARTESIAN_POINT('',(2.1844,-27.35,-23.));
#132 = VERTEX_POINT('',#133);
#133 = CARTESIAN_POINT('',(-2.1844,-27.35,-23.));
#134 = CIRCLE('',#135,2.1844);
#135 = AXIS2_PLACEMENT_3D('',#136,#137,#138);
#136 = CARTESIAN_POINT('',(0.,-27.35,-23.));
#137 = DIRECTION('',(0.,0.,1.));
#138 = DIRECTION('',(1.,0.,0.));
#139 = ORIENTED_EDGE('',*,*,#140,.T.);
#140 = EDGE_CURVE('',#132,#141,#143,.T.);
#141 = VERTEX_POINT('',#142);
#142 = CARTESIAN_POINT('',(-2.1844,-40.05,-23.));
#143 = LINE('',#144,#145);
#144 = CARTESIAN_POINT('',(-2.1844,-24.86057284299,-23.));
#145 = VECTOR('',#146,1.);
#146 = DIRECTION('',(0.,-1.,0.));
#147 = ORIENTED_EDGE('',*,*,#148,.T.);
#148 = EDGE_CURVE('',#141,#149,#151,.T.);
#149 = VERTEX_POINT('',#150);
#150 = CARTESIAN_POINT('',(2.1844,-40.05,-23.));
#151 = CIRCLE('',#152,2.1844);
#152 = AXIS2_PLACEMENT_3D('',#153,#154,#155);
#153 = CARTESIAN_POINT('',(0.,-40.05,-23.));
#154 = DIRECTION('',(0.,0.,1.));
#155 = DIRECTION('',(1.,0.,0.));
#156 = ORIENTED_EDGE('',*,*,#157,.F.);
#157 = EDGE_CURVE('',#130,#149,#158,.T.);
#158 = LINE('',#159,#160);
#159 = CARTESIAN_POINT('',(2.1844,-24.86057284299,-23.));
#160 = VECTOR('',#161,1.);
#161 = DIRECTION('',(0.,-1.,0.));
#162 = FACE_BOUND('',#163,.T.);
#163 = EDGE_LOOP('',(#164,#175,#183,#192));
#164 = ORIENTED_EDGE('',*,*,#165,.T.);
#165 = EDGE_CURVE('',#166,#168,#170,.T.);
#166 = VERTEX_POINT('',#167);
#167 = CARTESIAN_POINT('',(-27.8156,-27.35,-23.));
#168 = VERTEX_POINT('',#169);
#169 = CARTESIAN_POINT('',(-32.1844,-27.35,-23.));
#170 = CIRCLE('',#171,2.1844);
#171 = AXIS2_PLACEMENT_3D('',#172,#173,#174);
#172 = CARTESIAN_POINT('',(-30.,-27.35,-23.));
#173 = DIRECTION('',(0.,0.,1.));
#174 = DIRECTION('',(1.,0.,0.));
#175 = ORIENTED_EDGE('',*,*,#176,.T.);
#176 = EDGE_CURVE('',#168,#177,#179,.T.);
#177 = VERTEX_POINT('',#178);
#178 = CARTESIAN_POINT('',(-32.1844,-40.05,-23.));
#179 = LINE('',#180,#181);
#180 = CARTESIAN_POINT('',(-32.1844,-24.86057284299,-23.));
#181 = VECTOR('',#182,1.);
#182 = DIRECTION('',(0.,-1.,0.));
#183 = ORIENTED_EDGE('',*,*,#184,.T.);
#184 = EDGE_CURVE('',#177,#185,#187,.T.);
#185 = VERTEX_POINT('',#186);
#186 = CARTESIAN_POINT('',(-27.8156,-40.05,-23.));
#187 = CIRCLE('',#188,2.1844);
#188 = AXIS2_PLACEMENT_3D('',#189,#190,#191);
#189 = CARTESIAN_POINT('',(-30.,-40.05,-23.));
#190 = DIRECTION('',(0.,0.,1.));
#191 = DIRECTION('',(1.,0.,0.));
#192 = ORIENTED_EDGE('',*,*,#193,.F.);
#193 = EDGE_CURVE('',#166,#185,#194,.T.);
#194 = LINE('',#195,#196);
#195 = CARTESIAN_POINT('',(-27.8156,-24.86057284299,-23.));
#196 = VECTOR('',#197,1.);
#197 = DIRECTION('',(0.,-1.,0.));
#198 = PLANE('',#199);
#199 = AXIS2_PLACEMENT_3D('',#200,#201,#202);
#200 = CARTESIAN_POINT('',(-2.828854314003,-9.671145685997,-23.));
#201 = DIRECTION('',(-0.,-0.,-1.));
#202 = DIRECTION('',(-1.,0.,0.));
#203 = ADVANCED_FACE('',(#204),#222,.T.);
#204 = FACE_BOUND('',#205,.T.);
#205 = EDGE_LOOP('',(#206,#214,#215,#216));
#206 = ORIENTED_EDGE('',*,*,#207,.F.);
#207 = EDGE_CURVE('',#114,#208,#210,.T.);
#208 = VERTEX_POINT('',#209);
#209 = CARTESIAN_POINT('',(6.,-45.2,-13.));
#210 = LINE('',#211,#212);
#211 = CARTESIAN_POINT('',(6.,-45.2,-23.));
#212 = VECTOR('',#213,1.);
#213 = DIRECTION('',(0.,0.,1.));
#214 = ORIENTED_EDGE('',*,*,#113,.T.);
#215 = ORIENTED_EDGE('',*,*,#31,.T.);
#216 = ORIENTED_EDGE('',*,*,#217,.F.);
#217 = EDGE_CURVE('',#208,#32,#218,.T.);
#218 = LINE('',#219,#220);
#219 = CARTESIAN_POINT('',(6.,-45.2,-13.));
#220 = VECTOR('',#221,1.);
#221 = DIRECTION('',(0.,1.,0.));
#222 = PLANE('',#223);
#223 = AXIS2_PLACEMENT_3D('',#224,#225,#226);
#224 = CARTESIAN_POINT('',(6.,-45.2,-23.));
#225 = DIRECTION('',(1.,0.,0.));
#226 = DIRECTION('',(0.,0.,1.));
#227 = ADVANCED_FACE('',(#228,#246,#257,#268,#279,#290),#301,.T.);
#228 = FACE_BOUND('',#229,.T.);
#229 = EDGE_LOOP('',(#230,#231,#232,#240));
#230 = ORIENTED_EDGE('',*,*,#63,.F.);
#231 = ORIENTED_EDGE('',*,*,#106,.T.);
#232 = ORIENTED_EDGE('',*,*,#233,.T.);
#233 = EDGE_CURVE('',#99,#234,#236,.T.);
#234 = VERTEX_POINT('',#235);
#235 = CARTESIAN_POINT('',(38.,20.2,25.));
#236 = LINE('',#237,#238);
#237 = CARTESIAN_POINT('',(38.,20.2,-23.));
#238 = VECTOR('',#239,1.);
#239 = DIRECTION('',(0.,0.,1.));
#240 = ORIENTED_EDGE('',*,*,#241,.F.);
#241 = EDGE_CURVE('',#56,#234,#242,.T.);
#242 = LINE('',#243,#244);
#243 = CARTESIAN_POINT('',(38.,-20.2,25.));
#244 = VECTOR('',#245,1.);
#245 = DIRECTION('',(0.,1.,0.));
#246 = FACE_BOUND('',#247,.T.);
#247 = EDGE_LOOP('',(#248));
#248 = ORIENTED_EDGE('',*,*,#249,.T.);
#249 = EDGE_CURVE('',#250,#250,#252,.T.);
#250 = VERTEX_POINT('',#251);
#251 = CARTESIAN_POINT('',(38.,14.5,-18.7272));
#252 = CIRCLE('',#253,1.7272);
#253 = AXIS2_PLACEMENT_3D('',#254,#255,#256);
#254 = CARTESIAN_POINT('',(38.,14.5,-17.));
#255 = DIRECTION('',(-1.,0.,0.));
#256 = DIRECTION('',(0.,0.,-1.));
#257 = FACE_BOUND('',#258,.T.);
#258 = EDGE_LOOP('',(#259));
#259 = ORIENTED_EDGE('',*,*,#260,.T.);
#260 = EDGE_CURVE('',#261,#261,#263,.T.);
#261 = VERTEX_POINT('',#262);
#262 = CARTESIAN_POINT('',(38.,14.5,15.2728));
#263 = CIRCLE('',#264,1.7272);
#264 = AXIS2_PLACEMENT_3D('',#265,#266,#267);
#265 = CARTESIAN_POINT('',(38.,14.5,17.));
#266 = DIRECTION('',(-1.,0.,0.));
#267 = DIRECTION('',(0.,0.,-1.));
#268 = FACE_BOUND('',#269,.T.);
#269 = EDGE_LOOP('',(#270));
#270 = ORIENTED_EDGE('',*,*,#271,.T.);
#271 = EDGE_CURVE('',#272,#272,#274,.T.);
#272 = VERTEX_POINT('',#273);
#273 = CARTESIAN_POINT('',(38.,-14.5,-18.7272));
#274 = CIRCLE('',#275,1.7272);
#275 = AXIS2_PLACEMENT_3D('',#276,#277,#278);
#276 = CARTESIAN_POINT('',(38.,-14.5,-17.));
#277 = DIRECTION('',(-1.,0.,0.));
#278 = DIRECTION('',(0.,0.,-1.));
#279 = FACE_BOUND('',#280,.T.);
#280 = EDGE_LOOP('',(#281));
#281 = ORIENTED_EDGE('',*,*,#282,.F.);
#282 = EDGE_CURVE('',#283,#283,#285,.T.);
#283 = VERTEX_POINT('',#284);
#284 = CARTESIAN_POINT('',(38.,-2.84217094304E-14,15.2));
#285 = CIRCLE('',#286,15.2);
#286 = AXIS2_PLACEMENT_3D('',#287,#288,#289);
#287 = CARTESIAN_POINT('',(38.,0.,0.));
#288 = DIRECTION('',(1.,0.,-0.));
#289 = DIRECTION('',(0.,0.,1.));
#290 = FACE_BOUND('',#291,.T.);
#291 = EDGE_LOOP('',(#292));
#292 = ORIENTED_EDGE('',*,*,#293,.T.);
#293 = EDGE_CURVE('',#294,#294,#296,.T.);
#294 = VERTEX_POINT('',#295);
#295 = CARTESIAN_POINT('',(38.,-14.5,15.2728));
#296 = CIRCLE('',#297,1.7272);
#297 = AXIS2_PLACEMENT_3D('',#298,#299,#300);
#298 = CARTESIAN_POINT('',(38.,-14.5,17.));
#299 = DIRECTION('',(-1.,0.,0.));
#300 = DIRECTION('',(0.,0.,-1.));
#301 = PLANE('',#302);
#302 = AXIS2_PLACEMENT_3D('',#303,#304,#305);
#303 = CARTESIAN_POINT('',(38.,-20.2,-23.));
#304 = DIRECTION('',(1.,0.,0.));
#305 = DIRECTION('',(0.,0.,1.));
#306 = ADVANCED_FACE('',(#307,#325,#361),#397,.T.);
#307 = FACE_BOUND('',#308,.T.);
#308 = EDGE_LOOP('',(#309,#317,#323,#324));
#309 = ORIENTED_EDGE('',*,*,#310,.F.);
#310 = EDGE_CURVE('',#311,#40,#313,.T.);
#311 = VERTEX_POINT('',#312);
#312 = CARTESIAN_POINT('',(-38.,-45.2,-13.));
#313 = LINE('',#314,#315);
#314 = CARTESIAN_POINT('',(-38.,-45.2,-13.));
#315 = VECTOR('',#316,1.);
#316 = DIRECTION('',(0.,1.,0.));
#317 = ORIENTED_EDGE('',*,*,#318,.T.);
#318 = EDGE_CURVE('',#311,#208,#319,.T.);
#319 = LINE('',#320,#321);
#320 = CARTESIAN_POINT('',(-38.,-45.2,-13.));
#321 = VECTOR('',#322,1.);
#322 = DIRECTION('',(1.,0.,0.));
#323 = ORIENTED_EDGE('',*,*,#217,.T.);
#324 = ORIENTED_EDGE('',*,*,#39,.F.);
#325 = FACE_BOUND('',#326,.T.);
#326 = EDGE_LOOP('',(#327,#338,#346,#355));
#327 = ORIENTED_EDGE('',*,*,#328,.F.);
#328 = EDGE_CURVE('',#329,#331,#333,.T.);
#329 = VERTEX_POINT('',#330);
#330 = CARTESIAN_POINT('',(-32.1844,-40.05,-13.));
#331 = VERTEX_POINT('',#332);
#332 = CARTESIAN_POINT('',(-27.8156,-40.05,-13.));
#333 = CIRCLE('',#334,2.1844);
#334 = AXIS2_PLACEMENT_3D('',#335,#336,#337);
#335 = CARTESIAN_POINT('',(-30.,-40.05,-13.));
#336 = DIRECTION('',(0.,0.,1.));
#337 = DIRECTION('',(1.,0.,0.));
#338 = ORIENTED_EDGE('',*,*,#339,.T.);
#339 = EDGE_CURVE('',#329,#340,#342,.T.);
#340 = VERTEX_POINT('',#341);
#341 = CARTESIAN_POINT('',(-32.1844,-27.35,-13.));
#342 = LINE('',#343,#344);
#343 = CARTESIAN_POINT('',(-32.1844,-42.625,-13.));
#344 = VECTOR('',#345,1.);
#345 = DIRECTION('',(0.,1.,0.));
#346 = ORIENTED_EDGE('',*,*,#347,.F.);
#347 = EDGE_CURVE('',#348,#340,#350,.T.);
#348 = VERTEX_POINT('',#349);
#349 = CARTESIAN_POINT('',(-27.8156,-27.35,-13.));
#350 = CIRCLE('',#351,2.1844);
#351 = AXIS2_PLACEMENT_3D('',#352,#353,#354);
#352 = CARTESIAN_POINT('',(-30.,-27.35,-13.));
#353 = DIRECTION('',(0.,0.,1.));
#354 = DIRECTION('',(1.,0.,0.));
#355 = ORIENTED_EDGE('',*,*,#356,.F.);
#356 = EDGE_CURVE('',#331,#348,#357,.T.);
#357 = LINE('',#358,#359);
#358 = CARTESIAN_POINT('',(-27.8156,-42.625,-13.));
#359 = VECTOR('',#360,1.);
#360 = DIRECTION('',(0.,1.,0.));
#361 = FACE_BOUND('',#362,.T.);
#362 = EDGE_LOOP('',(#363,#374,#382,#391));
#363 = ORIENTED_EDGE('',*,*,#364,.F.);
#364 = EDGE_CURVE('',#365,#367,#369,.T.);
#365 = VERTEX_POINT('',#366);
#366 = CARTESIAN_POINT('',(-2.1844,-40.05,-13.));
#367 = VERTEX_POINT('',#368);
#368 = CARTESIAN_POINT('',(2.1844,-40.05,-13.));
#369 = CIRCLE('',#370,2.1844);
#370 = AXIS2_PLACEMENT_3D('',#371,#372,#373);
#371 = CARTESIAN_POINT('',(0.,-40.05,-13.));
#372 = DIRECTION('',(0.,0.,1.));
#373 = DIRECTION('',(1.,0.,0.));
#374 = ORIENTED_EDGE('',*,*,#375,.T.);
#375 = EDGE_CURVE('',#365,#376,#378,.T.);
#376 = VERTEX_POINT('',#377);
#377 = CARTESIAN_POINT('',(-2.1844,-27.35,-13.));
#378 = LINE('',#379,#380);
#379 = CARTESIAN_POINT('',(-2.1844,-42.625,-13.));
#380 = VECTOR('',#381,1.);
#381 = DIRECTION('',(0.,1.,0.));
#382 = ORIENTED_EDGE('',*,*,#383,.F.);
#383 = EDGE_CURVE('',#384,#376,#386,.T.);
#384 = VERTEX_POINT('',#385);
#385 = CARTESIAN_POINT('',(2.1844,-27.35,-13.));
#386 = CIRCLE('',#387,2.1844);
#387 = AXIS2_PLACEMENT_3D('',#388,#389,#390);
#388 = CARTESIAN_POINT('',(0.,-27.35,-13.));
#389 = DIRECTION('',(0.,0.,1.));
#390 = DIRECTION('',(1.,0.,0.));
#391 = ORIENTED_EDGE('',*,*,#392,.F.);
#392 = EDGE_CURVE('',#367,#384,#393,.T.);
#393 = LINE('',#394,#395);
#394 = CARTESIAN_POINT('',(2.1844,-42.625,-13.));
#395 = VECTOR('',#396,1.);
#396 = DIRECTION('',(0.,1.,0.));
#397 = PLANE('',#398);
#398 = AXIS2_PLACEMENT_3D('',#399,#400,#401);
#399 = CARTESIAN_POINT('',(-38.,-45.2,-13.));
#400 = DIRECTION('',(0.,0.,1.));
#401 = DIRECTION('',(1.,0.,0.));
#402 = ADVANCED_FACE('',(#403,#421),#432,.T.);
#403 = FACE_BOUND('',#404,.T.);
#404 = EDGE_LOOP('',(#405,#413,#414,#415));
#405 = ORIENTED_EDGE('',*,*,#406,.F.);
#406 = EDGE_CURVE('',#48,#407,#409,.T.);
#407 = VERTEX_POINT('',#408);
#408 = CARTESIAN_POINT('',(-38.,20.2,25.));
#409 = LINE('',#410,#411);
#410 = CARTESIAN_POINT('',(-38.,-20.2,25.));
#411 = VECTOR('',#412,1.);
#412 = DIRECTION('',(0.,1.,0.));
#413 = ORIENTED_EDGE('',*,*,#55,.T.);
#414 = ORIENTED_EDGE('',*,*,#241,.T.);
#415 = ORIENTED_EDGE('',*,*,#416,.F.);
#416 = EDGE_CURVE('',#407,#234,#417,.T.);
#417 = LINE('',#418,#419);
#418 = CARTESIAN_POINT('',(-38.,20.2,25.));
#419 = VECTOR('',#420,1.);
#420 = DIRECTION('',(1.,0.,0.));
#421 = FACE_BOUND('',#422,.T.);
#422 = EDGE_LOOP('',(#423));
#423 = ORIENTED_EDGE('',*,*,#424,.F.);
#424 = EDGE_CURVE('',#425,#425,#427,.T.);
#425 = VERTEX_POINT('',#426);
#426 = CARTESIAN_POINT('',(6.,0.,25.));
#427 = CIRCLE('',#428,6.);
#428 = AXIS2_PLACEMENT_3D('',#429,#430,#431);
#429 = CARTESIAN_POINT('',(0.,0.,25.));
#430 = DIRECTION('',(0.,0.,1.));
#431 = DIRECTION('',(1.,0.,0.));
#432 = PLANE('',#433);
#433 = AXIS2_PLACEMENT_3D('',#434,#435,#436);
#434 = CARTESIAN_POINT('',(-38.,-20.2,25.));
#435 = DIRECTION('',(0.,0.,1.));
#436 = DIRECTION('',(1.,0.,0.));
#437 = ADVANCED_FACE('',(#438,#456,#467,#478,#489,#500),#511,.T.);
#438 = FACE_BOUND('',#439,.T.);
#439 = EDGE_LOOP('',(#440,#441,#442,#448,#449,#455));
#440 = ORIENTED_EDGE('',*,*,#47,.T.);
#441 = ORIENTED_EDGE('',*,*,#406,.T.);
#442 = ORIENTED_EDGE('',*,*,#443,.F.);
#443 = EDGE_CURVE('',#91,#407,#444,.T.);
#444 = LINE('',#445,#446);
#445 = CARTESIAN_POINT('',(-38.,20.2,-23.));
#446 = VECTOR('',#447,1.);
#447 = DIRECTION('',(0.,0.,1.));
#448 = ORIENTED_EDGE('',*,*,#88,.F.);
#449 = ORIENTED_EDGE('',*,*,#450,.T.);
#450 = EDGE_CURVE('',#89,#311,#451,.T.);
#451 = LINE('',#452,#453);
#452 = CARTESIAN_POINT('',(-38.,-45.2,-23.));
#453 = VECTOR('',#454,1.);
#454 = DIRECTION('',(0.,0.,1.));
#455 = ORIENTED_EDGE('',*,*,#310,.T.);
#456 = FACE_BOUND('',#457,.T.);
#457 = EDGE_LOOP('',(#458));
#458 = ORIENTED_EDGE('',*,*,#459,.T.);
#459 = EDGE_CURVE('',#460,#460,#462,.T.);
#460 = VERTEX_POINT('',#461);
#461 = CARTESIAN_POINT('',(-38.,14.5,18.7272));
#462 = CIRCLE('',#463,1.7272);
#463 = AXIS2_PLACEMENT_3D('',#464,#465,#466);
#464 = CARTESIAN_POINT('',(-38.,14.5,17.));
#465 = DIRECTION('',(1.,0.,-0.));
#466 = DIRECTION('',(0.,0.,1.));
#467 = FACE_BOUND('',#468,.T.);
#468 = EDGE_LOOP('',(#469));
#469 = ORIENTED_EDGE('',*,*,#470,.T.);
#470 = EDGE_CURVE('',#471,#471,#473,.T.);
#471 = VERTEX_POINT('',#472);
#472 = CARTESIAN_POINT('',(-38.,14.5,-15.2728));
#473 = CIRCLE('',#474,1.7272);
#474 = AXIS2_PLACEMENT_3D('',#475,#476,#477);
#475 = CARTESIAN_POINT('',(-38.,14.5,-17.));
#476 = DIRECTION('',(1.,0.,-0.));
#477 = DIRECTION('',(0.,0.,1.));
#478 = FACE_BOUND('',#479,.T.);
#479 = EDGE_LOOP('',(#480));
#480 = ORIENTED_EDGE('',*,*,#481,.T.);
#481 = EDGE_CURVE('',#482,#482,#484,.T.);
#482 = VERTEX_POINT('',#483);
#483 = CARTESIAN_POINT('',(-38.,-14.5,18.7272));
#484 = CIRCLE('',#485,1.7272);
#485 = AXIS2_PLACEMENT_3D('',#486,#487,#488);
#486 = CARTESIAN_POINT('',(-38.,-14.5,17.));
#487 = DIRECTION('',(1.,0.,-0.));
#488 = DIRECTION('',(0.,0.,1.));
#489 = FACE_BOUND('',#490,.T.);
#490 = EDGE_LOOP('',(#491));
#491 = ORIENTED_EDGE('',*,*,#492,.T.);
#492 = EDGE_CURVE('',#493,#493,#495,.T.);
#493 = VERTEX_POINT('',#494);
#494 = CARTESIAN_POINT('',(-38.,0.,15.2));
#495 = CIRCLE('',#496,15.2);
#496 = AXIS2_PLACEMENT_3D('',#497,#498,#499);
#497 = CARTESIAN_POINT('',(-38.,0.,0.));
#498 = DIRECTION('',(1.,0.,-0.));
#499 = DIRECTION('',(0.,0.,1.));
#500 = FACE_BOUND('',#501,.T.);
#501 = EDGE_LOOP('',(#502));
#502 = ORIENTED_EDGE('',*,*,#503,.T.);
#503 = EDGE_CURVE('',#504,#504,#506,.T.);
#504 = VERTEX_POINT('',#505);
#505 = CARTESIAN_POINT('',(-38.,-14.5,-15.2728));
#506 = CIRCLE('',#507,1.7272);
#507 = AXIS2_PLACEMENT_3D('',#508,#509,#510);
#508 = CARTESIAN_POINT('',(-38.,-14.5,-17.));
#509 = DIRECTION('',(1.,0.,-0.));
#510 = DIRECTION('',(0.,0.,1.));
#511 = PLANE('',#512);
#512 = AXIS2_PLACEMENT_3D('',#513,#514,#515);
#513 = CARTESIAN_POINT('',(-38.,-8.311287477954,-3.188712522046));
#514 = DIRECTION('',(-1.,-0.,-0.));
#515 = DIRECTION('',(0.,0.,-1.));
#516 = ADVANCED_FACE('',(#517),#636,.F.);
#517 = FACE_BOUND('',#518,.F.);
#518 = EDGE_LOOP('',(#519,#628,#634,#635));
#519 = ORIENTED_EDGE('',*,*,#520,.F.);
#520 = EDGE_CURVE('',#521,#521,#523,.T.);
#521 = VERTEX_POINT('',#522);
#522 = CARTESIAN_POINT('',(18.,-10.48999523355,11.));
#523 = B_SPLINE_CURVE_WITH_KNOTS('',7,(#524,#525,#526,#527,#528,#529,
    #530,#531,#532,#533,#534,#535,#536,#537,#538,#539,#540,#541,#542,
    #543,#544,#545,#546,#547,#548,#549,#550,#551,#552,#553,#554,#555,
    #556,#557,#558,#559,#560,#561,#562,#563,#564,#565,#566,#567,#568,
    #569,#570,#571,#572,#573,#574,#575,#576,#577,#578,#579,#580,#581,
    #582,#583,#584,#585,#586,#587,#588,#589,#590,#591,#592,#593,#594,
    #595,#596,#597,#598,#599,#600,#601,#602,#603,#604,#605,#606,#607,
    #608,#609,#610,#611,#612,#613,#614,#615,#616,#617,#618,#619,#620,
    #621,#622,#623,#624,#625,#626,#627),.UNSPECIFIED.,.T.,.F.,(8,6,6,6,6
    ,6,6,6,6,6,6,6,6,6,6,6,6,8),(0.,6.547713839828E-02,0.151063828138,
    0.213823070842,0.282593196342,0.316793827306,0.365044294987,
    0.423734954184,0.499967208274,0.554044709555,0.607453795807,
    0.65029865916,0.68417011966,0.731615633459,0.785996082235,
    0.850360407612,0.908055211693,1.),.UNSPECIFIED.);
#524 = CARTESIAN_POINT('',(18.,-10.48999523355,11.));
#525 = CARTESIAN_POINT('',(18.174042123775,-10.48999523355,11.));
#526 = CARTESIAN_POINT('',(18.347629826041,-10.50234733481,
    10.98822046088));
#527 = CARTESIAN_POINT('',(18.519623736782,-10.52693708161,
    10.964771238984));
#528 = CARTESIAN_POINT('',(18.688876494631,-10.5632906025,
    10.929935811416));
#529 = CARTESIAN_POINT('',(18.854239917513,-10.61058087105,
    10.884179402975));
#530 = CARTESIAN_POINT('',(19.014576817434,-10.66765224904,
    10.828191398823));
#531 = CARTESIAN_POINT('',(19.370336703146,-10.81856363341,
    10.677699235371));
#532 = CARTESIAN_POINT('',(19.561833698763,-10.91849149239,
    10.576468927036));
#533 = CARTESIAN_POINT('',(19.742712830906,-11.03057822736,
    10.460518657547));
#534 = CARTESIAN_POINT('',(19.912417274711,-11.15274190202,
    10.330841645197));
#535 = CARTESIAN_POINT('',(20.070346799715,-11.28310317141,
    10.188270275499));
#536 = CARTESIAN_POINT('',(20.215817485226,-11.41997923837,
    10.033535745018));
#537 = CARTESIAN_POINT('',(20.444967624318,-11.66589160915,
    9.745391555195));
#538 = CARTESIAN_POINT('',(20.534900534877,-11.77274643605,9.6171493069)
  );
#539 = CARTESIAN_POINT('',(20.617500624515,-11.88186684111,
    9.482761707677));
#540 = CARTESIAN_POINT('',(20.692382382372,-11.99273544233,
    9.342408651228));
#541 = CARTESIAN_POINT('',(20.759087057638,-12.10485640091,
    9.196273825167));
#542 = CARTESIAN_POINT('',(20.817072589819,-12.2177438351,9.044567249528
    ));
#543 = CARTESIAN_POINT('',(20.918990349812,-12.45492170346,
    8.715498033587));
#544 = CARTESIAN_POINT('',(20.961169160939,-12.57955895231,
    8.536667147889));
#545 = CARTESIAN_POINT('',(20.991115383118,-12.70374150042,
    8.351974802856));
#546 = CARTESIAN_POINT('',(21.007821431818,-12.82643732332,
    8.162461648913));
#547 = CARTESIAN_POINT('',(21.010390432079,-12.94669858509,
    7.969296509208));
#548 = CARTESIAN_POINT('',(20.998033679809,-13.06368359866,
    7.773772521932));
#549 = CARTESIAN_POINT('',(20.956164611859,-13.23285725698,
    7.479585116844));
#550 = CARTESIAN_POINT('',(20.938415873733,-13.28798634053,
    7.381761411645));
#551 = CARTESIAN_POINT('',(20.916774707363,-13.34190589987,
    7.284111602544));
#552 = CARTESIAN_POINT('',(20.89122327475,-13.39448622452,7.186921217725
    ));
#553 = CARTESIAN_POINT('',(20.861776168988,-13.44561624522,
    7.090473200447));
#554 = CARTESIAN_POINT('',(20.828480631955,-13.49520249171,
    6.995046209887));
#555 = CARTESIAN_POINT('',(20.73912684263,-13.61083816581,6.768109080743
    ));
#556 = CARTESIAN_POINT('',(20.679390247576,-13.67521324573,
    6.638016277432));
#557 = CARTESIAN_POINT('',(20.612443807796,-13.73611001198,
    6.511347743875));
#558 = CARTESIAN_POINT('',(20.538638552332,-13.79340972404,
    6.388785195935));
#559 = CARTESIAN_POINT('',(20.458437966145,-13.84705053142,
    6.270960889651));
#560 = CARTESIAN_POINT('',(20.372416237952,-13.89701982588,
    6.158439677377));
#561 = CARTESIAN_POINT('',(20.170372098114,-13.99969731269,5.92186689053
    ));
#562 = CARTESIAN_POINT('',(20.051930587546,-14.0506354067,5.800640995784
    ));
#563 = CARTESIAN_POINT('',(19.926777217056,-14.09642281926,
    5.688409884179));
#564 = CARTESIAN_POINT('',(19.79577341662,-14.13732209531,5.585486286746
    ));
#565 = CARTESIAN_POINT('',(19.659796713637,-14.17359000381,
    5.492102457023));
#566 = CARTESIAN_POINT('',(19.519740641076,-14.20547116019,
    5.408403467042));
#567 = CARTESIAN_POINT('',(19.190480945751,-14.26919729917,
    5.238371324301));
#568 = CARTESIAN_POINT('',(18.998880405334,-14.29822652847,
    5.158614342406));
#569 = CARTESIAN_POINT('',(18.803057913253,-14.32086943272,
    5.095027007592));
#570 = CARTESIAN_POINT('',(18.604204380851,-14.33755916551,
    5.047466885249));
#571 = CARTESIAN_POINT('',(18.403401806984,-14.34858425034,
    5.015816101987));
#572 = CARTESIAN_POINT('',(18.201667863334,-14.35409349279,5.));
#573 = CARTESIAN_POINT('',(17.856941208573,-14.35409349279,5.));
#574 = CARTESIAN_POINT('',(17.713872235805,-14.35132123209,
    5.007958997589));
#575 = CARTESIAN_POINT('',(17.571140955078,-14.34577563454,
    5.023878768676));
#576 = CARTESIAN_POINT('',(17.429098571321,-14.33741938513,5.04777857239
    ));
#577 = CARTESIAN_POINT('',(17.288108512879,-14.32617815719,
    5.079692576854));
#578 = CARTESIAN_POINT('',(17.148555323382,-14.31193983973,
    5.119667284968));
#579 = CARTESIAN_POINT('',(16.874853821308,-14.27738258688,
    5.215256207077));
#580 = CARTESIAN_POINT('',(16.740600905571,-14.25713344988,
    5.270691380485));
#581 = CARTESIAN_POINT('',(16.608594412281,-14.23366829677,
    5.334097576183));
#582 = CARTESIAN_POINT('',(16.479354266652,-14.20682402454,
    5.405482114536));
#583 = CARTESIAN_POINT('',(16.353421066127,-14.17641239472,
    5.484826087069));
#584 = CARTESIAN_POINT('',(16.231356433264,-14.14221994402,
    5.572083903041));
#585 = CARTESIAN_POINT('',(16.019393960357,-14.07335412181,
    5.743471368076));
#586 = CARTESIAN_POINT('',(15.927885662571,-14.04010578454,
    5.824825318541));
#587 = CARTESIAN_POINT('',(15.839659401593,-14.00418224634,
    5.911100659332));
#588 = CARTESIAN_POINT('',(15.755126115455,-13.96550854941,
    6.002112316906));
#589 = CARTESIAN_POINT('',(15.674666842432,-13.92401878889,
    6.097638174245));
#590 = CARTESIAN_POINT('',(15.598632809585,-13.87965948661,
    6.197423072848));
#591 = CARTESIAN_POINT('',(15.470988600554,-13.79502591556,
    6.383211177579));
#592 = CARTESIAN_POINT('',(15.417616276109,-13.75585383694,
    6.467697641224));
#593 = CARTESIAN_POINT('',(15.367429833077,-13.71489098956,
    6.554431444495));
#594 = CARTESIAN_POINT('',(15.32059970833,-13.67216409217,6.643185180079
    ));
#595 = CARTESIAN_POINT('',(15.277265714739,-13.62771405166,
    6.733717169331));
#596 = CARTESIAN_POINT('',(15.237537265402,-13.58159769294,6.82577383711
    ));
#597 = CARTESIAN_POINT('',(15.151005360869,-13.46706212975,
    7.049807805059));
#598 = CARTESIAN_POINT('',(15.107795953371,-13.39717644242,
    7.182872342969));
#599 = CARTESIAN_POINT('',(15.072041750152,-13.32442664773,
    7.317592512655));
#600 = CARTESIAN_POINT('',(15.043811500219,-13.2490675984,7.453253993696
    ));
#601 = CARTESIAN_POINT('',(15.023065984024,-13.17141552174,
    7.589133453798));
#602 = CARTESIAN_POINT('',(15.009657670668,-13.09184876239,
    7.724510669666));
#603 = CARTESIAN_POINT('',(14.99607824221,-12.91792293638,8.012461754725
    ));
#604 = CARTESIAN_POINT('',(14.998130032045,-12.82312080581,
    8.164624426243));
#605 = CARTESIAN_POINT('',(15.009069745962,-12.72678540935,
    8.314571374464));
#606 = CARTESIAN_POINT('',(15.028460244886,-12.62933259279,
    8.461761267383));
#607 = CARTESIAN_POINT('',(15.055841963656,-12.5312064455,8.605704269048
    ));
#608 = CARTESIAN_POINT('',(15.090731625348,-12.43287497444,
    8.745957579664));
#609 = CARTESIAN_POINT('',(15.182200878962,-12.218775423,9.043283035294)
  );
#610 = CARTESIAN_POINT('',(15.241633583125,-12.10300943395,
    9.198869574117));
#611 = CARTESIAN_POINT('',(15.31023127568,-11.98804924002,9.348597254746
    ));
#612 = CARTESIAN_POINT('',(15.387410832067,-11.87441799609,
    9.492240974867));
#613 = CARTESIAN_POINT('',(15.472681064983,-11.7626503322,9.629603835228
    ));
#614 = CARTESIAN_POINT('',(15.565631012178,-11.65330556394,
    9.760491766915));
#615 = CARTESIAN_POINT('',(15.755815466553,-11.45168031465,
    9.996023982606));
#616 = CARTESIAN_POINT('',(15.851650777387,-11.35876036383,
    10.102035446394));
#617 = CARTESIAN_POINT('',(15.953190188326,-11.26866010433,
    10.202565600028));
#618 = CARTESIAN_POINT('',(16.06023531312,-11.18185189118,
    10.297432281904));
#619 = CARTESIAN_POINT('',(16.172615827504,-11.09885050915,
    10.386423895246));
#620 = CARTESIAN_POINT('',(16.290180930638,-11.02021884064,
    10.469290525237));
#621 = CARTESIAN_POINT('',(16.60818689573,-10.82920937432,
    10.667560172405));
#622 = CARTESIAN_POINT('',(16.818117665317,-10.72347419037,
    10.774148709375));
#623 = CARTESIAN_POINT('',(17.040306676571,-10.63353378069,
    10.862458306538));
#624 = CARTESIAN_POINT('',(17.272172137729,-10.56297716842,
    10.930401231831));
#625 = CARTESIAN_POINT('',(17.511114965992,-10.51455516144,
    10.976578897779));
#626 = CARTESIAN_POINT('',(17.754591061376,-10.48999523355,11.));
#627 = CARTESIAN_POINT('',(18.,-10.48999523355,11.));
#628 = ORIENTED_EDGE('',*,*,#629,.F.);
#629 = EDGE_CURVE('',#72,#521,#630,.T.);
#630 = LINE('',#631,#632);
#631 = CARTESIAN_POINT('',(18.,-21.2,11.));
#632 = VECTOR('',#633,1.);
#633 = DIRECTION('',(0.,1.,0.));
#634 = ORIENTED_EDGE('',*,*,#71,.T.);
#635 = ORIENTED_EDGE('',*,*,#629,.T.);
#636 = CYLINDRICAL_SURFACE('',#637,3.);
#637 = AXIS2_PLACEMENT_3D('',#638,#639,#640);
#638 = CARTESIAN_POINT('',(18.,-21.2,8.));
#639 = DIRECTION('',(0.,1.,0.));
#640 = DIRECTION('',(0.,0.,1.));
#641 = ADVANCED_FACE('',(#642),#648,.F.);
#642 = FACE_BOUND('',#643,.F.);
#643 = EDGE_LOOP('',(#644,#645,#646,#647));
#644 = ORIENTED_EDGE('',*,*,#121,.F.);
#645 = ORIENTED_EDGE('',*,*,#450,.T.);
#646 = ORIENTED_EDGE('',*,*,#318,.T.);
#647 = ORIENTED_EDGE('',*,*,#207,.F.);
#648 = PLANE('',#649);
#649 = AXIS2_PLACEMENT_3D('',#650,#651,#652);
#650 = CARTESIAN_POINT('',(-38.,-45.2,-23.));
#651 = DIRECTION('',(0.,1.,0.));
#652 = DIRECTION('',(0.,0.,1.));
#653 = ADVANCED_FACE('',(#654),#660,.T.);
#654 = FACE_BOUND('',#655,.T.);
#655 = EDGE_LOOP('',(#656,#657,#658,#659));
#656 = ORIENTED_EDGE('',*,*,#98,.F.);
#657 = ORIENTED_EDGE('',*,*,#443,.T.);
#658 = ORIENTED_EDGE('',*,*,#416,.T.);
#659 = ORIENTED_EDGE('',*,*,#233,.F.);
#660 = PLANE('',#661);
#661 = AXIS2_PLACEMENT_3D('',#662,#663,#664);
#662 = CARTESIAN_POINT('',(-38.,20.2,-23.));
#663 = DIRECTION('',(0.,1.,0.));
#664 = DIRECTION('',(0.,0.,1.));
#665 = ADVANCED_FACE('',(#666),#682,.F.);
#666 = FACE_BOUND('',#667,.F.);
#667 = EDGE_LOOP('',(#668,#669,#675,#676));
#668 = ORIENTED_EDGE('',*,*,#383,.F.);
#669 = ORIENTED_EDGE('',*,*,#670,.F.);
#670 = EDGE_CURVE('',#130,#384,#671,.T.);
#671 = LINE('',#672,#673);
#672 = CARTESIAN_POINT('',(2.1844,-27.35,-24.));
#673 = VECTOR('',#674,1.);
#674 = DIRECTION('',(0.,0.,1.));
#675 = ORIENTED_EDGE('',*,*,#129,.T.);
#676 = ORIENTED_EDGE('',*,*,#677,.T.);
#677 = EDGE_CURVE('',#132,#376,#678,.T.);
#678 = LINE('',#679,#680);
#679 = CARTESIAN_POINT('',(-2.1844,-27.35,-24.));
#680 = VECTOR('',#681,1.);
#681 = DIRECTION('',(0.,0.,1.));
#682 = CYLINDRICAL_SURFACE('',#683,2.1844);
#683 = AXIS2_PLACEMENT_3D('',#684,#685,#686);
#684 = CARTESIAN_POINT('',(0.,-27.35,-24.));
#685 = DIRECTION('',(0.,0.,1.));
#686 = DIRECTION('',(1.,0.,0.));
#687 = ADVANCED_FACE('',(#688),#699,.F.);
#688 = FACE_BOUND('',#689,.F.);
#689 = EDGE_LOOP('',(#690,#696,#697,#698));
#690 = ORIENTED_EDGE('',*,*,#691,.F.);
#691 = EDGE_CURVE('',#149,#367,#692,.T.);
#692 = LINE('',#693,#694);
#693 = CARTESIAN_POINT('',(2.1844,-40.05,-24.));
#694 = VECTOR('',#695,1.);
#695 = DIRECTION('',(0.,0.,1.));
#696 = ORIENTED_EDGE('',*,*,#157,.F.);
#697 = ORIENTED_EDGE('',*,*,#670,.T.);
#698 = ORIENTED_EDGE('',*,*,#392,.F.);
#699 = PLANE('',#700);
#700 = AXIS2_PLACEMENT_3D('',#701,#702,#703);
#701 = CARTESIAN_POINT('',(2.1844,-40.05,-24.));
#702 = DIRECTION('',(1.,0.,0.));
#703 = DIRECTION('',(0.,0.,1.));
#704 = ADVANCED_FACE('',(#705),#716,.F.);
#705 = FACE_BOUND('',#706,.F.);
#706 = EDGE_LOOP('',(#707,#708,#709,#710));
#707 = ORIENTED_EDGE('',*,*,#148,.T.);
#708 = ORIENTED_EDGE('',*,*,#691,.T.);
#709 = ORIENTED_EDGE('',*,*,#364,.F.);
#710 = ORIENTED_EDGE('',*,*,#711,.F.);
#711 = EDGE_CURVE('',#141,#365,#712,.T.);
#712 = LINE('',#713,#714);
#713 = CARTESIAN_POINT('',(-2.1844,-40.05,-24.));
#714 = VECTOR('',#715,1.);
#715 = DIRECTION('',(0.,0.,1.));
#716 = CYLINDRICAL_SURFACE('',#717,2.1844);
#717 = AXIS2_PLACEMENT_3D('',#718,#719,#720);
#718 = CARTESIAN_POINT('',(0.,-40.05,-24.));
#719 = DIRECTION('',(0.,0.,1.));
#720 = DIRECTION('',(1.,0.,0.));
#721 = ADVANCED_FACE('',(#722),#728,.T.);
#722 = FACE_BOUND('',#723,.T.);
#723 = EDGE_LOOP('',(#724,#725,#726,#727));
#724 = ORIENTED_EDGE('',*,*,#711,.F.);
#725 = ORIENTED_EDGE('',*,*,#140,.F.);
#726 = ORIENTED_EDGE('',*,*,#677,.T.);
#727 = ORIENTED_EDGE('',*,*,#375,.F.);
#728 = PLANE('',#729);
#729 = AXIS2_PLACEMENT_3D('',#730,#731,#732);
#730 = CARTESIAN_POINT('',(-2.1844,-40.05,-24.));
#731 = DIRECTION('',(1.,0.,0.));
#732 = DIRECTION('',(0.,0.,1.));
#733 = ADVANCED_FACE('',(#734),#750,.F.);
#734 = FACE_BOUND('',#735,.F.);
#735 = EDGE_LOOP('',(#736,#737,#743,#744));
#736 = ORIENTED_EDGE('',*,*,#347,.F.);
#737 = ORIENTED_EDGE('',*,*,#738,.F.);
#738 = EDGE_CURVE('',#166,#348,#739,.T.);
#739 = LINE('',#740,#741);
#740 = CARTESIAN_POINT('',(-27.8156,-27.35,-24.));
#741 = VECTOR('',#742,1.);
#742 = DIRECTION('',(0.,0.,1.));
#743 = ORIENTED_EDGE('',*,*,#165,.T.);
#744 = ORIENTED_EDGE('',*,*,#745,.T.);
#745 = EDGE_CURVE('',#168,#340,#746,.T.);
#746 = LINE('',#747,#748);
#747 = CARTESIAN_POINT('',(-32.1844,-27.35,-24.));
#748 = VECTOR('',#749,1.);
#749 = DIRECTION('',(0.,0.,1.));
#750 = CYLINDRICAL_SURFACE('',#751,2.1844);
#751 = AXIS2_PLACEMENT_3D('',#752,#753,#754);
#752 = CARTESIAN_POINT('',(-30.,-27.35,-24.));
#753 = DIRECTION('',(0.,0.,1.));
#754 = DIRECTION('',(1.,0.,0.));
#755 = ADVANCED_FACE('',(#756),#767,.F.);
#756 = FACE_BOUND('',#757,.F.);
#757 = EDGE_LOOP('',(#758,#764,#765,#766));
#758 = ORIENTED_EDGE('',*,*,#759,.F.);
#759 = EDGE_CURVE('',#185,#331,#760,.T.);
#760 = LINE('',#761,#762);
#761 = CARTESIAN_POINT('',(-27.8156,-40.05,-24.));
#762 = VECTOR('',#763,1.);
#763 = DIRECTION('',(0.,0.,1.));
#764 = ORIENTED_EDGE('',*,*,#193,.F.);
#765 = ORIENTED_EDGE('',*,*,#738,.T.);
#766 = ORIENTED_EDGE('',*,*,#356,.F.);
#767 = PLANE('',#768);
#768 = AXIS2_PLACEMENT_3D('',#769,#770,#771);
#769 = CARTESIAN_POINT('',(-27.8156,-40.05,-24.));
#770 = DIRECTION('',(1.,0.,0.));
#771 = DIRECTION('',(0.,0.,1.));
#772 = ADVANCED_FACE('',(#773),#784,.T.);
#773 = FACE_BOUND('',#774,.T.);
#774 = EDGE_LOOP('',(#775,#781,#782,#783));
#775 = ORIENTED_EDGE('',*,*,#776,.F.);
#776 = EDGE_CURVE('',#177,#329,#777,.T.);
#777 = LINE('',#778,#779);
#778 = CARTESIAN_POINT('',(-32.1844,-40.05,-24.));
#779 = VECTOR('',#780,1.);
#780 = DIRECTION('',(0.,0.,1.));
#781 = ORIENTED_EDGE('',*,*,#176,.F.);
#782 = ORIENTED_EDGE('',*,*,#745,.T.);
#783 = ORIENTED_EDGE('',*,*,#339,.F.);
#784 = PLANE('',#785);
#785 = AXIS2_PLACEMENT_3D('',#786,#787,#788);
#786 = CARTESIAN_POINT('',(-32.1844,-40.05,-24.));
#787 = DIRECTION('',(1.,0.,0.));
#788 = DIRECTION('',(0.,0.,1.));
#789 = ADVANCED_FACE('',(#790),#796,.F.);
#790 = FACE_BOUND('',#791,.F.);
#791 = EDGE_LOOP('',(#792,#793,#794,#795));
#792 = ORIENTED_EDGE('',*,*,#184,.T.);
#793 = ORIENTED_EDGE('',*,*,#759,.T.);
#794 = ORIENTED_EDGE('',*,*,#328,.F.);
#795 = ORIENTED_EDGE('',*,*,#776,.F.);
#796 = CYLINDRICAL_SURFACE('',#797,2.1844);
#797 = AXIS2_PLACEMENT_3D('',#798,#799,#800);
#798 = CARTESIAN_POINT('',(-30.,-40.05,-24.));
#799 = DIRECTION('',(0.,0.,1.));
#800 = DIRECTION('',(1.,0.,0.));
#801 = ADVANCED_FACE('',(#802),#821,.F.);
#802 = FACE_BOUND('',#803,.F.);
#803 = EDGE_LOOP('',(#804,#813,#819,#820));
#804 = ORIENTED_EDGE('',*,*,#805,.F.);
#805 = EDGE_CURVE('',#806,#806,#808,.T.);
#806 = VERTEX_POINT('',#807);
#807 = CARTESIAN_POINT('',(22.,14.5,-18.7272));
#808 = CIRCLE('',#809,1.7272);
#809 = AXIS2_PLACEMENT_3D('',#810,#811,#812);
#810 = CARTESIAN_POINT('',(22.,14.5,-17.));
#811 = DIRECTION('',(-1.,0.,0.));
#812 = DIRECTION('',(0.,0.,-1.));
#813 = ORIENTED_EDGE('',*,*,#814,.F.);
#814 = EDGE_CURVE('',#250,#806,#815,.T.);
#815 = LINE('',#816,#817);
#816 = CARTESIAN_POINT('',(38.,14.5,-18.7272));
#817 = VECTOR('',#818,1.);
#818 = DIRECTION('',(-1.,0.,0.));
#819 = ORIENTED_EDGE('',*,*,#249,.T.);
#820 = ORIENTED_EDGE('',*,*,#814,.T.);
#821 = CYLINDRICAL_SURFACE('',#822,1.7272);
#822 = AXIS2_PLACEMENT_3D('',#823,#824,#825);
#823 = CARTESIAN_POINT('',(38.,14.5,-17.));
#824 = DIRECTION('',(-1.,0.,0.));
#825 = DIRECTION('',(0.,0.,-1.));
#826 = ADVANCED_FACE('',(#827),#846,.F.);
#827 = FACE_BOUND('',#828,.F.);
#828 = EDGE_LOOP('',(#829,#838,#844,#845));
#829 = ORIENTED_EDGE('',*,*,#830,.F.);
#830 = EDGE_CURVE('',#831,#831,#833,.T.);
#831 = VERTEX_POINT('',#832);
#832 = CARTESIAN_POINT('',(22.,14.5,15.2728));
#833 = CIRCLE('',#834,1.7272);
#834 = AXIS2_PLACEMENT_3D('',#835,#836,#837);
#835 = CARTESIAN_POINT('',(22.,14.5,17.));
#836 = DIRECTION('',(-1.,0.,0.));
#837 = DIRECTION('',(0.,0.,-1.));
#838 = ORIENTED_EDGE('',*,*,#839,.F.);
#839 = EDGE_CURVE('',#261,#831,#840,.T.);
#840 = LINE('',#841,#842);
#841 = CARTESIAN_POINT('',(38.,14.5,15.2728));
#842 = VECTOR('',#843,1.);
#843 = DIRECTION('',(-1.,0.,0.));
#844 = ORIENTED_EDGE('',*,*,#260,.T.);
#845 = ORIENTED_EDGE('',*,*,#839,.T.);
#846 = CYLINDRICAL_SURFACE('',#847,1.7272);
#847 = AXIS2_PLACEMENT_3D('',#848,#849,#850);
#848 = CARTESIAN_POINT('',(38.,14.5,17.));
#849 = DIRECTION('',(-1.,0.,0.));
#850 = DIRECTION('',(0.,0.,-1.));
#851 = ADVANCED_FACE('',(#852),#871,.F.);
#852 = FACE_BOUND('',#853,.F.);
#853 = EDGE_LOOP('',(#854,#863,#869,#870));
#854 = ORIENTED_EDGE('',*,*,#855,.F.);
#855 = EDGE_CURVE('',#856,#856,#858,.T.);
#856 = VERTEX_POINT('',#857);
#857 = CARTESIAN_POINT('',(22.,-14.5,-18.7272));
#858 = CIRCLE('',#859,1.7272);
#859 = AXIS2_PLACEMENT_3D('',#860,#861,#862);
#860 = CARTESIAN_POINT('',(22.,-14.5,-17.));
#861 = DIRECTION('',(-1.,0.,0.));
#862 = DIRECTION('',(0.,0.,-1.));
#863 = ORIENTED_EDGE('',*,*,#864,.F.);
#864 = EDGE_CURVE('',#272,#856,#865,.T.);
#865 = LINE('',#866,#867);
#866 = CARTESIAN_POINT('',(38.,-14.5,-18.7272));
#867 = VECTOR('',#868,1.);
#868 = DIRECTION('',(-1.,0.,0.));
#869 = ORIENTED_EDGE('',*,*,#271,.T.);
#870 = ORIENTED_EDGE('',*,*,#864,.T.);
#871 = CYLINDRICAL_SURFACE('',#872,1.7272);
#872 = AXIS2_PLACEMENT_3D('',#873,#874,#875);
#873 = CARTESIAN_POINT('',(38.,-14.5,-17.));
#874 = DIRECTION('',(-1.,0.,0.));
#875 = DIRECTION('',(0.,0.,-1.));
#876 = ADVANCED_FACE('',(#877,#1029),#1032,.F.);
#877 = FACE_BOUND('',#878,.F.);
#878 = EDGE_LOOP('',(#879,#948,#954,#955,#956,#1021,#1027,#1028));
#879 = ORIENTED_EDGE('',*,*,#880,.F.);
#880 = EDGE_CURVE('',#881,#883,#885,.T.);
#881 = VERTEX_POINT('',#882);
#882 = CARTESIAN_POINT('',(6.,0.,15.2));
#883 = VERTEX_POINT('',#884);
#884 = CARTESIAN_POINT('',(-6.,0.,15.2));
#885 = B_SPLINE_CURVE_WITH_KNOTS('',7,(#886,#887,#888,#889,#890,#891,
    #892,#893,#894,#895,#896,#897,#898,#899,#900,#901,#902,#903,#904,
    #905,#906,#907,#908,#909,#910,#911,#912,#913,#914,#915,#916,#917,
    #918,#919,#920,#921,#922,#923,#924,#925,#926,#927,#928,#929,#930,
    #931,#932,#933,#934,#935,#936,#937,#938,#939,#940,#941,#942,#943,
    #944,#945,#946,#947),.UNSPECIFIED.,.F.,.F.,(8,6,6,6,6,6,6,6,6,6,8),(
    0.,7.871423307181E-02,0.186507143319,0.236570221876,0.468003194544,
    0.501939552268,0.531045060862,0.760855039825,0.812339386288,
    0.875165132048,1.),.UNSPECIFIED.);
#886 = CARTESIAN_POINT('',(6.,1.13E-15,15.2));
#887 = CARTESIAN_POINT('',(6.,0.260662522776,15.2));
#888 = CARTESIAN_POINT('',(5.98678844965,0.520911040694,15.194784932218)
  );
#889 = CARTESIAN_POINT('',(5.960441060818,0.779242143835,15.184384587411
    ));
#890 = CARTESIAN_POINT('',(5.921306746315,1.034164185232,15.168997977039
    ));
#891 = CARTESIAN_POINT('',(5.870005145991,1.284221528071,15.148989670324
    ));
#892 = CARTESIAN_POINT('',(5.807429959937,1.528018342404,15.124871026178
    ));
#893 = CARTESIAN_POINT('',(5.635239714814,2.087731481665,15.059463860397
    ));
#894 = CARTESIAN_POINT('',(5.516790911144,2.397006196242,15.015125409585
    ));
#895 = CARTESIAN_POINT('',(5.381601729354,2.691405556575,14.965538805712
    ));
#896 = CARTESIAN_POINT('',(5.231713977128,2.97047530584,14.91198678301)
  );
#897 = CARTESIAN_POINT('',(5.069048194278,3.233939631513,14.855697665707
    ));
#898 = CARTESIAN_POINT('',(4.895425672225,3.481676472154,14.797809954912
    ));
#899 = CARTESIAN_POINT('',(4.627667677369,3.821454542125,14.712200183831
    ));
#900 = CARTESIAN_POINT('',(4.540678721248,3.925928010902,14.684899856063
    ));
#901 = CARTESIAN_POINT('',(4.451747820059,4.027153875497,14.657539951733
    ));
#902 = CARTESIAN_POINT('',(4.360993877917,4.125170414902,14.630205204474
    ));
#903 = CARTESIAN_POINT('',(4.268525531552,4.220016686319,14.602974954954
    ));
#904 = CARTESIAN_POINT('',(4.174441150318,4.311732525163,14.57592315088)
  );
#905 = CARTESIAN_POINT('',(3.636829607988,4.810061340659,14.425204364407
    ));
#906 = CARTESIAN_POINT('',(3.161115674232,5.154716456535,14.306272651801
    ));
#907 = CARTESIAN_POINT('',(2.661059644,5.436837934134,14.199433962861));
#908 = CARTESIAN_POINT('',(2.143303407107,5.658794106151,14.109930591143
    ));
#909 = CARTESIAN_POINT('',(1.61283782858,5.822344920969,14.041438506372)
  );
#910 = CARTESIAN_POINT('',(1.07372084984,5.928367759201,13.996328290841)
  );
#911 = CARTESIAN_POINT('',(0.449782394464,5.983653771516,13.972685735799
    ));
#912 = CARTESIAN_POINT('',(0.369915002237,5.989478103042,13.970190077021
    ));
#913 = CARTESIAN_POINT('',(0.289987678555,5.994057096253,13.968225167994
    ));
#914 = CARTESIAN_POINT('',(0.210016466323,5.997391116711,13.966793155328
    ));
#915 = CARTESIAN_POINT('',(0.130017421585,5.999480396843,13.9658954163)
  );
#916 = CARTESIAN_POINT('',(5.000661353295E-02,6.000325035939,
    13.965532558862));
#917 = CARTESIAN_POINT('',(-9.861742052653E-02,5.999581909564,
    13.965851819702));
#918 = CARTESIAN_POINT('',(-0.167231802822,5.998323282863,
    13.966392537731));
#919 = CARTESIAN_POINT('',(-0.235832882849,5.996149106555,
    13.967326468835));
#920 = CARTESIAN_POINT('',(-0.304410527247,5.993059294723,
    13.968653090119));
#921 = CARTESIAN_POINT('',(-0.372954608837,5.989053689023,
    13.970371462681));
#922 = CARTESIAN_POINT('',(-0.441455006619,5.984132058688,
    13.972480231616));
#923 = CARTESIAN_POINT('',(-1.050339216066,5.932199010413,
    13.994696441505));
#924 = CARTESIAN_POINT('',(-1.585980313744,5.829101094526,
    14.038590485439));
#925 = CARTESIAN_POINT('',(-2.113247671111,5.669274418103,
    14.105608977732));
#926 = CARTESIAN_POINT('',(-2.628154128929,5.451886482114,
    14.193465689694));
#927 = CARTESIAN_POINT('',(-3.125826091832,5.175256854872,
    14.298598118528));
#928 = CARTESIAN_POINT('',(-3.599818908622,4.837116568157,
    14.415929242267));
#929 = CARTESIAN_POINT('',(-4.139954206401,4.344958727014,14.56606339316
    ));
#930 = CARTESIAN_POINT('',(-4.237223448482,4.251624208214,
    14.593823576997));
#931 = CARTESIAN_POINT('',(-4.332809191512,4.154989091461,
    14.621792013556));
#932 = CARTESIAN_POINT('',(-4.426606444189,4.05501007036,14.649889334372
    ));
#933 = CARTESIAN_POINT('',(-4.51849883319,3.95164459194,14.678030189119)
  );
#934 = CARTESIAN_POINT('',(-4.608358603168,3.844850856658,
    14.706123245616));
#935 = CARTESIAN_POINT('',(-4.803051274006,3.600035122592,
    14.768175739215));
#936 = CARTESIAN_POINT('',(-4.906844528882,3.460288137448,
    14.802071219272));
#937 = CARTESIAN_POINT('',(-5.007145049039,3.315300328234,
    14.835572277687));
#938 = CARTESIAN_POINT('',(-5.103648484828,3.165037491842,
    14.868478802195));
#939 = CARTESIAN_POINT('',(-5.196027101616,3.009478057883,
    14.900577071892));
#940 = CARTESIAN_POINT('',(-5.283929412103,2.84861338979,14.93164090856)
  );
#941 = CARTESIAN_POINT('',(-5.532001093468,2.352277333195,
    15.020629424586));
#942 = CARTESIAN_POINT('',(-5.679356276753,1.99819726971,15.075338636538
    ));
#943 = CARTESIAN_POINT('',(-5.803543281337,1.623413820565,
    15.122845512368));
#944 = CARTESIAN_POINT('',(-5.900287606514,1.231759007399,
    15.160639171881));
#945 = CARTESIAN_POINT('',(-5.96645263559,0.827537228971,15.186757919339
    ));
#946 = CARTESIAN_POINT('',(-6.,0.415364407393,15.2));
#947 = CARTESIAN_POINT('',(-6.,2.96E-15,15.2));
#948 = ORIENTED_EDGE('',*,*,#949,.T.);
#949 = EDGE_CURVE('',#881,#283,#950,.T.);
#950 = LINE('',#951,#952);
#951 = CARTESIAN_POINT('',(-39.,3.72E-15,15.2));
#952 = VECTOR('',#953,1.);
#953 = DIRECTION('',(1.,0.,0.));
#954 = ORIENTED_EDGE('',*,*,#282,.F.);
#955 = ORIENTED_EDGE('',*,*,#949,.F.);
#956 = ORIENTED_EDGE('',*,*,#957,.F.);
#957 = EDGE_CURVE('',#883,#881,#958,.T.);
#958 = B_SPLINE_CURVE_WITH_KNOTS('',7,(#959,#960,#961,#962,#963,#964,
    #965,#966,#967,#968,#969,#970,#971,#972,#973,#974,#975,#976,#977,
    #978,#979,#980,#981,#982,#983,#984,#985,#986,#987,#988,#989,#990,
    #991,#992,#993,#994,#995,#996,#997,#998,#999,#1000,#1001,#1002,#1003
    ,#1004,#1005,#1006,#1007,#1008,#1009,#1010,#1011,#1012,#1013,#1014,
    #1015,#1016,#1017,#1018,#1019,#1020),.UNSPECIFIED.,.F.,.F.,(8,6,6,6,
    6,6,6,6,6,6,8),(0.,7.871423307181E-02,0.186507143319,0.236570221876,
    0.468003194545,0.501939552269,0.531045060863,0.760855039826,
    0.81233938629,0.87516513205,1.),.UNSPECIFIED.);
#959 = CARTESIAN_POINT('',(-6.,8.9E-16,15.2));
#960 = CARTESIAN_POINT('',(-6.,-0.260662522776,15.2));
#961 = CARTESIAN_POINT('',(-5.98678844965,-0.520911040694,
    15.194784932218));
#962 = CARTESIAN_POINT('',(-5.960441060818,-0.779242143835,
    15.184384587411));
#963 = CARTESIAN_POINT('',(-5.921306746315,-1.034164185232,
    15.168997977039));
#964 = CARTESIAN_POINT('',(-5.870005145991,-1.284221528071,
    15.148989670324));
#965 = CARTESIAN_POINT('',(-5.807429959937,-1.528018342404,
    15.124871026178));
#966 = CARTESIAN_POINT('',(-5.635239714814,-2.087731481666,
    15.059463860397));
#967 = CARTESIAN_POINT('',(-5.516790911144,-2.397006196241,
    15.015125409585));
#968 = CARTESIAN_POINT('',(-5.381601729354,-2.691405556575,
    14.965538805712));
#969 = CARTESIAN_POINT('',(-5.231713977128,-2.97047530584,14.91198678301
    ));
#970 = CARTESIAN_POINT('',(-5.069048194278,-3.233939631512,
    14.855697665707));
#971 = CARTESIAN_POINT('',(-4.895425672224,-3.481676472154,
    14.797809954912));
#972 = CARTESIAN_POINT('',(-4.627667677369,-3.821454542125,
    14.712200183831));
#973 = CARTESIAN_POINT('',(-4.540678721248,-3.925928010902,
    14.684899856063));
#974 = CARTESIAN_POINT('',(-4.451747820059,-4.027153875497,
    14.657539951733));
#975 = CARTESIAN_POINT('',(-4.360993877917,-4.125170414902,
    14.630205204474));
#976 = CARTESIAN_POINT('',(-4.268525531552,-4.220016686319,
    14.602974954954));
#977 = CARTESIAN_POINT('',(-4.174441150318,-4.311732525163,
    14.57592315088));
#978 = CARTESIAN_POINT('',(-3.636829607987,-4.81006134066,
    14.425204364406));
#979 = CARTESIAN_POINT('',(-3.161115674236,-5.154716456533,
    14.306272651802));
#980 = CARTESIAN_POINT('',(-2.661059643993,-5.436837934136,
    14.19943396286));
#981 = CARTESIAN_POINT('',(-2.143303407114,-5.65879410615,
    14.109930591144));
#982 = CARTESIAN_POINT('',(-1.612837828576,-5.822344920969,
    14.041438506371));
#983 = CARTESIAN_POINT('',(-1.073720849841,-5.928367759201,
    13.996328290841));
#984 = CARTESIAN_POINT('',(-0.449782394464,-5.983653771516,
    13.972685735799));
#985 = CARTESIAN_POINT('',(-0.369915002237,-5.989478103042,
    13.970190077021));
#986 = CARTESIAN_POINT('',(-0.289987678555,-5.994057096253,
    13.968225167994));
#987 = CARTESIAN_POINT('',(-0.210016466323,-5.997391116711,
    13.966793155328));
#988 = CARTESIAN_POINT('',(-0.130017421585,-5.999480396843,13.9658954163
    ));
#989 = CARTESIAN_POINT('',(-5.000661353296E-02,-6.000325035939,
    13.965532558862));
#990 = CARTESIAN_POINT('',(9.861742052652E-02,-5.999581909564,
    13.965851819702));
#991 = CARTESIAN_POINT('',(0.167231802822,-5.998323282863,
    13.966392537731));
#992 = CARTESIAN_POINT('',(0.235832882849,-5.996149106555,
    13.967326468835));
#993 = CARTESIAN_POINT('',(0.304410527247,-5.993059294723,
    13.968653090119));
#994 = CARTESIAN_POINT('',(0.372954608837,-5.989053689023,
    13.970371462681));
#995 = CARTESIAN_POINT('',(0.441455006619,-5.984132058688,
    13.972480231616));
#996 = CARTESIAN_POINT('',(1.050339216066,-5.932199010413,
    13.994696441505));
#997 = CARTESIAN_POINT('',(1.585980313745,-5.829101094526,
    14.038590485439));
#998 = CARTESIAN_POINT('',(2.113247671113,-5.669274418102,
    14.105608977732));
#999 = CARTESIAN_POINT('',(2.628154128926,-5.451886482116,
    14.193465689694));
#1000 = CARTESIAN_POINT('',(3.125826091833,-5.175256854871,
    14.298598118528));
#1001 = CARTESIAN_POINT('',(3.599818908621,-4.837116568157,
    14.415929242267));
#1002 = CARTESIAN_POINT('',(4.139954206401,-4.344958727014,
    14.56606339316));
#1003 = CARTESIAN_POINT('',(4.237223448482,-4.251624208214,
    14.593823576997));
#1004 = CARTESIAN_POINT('',(4.332809191512,-4.154989091461,
    14.621792013556));
#1005 = CARTESIAN_POINT('',(4.426606444189,-4.055010070359,
    14.649889334372));
#1006 = CARTESIAN_POINT('',(4.51849883319,-3.95164459194,14.678030189119
    ));
#1007 = CARTESIAN_POINT('',(4.608358603168,-3.844850856658,
    14.706123245616));
#1008 = CARTESIAN_POINT('',(4.803051274006,-3.600035122592,
    14.768175739215));
#1009 = CARTESIAN_POINT('',(4.906844528882,-3.460288137448,
    14.802071219272));
#1010 = CARTESIAN_POINT('',(5.007145049039,-3.315300328234,
    14.835572277687));
#1011 = CARTESIAN_POINT('',(5.103648484828,-3.165037491842,
    14.868478802195));
#1012 = CARTESIAN_POINT('',(5.196027101616,-3.009478057883,
    14.900577071892));
#1013 = CARTESIAN_POINT('',(5.283929412103,-2.84861338979,14.93164090856
    ));
#1014 = CARTESIAN_POINT('',(5.532001093465,-2.352277333201,
    15.020629424585));
#1015 = CARTESIAN_POINT('',(5.679356276754,-1.99819726971,
    15.075338636538));
#1016 = CARTESIAN_POINT('',(5.803543281339,-1.62341382056,
    15.122845512369));
#1017 = CARTESIAN_POINT('',(5.900287606515,-1.231759007394,
    15.160639171881));
#1018 = CARTESIAN_POINT('',(5.966452635589,-0.827537228971,
    15.186757919339));
#1019 = CARTESIAN_POINT('',(6.,-0.415364407399,15.2));
#1020 = CARTESIAN_POINT('',(6.,-8.9E-16,15.2));
#1021 = ORIENTED_EDGE('',*,*,#1022,.F.);
#1022 = EDGE_CURVE('',#493,#883,#1023,.T.);
#1023 = LINE('',#1024,#1025);
#1024 = CARTESIAN_POINT('',(-39.,3.72E-15,15.2));
#1025 = VECTOR('',#1026,1.);
#1026 = DIRECTION('',(1.,0.,0.));
#1027 = ORIENTED_EDGE('',*,*,#492,.T.);
#1028 = ORIENTED_EDGE('',*,*,#1022,.T.);
#1029 = FACE_BOUND('',#1030,.F.);
#1030 = EDGE_LOOP('',(#1031));
#1031 = ORIENTED_EDGE('',*,*,#520,.T.);
#1032 = CYLINDRICAL_SURFACE('',#1033,15.2);
#1033 = AXIS2_PLACEMENT_3D('',#1034,#1035,#1036);
#1034 = CARTESIAN_POINT('',(-39.,0.,0.));
#1035 = DIRECTION('',(1.,0.,0.));
#1036 = DIRECTION('',(0.,0.,1.));
#1037 = ADVANCED_FACE('',(#1038),#1057,.F.);
#1038 = FACE_BOUND('',#1039,.F.);
#1039 = EDGE_LOOP('',(#1040,#1049,#1055,#1056));
#1040 = ORIENTED_EDGE('',*,*,#1041,.F.);
#1041 = EDGE_CURVE('',#1042,#1042,#1044,.T.);
#1042 = VERTEX_POINT('',#1043);
#1043 = CARTESIAN_POINT('',(22.,-14.5,15.2728));
#1044 = CIRCLE('',#1045,1.7272);
#1045 = AXIS2_PLACEMENT_3D('',#1046,#1047,#1048);
#1046 = CARTESIAN_POINT('',(22.,-14.5,17.));
#1047 = DIRECTION('',(-1.,0.,0.));
#1048 = DIRECTION('',(0.,0.,-1.));
#1049 = ORIENTED_EDGE('',*,*,#1050,.F.);
#1050 = EDGE_CURVE('',#294,#1042,#1051,.T.);
#1051 = LINE('',#1052,#1053);
#1052 = CARTESIAN_POINT('',(38.,-14.5,15.2728));
#1053 = VECTOR('',#1054,1.);
#1054 = DIRECTION('',(-1.,0.,0.));
#1055 = ORIENTED_EDGE('',*,*,#293,.T.);
#1056 = ORIENTED_EDGE('',*,*,#1050,.T.);
#1057 = CYLINDRICAL_SURFACE('',#1058,1.7272);
#1058 = AXIS2_PLACEMENT_3D('',#1059,#1060,#1061);
#1059 = CARTESIAN_POINT('',(38.,-14.5,17.));
#1060 = DIRECTION('',(-1.,0.,0.));
#1061 = DIRECTION('',(0.,0.,-1.));
#1062 = ADVANCED_FACE('',(#1063),#1075,.F.);
#1063 = FACE_BOUND('',#1064,.F.);
#1064 = EDGE_LOOP('',(#1065,#1066,#1072,#1073,#1074));
#1065 = ORIENTED_EDGE('',*,*,#424,.F.);
#1066 = ORIENTED_EDGE('',*,*,#1067,.F.);
#1067 = EDGE_CURVE('',#881,#425,#1068,.T.);
#1068 = LINE('',#1069,#1070);
#1069 = CARTESIAN_POINT('',(6.,-1.47E-15,0.));
#1070 = VECTOR('',#1071,1.);
#1071 = DIRECTION('',(0.,0.,1.));
#1072 = ORIENTED_EDGE('',*,*,#880,.T.);
#1073 = ORIENTED_EDGE('',*,*,#957,.T.);
#1074 = ORIENTED_EDGE('',*,*,#1067,.T.);
#1075 = CYLINDRICAL_SURFACE('',#1076,6.);
#1076 = AXIS2_PLACEMENT_3D('',#1077,#1078,#1079);
#1077 = CARTESIAN_POINT('',(0.,0.,0.));
#1078 = DIRECTION('',(0.,0.,1.));
#1079 = DIRECTION('',(1.,0.,0.));
#1080 = ADVANCED_FACE('',(#1081),#1100,.F.);
#1081 = FACE_BOUND('',#1082,.F.);
#1082 = EDGE_LOOP('',(#1083,#1092,#1098,#1099));
#1083 = ORIENTED_EDGE('',*,*,#1084,.F.);
#1084 = EDGE_CURVE('',#1085,#1085,#1087,.T.);
#1085 = VERTEX_POINT('',#1086);
#1086 = CARTESIAN_POINT('',(-22.,14.5,18.7272));
#1087 = CIRCLE('',#1088,1.7272);
#1088 = AXIS2_PLACEMENT_3D('',#1089,#1090,#1091);
#1089 = CARTESIAN_POINT('',(-22.,14.5,17.));
#1090 = DIRECTION('',(1.,0.,-0.));
#1091 = DIRECTION('',(0.,0.,1.));
#1092 = ORIENTED_EDGE('',*,*,#1093,.F.);
#1093 = EDGE_CURVE('',#460,#1085,#1094,.T.);
#1094 = LINE('',#1095,#1096);
#1095 = CARTESIAN_POINT('',(-38.,14.5,18.7272));
#1096 = VECTOR('',#1097,1.);
#1097 = DIRECTION('',(1.,0.,0.));
#1098 = ORIENTED_EDGE('',*,*,#459,.T.);
#1099 = ORIENTED_EDGE('',*,*,#1093,.T.);
#1100 = CYLINDRICAL_SURFACE('',#1101,1.7272);
#1101 = AXIS2_PLACEMENT_3D('',#1102,#1103,#1104);
#1102 = CARTESIAN_POINT('',(-38.,14.5,17.));
#1103 = DIRECTION('',(1.,0.,0.));
#1104 = DIRECTION('',(0.,0.,1.));
#1105 = ADVANCED_FACE('',(#1106),#1125,.F.);
#1106 = FACE_BOUND('',#1107,.F.);
#1107 = EDGE_LOOP('',(#1108,#1117,#1123,#1124));
#1108 = ORIENTED_EDGE('',*,*,#1109,.F.);
#1109 = EDGE_CURVE('',#1110,#1110,#1112,.T.);
#1110 = VERTEX_POINT('',#1111);
#1111 = CARTESIAN_POINT('',(-22.,14.5,-15.2728));
#1112 = CIRCLE('',#1113,1.7272);
#1113 = AXIS2_PLACEMENT_3D('',#1114,#1115,#1116);
#1114 = CARTESIAN_POINT('',(-22.,14.5,-17.));
#1115 = DIRECTION('',(1.,0.,-0.));
#1116 = DIRECTION('',(0.,0.,1.));
#1117 = ORIENTED_EDGE('',*,*,#1118,.F.);
#1118 = EDGE_CURVE('',#471,#1110,#1119,.T.);
#1119 = LINE('',#1120,#1121);
#1120 = CARTESIAN_POINT('',(-38.,14.5,-15.2728));
#1121 = VECTOR('',#1122,1.);
#1122 = DIRECTION('',(1.,0.,0.));
#1123 = ORIENTED_EDGE('',*,*,#470,.T.);
#1124 = ORIENTED_EDGE('',*,*,#1118,.T.);
#1125 = CYLINDRICAL_SURFACE('',#1126,1.7272);
#1126 = AXIS2_PLACEMENT_3D('',#1127,#1128,#1129);
#1127 = CARTESIAN_POINT('',(-38.,14.5,-17.));
#1128 = DIRECTION('',(1.,0.,0.));
#1129 = DIRECTION('',(0.,0.,1.));
#1130 = ADVANCED_FACE('',(#1131),#1150,.F.);
#1131 = FACE_BOUND('',#1132,.F.);
#1132 = EDGE_LOOP('',(#1133,#1142,#1148,#1149));
#1133 = ORIENTED_EDGE('',*,*,#1134,.F.);
#1134 = EDGE_CURVE('',#1135,#1135,#1137,.T.);
#1135 = VERTEX_POINT('',#1136);
#1136 = CARTESIAN_POINT('',(-22.,-14.5,18.7272));
#1137 = CIRCLE('',#1138,1.7272);
#1138 = AXIS2_PLACEMENT_3D('',#1139,#1140,#1141);
#1139 = CARTESIAN_POINT('',(-22.,-14.5,17.));
#1140 = DIRECTION('',(1.,0.,-0.));
#1141 = DIRECTION('',(0.,0.,1.));
#1142 = ORIENTED_EDGE('',*,*,#1143,.F.);
#1143 = EDGE_CURVE('',#482,#1135,#1144,.T.);
#1144 = LINE('',#1145,#1146);
#1145 = CARTESIAN_POINT('',(-38.,-14.5,18.7272));
#1146 = VECTOR('',#1147,1.);
#1147 = DIRECTION('',(1.,0.,0.));
#1148 = ORIENTED_EDGE('',*,*,#481,.T.);
#1149 = ORIENTED_EDGE('',*,*,#1143,.T.);
#1150 = CYLINDRICAL_SURFACE('',#1151,1.7272);
#1151 = AXIS2_PLACEMENT_3D('',#1152,#1153,#1154);
#1152 = CARTESIAN_POINT('',(-38.,-14.5,17.));
#1153 = DIRECTION('',(1.,0.,0.));
#1154 = DIRECTION('',(0.,0.,1.));
#1155 = ADVANCED_FACE('',(#1156),#1175,.F.);
#1156 = FACE_BOUND('',#1157,.F.);
#1157 = EDGE_LOOP('',(#1158,#1167,#1173,#1174));
#1158 = ORIENTED_EDGE('',*,*,#1159,.F.);
#1159 = EDGE_CURVE('',#1160,#1160,#1162,.T.);
#1160 = VERTEX_POINT('',#1161);
#1161 = CARTESIAN_POINT('',(-22.,-14.5,-15.2728));
#1162 = CIRCLE('',#1163,1.7272);
#1163 = AXIS2_PLACEMENT_3D('',#1164,#1165,#1166);
#1164 = CARTESIAN_POINT('',(-22.,-14.5,-17.));
#1165 = DIRECTION('',(1.,0.,-0.));
#1166 = DIRECTION('',(0.,0.,1.));
#1167 = ORIENTED_EDGE('',*,*,#1168,.F.);
#1168 = EDGE_CURVE('',#504,#1160,#1169,.T.);
#1169 = LINE('',#1170,#1171);
#1170 = CARTESIAN_POINT('',(-38.,-14.5,-15.2728));
#1171 = VECTOR('',#1172,1.);
#1172 = DIRECTION('',(1.,0.,0.));
#1173 = ORIENTED_EDGE('',*,*,#503,.T.);
#1174 = ORIENTED_EDGE('',*,*,#1168,.T.);
#1175 = CYLINDRICAL_SURFACE('',#1176,1.7272);
#1176 = AXIS2_PLACEMENT_3D('',#1177,#1178,#1179);
#1177 = CARTESIAN_POINT('',(-38.,-14.5,-17.));
#1178 = DIRECTION('',(1.,0.,0.));
#1179 = DIRECTION('',(0.,0.,1.));
#1180 = ADVANCED_FACE('',(#1181),#1184,.F.);
#1181 = FACE_BOUND('',#1182,.F.);
#1182 = EDGE_LOOP('',(#1183));
#1183 = ORIENTED_EDGE('',*,*,#805,.T.);
#1184 = PLANE('',#1185);
#1185 = AXIS2_PLACEMENT_3D('',#1186,#1187,#1188);
#1186 = CARTESIAN_POINT('',(22.,14.5,-17.));
#1187 = DIRECTION('',(-1.,0.,0.));
#1188 = DIRECTION('',(0.,0.,-1.));
#1189 = ADVANCED_FACE('',(#1190),#1193,.F.);
#1190 = FACE_BOUND('',#1191,.F.);
#1191 = EDGE_LOOP('',(#1192));
#1192 = ORIENTED_EDGE('',*,*,#830,.T.);
#1193 = PLANE('',#1194);
#1194 = AXIS2_PLACEMENT_3D('',#1195,#1196,#1197);
#1195 = CARTESIAN_POINT('',(22.,14.5,17.));
#1196 = DIRECTION('',(-1.,0.,0.));
#1197 = DIRECTION('',(0.,0.,-1.));
#1198 = ADVANCED_FACE('',(#1199),#1202,.F.);
#1199 = FACE_BOUND('',#1200,.F.);
#1200 = EDGE_LOOP('',(#1201));
#1201 = ORIENTED_EDGE('',*,*,#855,.T.);
#1202 = PLANE('',#1203);
#1203 = AXIS2_PLACEMENT_3D('',#1204,#1205,#1206);
#1204 = CARTESIAN_POINT('',(22.,-14.5,-17.));
#1205 = DIRECTION('',(-1.,0.,0.));
#1206 = DIRECTION('',(0.,0.,-1.));
#1207 = ADVANCED_FACE('',(#1208),#1211,.F.);
#1208 = FACE_BOUND('',#1209,.F.);
#1209 = EDGE_LOOP('',(#1210));
#1210 = ORIENTED_EDGE('',*,*,#1041,.T.);
#1211 = PLANE('',#1212);
#1212 = AXIS2_PLACEMENT_3D('',#1213,#1214,#1215);
#1213 = CARTESIAN_POINT('',(22.,-14.5,17.));
#1214 = DIRECTION('',(-1.,0.,0.));
#1215 = DIRECTION('',(0.,0.,-1.));
#1216 = ADVANCED_FACE('',(#1217),#1220,.F.);
#1217 = FACE_BOUND('',#1218,.F.);
#1218 = EDGE_LOOP('',(#1219));
#1219 = ORIENTED_EDGE('',*,*,#1084,.T.);
#1220 = PLANE('',#1221);
#1221 = AXIS2_PLACEMENT_3D('',#1222,#1223,#1224);
#1222 = CARTESIAN_POINT('',(-22.,14.5,17.));
#1223 = DIRECTION('',(1.,0.,0.));
#1224 = DIRECTION('',(0.,0.,1.));
#1225 = ADVANCED_FACE('',(#1226),#1229,.F.);
#1226 = FACE_BOUND('',#1227,.F.);
#1227 = EDGE_LOOP('',(#1228));
#1228 = ORIENTED_EDGE('',*,*,#1109,.T.);
#1229 = PLANE('',#1230);
#1230 = AXIS2_PLACEMENT_3D('',#1231,#1232,#1233);
#1231 = CARTESIAN_POINT('',(-22.,14.5,-17.));
#1232 = DIRECTION('',(1.,0.,0.));
#1233 = DIRECTION('',(0.,0.,1.));
#1234 = ADVANCED_FACE('',(#1235),#1238,.F.);
#1235 = FACE_BOUND('',#1236,.F.);
#1236 = EDGE_LOOP('',(#1237));
#1237 = ORIENTED_EDGE('',*,*,#1134,.T.);
#1238 = PLANE('',#1239);
#1239 = AXIS2_PLACEMENT_3D('',#1240,#1241,#1242);
#1240 = CARTESIAN_POINT('',(-22.,-14.5,17.));
#1241 = DIRECTION('',(1.,0.,0.));
#1242 = DIRECTION('',(0.,0.,1.));
#1243 = ADVANCED_FACE('',(#1244),#1247,.F.);
#1244 = FACE_BOUND('',#1245,.F.);
#1245 = EDGE_LOOP('',(#1246));
#1246 = ORIENTED_EDGE('',*,*,#1159,.T.);
#1247 = PLANE('',#1248);
#1248 = AXIS2_PLACEMENT_3D('',#1249,#1250,#1251);
#1249 = CARTESIAN_POINT('',(-22.,-14.5,-17.));
#1250 = DIRECTION('',(1.,0.,0.));
#1251 = DIRECTION('',(0.,0.,1.));
#1252 = ( GEOMETRIC_REPRESENTATION_CONTEXT(3) 
GLOBAL_UNCERTAINTY_ASSIGNED_CONTEXT((#1256)) 
GLOBAL_UNIT_ASSIGNED_CONTEXT((#1253,#1254,#1255)) REPRESENTATION_CONTEXT
('Context #1','3D Context with UNIT and UNCERTAINTY') );
#1253 = ( LENGTH_UNIT() NAMED_UNIT(*) SI_UNIT(.MILLI.,.METRE.) );
#1254 = ( NAMED_UNIT(*) PLANE_ANGLE_UNIT() SI_UNIT($,.RADIAN.) );
#1255 = ( NAMED_UNIT(*) SI_UNIT($,.STERADIAN.) SOLID_ANGLE_UNIT() );
#1256 = UNCERTAINTY_MEASURE_WITH_UNIT(LENGTH_MEASURE(1.E-07),#1253,
  'distance_accuracy_value','confusion accuracy');
#1257 = PRODUCT_RELATED_PRODUCT_CATEGORY('part',$,(#7));
ENDSEC;
END-ISO-10303-21;
