ISO-10303-21;
HEADER;
FILE_DESCRIPTION(('FreeCAD Model'),'2;1');
FILE_NAME('Open CASCADE Shape Model','2026-10-07T22:49:34',('FreeCAD'),(
    'FreeCAD'),'Open CASCADE STEP processor 7.8','FreeCAD','Unknown');
FILE_SCHEMA(('AUTOMOTIVE_DESIGN { 1 0 10303 214 1 1 1 1 }'));
ENDSEC;
DATA;
#1 = APPLICATION_PROTOCOL_DEFINITION('international standard',
  'automotive_design',2000,#2);
#2 = APPLICATION_CONTEXT(
  'core data for automotive mechanical design processes');
#3 = SHAPE_DEFINITION_REPRESENTATION(#4,#10);
#4 = PRODUCT_DEFINITION_SHAPE('','',#5);
#5 = PRODUCT_DEFINITION('design','',#6,#9);
#6 = PRODUCT_DEFINITION_FORMATION('','',#7);
#7 = PRODUCT('Open CASCADE STEP translator 7.8 21',
  'Open CASCADE STEP translator 7.8 21','',(#8));
#8 = PRODUCT_CONTEXT('',#2,'mechanical');
#9 = PRODUCT_DEFINITION_CONTEXT('part definition',#2,'design');
#10 = ADVANCED_BREP_SHAPE_REPRESENTATION('',(#11,#15),#965);
#11 = AXIS2_PLACEMENT_3D('',#12,#13,#14);
#12 = CARTESIAN_POINT('',(0.,0.,0.));
#13 = DIRECTION('',(0.,0.,1.));
#14 = DIRECTION('',(1.,0.,-0.));
#15 = MANIFOLD_SOLID_BREP('',#16);
#16 = CLOSED_SHELL('',(#17,#105,#172,#228,#252,#276,#300,#325,#350,#408,
    #440,#464,#489,#506,#531,#555,#580,#597,#606,#615,#640,#665,#713,
    #795,#820,#903,#921,#930,#939));
#17 = ADVANCED_FACE('',(#18,#78,#89),#100,.F.);
#18 = FACE_BOUND('',#19,.F.);
#19 = EDGE_LOOP('',(#20,#30,#38,#46,#55,#64,#72));
#20 = ORIENTED_EDGE('',*,*,#21,.F.);
#21 = EDGE_CURVE('',#22,#24,#26,.T.);
#22 = VERTEX_POINT('',#23);
#23 = CARTESIAN_POINT('',(-38.,-20.2,24.));
#24 = VERTEX_POINT('',#25);
#25 = CARTESIAN_POINT('',(-38.,23.7,24.));
#26 = LINE('',#27,#28);
#27 = CARTESIAN_POINT('',(-38.,-20.2,24.));
#28 = VECTOR('',#29,1.);
#29 = DIRECTION('',(0.,1.,0.));
#30 = ORIENTED_EDGE('',*,*,#31,.F.);
#31 = EDGE_CURVE('',#32,#22,#34,.T.);
#32 = VERTEX_POINT('',#33);
#33 = CARTESIAN_POINT('',(-38.,-20.2,0.));
#34 = LINE('',#35,#36);
#35 = CARTESIAN_POINT('',(-38.,-20.2,0.));
#36 = VECTOR('',#37,1.);
#37 = DIRECTION('',(0.,0.,1.));
#38 = ORIENTED_EDGE('',*,*,#39,.T.);
#39 = EDGE_CURVE('',#32,#40,#42,.T.);
#40 = VERTEX_POINT('',#41);
#41 = CARTESIAN_POINT('',(-38.,-15.2,0.));
#42 = LINE('',#43,#44);
#43 = CARTESIAN_POINT('',(-38.,-20.2,0.));
#44 = VECTOR('',#45,1.);
#45 = DIRECTION('',(0.,1.,0.));
#46 = ORIENTED_EDGE('',*,*,#47,.F.);
#47 = EDGE_CURVE('',#48,#40,#50,.T.);
#48 = VERTEX_POINT('',#49);
#49 = CARTESIAN_POINT('',(-38.,0.,15.2));
#50 = CIRCLE('',#51,15.2);
#51 = AXIS2_PLACEMENT_3D('',#52,#53,#54);
#52 = CARTESIAN_POINT('',(-38.,0.,0.));
#53 = DIRECTION('',(1.,0.,-0.));
#54 = DIRECTION('',(0.,0.,1.));
#55 = ORIENTED_EDGE('',*,*,#56,.F.);
#56 = EDGE_CURVE('',#57,#48,#59,.T.);
#57 = VERTEX_POINT('',#58);
#58 = CARTESIAN_POINT('',(-38.,15.2,0.));
#59 = CIRCLE('',#60,15.2);
#60 = AXIS2_PLACEMENT_3D('',#61,#62,#63);
#61 = CARTESIAN_POINT('',(-38.,0.,0.));
#62 = DIRECTION('',(1.,0.,-0.));
#63 = DIRECTION('',(0.,0.,1.));
#64 = ORIENTED_EDGE('',*,*,#65,.T.);
#65 = EDGE_CURVE('',#57,#66,#68,.T.);
#66 = VERTEX_POINT('',#67);
#67 = CARTESIAN_POINT('',(-38.,23.7,0.));
#68 = LINE('',#69,#70);
#69 = CARTESIAN_POINT('',(-38.,-20.2,0.));
#70 = VECTOR('',#71,1.);
#71 = DIRECTION('',(0.,1.,0.));
#72 = ORIENTED_EDGE('',*,*,#73,.T.);
#73 = EDGE_CURVE('',#66,#24,#74,.T.);
#74 = LINE('',#75,#76);
#75 = CARTESIAN_POINT('',(-38.,23.7,0.));
#76 = VECTOR('',#77,1.);
#77 = DIRECTION('',(0.,0.,1.));
#78 = FACE_BOUND('',#79,.F.);
#79 = EDGE_LOOP('',(#80));
#80 = ORIENTED_EDGE('',*,*,#81,.F.);
#81 = EDGE_CURVE('',#82,#82,#84,.T.);
#82 = VERTEX_POINT('',#83);
#83 = CARTESIAN_POINT('',(-38.,17.,18.7272));
#84 = CIRCLE('',#85,1.7272);
#85 = AXIS2_PLACEMENT_3D('',#86,#87,#88);
#86 = CARTESIAN_POINT('',(-38.,17.,17.));
#87 = DIRECTION('',(1.,0.,-0.));
#88 = DIRECTION('',(0.,0.,1.));
#89 = FACE_BOUND('',#90,.F.);
#90 = EDGE_LOOP('',(#91));
#91 = ORIENTED_EDGE('',*,*,#92,.F.);
#92 = EDGE_CURVE('',#93,#93,#95,.T.);
#93 = VERTEX_POINT('',#94);
#94 = CARTESIAN_POINT('',(-38.,-14.5,18.7272));
#95 = CIRCLE('',#96,1.7272);
#96 = AXIS2_PLACEMENT_3D('',#97,#98,#99);
#97 = CARTESIAN_POINT('',(-38.,-14.5,17.));
#98 = DIRECTION('',(1.,0.,-0.));
#99 = DIRECTION('',(0.,0.,1.));
#100 = PLANE('',#101);
#101 = AXIS2_PLACEMENT_3D('',#102,#103,#104);
#102 = CARTESIAN_POINT('',(-38.,-20.2,0.));
#103 = DIRECTION('',(1.,0.,0.));
#104 = DIRECTION('',(0.,0.,1.));
#105 = ADVANCED_FACE('',(#106,#131),#167,.T.);
#106 = FACE_BOUND('',#107,.T.);
#107 = EDGE_LOOP('',(#108,#109,#117,#125));
#108 = ORIENTED_EDGE('',*,*,#21,.F.);
#109 = ORIENTED_EDGE('',*,*,#110,.T.);
#110 = EDGE_CURVE('',#22,#111,#113,.T.);
#111 = VERTEX_POINT('',#112);
#112 = CARTESIAN_POINT('',(44.,-20.2,24.));
#113 = LINE('',#114,#115);
#114 = CARTESIAN_POINT('',(-38.,-20.2,24.));
#115 = VECTOR('',#116,1.);
#116 = DIRECTION('',(1.,0.,0.));
#117 = ORIENTED_EDGE('',*,*,#118,.T.);
#118 = EDGE_CURVE('',#111,#119,#121,.T.);
#119 = VERTEX_POINT('',#120);
#120 = CARTESIAN_POINT('',(44.,23.7,24.));
#121 = LINE('',#122,#123);
#122 = CARTESIAN_POINT('',(44.,-20.2,24.));
#123 = VECTOR('',#124,1.);
#124 = DIRECTION('',(0.,1.,0.));
#125 = ORIENTED_EDGE('',*,*,#126,.F.);
#126 = EDGE_CURVE('',#24,#119,#127,.T.);
#127 = LINE('',#128,#129);
#128 = CARTESIAN_POINT('',(-38.,23.7,24.));
#129 = VECTOR('',#130,1.);
#130 = DIRECTION('',(1.,0.,0.));
#131 = FACE_BOUND('',#132,.T.);
#132 = EDGE_LOOP('',(#133,#144,#152,#161));
#133 = ORIENTED_EDGE('',*,*,#134,.F.);
#134 = EDGE_CURVE('',#135,#137,#139,.T.);
#135 = VERTEX_POINT('',#136);
#136 = CARTESIAN_POINT('',(35.05,0.5,24.));
#137 = VERTEX_POINT('',#138);
#138 = CARTESIAN_POINT('',(43.55,0.5,24.));
#139 = CIRCLE('',#140,4.25);
#140 = AXIS2_PLACEMENT_3D('',#141,#142,#143);
#141 = CARTESIAN_POINT('',(39.3,0.5,24.));
#142 = DIRECTION('',(0.,0.,1.));
#143 = DIRECTION('',(1.,0.,0.));
#144 = ORIENTED_EDGE('',*,*,#145,.T.);
#145 = EDGE_CURVE('',#135,#146,#148,.T.);
#146 = VERTEX_POINT('',#147);
#147 = CARTESIAN_POINT('',(35.05,11.,24.));
#148 = LINE('',#149,#150);
#149 = CARTESIAN_POINT('',(35.05,-9.85,24.));
#150 = VECTOR('',#151,1.);
#151 = DIRECTION('',(0.,1.,0.));
#152 = ORIENTED_EDGE('',*,*,#153,.F.);
#153 = EDGE_CURVE('',#154,#146,#156,.T.);
#154 = VERTEX_POINT('',#155);
#155 = CARTESIAN_POINT('',(43.55,11.,24.));
#156 = CIRCLE('',#157,4.25);
#157 = AXIS2_PLACEMENT_3D('',#158,#159,#160);
#158 = CARTESIAN_POINT('',(39.3,11.,24.));
#159 = DIRECTION('',(0.,0.,1.));
#160 = DIRECTION('',(1.,0.,0.));
#161 = ORIENTED_EDGE('',*,*,#162,.F.);
#162 = EDGE_CURVE('',#137,#154,#163,.T.);
#163 = LINE('',#164,#165);
#164 = CARTESIAN_POINT('',(43.55,-9.85,24.));
#165 = VECTOR('',#166,1.);
#166 = DIRECTION('',(0.,1.,0.));
#167 = PLANE('',#168);
#168 = AXIS2_PLACEMENT_3D('',#169,#170,#171);
#169 = CARTESIAN_POINT('',(-38.,-20.2,24.));
#170 = DIRECTION('',(0.,0.,1.));
#171 = DIRECTION('',(1.,0.,0.));
#172 = ADVANCED_FACE('',(#173),#223,.T.);
#173 = FACE_BOUND('',#174,.T.);
#174 = EDGE_LOOP('',(#175,#183,#184,#185,#193,#201,#209,#217));
#175 = ORIENTED_EDGE('',*,*,#176,.F.);
#176 = EDGE_CURVE('',#66,#177,#179,.T.);
#177 = VERTEX_POINT('',#178);
#178 = CARTESIAN_POINT('',(-6.,23.7,0.));
#179 = LINE('',#180,#181);
#180 = CARTESIAN_POINT('',(-38.,23.7,0.));
#181 = VECTOR('',#182,1.);
#182 = DIRECTION('',(1.,0.,0.));
#183 = ORIENTED_EDGE('',*,*,#73,.T.);
#184 = ORIENTED_EDGE('',*,*,#126,.T.);
#185 = ORIENTED_EDGE('',*,*,#186,.F.);
#186 = EDGE_CURVE('',#187,#119,#189,.T.);
#187 = VERTEX_POINT('',#188);
#188 = CARTESIAN_POINT('',(44.,23.7,0.));
#189 = LINE('',#190,#191);
#190 = CARTESIAN_POINT('',(44.,23.7,0.));
#191 = VECTOR('',#192,1.);
#192 = DIRECTION('',(0.,0.,1.));
#193 = ORIENTED_EDGE('',*,*,#194,.F.);
#194 = EDGE_CURVE('',#195,#187,#197,.T.);
#195 = VERTEX_POINT('',#196);
#196 = CARTESIAN_POINT('',(6.,23.7,0.));
#197 = LINE('',#198,#199);
#198 = CARTESIAN_POINT('',(-38.,23.7,0.));
#199 = VECTOR('',#200,1.);
#200 = DIRECTION('',(1.,0.,0.));
#201 = ORIENTED_EDGE('',*,*,#202,.F.);
#202 = EDGE_CURVE('',#203,#195,#205,.T.);
#203 = VERTEX_POINT('',#204);
#204 = CARTESIAN_POINT('',(6.,23.7,5.));
#205 = LINE('',#206,#207);
#206 = CARTESIAN_POINT('',(6.,23.7,-0.5));
#207 = VECTOR('',#208,1.);
#208 = DIRECTION('',(0.,0.,-1.));
#209 = ORIENTED_EDGE('',*,*,#210,.F.);
#210 = EDGE_CURVE('',#211,#203,#213,.T.);
#211 = VERTEX_POINT('',#212);
#212 = CARTESIAN_POINT('',(-6.,23.7,5.));
#213 = LINE('',#214,#215);
#214 = CARTESIAN_POINT('',(-22.,23.7,5.));
#215 = VECTOR('',#216,1.);
#216 = DIRECTION('',(1.,0.,0.));
#217 = ORIENTED_EDGE('',*,*,#218,.T.);
#218 = EDGE_CURVE('',#211,#177,#219,.T.);
#219 = LINE('',#220,#221);
#220 = CARTESIAN_POINT('',(-6.,23.7,-0.5));
#221 = VECTOR('',#222,1.);
#222 = DIRECTION('',(0.,0.,-1.));
#223 = PLANE('',#224);
#224 = AXIS2_PLACEMENT_3D('',#225,#226,#227);
#225 = CARTESIAN_POINT('',(-38.,23.7,0.));
#226 = DIRECTION('',(0.,1.,0.));
#227 = DIRECTION('',(0.,0.,1.));
#228 = ADVANCED_FACE('',(#229),#247,.F.);
#229 = FACE_BOUND('',#230,.F.);
#230 = EDGE_LOOP('',(#231,#239,#240,#241));
#231 = ORIENTED_EDGE('',*,*,#232,.F.);
#232 = EDGE_CURVE('',#32,#233,#235,.T.);
#233 = VERTEX_POINT('',#234);
#234 = CARTESIAN_POINT('',(44.,-20.2,0.));
#235 = LINE('',#236,#237);
#236 = CARTESIAN_POINT('',(-38.,-20.2,0.));
#237 = VECTOR('',#238,1.);
#238 = DIRECTION('',(1.,0.,0.));
#239 = ORIENTED_EDGE('',*,*,#31,.T.);
#240 = ORIENTED_EDGE('',*,*,#110,.T.);
#241 = ORIENTED_EDGE('',*,*,#242,.F.);
#242 = EDGE_CURVE('',#233,#111,#243,.T.);
#243 = LINE('',#244,#245);
#244 = CARTESIAN_POINT('',(44.,-20.2,0.));
#245 = VECTOR('',#246,1.);
#246 = DIRECTION('',(0.,0.,1.));
#247 = PLANE('',#248);
#248 = AXIS2_PLACEMENT_3D('',#249,#250,#251);
#249 = CARTESIAN_POINT('',(-38.,-20.2,0.));
#250 = DIRECTION('',(0.,1.,0.));
#251 = DIRECTION('',(0.,0.,1.));
#252 = ADVANCED_FACE('',(#253),#271,.F.);
#253 = FACE_BOUND('',#254,.F.);
#254 = EDGE_LOOP('',(#255,#256,#264,#270));
#255 = ORIENTED_EDGE('',*,*,#65,.F.);
#256 = ORIENTED_EDGE('',*,*,#257,.T.);
#257 = EDGE_CURVE('',#57,#258,#260,.T.);
#258 = VERTEX_POINT('',#259);
#259 = CARTESIAN_POINT('',(-6.,15.2,0.));
#260 = LINE('',#261,#262);
#261 = CARTESIAN_POINT('',(-39.,15.2,0.));
#262 = VECTOR('',#263,1.);
#263 = DIRECTION('',(1.,0.,0.));
#264 = ORIENTED_EDGE('',*,*,#265,.T.);
#265 = EDGE_CURVE('',#258,#177,#266,.T.);
#266 = LINE('',#267,#268);
#267 = CARTESIAN_POINT('',(-6.,-3.5,0.));
#268 = VECTOR('',#269,1.);
#269 = DIRECTION('',(0.,1.,0.));
#270 = ORIENTED_EDGE('',*,*,#176,.F.);
#271 = PLANE('',#272);
#272 = AXIS2_PLACEMENT_3D('',#273,#274,#275);
#273 = CARTESIAN_POINT('',(-38.,-20.2,0.));
#274 = DIRECTION('',(0.,0.,1.));
#275 = DIRECTION('',(1.,0.,0.));
#276 = ADVANCED_FACE('',(#277),#295,.F.);
#277 = FACE_BOUND('',#278,.F.);
#278 = EDGE_LOOP('',(#279,#280,#281,#289));
#279 = ORIENTED_EDGE('',*,*,#39,.F.);
#280 = ORIENTED_EDGE('',*,*,#232,.T.);
#281 = ORIENTED_EDGE('',*,*,#282,.T.);
#282 = EDGE_CURVE('',#233,#283,#285,.T.);
#283 = VERTEX_POINT('',#284);
#284 = CARTESIAN_POINT('',(44.,-15.2,0.));
#285 = LINE('',#286,#287);
#286 = CARTESIAN_POINT('',(44.,-20.2,0.));
#287 = VECTOR('',#288,1.);
#288 = DIRECTION('',(0.,1.,0.));
#289 = ORIENTED_EDGE('',*,*,#290,.F.);
#290 = EDGE_CURVE('',#40,#283,#291,.T.);
#291 = LINE('',#292,#293);
#292 = CARTESIAN_POINT('',(-39.,-15.2,0.));
#293 = VECTOR('',#294,1.);
#294 = DIRECTION('',(1.,0.,0.));
#295 = PLANE('',#296);
#296 = AXIS2_PLACEMENT_3D('',#297,#298,#299);
#297 = CARTESIAN_POINT('',(-38.,-20.2,0.));
#298 = DIRECTION('',(0.,0.,1.));
#299 = DIRECTION('',(1.,0.,0.));
#300 = ADVANCED_FACE('',(#301),#320,.F.);
#301 = FACE_BOUND('',#302,.F.);
#302 = EDGE_LOOP('',(#303,#312,#318,#319));
#303 = ORIENTED_EDGE('',*,*,#304,.F.);
#304 = EDGE_CURVE('',#305,#305,#307,.T.);
#305 = VERTEX_POINT('',#306);
#306 = CARTESIAN_POINT('',(-22.,17.,18.7272));
#307 = CIRCLE('',#308,1.7272);
#308 = AXIS2_PLACEMENT_3D('',#309,#310,#311);
#309 = CARTESIAN_POINT('',(-22.,17.,17.));
#310 = DIRECTION('',(1.,0.,-0.));
#311 = DIRECTION('',(0.,0.,1.));
#312 = ORIENTED_EDGE('',*,*,#313,.F.);
#313 = EDGE_CURVE('',#82,#305,#314,.T.);
#314 = LINE('',#315,#316);
#315 = CARTESIAN_POINT('',(-38.,17.,18.7272));
#316 = VECTOR('',#317,1.);
#317 = DIRECTION('',(1.,0.,0.));
#318 = ORIENTED_EDGE('',*,*,#81,.T.);
#319 = ORIENTED_EDGE('',*,*,#313,.T.);
#320 = CYLINDRICAL_SURFACE('',#321,1.7272);
#321 = AXIS2_PLACEMENT_3D('',#322,#323,#324);
#322 = CARTESIAN_POINT('',(-38.,17.,17.));
#323 = DIRECTION('',(1.,0.,0.));
#324 = DIRECTION('',(0.,0.,1.));
#325 = ADVANCED_FACE('',(#326),#345,.F.);
#326 = FACE_BOUND('',#327,.F.);
#327 = EDGE_LOOP('',(#328,#337,#343,#344));
#328 = ORIENTED_EDGE('',*,*,#329,.F.);
#329 = EDGE_CURVE('',#330,#330,#332,.T.);
#330 = VERTEX_POINT('',#331);
#331 = CARTESIAN_POINT('',(-22.,-14.5,18.7272));
#332 = CIRCLE('',#333,1.7272);
#333 = AXIS2_PLACEMENT_3D('',#334,#335,#336);
#334 = CARTESIAN_POINT('',(-22.,-14.5,17.));
#335 = DIRECTION('',(1.,0.,-0.));
#336 = DIRECTION('',(0.,0.,1.));
#337 = ORIENTED_EDGE('',*,*,#338,.F.);
#338 = EDGE_CURVE('',#93,#330,#339,.T.);
#339 = LINE('',#340,#341);
#340 = CARTESIAN_POINT('',(-38.,-14.5,18.7272));
#341 = VECTOR('',#342,1.);
#342 = DIRECTION('',(1.,0.,0.));
#343 = ORIENTED_EDGE('',*,*,#92,.T.);
#344 = ORIENTED_EDGE('',*,*,#338,.T.);
#345 = CYLINDRICAL_SURFACE('',#346,1.7272);
#346 = AXIS2_PLACEMENT_3D('',#347,#348,#349);
#347 = CARTESIAN_POINT('',(-38.,-14.5,17.));
#348 = DIRECTION('',(1.,0.,0.));
#349 = DIRECTION('',(0.,0.,1.));
#350 = ADVANCED_FACE('',(#351,#381,#392),#403,.T.);
#351 = FACE_BOUND('',#352,.T.);
#352 = EDGE_LOOP('',(#353,#354,#355,#356,#365,#374,#380));
#353 = ORIENTED_EDGE('',*,*,#118,.F.);
#354 = ORIENTED_EDGE('',*,*,#242,.F.);
#355 = ORIENTED_EDGE('',*,*,#282,.T.);
#356 = ORIENTED_EDGE('',*,*,#357,.F.);
#357 = EDGE_CURVE('',#358,#283,#360,.T.);
#358 = VERTEX_POINT('',#359);
#359 = CARTESIAN_POINT('',(44.,-2.84217094304E-14,15.2));
#360 = CIRCLE('',#361,15.2);
#361 = AXIS2_PLACEMENT_3D('',#362,#363,#364);
#362 = CARTESIAN_POINT('',(44.,0.,0.));
#363 = DIRECTION('',(1.,0.,-0.));
#364 = DIRECTION('',(0.,0.,1.));
#365 = ORIENTED_EDGE('',*,*,#366,.F.);
#366 = EDGE_CURVE('',#367,#358,#369,.T.);
#367 = VERTEX_POINT('',#368);
#368 = CARTESIAN_POINT('',(44.,15.2,0.));
#369 = CIRCLE('',#370,15.2);
#370 = AXIS2_PLACEMENT_3D('',#371,#372,#373);
#371 = CARTESIAN_POINT('',(44.,0.,0.));
#372 = DIRECTION('',(1.,0.,-0.));
#373 = DIRECTION('',(0.,0.,1.));
#374 = ORIENTED_EDGE('',*,*,#375,.T.);
#375 = EDGE_CURVE('',#367,#187,#376,.T.);
#376 = LINE('',#377,#378);
#377 = CARTESIAN_POINT('',(44.,-20.2,0.));
#378 = VECTOR('',#379,1.);
#379 = DIRECTION('',(0.,1.,0.));
#380 = ORIENTED_EDGE('',*,*,#186,.T.);
#381 = FACE_BOUND('',#382,.T.);
#382 = EDGE_LOOP('',(#383));
#383 = ORIENTED_EDGE('',*,*,#384,.T.);
#384 = EDGE_CURVE('',#385,#385,#387,.T.);
#385 = VERTEX_POINT('',#386);
#386 = CARTESIAN_POINT('',(44.,17.,15.2728));
#387 = CIRCLE('',#388,1.7272);
#388 = AXIS2_PLACEMENT_3D('',#389,#390,#391);
#389 = CARTESIAN_POINT('',(44.,17.,17.));
#390 = DIRECTION('',(-1.,0.,0.));
#391 = DIRECTION('',(0.,0.,-1.));
#392 = FACE_BOUND('',#393,.T.);
#393 = EDGE_LOOP('',(#394));
#394 = ORIENTED_EDGE('',*,*,#395,.T.);
#395 = EDGE_CURVE('',#396,#396,#398,.T.);
#396 = VERTEX_POINT('',#397);
#397 = CARTESIAN_POINT('',(44.,-14.5,15.2728));
#398 = CIRCLE('',#399,1.7272);
#399 = AXIS2_PLACEMENT_3D('',#400,#401,#402);
#400 = CARTESIAN_POINT('',(44.,-14.5,17.));
#401 = DIRECTION('',(-1.,0.,0.));
#402 = DIRECTION('',(0.,0.,-1.));
#403 = PLANE('',#404);
#404 = AXIS2_PLACEMENT_3D('',#405,#406,#407);
#405 = CARTESIAN_POINT('',(44.,-20.2,0.));
#406 = DIRECTION('',(1.,0.,0.));
#407 = DIRECTION('',(0.,0.,1.));
#408 = ADVANCED_FACE('',(#409),#435,.F.);
#409 = FACE_BOUND('',#410,.F.);
#410 = EDGE_LOOP('',(#411,#422,#428,#429));
#411 = ORIENTED_EDGE('',*,*,#412,.T.);
#412 = EDGE_CURVE('',#413,#415,#417,.T.);
#413 = VERTEX_POINT('',#414);
#414 = CARTESIAN_POINT('',(35.05,0.5,19.));
#415 = VERTEX_POINT('',#416);
#416 = CARTESIAN_POINT('',(43.55,0.5,19.));
#417 = CIRCLE('',#418,4.25);
#418 = AXIS2_PLACEMENT_3D('',#419,#420,#421);
#419 = CARTESIAN_POINT('',(39.3,0.5,19.));
#420 = DIRECTION('',(0.,0.,1.));
#421 = DIRECTION('',(1.,0.,0.));
#422 = ORIENTED_EDGE('',*,*,#423,.T.);
#423 = EDGE_CURVE('',#415,#137,#424,.T.);
#424 = LINE('',#425,#426);
#425 = CARTESIAN_POINT('',(43.55,0.5,19.));
#426 = VECTOR('',#427,1.);
#427 = DIRECTION('',(0.,0.,1.));
#428 = ORIENTED_EDGE('',*,*,#134,.F.);
#429 = ORIENTED_EDGE('',*,*,#430,.F.);
#430 = EDGE_CURVE('',#413,#135,#431,.T.);
#431 = LINE('',#432,#433);
#432 = CARTESIAN_POINT('',(35.05,0.5,19.));
#433 = VECTOR('',#434,1.);
#434 = DIRECTION('',(0.,0.,1.));
#435 = CYLINDRICAL_SURFACE('',#436,4.25);
#436 = AXIS2_PLACEMENT_3D('',#437,#438,#439);
#437 = CARTESIAN_POINT('',(39.3,0.5,19.));
#438 = DIRECTION('',(0.,0.,1.));
#439 = DIRECTION('',(1.,0.,0.));
#440 = ADVANCED_FACE('',(#441),#459,.F.);
#441 = FACE_BOUND('',#442,.F.);
#442 = EDGE_LOOP('',(#443,#444,#452,#458));
#443 = ORIENTED_EDGE('',*,*,#423,.F.);
#444 = ORIENTED_EDGE('',*,*,#445,.T.);
#445 = EDGE_CURVE('',#415,#446,#448,.T.);
#446 = VERTEX_POINT('',#447);
#447 = CARTESIAN_POINT('',(43.55,11.,19.));
#448 = LINE('',#449,#450);
#449 = CARTESIAN_POINT('',(43.55,0.5,19.));
#450 = VECTOR('',#451,1.);
#451 = DIRECTION('',(0.,1.,0.));
#452 = ORIENTED_EDGE('',*,*,#453,.T.);
#453 = EDGE_CURVE('',#446,#154,#454,.T.);
#454 = LINE('',#455,#456);
#455 = CARTESIAN_POINT('',(43.55,11.,19.));
#456 = VECTOR('',#457,1.);
#457 = DIRECTION('',(0.,0.,1.));
#458 = ORIENTED_EDGE('',*,*,#162,.F.);
#459 = PLANE('',#460);
#460 = AXIS2_PLACEMENT_3D('',#461,#462,#463);
#461 = CARTESIAN_POINT('',(43.55,0.5,19.));
#462 = DIRECTION('',(1.,0.,0.));
#463 = DIRECTION('',(0.,0.,1.));
#464 = ADVANCED_FACE('',(#465),#484,.F.);
#465 = FACE_BOUND('',#466,.F.);
#466 = EDGE_LOOP('',(#467,#468,#469,#478));
#467 = ORIENTED_EDGE('',*,*,#153,.F.);
#468 = ORIENTED_EDGE('',*,*,#453,.F.);
#469 = ORIENTED_EDGE('',*,*,#470,.T.);
#470 = EDGE_CURVE('',#446,#471,#473,.T.);
#471 = VERTEX_POINT('',#472);
#472 = CARTESIAN_POINT('',(35.05,11.,19.));
#473 = CIRCLE('',#474,4.25);
#474 = AXIS2_PLACEMENT_3D('',#475,#476,#477);
#475 = CARTESIAN_POINT('',(39.3,11.,19.));
#476 = DIRECTION('',(0.,0.,1.));
#477 = DIRECTION('',(1.,0.,0.));
#478 = ORIENTED_EDGE('',*,*,#479,.T.);
#479 = EDGE_CURVE('',#471,#146,#480,.T.);
#480 = LINE('',#481,#482);
#481 = CARTESIAN_POINT('',(35.05,11.,19.));
#482 = VECTOR('',#483,1.);
#483 = DIRECTION('',(0.,0.,1.));
#484 = CYLINDRICAL_SURFACE('',#485,4.25);
#485 = AXIS2_PLACEMENT_3D('',#486,#487,#488);
#486 = CARTESIAN_POINT('',(39.3,11.,19.));
#487 = DIRECTION('',(0.,0.,1.));
#488 = DIRECTION('',(1.,0.,0.));
#489 = ADVANCED_FACE('',(#490),#501,.T.);
#490 = FACE_BOUND('',#491,.T.);
#491 = EDGE_LOOP('',(#492,#493,#499,#500));
#492 = ORIENTED_EDGE('',*,*,#430,.F.);
#493 = ORIENTED_EDGE('',*,*,#494,.T.);
#494 = EDGE_CURVE('',#413,#471,#495,.T.);
#495 = LINE('',#496,#497);
#496 = CARTESIAN_POINT('',(35.05,0.5,19.));
#497 = VECTOR('',#498,1.);
#498 = DIRECTION('',(0.,1.,0.));
#499 = ORIENTED_EDGE('',*,*,#479,.T.);
#500 = ORIENTED_EDGE('',*,*,#145,.F.);
#501 = PLANE('',#502);
#502 = AXIS2_PLACEMENT_3D('',#503,#504,#505);
#503 = CARTESIAN_POINT('',(35.05,0.5,19.));
#504 = DIRECTION('',(1.,0.,0.));
#505 = DIRECTION('',(0.,0.,1.));
#506 = ADVANCED_FACE('',(#507),#526,.T.);
#507 = FACE_BOUND('',#508,.T.);
#508 = EDGE_LOOP('',(#509,#517,#524,#525));
#509 = ORIENTED_EDGE('',*,*,#510,.F.);
#510 = EDGE_CURVE('',#511,#211,#513,.T.);
#511 = VERTEX_POINT('',#512);
#512 = CARTESIAN_POINT('',(-6.,14.354093492798,5.));
#513 = LINE('',#514,#515);
#514 = CARTESIAN_POINT('',(-6.,13.2,5.));
#515 = VECTOR('',#516,1.);
#516 = DIRECTION('',(0.,1.,0.));
#517 = ORIENTED_EDGE('',*,*,#518,.F.);
#518 = EDGE_CURVE('',#258,#511,#519,.T.);
#519 = CIRCLE('',#520,15.2);
#520 = AXIS2_PLACEMENT_3D('',#521,#522,#523);
#521 = CARTESIAN_POINT('',(-6.,0.,0.));
#522 = DIRECTION('',(1.,0.,-0.));
#523 = DIRECTION('',(0.,0.,1.));
#524 = ORIENTED_EDGE('',*,*,#265,.T.);
#525 = ORIENTED_EDGE('',*,*,#218,.F.);
#526 = PLANE('',#527);
#527 = AXIS2_PLACEMENT_3D('',#528,#529,#530);
#528 = CARTESIAN_POINT('',(-6.,13.2,-1.));
#529 = DIRECTION('',(1.,0.,0.));
#530 = DIRECTION('',(0.,0.,1.));
#531 = ADVANCED_FACE('',(#532),#550,.F.);
#532 = FACE_BOUND('',#533,.F.);
#533 = EDGE_LOOP('',(#534,#535,#543,#549));
#534 = ORIENTED_EDGE('',*,*,#510,.F.);
#535 = ORIENTED_EDGE('',*,*,#536,.T.);
#536 = EDGE_CURVE('',#511,#537,#539,.T.);
#537 = VERTEX_POINT('',#538);
#538 = CARTESIAN_POINT('',(6.,14.354093492798,5.));
#539 = LINE('',#540,#541);
#540 = CARTESIAN_POINT('',(-39.,14.354093492798,5.));
#541 = VECTOR('',#542,1.);
#542 = DIRECTION('',(1.,0.,0.));
#543 = ORIENTED_EDGE('',*,*,#544,.T.);
#544 = EDGE_CURVE('',#537,#203,#545,.T.);
#545 = LINE('',#546,#547);
#546 = CARTESIAN_POINT('',(6.,13.2,5.));
#547 = VECTOR('',#548,1.);
#548 = DIRECTION('',(0.,1.,0.));
#549 = ORIENTED_EDGE('',*,*,#210,.F.);
#550 = PLANE('',#551);
#551 = AXIS2_PLACEMENT_3D('',#552,#553,#554);
#552 = CARTESIAN_POINT('',(-6.,13.2,5.));
#553 = DIRECTION('',(0.,0.,1.));
#554 = DIRECTION('',(1.,0.,0.));
#555 = ADVANCED_FACE('',(#556),#575,.F.);
#556 = FACE_BOUND('',#557,.F.);
#557 = EDGE_LOOP('',(#558,#559,#568,#574));
#558 = ORIENTED_EDGE('',*,*,#544,.F.);
#559 = ORIENTED_EDGE('',*,*,#560,.F.);
#560 = EDGE_CURVE('',#561,#537,#563,.T.);
#561 = VERTEX_POINT('',#562);
#562 = CARTESIAN_POINT('',(6.,15.2,0.));
#563 = CIRCLE('',#564,15.2);
#564 = AXIS2_PLACEMENT_3D('',#565,#566,#567);
#565 = CARTESIAN_POINT('',(6.,0.,0.));
#566 = DIRECTION('',(1.,0.,-0.));
#567 = DIRECTION('',(0.,0.,1.));
#568 = ORIENTED_EDGE('',*,*,#569,.T.);
#569 = EDGE_CURVE('',#561,#195,#570,.T.);
#570 = LINE('',#571,#572);
#571 = CARTESIAN_POINT('',(6.,-3.5,0.));
#572 = VECTOR('',#573,1.);
#573 = DIRECTION('',(0.,1.,0.));
#574 = ORIENTED_EDGE('',*,*,#202,.F.);
#575 = PLANE('',#576);
#576 = AXIS2_PLACEMENT_3D('',#577,#578,#579);
#577 = CARTESIAN_POINT('',(6.,13.2,-1.));
#578 = DIRECTION('',(1.,0.,0.));
#579 = DIRECTION('',(0.,0.,1.));
#580 = ADVANCED_FACE('',(#581),#592,.F.);
#581 = FACE_BOUND('',#582,.F.);
#582 = EDGE_LOOP('',(#583,#584,#590,#591));
#583 = ORIENTED_EDGE('',*,*,#569,.F.);
#584 = ORIENTED_EDGE('',*,*,#585,.T.);
#585 = EDGE_CURVE('',#561,#367,#586,.T.);
#586 = LINE('',#587,#588);
#587 = CARTESIAN_POINT('',(-39.,15.2,0.));
#588 = VECTOR('',#589,1.);
#589 = DIRECTION('',(1.,0.,0.));
#590 = ORIENTED_EDGE('',*,*,#375,.T.);
#591 = ORIENTED_EDGE('',*,*,#194,.F.);
#592 = PLANE('',#593);
#593 = AXIS2_PLACEMENT_3D('',#594,#595,#596);
#594 = CARTESIAN_POINT('',(-38.,-20.2,0.));
#595 = DIRECTION('',(0.,0.,1.));
#596 = DIRECTION('',(1.,0.,0.));
#597 = ADVANCED_FACE('',(#598),#601,.F.);
#598 = FACE_BOUND('',#599,.F.);
#599 = EDGE_LOOP('',(#600));
#600 = ORIENTED_EDGE('',*,*,#304,.T.);
#601 = PLANE('',#602);
#602 = AXIS2_PLACEMENT_3D('',#603,#604,#605);
#603 = CARTESIAN_POINT('',(-22.,17.,17.));
#604 = DIRECTION('',(1.,0.,0.));
#605 = DIRECTION('',(0.,0.,1.));
#606 = ADVANCED_FACE('',(#607),#610,.F.);
#607 = FACE_BOUND('',#608,.F.);
#608 = EDGE_LOOP('',(#609));
#609 = ORIENTED_EDGE('',*,*,#329,.T.);
#610 = PLANE('',#611);
#611 = AXIS2_PLACEMENT_3D('',#612,#613,#614);
#612 = CARTESIAN_POINT('',(-22.,-14.5,17.));
#613 = DIRECTION('',(1.,0.,0.));
#614 = DIRECTION('',(0.,0.,1.));
#615 = ADVANCED_FACE('',(#616),#635,.F.);
#616 = FACE_BOUND('',#617,.F.);
#617 = EDGE_LOOP('',(#618,#627,#633,#634));
#618 = ORIENTED_EDGE('',*,*,#619,.F.);
#619 = EDGE_CURVE('',#620,#620,#622,.T.);
#620 = VERTEX_POINT('',#621);
#621 = CARTESIAN_POINT('',(28.,17.,15.2728));
#622 = CIRCLE('',#623,1.7272);
#623 = AXIS2_PLACEMENT_3D('',#624,#625,#626);
#624 = CARTESIAN_POINT('',(28.,17.,17.));
#625 = DIRECTION('',(-1.,0.,0.));
#626 = DIRECTION('',(0.,0.,-1.));
#627 = ORIENTED_EDGE('',*,*,#628,.F.);
#628 = EDGE_CURVE('',#385,#620,#629,.T.);
#629 = LINE('',#630,#631);
#630 = CARTESIAN_POINT('',(44.,17.,15.2728));
#631 = VECTOR('',#632,1.);
#632 = DIRECTION('',(-1.,0.,0.));
#633 = ORIENTED_EDGE('',*,*,#384,.T.);
#634 = ORIENTED_EDGE('',*,*,#628,.T.);
#635 = CYLINDRICAL_SURFACE('',#636,1.7272);
#636 = AXIS2_PLACEMENT_3D('',#637,#638,#639);
#637 = CARTESIAN_POINT('',(44.,17.,17.));
#638 = DIRECTION('',(-1.,0.,0.));
#639 = DIRECTION('',(0.,0.,-1.));
#640 = ADVANCED_FACE('',(#641),#660,.F.);
#641 = FACE_BOUND('',#642,.F.);
#642 = EDGE_LOOP('',(#643,#652,#658,#659));
#643 = ORIENTED_EDGE('',*,*,#644,.F.);
#644 = EDGE_CURVE('',#645,#645,#647,.T.);
#645 = VERTEX_POINT('',#646);
#646 = CARTESIAN_POINT('',(28.,-14.5,15.2728));
#647 = CIRCLE('',#648,1.7272);
#648 = AXIS2_PLACEMENT_3D('',#649,#650,#651);
#649 = CARTESIAN_POINT('',(28.,-14.5,17.));
#650 = DIRECTION('',(-1.,0.,0.));
#651 = DIRECTION('',(0.,0.,-1.));
#652 = ORIENTED_EDGE('',*,*,#653,.F.);
#653 = EDGE_CURVE('',#396,#645,#654,.T.);
#654 = LINE('',#655,#656);
#655 = CARTESIAN_POINT('',(44.,-14.5,15.2728));
#656 = VECTOR('',#657,1.);
#657 = DIRECTION('',(-1.,0.,0.));
#658 = ORIENTED_EDGE('',*,*,#395,.T.);
#659 = ORIENTED_EDGE('',*,*,#653,.T.);
#660 = CYLINDRICAL_SURFACE('',#661,1.7272);
#661 = AXIS2_PLACEMENT_3D('',#662,#663,#664);
#662 = CARTESIAN_POINT('',(44.,-14.5,17.));
#663 = DIRECTION('',(-1.,0.,0.));
#664 = DIRECTION('',(0.,0.,-1.));
#665 = ADVANCED_FACE('',(#666,#672),#708,.F.);
#666 = FACE_BOUND('',#667,.F.);
#667 = EDGE_LOOP('',(#668,#669,#670,#671));
#668 = ORIENTED_EDGE('',*,*,#494,.T.);
#669 = ORIENTED_EDGE('',*,*,#470,.F.);
#670 = ORIENTED_EDGE('',*,*,#445,.F.);
#671 = ORIENTED_EDGE('',*,*,#412,.F.);
#672 = FACE_BOUND('',#673,.F.);
#673 = EDGE_LOOP('',(#674,#684,#693,#701));
#674 = ORIENTED_EDGE('',*,*,#675,.F.);
#675 = EDGE_CURVE('',#676,#678,#680,.T.);
#676 = VERTEX_POINT('',#677);
#677 = CARTESIAN_POINT('',(37.1156,0.5,19.));
#678 = VERTEX_POINT('',#679);
#679 = CARTESIAN_POINT('',(37.1156,11.,19.));
#680 = LINE('',#681,#682);
#681 = CARTESIAN_POINT('',(37.1156,3.125,19.));
#682 = VECTOR('',#683,1.);
#683 = DIRECTION('',(0.,1.,0.));
#684 = ORIENTED_EDGE('',*,*,#685,.T.);
#685 = EDGE_CURVE('',#676,#686,#688,.T.);
#686 = VERTEX_POINT('',#687);
#687 = CARTESIAN_POINT('',(41.4844,0.5,19.));
#688 = CIRCLE('',#689,2.1844);
#689 = AXIS2_PLACEMENT_3D('',#690,#691,#692);
#690 = CARTESIAN_POINT('',(39.3,0.5,19.));
#691 = DIRECTION('',(0.,0.,1.));
#692 = DIRECTION('',(1.,0.,0.));
#693 = ORIENTED_EDGE('',*,*,#694,.T.);
#694 = EDGE_CURVE('',#686,#695,#697,.T.);
#695 = VERTEX_POINT('',#696);
#696 = CARTESIAN_POINT('',(41.4844,11.,19.));
#697 = LINE('',#698,#699);
#698 = CARTESIAN_POINT('',(41.4844,3.125,19.));
#699 = VECTOR('',#700,1.);
#700 = DIRECTION('',(0.,1.,0.));
#701 = ORIENTED_EDGE('',*,*,#702,.T.);
#702 = EDGE_CURVE('',#695,#678,#703,.T.);
#703 = CIRCLE('',#704,2.1844);
#704 = AXIS2_PLACEMENT_3D('',#705,#706,#707);
#705 = CARTESIAN_POINT('',(39.3,11.,19.));
#706 = DIRECTION('',(0.,0.,1.));
#707 = DIRECTION('',(1.,0.,0.));
#708 = PLANE('',#709);
#709 = AXIS2_PLACEMENT_3D('',#710,#711,#712);
#710 = CARTESIAN_POINT('',(39.3,5.75,19.));
#711 = DIRECTION('',(-0.,-0.,-1.));
#712 = DIRECTION('',(-1.,0.,0.));
#713 = ADVANCED_FACE('',(#714),#790,.F.);
#714 = FACE_BOUND('',#715,.F.);
#715 = EDGE_LOOP('',(#716,#755,#766,#772,#773,#781));
#716 = ORIENTED_EDGE('',*,*,#717,.T.);
#717 = EDGE_CURVE('',#718,#720,#722,.T.);
#718 = VERTEX_POINT('',#719);
#719 = CARTESIAN_POINT('',(37.173593792334,-2.84217094304E-14,15.2));
#720 = VERTEX_POINT('',#721);
#721 = CARTESIAN_POINT('',(41.426406207666,-2.84217094304E-14,15.2));
#722 = B_SPLINE_CURVE_WITH_KNOTS('',6,(#723,#724,#725,#726,#727,#728,
    #729,#730,#731,#732,#733,#734,#735,#736,#737,#738,#739,#740,#741,
    #742,#743,#744,#745,#746,#747,#748,#749,#750,#751,#752,#753,#754),
  .UNSPECIFIED.,.F.,.F.,(7,5,5,5,5,5,7),(0.,0.134811786085,
    0.299131372424,0.500003840643,0.699028855425,0.863555044581,1.),
  .UNSPECIFIED.);
#723 = CARTESIAN_POINT('',(37.173593792334,2.2E-16,15.2));
#724 = CARTESIAN_POINT('',(37.209443964695,-0.152464058109,15.2));
#725 = CARTESIAN_POINT('',(37.257723627605,-0.298915300302,
    15.198164760774));
#726 = CARTESIAN_POINT('',(37.317146147216,-0.438120997869,
    15.194766023652));
#727 = CARTESIAN_POINT('',(37.386266240822,-0.569065187131,
    15.190154301668));
#728 = CARTESIAN_POINT('',(37.463484983067,-0.690979676386,
    15.184703329203));
#729 = CARTESIAN_POINT('',(37.648916527239,-0.940371693151,
    15.171503608205));
#730 = CARTESIAN_POINT('',(37.76056950518,-1.063704841272,
    15.163487905111));
#731 = CARTESIAN_POINT('',(37.879896252456,-1.173543287536,
    15.155252146485));
#732 = CARTESIAN_POINT('',(38.005227377381,-1.270227203358,
    15.147227644207));
#733 = CARTESIAN_POINT('',(38.135234236007,-1.354155381416,
    15.13973007687));
#734 = CARTESIAN_POINT('',(38.432161644581,-1.513152530661,
    15.124750768713));
#735 = CARTESIAN_POINT('',(38.60098335123,-1.582164071011,
    15.117637197361));
#736 = CARTESIAN_POINT('',(38.773455203943,-1.633410901223,
    15.112067947802));
#737 = CARTESIAN_POINT('',(38.948197847343,-1.667398199956,
    15.108278417554));
#738 = CARTESIAN_POINT('',(39.124077614393,-1.6844,15.106382645756));
#739 = CARTESIAN_POINT('',(39.474304401725,-1.6844,15.106382645756));
#740 = CARTESIAN_POINT('',(39.648568133104,-1.667709505083,
    15.10824370412));
#741 = CARTESIAN_POINT('',(39.821725632685,-1.634343916464,
    15.111963922683));
#742 = CARTESIAN_POINT('',(39.992673851961,-1.584039554262,
    15.117433327156));
#743 = CARTESIAN_POINT('',(40.160075274807,-1.516309613931,
    15.124425101547));
#744 = CARTESIAN_POINT('',(40.456123316734,-1.359560244466,
    15.139242815407));
#745 = CARTESIAN_POINT('',(40.586537116078,-1.276223827419,
    15.14671815445));
#746 = CARTESIAN_POINT('',(40.712316573786,-1.180119157347,
    15.154734486083));
#747 = CARTESIAN_POINT('',(40.832141488188,-1.070843643134,
    15.162978491913));
#748 = CARTESIAN_POINT('',(40.944350167614,-0.948049817619,
    15.171021219299));
#749 = CARTESIAN_POINT('',(41.131820771177,-0.698362416591,
    15.184371563973));
#750 = CARTESIAN_POINT('',(41.210373967071,-0.575407077796,
    15.189929681209));
#751 = CARTESIAN_POINT('',(41.2806848934,-0.443184042516,15.19464150473)
  );
#752 = CARTESIAN_POINT('',(41.341099084629,-0.302476105828,
    15.198119670747));
#753 = CARTESIAN_POINT('',(41.390118442682,-0.154325057448,15.2));
#754 = CARTESIAN_POINT('',(41.426406207666,-4.4E-16,15.2));
#755 = ORIENTED_EDGE('',*,*,#756,.T.);
#756 = EDGE_CURVE('',#720,#757,#759,.T.);
#757 = VERTEX_POINT('',#758);
#758 = CARTESIAN_POINT('',(41.4844,0.5,15.191774089947));
#759 = B_SPLINE_CURVE_WITH_KNOTS('',5,(#760,#761,#762,#763,#764,#765),
  .UNSPECIFIED.,.F.,.F.,(6,6),(0.,1.),.PIECEWISE_BEZIER_KNOTS.);
#760 = CARTESIAN_POINT('',(41.426406207666,2.47E-15,15.2));
#761 = CARTESIAN_POINT('',(41.449183369378,9.686699611572E-02,15.2));
#762 = CARTESIAN_POINT('',(41.466687365133,0.196064131748,
    15.199228408905));
#763 = CARTESIAN_POINT('',(41.478496269005,0.296847494536,
    15.197610632416));
#764 = CARTESIAN_POINT('',(41.4844,0.398429632931,15.19511702957));
#765 = CARTESIAN_POINT('',(41.4844,0.5,15.191774089947));
#766 = ORIENTED_EDGE('',*,*,#767,.T.);
#767 = EDGE_CURVE('',#757,#686,#768,.T.);
#768 = LINE('',#769,#770);
#769 = CARTESIAN_POINT('',(41.4844,0.5,-1.));
#770 = VECTOR('',#771,1.);
#771 = DIRECTION('',(0.,0.,1.));
#772 = ORIENTED_EDGE('',*,*,#685,.F.);
#773 = ORIENTED_EDGE('',*,*,#774,.F.);
#774 = EDGE_CURVE('',#775,#676,#777,.T.);
#775 = VERTEX_POINT('',#776);
#776 = CARTESIAN_POINT('',(37.1156,0.5,15.191774089947));
#777 = LINE('',#778,#779);
#778 = CARTESIAN_POINT('',(37.1156,0.5,-1.));
#779 = VECTOR('',#780,1.);
#780 = DIRECTION('',(0.,0.,1.));
#781 = ORIENTED_EDGE('',*,*,#782,.T.);
#782 = EDGE_CURVE('',#775,#718,#783,.T.);
#783 = B_SPLINE_CURVE_WITH_KNOTS('',5,(#784,#785,#786,#787,#788,#789),
  .UNSPECIFIED.,.F.,.F.,(6,6),(0.,1.),.PIECEWISE_BEZIER_KNOTS.);
#784 = CARTESIAN_POINT('',(37.1156,0.5,15.191774089947));
#785 = CARTESIAN_POINT('',(37.1156,0.398427842203,15.195117088507));
#786 = CARTESIAN_POINT('',(37.121503947388,0.296846560399,
    15.197610635323));
#787 = CARTESIAN_POINT('',(37.133312637269,0.196064989152,
    15.199228377922));
#788 = CARTESIAN_POINT('',(37.150816212531,9.68687741771E-02,15.2));
#789 = CARTESIAN_POINT('',(37.173593792334,2.17E-15,15.2));
#790 = CYLINDRICAL_SURFACE('',#791,2.1844);
#791 = AXIS2_PLACEMENT_3D('',#792,#793,#794);
#792 = CARTESIAN_POINT('',(39.3,0.5,-1.));
#793 = DIRECTION('',(0.,0.,1.));
#794 = DIRECTION('',(1.,0.,0.));
#795 = ADVANCED_FACE('',(#796),#815,.F.);
#796 = FACE_BOUND('',#797,.F.);
#797 = EDGE_LOOP('',(#798,#799,#808,#814));
#798 = ORIENTED_EDGE('',*,*,#767,.F.);
#799 = ORIENTED_EDGE('',*,*,#800,.F.);
#800 = EDGE_CURVE('',#801,#757,#803,.T.);
#801 = VERTEX_POINT('',#802);
#802 = CARTESIAN_POINT('',(41.4844,11.,10.489995233555));
#803 = CIRCLE('',#804,15.2);
#804 = AXIS2_PLACEMENT_3D('',#805,#806,#807);
#805 = CARTESIAN_POINT('',(41.4844,0.,0.));
#806 = DIRECTION('',(1.,0.,-0.));
#807 = DIRECTION('',(0.,0.,1.));
#808 = ORIENTED_EDGE('',*,*,#809,.T.);
#809 = EDGE_CURVE('',#801,#695,#810,.T.);
#810 = LINE('',#811,#812);
#811 = CARTESIAN_POINT('',(41.4844,11.,-1.));
#812 = VECTOR('',#813,1.);
#813 = DIRECTION('',(0.,0.,1.));
#814 = ORIENTED_EDGE('',*,*,#694,.F.);
#815 = PLANE('',#816);
#816 = AXIS2_PLACEMENT_3D('',#817,#818,#819);
#817 = CARTESIAN_POINT('',(41.4844,0.5,-1.));
#818 = DIRECTION('',(1.,0.,0.));
#819 = DIRECTION('',(0.,0.,1.));
#820 = ADVANCED_FACE('',(#821),#898,.F.);
#821 = FACE_BOUND('',#822,.F.);
#822 = EDGE_LOOP('',(#823,#824,#825,#892));
#823 = ORIENTED_EDGE('',*,*,#702,.F.);
#824 = ORIENTED_EDGE('',*,*,#809,.F.);
#825 = ORIENTED_EDGE('',*,*,#826,.T.);
#826 = EDGE_CURVE('',#801,#827,#829,.T.);
#827 = VERTEX_POINT('',#828);
#828 = CARTESIAN_POINT('',(37.1156,11.,10.489995233555));
#829 = B_SPLINE_CURVE_WITH_KNOTS('',6,(#830,#831,#832,#833,#834,#835,
    #836,#837,#838,#839,#840,#841,#842,#843,#844,#845,#846,#847,#848,
    #849,#850,#851,#852,#853,#854,#855,#856,#857,#858,#859,#860,#861,
    #862,#863,#864,#865,#866,#867,#868,#869,#870,#871,#872,#873,#874,
    #875,#876,#877,#878,#879,#880,#881,#882,#883,#884,#885,#886,#887,
    #888,#889,#890,#891),.UNSPECIFIED.,.F.,.F.,(7,5,5,5,5,5,5,5,5,5,5,5,
    7),(0.,0.169807133695,0.308195018751,0.351127144577,0.402779736017,
    0.440821414149,0.500086235246,0.539275402514,0.597328516525,
    0.648773903854,0.691069657923,0.830240935175,1.),.UNSPECIFIED.);
#830 = CARTESIAN_POINT('',(41.4844,11.,10.489995233555));
#831 = CARTESIAN_POINT('',(41.4844,11.19310793958,10.28749873207));
#832 = CARTESIAN_POINT('',(41.463914070432,11.380395908924,
    10.082148390249));
#833 = CARTESIAN_POINT('',(41.425259328317,11.560577647152,
    9.875528397382));
#834 = CARTESIAN_POINT('',(41.370098669118,11.732989436071,9.6689691523)
  );
#835 = CARTESIAN_POINT('',(41.299544662438,11.897109204336,
    9.463809798395));
#836 = CARTESIAN_POINT('',(41.14465440332,12.178853539741,9.097177243221
    ));
#837 = CARTESIAN_POINT('',(41.065368879175,12.299306811033,8.93484642768
    ));
#838 = CARTESIAN_POINT('',(40.976465236974,12.413870045356,
    8.775153313239));
#839 = CARTESIAN_POINT('',(40.877658888932,12.522408279893,
    8.618817615296));
#840 = CARTESIAN_POINT('',(40.768478811368,12.624328310011,
    8.467343540902));
#841 = CARTESIAN_POINT('',(40.611242132238,12.747709048371,
    8.278813931048));
#842 = CARTESIAN_POINT('',(40.572946598642,12.776195205212,
    8.234876128768));
#843 = CARTESIAN_POINT('',(40.533553414427,12.803930273338,
    8.191703574827));
#844 = CARTESIAN_POINT('',(40.493031612144,12.830881152194,8.14937834374
    ));
#845 = CARTESIAN_POINT('',(40.451351158207,12.857005357294,
    8.108000715725));
#846 = CARTESIAN_POINT('',(40.356907265654,12.912624636431,8.0191894713)
  );
#847 = CARTESIAN_POINT('',(40.303599506256,12.941734309421,
    7.972220977464));
#848 = CARTESIAN_POINT('',(40.248509576108,12.969487504821,
    7.926993915068));
#849 = CARTESIAN_POINT('',(40.191592872742,12.995771807167,
    7.883760548512));
#850 = CARTESIAN_POINT('',(40.132810661755,13.020454799163,
    7.842815249871));
#851 = CARTESIAN_POINT('',(40.027440006941,13.060271051682,
    7.776271713378));
#852 = CARTESIAN_POINT('',(39.981706632362,13.076211884744,7.74946403652
    ));
#853 = CARTESIAN_POINT('',(39.934958340309,13.091128394162,7.72423416009
    ));
#854 = CARTESIAN_POINT('',(39.887223810131,13.104945084448,
    7.700743867571));
#855 = CARTESIAN_POINT('',(39.83853235531,13.11758780069,7.67915370309)
  );
#856 = CARTESIAN_POINT('',(39.71161369535,13.146734257113,7.629195194952
    ));
#857 = CARTESIAN_POINT('',(39.631879958971,13.161499063278,
    7.603692362264));
#858 = CARTESIAN_POINT('',(39.550291748794,13.172859240833,
    7.583952910455));
#859 = CARTESIAN_POINT('',(39.4674160162,13.180541459435,7.570559685851)
  );
#860 = CARTESIAN_POINT('',(39.383806062188,13.1844,7.563834784023));
#861 = CARTESIAN_POINT('',(39.244582811042,13.1844,7.563834784023));
#862 = CARTESIAN_POINT('',(39.189193832078,13.182712892059,
    7.566775461083));
#863 = CARTESIAN_POINT('',(39.134017489841,13.179341987656,7.57265149811
    ));
#864 = CARTESIAN_POINT('',(39.079240819016,13.174317978756,
    7.581397091685));
#865 = CARTESIAN_POINT('',(39.025053164905,13.16770059626,7.592886426486
    ));
#866 = CARTESIAN_POINT('',(38.892530685088,13.147551170898,
    7.627743830954));
#867 = CARTESIAN_POINT('',(38.815239693814,13.132241008518,
    7.654138462142));
#868 = CARTESIAN_POINT('',(38.739949528243,13.113895144018,
    7.685601366224));
#869 = CARTESIAN_POINT('',(38.666838401329,13.092772924137,7.72156497844
    ));
#870 = CARTESIAN_POINT('',(38.59608536485,13.06916054891,7.761415001716)
  );
#871 = CARTESIAN_POINT('',(38.467418204021,13.020541280333,
    7.842670716859));
#872 = CARTESIAN_POINT('',(38.408850484438,12.9959579421,7.883451774505)
  );
#873 = CARTESIAN_POINT('',(38.352134315357,12.9697847551,7.926504973868)
  );
#874 = CARTESIAN_POINT('',(38.297231478326,12.942152739219,
    7.971539064834));
#875 = CARTESIAN_POINT('',(38.244097970719,12.913173226265,
    8.018304254628));
#876 = CARTESIAN_POINT('',(38.150414736261,12.858080115654,
    8.106291983969));
#877 = CARTESIAN_POINT('',(38.109299218962,12.832368372983,
    8.147028917014));
#878 = CARTESIAN_POINT('',(38.069309886409,12.805852482872,
    8.188689356419));
#879 = CARTESIAN_POINT('',(38.030417884403,12.778573265815,
    8.231176983524));
#880 = CARTESIAN_POINT('',(37.992593429115,12.750562632766,
    8.274412757875));
#881 = CARTESIAN_POINT('',(37.834758660423,12.627345529107,
    8.462857769451));
#882 = CARTESIAN_POINT('',(37.72468261158,12.524977203616,8.615116386709
    ));
#883 = CARTESIAN_POINT('',(37.625115027881,12.415904062803,
    8.772317382973));
#884 = CARTESIAN_POINT('',(37.535571874705,12.300734590679,
    8.932921836207));
#885 = CARTESIAN_POINT('',(37.455759113037,12.179605723203,
    9.096198430483));
#886 = CARTESIAN_POINT('',(37.300455337562,11.897109204336,
    9.463809798395));
#887 = CARTESIAN_POINT('',(37.229901330881,11.732989436071,9.6689691523)
  );
#888 = CARTESIAN_POINT('',(37.174740671683,11.560577647152,
    9.875528397382));
#889 = CARTESIAN_POINT('',(37.136085929568,11.380395908924,
    10.08214839025));
#890 = CARTESIAN_POINT('',(37.1156,11.19310793958,10.28749873207));
#891 = CARTESIAN_POINT('',(37.1156,11.,10.489995233555));
#892 = ORIENTED_EDGE('',*,*,#893,.T.);
#893 = EDGE_CURVE('',#827,#678,#894,.T.);
#894 = LINE('',#895,#896);
#895 = CARTESIAN_POINT('',(37.1156,11.,-1.));
#896 = VECTOR('',#897,1.);
#897 = DIRECTION('',(0.,0.,1.));
#898 = CYLINDRICAL_SURFACE('',#899,2.1844);
#899 = AXIS2_PLACEMENT_3D('',#900,#901,#902);
#900 = CARTESIAN_POINT('',(39.3,11.,-1.));
#901 = DIRECTION('',(0.,0.,1.));
#902 = DIRECTION('',(1.,0.,0.));
#903 = ADVANCED_FACE('',(#904),#916,.T.);
#904 = FACE_BOUND('',#905,.T.);
#905 = EDGE_LOOP('',(#906,#907,#914,#915));
#906 = ORIENTED_EDGE('',*,*,#774,.F.);
#907 = ORIENTED_EDGE('',*,*,#908,.F.);
#908 = EDGE_CURVE('',#827,#775,#909,.T.);
#909 = CIRCLE('',#910,15.2);
#910 = AXIS2_PLACEMENT_3D('',#911,#912,#913);
#911 = CARTESIAN_POINT('',(37.1156,0.,0.));
#912 = DIRECTION('',(1.,0.,-0.));
#913 = DIRECTION('',(0.,0.,1.));
#914 = ORIENTED_EDGE('',*,*,#893,.T.);
#915 = ORIENTED_EDGE('',*,*,#675,.F.);
#916 = PLANE('',#917);
#917 = AXIS2_PLACEMENT_3D('',#918,#919,#920);
#918 = CARTESIAN_POINT('',(37.1156,0.5,-1.));
#919 = DIRECTION('',(1.,0.,0.));
#920 = DIRECTION('',(0.,0.,1.));
#921 = ADVANCED_FACE('',(#922),#925,.F.);
#922 = FACE_BOUND('',#923,.F.);
#923 = EDGE_LOOP('',(#924));
#924 = ORIENTED_EDGE('',*,*,#619,.T.);
#925 = PLANE('',#926);
#926 = AXIS2_PLACEMENT_3D('',#927,#928,#929);
#927 = CARTESIAN_POINT('',(28.,17.,17.));
#928 = DIRECTION('',(-1.,0.,0.));
#929 = DIRECTION('',(0.,0.,-1.));
#930 = ADVANCED_FACE('',(#931),#934,.F.);
#931 = FACE_BOUND('',#932,.F.);
#932 = EDGE_LOOP('',(#933));
#933 = ORIENTED_EDGE('',*,*,#644,.T.);
#934 = PLANE('',#935);
#935 = AXIS2_PLACEMENT_3D('',#936,#937,#938);
#936 = CARTESIAN_POINT('',(28.,-14.5,17.));
#937 = DIRECTION('',(-1.,0.,0.));
#938 = DIRECTION('',(0.,0.,-1.));
#939 = ADVANCED_FACE('',(#940,#952),#960,.F.);
#940 = FACE_BOUND('',#941,.F.);
#941 = EDGE_LOOP('',(#942,#943,#944,#945,#946,#947,#948,#949,#950,#951)
  );
#942 = ORIENTED_EDGE('',*,*,#290,.T.);
#943 = ORIENTED_EDGE('',*,*,#357,.F.);
#944 = ORIENTED_EDGE('',*,*,#366,.F.);
#945 = ORIENTED_EDGE('',*,*,#585,.F.);
#946 = ORIENTED_EDGE('',*,*,#560,.T.);
#947 = ORIENTED_EDGE('',*,*,#536,.F.);
#948 = ORIENTED_EDGE('',*,*,#518,.F.);
#949 = ORIENTED_EDGE('',*,*,#257,.F.);
#950 = ORIENTED_EDGE('',*,*,#56,.T.);
#951 = ORIENTED_EDGE('',*,*,#47,.T.);
#952 = FACE_BOUND('',#953,.F.);
#953 = EDGE_LOOP('',(#954,#955,#956,#957,#958,#959));
#954 = ORIENTED_EDGE('',*,*,#782,.F.);
#955 = ORIENTED_EDGE('',*,*,#908,.F.);
#956 = ORIENTED_EDGE('',*,*,#826,.F.);
#957 = ORIENTED_EDGE('',*,*,#800,.T.);
#958 = ORIENTED_EDGE('',*,*,#756,.F.);
#959 = ORIENTED_EDGE('',*,*,#717,.F.);
#960 = CYLINDRICAL_SURFACE('',#961,15.2);
#961 = AXIS2_PLACEMENT_3D('',#962,#963,#964);
#962 = CARTESIAN_POINT('',(-39.,0.,0.));
#963 = DIRECTION('',(1.,0.,0.));
#964 = DIRECTION('',(0.,0.,1.));
#965 = ( GEOMETRIC_REPRESENTATION_CONTEXT(3) 
GLOBAL_UNCERTAINTY_ASSIGNED_CONTEXT((#969)) GLOBAL_UNIT_ASSIGNED_CONTEXT
((#966,#967,#968)) REPRESENTATION_CONTEXT('Context #1',
  '3D Context with UNIT and UNCERTAINTY') );
#966 = ( LENGTH_UNIT() NAMED_UNIT(*) SI_UNIT(.MILLI.,.METRE.) );
#967 = ( NAMED_UNIT(*) PLANE_ANGLE_UNIT() SI_UNIT($,.RADIAN.) );
#968 = ( NAMED_UNIT(*) SI_UNIT($,.STERADIAN.) SOLID_ANGLE_UNIT() );
#969 = UNCERTAINTY_MEASURE_WITH_UNIT(LENGTH_MEASURE(1.E-07),#966,
  'distance_accuracy_value','confusion accuracy');
#970 = PRODUCT_RELATED_PRODUCT_CATEGORY('part',$,(#7));
ENDSEC;
END-ISO-10303-21;
